%TF.GenerationSoftware,KiCad,Pcbnew,8.0.8*%
%TF.CreationDate,2025-02-27T16:48:53+01:00*%
%TF.ProjectId,nervous-ecg,6e657276-6f75-4732-9d65-63672e6b6963,1*%
%TF.SameCoordinates,Original*%
%TF.FileFunction,Soldermask,Top*%
%TF.FilePolarity,Negative*%
%FSLAX46Y46*%
G04 Gerber Fmt 4.6, Leading zero omitted, Abs format (unit mm)*
G04 Created by KiCad (PCBNEW 8.0.8) date 2025-02-27 16:48:53*
%MOMM*%
%LPD*%
G01*
G04 APERTURE LIST*
G04 Aperture macros list*
%AMRoundRect*
0 Rectangle with rounded corners*
0 $1 Rounding radius*
0 $2 $3 $4 $5 $6 $7 $8 $9 X,Y pos of 4 corners*
0 Add a 4 corners polygon primitive as box body*
4,1,4,$2,$3,$4,$5,$6,$7,$8,$9,$2,$3,0*
0 Add four circle primitives for the rounded corners*
1,1,$1+$1,$2,$3*
1,1,$1+$1,$4,$5*
1,1,$1+$1,$6,$7*
1,1,$1+$1,$8,$9*
0 Add four rect primitives between the rounded corners*
20,1,$1+$1,$2,$3,$4,$5,0*
20,1,$1+$1,$4,$5,$6,$7,0*
20,1,$1+$1,$6,$7,$8,$9,0*
20,1,$1+$1,$8,$9,$2,$3,0*%
G04 Aperture macros list end*
%ADD10C,0.100000*%
%ADD11C,0.150000*%
%ADD12C,0.300000*%
%ADD13C,0.400000*%
%ADD14C,0.010000*%
%ADD15RoundRect,0.105560X0.616440X0.271440X-0.616440X0.271440X-0.616440X-0.271440X0.616440X-0.271440X0*%
%ADD16RoundRect,0.102000X0.400000X-0.400000X0.400000X0.400000X-0.400000X0.400000X-0.400000X-0.400000X0*%
%ADD17RoundRect,0.102000X0.199999X-0.199999X0.199999X0.199999X-0.199999X0.199999X-0.199999X-0.199999X0*%
%ADD18RoundRect,0.140000X-0.170000X0.140000X-0.170000X-0.140000X0.170000X-0.140000X0.170000X0.140000X0*%
%ADD19R,1.050000X1.150000*%
%ADD20R,0.600000X1.100000*%
%ADD21RoundRect,0.140000X0.170000X-0.140000X0.170000X0.140000X-0.170000X0.140000X-0.170000X-0.140000X0*%
%ADD22RoundRect,0.135000X0.185000X-0.135000X0.185000X0.135000X-0.185000X0.135000X-0.185000X-0.135000X0*%
%ADD23RoundRect,0.135000X-0.135000X-0.185000X0.135000X-0.185000X0.135000X0.185000X-0.135000X0.185000X0*%
%ADD24RoundRect,0.011400X-0.178600X0.358600X-0.178600X-0.358600X0.178600X-0.358600X0.178600X0.358600X0*%
%ADD25RoundRect,0.011400X-0.358600X-0.178600X0.358600X-0.178600X0.358600X0.178600X-0.358600X0.178600X0*%
%ADD26RoundRect,0.070000X-0.840000X0.840000X-0.840000X-0.840000X0.840000X-0.840000X0.840000X0.840000X0*%
%ADD27RoundRect,0.140000X-0.140000X-0.170000X0.140000X-0.170000X0.140000X0.170000X-0.140000X0.170000X0*%
%ADD28RoundRect,0.135000X-0.185000X0.135000X-0.185000X-0.135000X0.185000X-0.135000X0.185000X0.135000X0*%
%ADD29RoundRect,0.140000X0.140000X0.170000X-0.140000X0.170000X-0.140000X-0.170000X0.140000X-0.170000X0*%
%ADD30R,0.850000X0.850000*%
%ADD31RoundRect,0.135000X0.135000X0.185000X-0.135000X0.185000X-0.135000X-0.185000X0.135000X-0.185000X0*%
%ADD32O,2.236000X1.220000*%
%ADD33R,1.700000X1.700000*%
%ADD34O,1.700000X1.700000*%
%ADD35RoundRect,0.225000X0.225000X0.375000X-0.225000X0.375000X-0.225000X-0.375000X0.225000X-0.375000X0*%
%ADD36RoundRect,0.076200X-0.150000X-0.350000X0.150000X-0.350000X0.150000X0.350000X-0.150000X0.350000X0*%
%ADD37RoundRect,0.076200X-0.500000X-0.350000X0.500000X-0.350000X0.500000X0.350000X-0.500000X0.350000X0*%
%ADD38O,1.252400X2.352400*%
%ADD39O,1.452400X2.752400*%
%ADD40C,2.000000*%
%ADD41RoundRect,0.200000X-0.200000X-0.275000X0.200000X-0.275000X0.200000X0.275000X-0.200000X0.275000X0*%
%ADD42C,0.991000*%
%ADD43C,0.787000*%
%ADD44RoundRect,0.102000X0.200000X-0.250000X0.200000X0.250000X-0.200000X0.250000X-0.200000X-0.250000X0*%
%ADD45RoundRect,0.102000X-0.365500X0.119500X-0.365500X-0.119500X0.365500X-0.119500X0.365500X0.119500X0*%
%ADD46RoundRect,0.102000X0.119500X0.365500X-0.119500X0.365500X-0.119500X-0.365500X0.119500X-0.365500X0*%
%ADD47R,2.750000X2.750000*%
%ADD48RoundRect,0.119100X-0.587900X-0.277900X0.587900X-0.277900X0.587900X0.277900X-0.587900X0.277900X0*%
%ADD49RoundRect,0.250000X-0.375000X-1.075000X0.375000X-1.075000X0.375000X1.075000X-0.375000X1.075000X0*%
%TA.AperFunction,Profile*%
%ADD50C,0.254000*%
%TD*%
G04 APERTURE END LIST*
D10*
D11*
X30012000Y-75990000D02*
X138012000Y-75990000D01*
X138012000Y-107990000D01*
X30012000Y-107990000D01*
X30012000Y-75990000D01*
D10*
D11*
X10000000Y-10000000D02*
X140012000Y-10000000D01*
X140012000Y-109990000D01*
X10000000Y-109990000D01*
X10000000Y-10000000D01*
D10*
D11*
X12000000Y-12000000D02*
X138012000Y-12000000D01*
X138012000Y-107990000D01*
X12000000Y-107990000D01*
X12000000Y-12000000D01*
D10*
D11*
X60000000Y-12000000D02*
X60000000Y-10000000D01*
D10*
D11*
X110000000Y-12000000D02*
X110000000Y-10000000D01*
D10*
D11*
X36089160Y-11593604D02*
X35346303Y-11593604D01*
X35717731Y-11593604D02*
X35717731Y-10293604D01*
X35717731Y-10293604D02*
X35593922Y-10479319D01*
X35593922Y-10479319D02*
X35470112Y-10603128D01*
X35470112Y-10603128D02*
X35346303Y-10665033D01*
D10*
D11*
X85346303Y-10417414D02*
X85408207Y-10355509D01*
X85408207Y-10355509D02*
X85532017Y-10293604D01*
X85532017Y-10293604D02*
X85841541Y-10293604D01*
X85841541Y-10293604D02*
X85965350Y-10355509D01*
X85965350Y-10355509D02*
X86027255Y-10417414D01*
X86027255Y-10417414D02*
X86089160Y-10541223D01*
X86089160Y-10541223D02*
X86089160Y-10665033D01*
X86089160Y-10665033D02*
X86027255Y-10850747D01*
X86027255Y-10850747D02*
X85284398Y-11593604D01*
X85284398Y-11593604D02*
X86089160Y-11593604D01*
D10*
D11*
X135284398Y-10293604D02*
X136089160Y-10293604D01*
X136089160Y-10293604D02*
X135655826Y-10788842D01*
X135655826Y-10788842D02*
X135841541Y-10788842D01*
X135841541Y-10788842D02*
X135965350Y-10850747D01*
X135965350Y-10850747D02*
X136027255Y-10912652D01*
X136027255Y-10912652D02*
X136089160Y-11036461D01*
X136089160Y-11036461D02*
X136089160Y-11345985D01*
X136089160Y-11345985D02*
X136027255Y-11469795D01*
X136027255Y-11469795D02*
X135965350Y-11531700D01*
X135965350Y-11531700D02*
X135841541Y-11593604D01*
X135841541Y-11593604D02*
X135470112Y-11593604D01*
X135470112Y-11593604D02*
X135346303Y-11531700D01*
X135346303Y-11531700D02*
X135284398Y-11469795D01*
D10*
D11*
X60000000Y-107990000D02*
X60000000Y-109990000D01*
D10*
D11*
X110000000Y-107990000D02*
X110000000Y-109990000D01*
D10*
D11*
X36089160Y-109583604D02*
X35346303Y-109583604D01*
X35717731Y-109583604D02*
X35717731Y-108283604D01*
X35717731Y-108283604D02*
X35593922Y-108469319D01*
X35593922Y-108469319D02*
X35470112Y-108593128D01*
X35470112Y-108593128D02*
X35346303Y-108655033D01*
D10*
D11*
X85346303Y-108407414D02*
X85408207Y-108345509D01*
X85408207Y-108345509D02*
X85532017Y-108283604D01*
X85532017Y-108283604D02*
X85841541Y-108283604D01*
X85841541Y-108283604D02*
X85965350Y-108345509D01*
X85965350Y-108345509D02*
X86027255Y-108407414D01*
X86027255Y-108407414D02*
X86089160Y-108531223D01*
X86089160Y-108531223D02*
X86089160Y-108655033D01*
X86089160Y-108655033D02*
X86027255Y-108840747D01*
X86027255Y-108840747D02*
X85284398Y-109583604D01*
X85284398Y-109583604D02*
X86089160Y-109583604D01*
D10*
D11*
X135284398Y-108283604D02*
X136089160Y-108283604D01*
X136089160Y-108283604D02*
X135655826Y-108778842D01*
X135655826Y-108778842D02*
X135841541Y-108778842D01*
X135841541Y-108778842D02*
X135965350Y-108840747D01*
X135965350Y-108840747D02*
X136027255Y-108902652D01*
X136027255Y-108902652D02*
X136089160Y-109026461D01*
X136089160Y-109026461D02*
X136089160Y-109335985D01*
X136089160Y-109335985D02*
X136027255Y-109459795D01*
X136027255Y-109459795D02*
X135965350Y-109521700D01*
X135965350Y-109521700D02*
X135841541Y-109583604D01*
X135841541Y-109583604D02*
X135470112Y-109583604D01*
X135470112Y-109583604D02*
X135346303Y-109521700D01*
X135346303Y-109521700D02*
X135284398Y-109459795D01*
D10*
D11*
X10000000Y-60000000D02*
X12000000Y-60000000D01*
D10*
D11*
X10690476Y-35222176D02*
X11309523Y-35222176D01*
X10566666Y-35593604D02*
X10999999Y-34293604D01*
X10999999Y-34293604D02*
X11433333Y-35593604D01*
D10*
D11*
X11092857Y-84912652D02*
X11278571Y-84974557D01*
X11278571Y-84974557D02*
X11340476Y-85036461D01*
X11340476Y-85036461D02*
X11402380Y-85160271D01*
X11402380Y-85160271D02*
X11402380Y-85345985D01*
X11402380Y-85345985D02*
X11340476Y-85469795D01*
X11340476Y-85469795D02*
X11278571Y-85531700D01*
X11278571Y-85531700D02*
X11154761Y-85593604D01*
X11154761Y-85593604D02*
X10659523Y-85593604D01*
X10659523Y-85593604D02*
X10659523Y-84293604D01*
X10659523Y-84293604D02*
X11092857Y-84293604D01*
X11092857Y-84293604D02*
X11216666Y-84355509D01*
X11216666Y-84355509D02*
X11278571Y-84417414D01*
X11278571Y-84417414D02*
X11340476Y-84541223D01*
X11340476Y-84541223D02*
X11340476Y-84665033D01*
X11340476Y-84665033D02*
X11278571Y-84788842D01*
X11278571Y-84788842D02*
X11216666Y-84850747D01*
X11216666Y-84850747D02*
X11092857Y-84912652D01*
X11092857Y-84912652D02*
X10659523Y-84912652D01*
D10*
D11*
X140012000Y-60000000D02*
X138012000Y-60000000D01*
D10*
D11*
X138702476Y-35222176D02*
X139321523Y-35222176D01*
X138578666Y-35593604D02*
X139011999Y-34293604D01*
X139011999Y-34293604D02*
X139445333Y-35593604D01*
D10*
D11*
X139104857Y-84912652D02*
X139290571Y-84974557D01*
X139290571Y-84974557D02*
X139352476Y-85036461D01*
X139352476Y-85036461D02*
X139414380Y-85160271D01*
X139414380Y-85160271D02*
X139414380Y-85345985D01*
X139414380Y-85345985D02*
X139352476Y-85469795D01*
X139352476Y-85469795D02*
X139290571Y-85531700D01*
X139290571Y-85531700D02*
X139166761Y-85593604D01*
X139166761Y-85593604D02*
X138671523Y-85593604D01*
X138671523Y-85593604D02*
X138671523Y-84293604D01*
X138671523Y-84293604D02*
X139104857Y-84293604D01*
X139104857Y-84293604D02*
X139228666Y-84355509D01*
X139228666Y-84355509D02*
X139290571Y-84417414D01*
X139290571Y-84417414D02*
X139352476Y-84541223D01*
X139352476Y-84541223D02*
X139352476Y-84665033D01*
X139352476Y-84665033D02*
X139290571Y-84788842D01*
X139290571Y-84788842D02*
X139228666Y-84850747D01*
X139228666Y-84850747D02*
X139104857Y-84912652D01*
X139104857Y-84912652D02*
X138671523Y-84912652D01*
D10*
D11*
X53467826Y-103776128D02*
X53467826Y-102276128D01*
X53467826Y-102276128D02*
X53824969Y-102276128D01*
X53824969Y-102276128D02*
X54039255Y-102347557D01*
X54039255Y-102347557D02*
X54182112Y-102490414D01*
X54182112Y-102490414D02*
X54253541Y-102633271D01*
X54253541Y-102633271D02*
X54324969Y-102918985D01*
X54324969Y-102918985D02*
X54324969Y-103133271D01*
X54324969Y-103133271D02*
X54253541Y-103418985D01*
X54253541Y-103418985D02*
X54182112Y-103561842D01*
X54182112Y-103561842D02*
X54039255Y-103704700D01*
X54039255Y-103704700D02*
X53824969Y-103776128D01*
X53824969Y-103776128D02*
X53467826Y-103776128D01*
X55610684Y-103776128D02*
X55610684Y-102990414D01*
X55610684Y-102990414D02*
X55539255Y-102847557D01*
X55539255Y-102847557D02*
X55396398Y-102776128D01*
X55396398Y-102776128D02*
X55110684Y-102776128D01*
X55110684Y-102776128D02*
X54967826Y-102847557D01*
X55610684Y-103704700D02*
X55467826Y-103776128D01*
X55467826Y-103776128D02*
X55110684Y-103776128D01*
X55110684Y-103776128D02*
X54967826Y-103704700D01*
X54967826Y-103704700D02*
X54896398Y-103561842D01*
X54896398Y-103561842D02*
X54896398Y-103418985D01*
X54896398Y-103418985D02*
X54967826Y-103276128D01*
X54967826Y-103276128D02*
X55110684Y-103204700D01*
X55110684Y-103204700D02*
X55467826Y-103204700D01*
X55467826Y-103204700D02*
X55610684Y-103133271D01*
X56110684Y-102776128D02*
X56682112Y-102776128D01*
X56324969Y-102276128D02*
X56324969Y-103561842D01*
X56324969Y-103561842D02*
X56396398Y-103704700D01*
X56396398Y-103704700D02*
X56539255Y-103776128D01*
X56539255Y-103776128D02*
X56682112Y-103776128D01*
X57753541Y-103704700D02*
X57610684Y-103776128D01*
X57610684Y-103776128D02*
X57324970Y-103776128D01*
X57324970Y-103776128D02*
X57182112Y-103704700D01*
X57182112Y-103704700D02*
X57110684Y-103561842D01*
X57110684Y-103561842D02*
X57110684Y-102990414D01*
X57110684Y-102990414D02*
X57182112Y-102847557D01*
X57182112Y-102847557D02*
X57324970Y-102776128D01*
X57324970Y-102776128D02*
X57610684Y-102776128D01*
X57610684Y-102776128D02*
X57753541Y-102847557D01*
X57753541Y-102847557D02*
X57824970Y-102990414D01*
X57824970Y-102990414D02*
X57824970Y-103133271D01*
X57824970Y-103133271D02*
X57110684Y-103276128D01*
X58467826Y-103633271D02*
X58539255Y-103704700D01*
X58539255Y-103704700D02*
X58467826Y-103776128D01*
X58467826Y-103776128D02*
X58396398Y-103704700D01*
X58396398Y-103704700D02*
X58467826Y-103633271D01*
X58467826Y-103633271D02*
X58467826Y-103776128D01*
X58467826Y-102847557D02*
X58539255Y-102918985D01*
X58539255Y-102918985D02*
X58467826Y-102990414D01*
X58467826Y-102990414D02*
X58396398Y-102918985D01*
X58396398Y-102918985D02*
X58467826Y-102847557D01*
X58467826Y-102847557D02*
X58467826Y-102990414D01*
X60253541Y-102418985D02*
X60324969Y-102347557D01*
X60324969Y-102347557D02*
X60467827Y-102276128D01*
X60467827Y-102276128D02*
X60824969Y-102276128D01*
X60824969Y-102276128D02*
X60967827Y-102347557D01*
X60967827Y-102347557D02*
X61039255Y-102418985D01*
X61039255Y-102418985D02*
X61110684Y-102561842D01*
X61110684Y-102561842D02*
X61110684Y-102704700D01*
X61110684Y-102704700D02*
X61039255Y-102918985D01*
X61039255Y-102918985D02*
X60182112Y-103776128D01*
X60182112Y-103776128D02*
X61110684Y-103776128D01*
X62039255Y-102276128D02*
X62182112Y-102276128D01*
X62182112Y-102276128D02*
X62324969Y-102347557D01*
X62324969Y-102347557D02*
X62396398Y-102418985D01*
X62396398Y-102418985D02*
X62467826Y-102561842D01*
X62467826Y-102561842D02*
X62539255Y-102847557D01*
X62539255Y-102847557D02*
X62539255Y-103204700D01*
X62539255Y-103204700D02*
X62467826Y-103490414D01*
X62467826Y-103490414D02*
X62396398Y-103633271D01*
X62396398Y-103633271D02*
X62324969Y-103704700D01*
X62324969Y-103704700D02*
X62182112Y-103776128D01*
X62182112Y-103776128D02*
X62039255Y-103776128D01*
X62039255Y-103776128D02*
X61896398Y-103704700D01*
X61896398Y-103704700D02*
X61824969Y-103633271D01*
X61824969Y-103633271D02*
X61753540Y-103490414D01*
X61753540Y-103490414D02*
X61682112Y-103204700D01*
X61682112Y-103204700D02*
X61682112Y-102847557D01*
X61682112Y-102847557D02*
X61753540Y-102561842D01*
X61753540Y-102561842D02*
X61824969Y-102418985D01*
X61824969Y-102418985D02*
X61896398Y-102347557D01*
X61896398Y-102347557D02*
X62039255Y-102276128D01*
X63110683Y-102418985D02*
X63182111Y-102347557D01*
X63182111Y-102347557D02*
X63324969Y-102276128D01*
X63324969Y-102276128D02*
X63682111Y-102276128D01*
X63682111Y-102276128D02*
X63824969Y-102347557D01*
X63824969Y-102347557D02*
X63896397Y-102418985D01*
X63896397Y-102418985D02*
X63967826Y-102561842D01*
X63967826Y-102561842D02*
X63967826Y-102704700D01*
X63967826Y-102704700D02*
X63896397Y-102918985D01*
X63896397Y-102918985D02*
X63039254Y-103776128D01*
X63039254Y-103776128D02*
X63967826Y-103776128D01*
X65253540Y-102776128D02*
X65253540Y-103776128D01*
X64896397Y-102204700D02*
X64539254Y-103276128D01*
X64539254Y-103276128D02*
X65467825Y-103276128D01*
X66039253Y-103204700D02*
X67182111Y-103204700D01*
X68182111Y-102276128D02*
X68324968Y-102276128D01*
X68324968Y-102276128D02*
X68467825Y-102347557D01*
X68467825Y-102347557D02*
X68539254Y-102418985D01*
X68539254Y-102418985D02*
X68610682Y-102561842D01*
X68610682Y-102561842D02*
X68682111Y-102847557D01*
X68682111Y-102847557D02*
X68682111Y-103204700D01*
X68682111Y-103204700D02*
X68610682Y-103490414D01*
X68610682Y-103490414D02*
X68539254Y-103633271D01*
X68539254Y-103633271D02*
X68467825Y-103704700D01*
X68467825Y-103704700D02*
X68324968Y-103776128D01*
X68324968Y-103776128D02*
X68182111Y-103776128D01*
X68182111Y-103776128D02*
X68039254Y-103704700D01*
X68039254Y-103704700D02*
X67967825Y-103633271D01*
X67967825Y-103633271D02*
X67896396Y-103490414D01*
X67896396Y-103490414D02*
X67824968Y-103204700D01*
X67824968Y-103204700D02*
X67824968Y-102847557D01*
X67824968Y-102847557D02*
X67896396Y-102561842D01*
X67896396Y-102561842D02*
X67967825Y-102418985D01*
X67967825Y-102418985D02*
X68039254Y-102347557D01*
X68039254Y-102347557D02*
X68182111Y-102276128D01*
X70039253Y-102276128D02*
X69324967Y-102276128D01*
X69324967Y-102276128D02*
X69253539Y-102990414D01*
X69253539Y-102990414D02*
X69324967Y-102918985D01*
X69324967Y-102918985D02*
X69467825Y-102847557D01*
X69467825Y-102847557D02*
X69824967Y-102847557D01*
X69824967Y-102847557D02*
X69967825Y-102918985D01*
X69967825Y-102918985D02*
X70039253Y-102990414D01*
X70039253Y-102990414D02*
X70110682Y-103133271D01*
X70110682Y-103133271D02*
X70110682Y-103490414D01*
X70110682Y-103490414D02*
X70039253Y-103633271D01*
X70039253Y-103633271D02*
X69967825Y-103704700D01*
X69967825Y-103704700D02*
X69824967Y-103776128D01*
X69824967Y-103776128D02*
X69467825Y-103776128D01*
X69467825Y-103776128D02*
X69324967Y-103704700D01*
X69324967Y-103704700D02*
X69253539Y-103633271D01*
X70753538Y-103204700D02*
X71896396Y-103204700D01*
X72896396Y-102276128D02*
X73039253Y-102276128D01*
X73039253Y-102276128D02*
X73182110Y-102347557D01*
X73182110Y-102347557D02*
X73253539Y-102418985D01*
X73253539Y-102418985D02*
X73324967Y-102561842D01*
X73324967Y-102561842D02*
X73396396Y-102847557D01*
X73396396Y-102847557D02*
X73396396Y-103204700D01*
X73396396Y-103204700D02*
X73324967Y-103490414D01*
X73324967Y-103490414D02*
X73253539Y-103633271D01*
X73253539Y-103633271D02*
X73182110Y-103704700D01*
X73182110Y-103704700D02*
X73039253Y-103776128D01*
X73039253Y-103776128D02*
X72896396Y-103776128D01*
X72896396Y-103776128D02*
X72753539Y-103704700D01*
X72753539Y-103704700D02*
X72682110Y-103633271D01*
X72682110Y-103633271D02*
X72610681Y-103490414D01*
X72610681Y-103490414D02*
X72539253Y-103204700D01*
X72539253Y-103204700D02*
X72539253Y-102847557D01*
X72539253Y-102847557D02*
X72610681Y-102561842D01*
X72610681Y-102561842D02*
X72682110Y-102418985D01*
X72682110Y-102418985D02*
X72753539Y-102347557D01*
X72753539Y-102347557D02*
X72896396Y-102276128D01*
X73967824Y-102418985D02*
X74039252Y-102347557D01*
X74039252Y-102347557D02*
X74182110Y-102276128D01*
X74182110Y-102276128D02*
X74539252Y-102276128D01*
X74539252Y-102276128D02*
X74682110Y-102347557D01*
X74682110Y-102347557D02*
X74753538Y-102418985D01*
X74753538Y-102418985D02*
X74824967Y-102561842D01*
X74824967Y-102561842D02*
X74824967Y-102704700D01*
X74824967Y-102704700D02*
X74753538Y-102918985D01*
X74753538Y-102918985D02*
X73896395Y-103776128D01*
X73896395Y-103776128D02*
X74824967Y-103776128D01*
D10*
D11*
X30012000Y-104490000D02*
X138012000Y-104490000D01*
D10*
D11*
X31467826Y-106576128D02*
X31467826Y-105076128D01*
X32324969Y-106576128D02*
X31682112Y-105718985D01*
X32324969Y-105076128D02*
X31467826Y-105933271D01*
X32967826Y-106576128D02*
X32967826Y-105576128D01*
X32967826Y-105076128D02*
X32896398Y-105147557D01*
X32896398Y-105147557D02*
X32967826Y-105218985D01*
X32967826Y-105218985D02*
X33039255Y-105147557D01*
X33039255Y-105147557D02*
X32967826Y-105076128D01*
X32967826Y-105076128D02*
X32967826Y-105218985D01*
X34539255Y-106433271D02*
X34467827Y-106504700D01*
X34467827Y-106504700D02*
X34253541Y-106576128D01*
X34253541Y-106576128D02*
X34110684Y-106576128D01*
X34110684Y-106576128D02*
X33896398Y-106504700D01*
X33896398Y-106504700D02*
X33753541Y-106361842D01*
X33753541Y-106361842D02*
X33682112Y-106218985D01*
X33682112Y-106218985D02*
X33610684Y-105933271D01*
X33610684Y-105933271D02*
X33610684Y-105718985D01*
X33610684Y-105718985D02*
X33682112Y-105433271D01*
X33682112Y-105433271D02*
X33753541Y-105290414D01*
X33753541Y-105290414D02*
X33896398Y-105147557D01*
X33896398Y-105147557D02*
X34110684Y-105076128D01*
X34110684Y-105076128D02*
X34253541Y-105076128D01*
X34253541Y-105076128D02*
X34467827Y-105147557D01*
X34467827Y-105147557D02*
X34539255Y-105218985D01*
X35824970Y-106576128D02*
X35824970Y-105790414D01*
X35824970Y-105790414D02*
X35753541Y-105647557D01*
X35753541Y-105647557D02*
X35610684Y-105576128D01*
X35610684Y-105576128D02*
X35324970Y-105576128D01*
X35324970Y-105576128D02*
X35182112Y-105647557D01*
X35824970Y-106504700D02*
X35682112Y-106576128D01*
X35682112Y-106576128D02*
X35324970Y-106576128D01*
X35324970Y-106576128D02*
X35182112Y-106504700D01*
X35182112Y-106504700D02*
X35110684Y-106361842D01*
X35110684Y-106361842D02*
X35110684Y-106218985D01*
X35110684Y-106218985D02*
X35182112Y-106076128D01*
X35182112Y-106076128D02*
X35324970Y-106004700D01*
X35324970Y-106004700D02*
X35682112Y-106004700D01*
X35682112Y-106004700D02*
X35824970Y-105933271D01*
X37182113Y-106576128D02*
X37182113Y-105076128D01*
X37182113Y-106504700D02*
X37039255Y-106576128D01*
X37039255Y-106576128D02*
X36753541Y-106576128D01*
X36753541Y-106576128D02*
X36610684Y-106504700D01*
X36610684Y-106504700D02*
X36539255Y-106433271D01*
X36539255Y-106433271D02*
X36467827Y-106290414D01*
X36467827Y-106290414D02*
X36467827Y-105861842D01*
X36467827Y-105861842D02*
X36539255Y-105718985D01*
X36539255Y-105718985D02*
X36610684Y-105647557D01*
X36610684Y-105647557D02*
X36753541Y-105576128D01*
X36753541Y-105576128D02*
X37039255Y-105576128D01*
X37039255Y-105576128D02*
X37182113Y-105647557D01*
X39039255Y-105790414D02*
X39539255Y-105790414D01*
X39753541Y-106576128D02*
X39039255Y-106576128D01*
X39039255Y-106576128D02*
X39039255Y-105076128D01*
X39039255Y-105076128D02*
X39753541Y-105076128D01*
X40396398Y-106433271D02*
X40467827Y-106504700D01*
X40467827Y-106504700D02*
X40396398Y-106576128D01*
X40396398Y-106576128D02*
X40324970Y-106504700D01*
X40324970Y-106504700D02*
X40396398Y-106433271D01*
X40396398Y-106433271D02*
X40396398Y-106576128D01*
X41110684Y-106576128D02*
X41110684Y-105076128D01*
X41110684Y-105076128D02*
X41467827Y-105076128D01*
X41467827Y-105076128D02*
X41682113Y-105147557D01*
X41682113Y-105147557D02*
X41824970Y-105290414D01*
X41824970Y-105290414D02*
X41896399Y-105433271D01*
X41896399Y-105433271D02*
X41967827Y-105718985D01*
X41967827Y-105718985D02*
X41967827Y-105933271D01*
X41967827Y-105933271D02*
X41896399Y-106218985D01*
X41896399Y-106218985D02*
X41824970Y-106361842D01*
X41824970Y-106361842D02*
X41682113Y-106504700D01*
X41682113Y-106504700D02*
X41467827Y-106576128D01*
X41467827Y-106576128D02*
X41110684Y-106576128D01*
X42610684Y-106433271D02*
X42682113Y-106504700D01*
X42682113Y-106504700D02*
X42610684Y-106576128D01*
X42610684Y-106576128D02*
X42539256Y-106504700D01*
X42539256Y-106504700D02*
X42610684Y-106433271D01*
X42610684Y-106433271D02*
X42610684Y-106576128D01*
X43253542Y-106147557D02*
X43967828Y-106147557D01*
X43110685Y-106576128D02*
X43610685Y-105076128D01*
X43610685Y-105076128D02*
X44110685Y-106576128D01*
X44610684Y-106433271D02*
X44682113Y-106504700D01*
X44682113Y-106504700D02*
X44610684Y-106576128D01*
X44610684Y-106576128D02*
X44539256Y-106504700D01*
X44539256Y-106504700D02*
X44610684Y-106433271D01*
X44610684Y-106433271D02*
X44610684Y-106576128D01*
X46682113Y-105718985D02*
X46539256Y-105647557D01*
X46539256Y-105647557D02*
X46467827Y-105576128D01*
X46467827Y-105576128D02*
X46396399Y-105433271D01*
X46396399Y-105433271D02*
X46396399Y-105361842D01*
X46396399Y-105361842D02*
X46467827Y-105218985D01*
X46467827Y-105218985D02*
X46539256Y-105147557D01*
X46539256Y-105147557D02*
X46682113Y-105076128D01*
X46682113Y-105076128D02*
X46967827Y-105076128D01*
X46967827Y-105076128D02*
X47110685Y-105147557D01*
X47110685Y-105147557D02*
X47182113Y-105218985D01*
X47182113Y-105218985D02*
X47253542Y-105361842D01*
X47253542Y-105361842D02*
X47253542Y-105433271D01*
X47253542Y-105433271D02*
X47182113Y-105576128D01*
X47182113Y-105576128D02*
X47110685Y-105647557D01*
X47110685Y-105647557D02*
X46967827Y-105718985D01*
X46967827Y-105718985D02*
X46682113Y-105718985D01*
X46682113Y-105718985D02*
X46539256Y-105790414D01*
X46539256Y-105790414D02*
X46467827Y-105861842D01*
X46467827Y-105861842D02*
X46396399Y-106004700D01*
X46396399Y-106004700D02*
X46396399Y-106290414D01*
X46396399Y-106290414D02*
X46467827Y-106433271D01*
X46467827Y-106433271D02*
X46539256Y-106504700D01*
X46539256Y-106504700D02*
X46682113Y-106576128D01*
X46682113Y-106576128D02*
X46967827Y-106576128D01*
X46967827Y-106576128D02*
X47110685Y-106504700D01*
X47110685Y-106504700D02*
X47182113Y-106433271D01*
X47182113Y-106433271D02*
X47253542Y-106290414D01*
X47253542Y-106290414D02*
X47253542Y-106004700D01*
X47253542Y-106004700D02*
X47182113Y-105861842D01*
X47182113Y-105861842D02*
X47110685Y-105790414D01*
X47110685Y-105790414D02*
X46967827Y-105718985D01*
X47896398Y-106433271D02*
X47967827Y-106504700D01*
X47967827Y-106504700D02*
X47896398Y-106576128D01*
X47896398Y-106576128D02*
X47824970Y-106504700D01*
X47824970Y-106504700D02*
X47896398Y-106433271D01*
X47896398Y-106433271D02*
X47896398Y-106576128D01*
X48896399Y-105076128D02*
X49039256Y-105076128D01*
X49039256Y-105076128D02*
X49182113Y-105147557D01*
X49182113Y-105147557D02*
X49253542Y-105218985D01*
X49253542Y-105218985D02*
X49324970Y-105361842D01*
X49324970Y-105361842D02*
X49396399Y-105647557D01*
X49396399Y-105647557D02*
X49396399Y-106004700D01*
X49396399Y-106004700D02*
X49324970Y-106290414D01*
X49324970Y-106290414D02*
X49253542Y-106433271D01*
X49253542Y-106433271D02*
X49182113Y-106504700D01*
X49182113Y-106504700D02*
X49039256Y-106576128D01*
X49039256Y-106576128D02*
X48896399Y-106576128D01*
X48896399Y-106576128D02*
X48753542Y-106504700D01*
X48753542Y-106504700D02*
X48682113Y-106433271D01*
X48682113Y-106433271D02*
X48610684Y-106290414D01*
X48610684Y-106290414D02*
X48539256Y-106004700D01*
X48539256Y-106004700D02*
X48539256Y-105647557D01*
X48539256Y-105647557D02*
X48610684Y-105361842D01*
X48610684Y-105361842D02*
X48682113Y-105218985D01*
X48682113Y-105218985D02*
X48753542Y-105147557D01*
X48753542Y-105147557D02*
X48896399Y-105076128D01*
X50039255Y-106433271D02*
X50110684Y-106504700D01*
X50110684Y-106504700D02*
X50039255Y-106576128D01*
X50039255Y-106576128D02*
X49967827Y-106504700D01*
X49967827Y-106504700D02*
X50039255Y-106433271D01*
X50039255Y-106433271D02*
X50039255Y-106576128D01*
X50967827Y-105718985D02*
X50824970Y-105647557D01*
X50824970Y-105647557D02*
X50753541Y-105576128D01*
X50753541Y-105576128D02*
X50682113Y-105433271D01*
X50682113Y-105433271D02*
X50682113Y-105361842D01*
X50682113Y-105361842D02*
X50753541Y-105218985D01*
X50753541Y-105218985D02*
X50824970Y-105147557D01*
X50824970Y-105147557D02*
X50967827Y-105076128D01*
X50967827Y-105076128D02*
X51253541Y-105076128D01*
X51253541Y-105076128D02*
X51396399Y-105147557D01*
X51396399Y-105147557D02*
X51467827Y-105218985D01*
X51467827Y-105218985D02*
X51539256Y-105361842D01*
X51539256Y-105361842D02*
X51539256Y-105433271D01*
X51539256Y-105433271D02*
X51467827Y-105576128D01*
X51467827Y-105576128D02*
X51396399Y-105647557D01*
X51396399Y-105647557D02*
X51253541Y-105718985D01*
X51253541Y-105718985D02*
X50967827Y-105718985D01*
X50967827Y-105718985D02*
X50824970Y-105790414D01*
X50824970Y-105790414D02*
X50753541Y-105861842D01*
X50753541Y-105861842D02*
X50682113Y-106004700D01*
X50682113Y-106004700D02*
X50682113Y-106290414D01*
X50682113Y-106290414D02*
X50753541Y-106433271D01*
X50753541Y-106433271D02*
X50824970Y-106504700D01*
X50824970Y-106504700D02*
X50967827Y-106576128D01*
X50967827Y-106576128D02*
X51253541Y-106576128D01*
X51253541Y-106576128D02*
X51396399Y-106504700D01*
X51396399Y-106504700D02*
X51467827Y-106433271D01*
X51467827Y-106433271D02*
X51539256Y-106290414D01*
X51539256Y-106290414D02*
X51539256Y-106004700D01*
X51539256Y-106004700D02*
X51467827Y-105861842D01*
X51467827Y-105861842D02*
X51396399Y-105790414D01*
X51396399Y-105790414D02*
X51253541Y-105718985D01*
D10*
D11*
X30012000Y-101490000D02*
X138012000Y-101490000D01*
D10*
D12*
X117423653Y-103768328D02*
X116923653Y-103054042D01*
X116566510Y-103768328D02*
X116566510Y-102268328D01*
X116566510Y-102268328D02*
X117137939Y-102268328D01*
X117137939Y-102268328D02*
X117280796Y-102339757D01*
X117280796Y-102339757D02*
X117352225Y-102411185D01*
X117352225Y-102411185D02*
X117423653Y-102554042D01*
X117423653Y-102554042D02*
X117423653Y-102768328D01*
X117423653Y-102768328D02*
X117352225Y-102911185D01*
X117352225Y-102911185D02*
X117280796Y-102982614D01*
X117280796Y-102982614D02*
X117137939Y-103054042D01*
X117137939Y-103054042D02*
X116566510Y-103054042D01*
X118637939Y-103696900D02*
X118495082Y-103768328D01*
X118495082Y-103768328D02*
X118209368Y-103768328D01*
X118209368Y-103768328D02*
X118066510Y-103696900D01*
X118066510Y-103696900D02*
X117995082Y-103554042D01*
X117995082Y-103554042D02*
X117995082Y-102982614D01*
X117995082Y-102982614D02*
X118066510Y-102839757D01*
X118066510Y-102839757D02*
X118209368Y-102768328D01*
X118209368Y-102768328D02*
X118495082Y-102768328D01*
X118495082Y-102768328D02*
X118637939Y-102839757D01*
X118637939Y-102839757D02*
X118709368Y-102982614D01*
X118709368Y-102982614D02*
X118709368Y-103125471D01*
X118709368Y-103125471D02*
X117995082Y-103268328D01*
X119209367Y-102768328D02*
X119566510Y-103768328D01*
X119566510Y-103768328D02*
X119923653Y-102768328D01*
X120495081Y-103625471D02*
X120566510Y-103696900D01*
X120566510Y-103696900D02*
X120495081Y-103768328D01*
X120495081Y-103768328D02*
X120423653Y-103696900D01*
X120423653Y-103696900D02*
X120495081Y-103625471D01*
X120495081Y-103625471D02*
X120495081Y-103768328D01*
X120495081Y-102839757D02*
X120566510Y-102911185D01*
X120566510Y-102911185D02*
X120495081Y-102982614D01*
X120495081Y-102982614D02*
X120423653Y-102911185D01*
X120423653Y-102911185D02*
X120495081Y-102839757D01*
X120495081Y-102839757D02*
X120495081Y-102982614D01*
X123137939Y-103768328D02*
X122280796Y-103768328D01*
X122709367Y-103768328D02*
X122709367Y-102268328D01*
X122709367Y-102268328D02*
X122566510Y-102482614D01*
X122566510Y-102482614D02*
X122423653Y-102625471D01*
X122423653Y-102625471D02*
X122280796Y-102696900D01*
D10*
D11*
X31396398Y-103704700D02*
X31610684Y-103776128D01*
X31610684Y-103776128D02*
X31967826Y-103776128D01*
X31967826Y-103776128D02*
X32110684Y-103704700D01*
X32110684Y-103704700D02*
X32182112Y-103633271D01*
X32182112Y-103633271D02*
X32253541Y-103490414D01*
X32253541Y-103490414D02*
X32253541Y-103347557D01*
X32253541Y-103347557D02*
X32182112Y-103204700D01*
X32182112Y-103204700D02*
X32110684Y-103133271D01*
X32110684Y-103133271D02*
X31967826Y-103061842D01*
X31967826Y-103061842D02*
X31682112Y-102990414D01*
X31682112Y-102990414D02*
X31539255Y-102918985D01*
X31539255Y-102918985D02*
X31467826Y-102847557D01*
X31467826Y-102847557D02*
X31396398Y-102704700D01*
X31396398Y-102704700D02*
X31396398Y-102561842D01*
X31396398Y-102561842D02*
X31467826Y-102418985D01*
X31467826Y-102418985D02*
X31539255Y-102347557D01*
X31539255Y-102347557D02*
X31682112Y-102276128D01*
X31682112Y-102276128D02*
X32039255Y-102276128D01*
X32039255Y-102276128D02*
X32253541Y-102347557D01*
X32896397Y-103776128D02*
X32896397Y-102776128D01*
X32896397Y-102276128D02*
X32824969Y-102347557D01*
X32824969Y-102347557D02*
X32896397Y-102418985D01*
X32896397Y-102418985D02*
X32967826Y-102347557D01*
X32967826Y-102347557D02*
X32896397Y-102276128D01*
X32896397Y-102276128D02*
X32896397Y-102418985D01*
X33467826Y-102776128D02*
X34253541Y-102776128D01*
X34253541Y-102776128D02*
X33467826Y-103776128D01*
X33467826Y-103776128D02*
X34253541Y-103776128D01*
X35396398Y-103704700D02*
X35253541Y-103776128D01*
X35253541Y-103776128D02*
X34967827Y-103776128D01*
X34967827Y-103776128D02*
X34824969Y-103704700D01*
X34824969Y-103704700D02*
X34753541Y-103561842D01*
X34753541Y-103561842D02*
X34753541Y-102990414D01*
X34753541Y-102990414D02*
X34824969Y-102847557D01*
X34824969Y-102847557D02*
X34967827Y-102776128D01*
X34967827Y-102776128D02*
X35253541Y-102776128D01*
X35253541Y-102776128D02*
X35396398Y-102847557D01*
X35396398Y-102847557D02*
X35467827Y-102990414D01*
X35467827Y-102990414D02*
X35467827Y-103133271D01*
X35467827Y-103133271D02*
X34753541Y-103276128D01*
X36110683Y-103633271D02*
X36182112Y-103704700D01*
X36182112Y-103704700D02*
X36110683Y-103776128D01*
X36110683Y-103776128D02*
X36039255Y-103704700D01*
X36039255Y-103704700D02*
X36110683Y-103633271D01*
X36110683Y-103633271D02*
X36110683Y-103776128D01*
X36110683Y-102847557D02*
X36182112Y-102918985D01*
X36182112Y-102918985D02*
X36110683Y-102990414D01*
X36110683Y-102990414D02*
X36039255Y-102918985D01*
X36039255Y-102918985D02*
X36110683Y-102847557D01*
X36110683Y-102847557D02*
X36110683Y-102990414D01*
X37967826Y-102276128D02*
X37967826Y-103490414D01*
X37967826Y-103490414D02*
X38039255Y-103633271D01*
X38039255Y-103633271D02*
X38110684Y-103704700D01*
X38110684Y-103704700D02*
X38253541Y-103776128D01*
X38253541Y-103776128D02*
X38539255Y-103776128D01*
X38539255Y-103776128D02*
X38682112Y-103704700D01*
X38682112Y-103704700D02*
X38753541Y-103633271D01*
X38753541Y-103633271D02*
X38824969Y-103490414D01*
X38824969Y-103490414D02*
X38824969Y-102276128D01*
X39467827Y-103704700D02*
X39610684Y-103776128D01*
X39610684Y-103776128D02*
X39896398Y-103776128D01*
X39896398Y-103776128D02*
X40039255Y-103704700D01*
X40039255Y-103704700D02*
X40110684Y-103561842D01*
X40110684Y-103561842D02*
X40110684Y-103490414D01*
X40110684Y-103490414D02*
X40039255Y-103347557D01*
X40039255Y-103347557D02*
X39896398Y-103276128D01*
X39896398Y-103276128D02*
X39682113Y-103276128D01*
X39682113Y-103276128D02*
X39539255Y-103204700D01*
X39539255Y-103204700D02*
X39467827Y-103061842D01*
X39467827Y-103061842D02*
X39467827Y-102990414D01*
X39467827Y-102990414D02*
X39539255Y-102847557D01*
X39539255Y-102847557D02*
X39682113Y-102776128D01*
X39682113Y-102776128D02*
X39896398Y-102776128D01*
X39896398Y-102776128D02*
X40039255Y-102847557D01*
X41324970Y-103704700D02*
X41182113Y-103776128D01*
X41182113Y-103776128D02*
X40896399Y-103776128D01*
X40896399Y-103776128D02*
X40753541Y-103704700D01*
X40753541Y-103704700D02*
X40682113Y-103561842D01*
X40682113Y-103561842D02*
X40682113Y-102990414D01*
X40682113Y-102990414D02*
X40753541Y-102847557D01*
X40753541Y-102847557D02*
X40896399Y-102776128D01*
X40896399Y-102776128D02*
X41182113Y-102776128D01*
X41182113Y-102776128D02*
X41324970Y-102847557D01*
X41324970Y-102847557D02*
X41396399Y-102990414D01*
X41396399Y-102990414D02*
X41396399Y-103133271D01*
X41396399Y-103133271D02*
X40682113Y-103276128D01*
X42039255Y-103776128D02*
X42039255Y-102776128D01*
X42039255Y-103061842D02*
X42110684Y-102918985D01*
X42110684Y-102918985D02*
X42182113Y-102847557D01*
X42182113Y-102847557D02*
X42324970Y-102776128D01*
X42324970Y-102776128D02*
X42467827Y-102776128D01*
D10*
D11*
X116467826Y-106576128D02*
X116467826Y-105076128D01*
X117824970Y-106576128D02*
X117824970Y-105076128D01*
X117824970Y-106504700D02*
X117682112Y-106576128D01*
X117682112Y-106576128D02*
X117396398Y-106576128D01*
X117396398Y-106576128D02*
X117253541Y-106504700D01*
X117253541Y-106504700D02*
X117182112Y-106433271D01*
X117182112Y-106433271D02*
X117110684Y-106290414D01*
X117110684Y-106290414D02*
X117110684Y-105861842D01*
X117110684Y-105861842D02*
X117182112Y-105718985D01*
X117182112Y-105718985D02*
X117253541Y-105647557D01*
X117253541Y-105647557D02*
X117396398Y-105576128D01*
X117396398Y-105576128D02*
X117682112Y-105576128D01*
X117682112Y-105576128D02*
X117824970Y-105647557D01*
X118539255Y-106433271D02*
X118610684Y-106504700D01*
X118610684Y-106504700D02*
X118539255Y-106576128D01*
X118539255Y-106576128D02*
X118467827Y-106504700D01*
X118467827Y-106504700D02*
X118539255Y-106433271D01*
X118539255Y-106433271D02*
X118539255Y-106576128D01*
X118539255Y-105647557D02*
X118610684Y-105718985D01*
X118610684Y-105718985D02*
X118539255Y-105790414D01*
X118539255Y-105790414D02*
X118467827Y-105718985D01*
X118467827Y-105718985D02*
X118539255Y-105647557D01*
X118539255Y-105647557D02*
X118539255Y-105790414D01*
X121182113Y-106576128D02*
X120324970Y-106576128D01*
X120753541Y-106576128D02*
X120753541Y-105076128D01*
X120753541Y-105076128D02*
X120610684Y-105290414D01*
X120610684Y-105290414D02*
X120467827Y-105433271D01*
X120467827Y-105433271D02*
X120324970Y-105504700D01*
X122896398Y-105004700D02*
X121610684Y-106933271D01*
X124182113Y-106576128D02*
X123324970Y-106576128D01*
X123753541Y-106576128D02*
X123753541Y-105076128D01*
X123753541Y-105076128D02*
X123610684Y-105290414D01*
X123610684Y-105290414D02*
X123467827Y-105433271D01*
X123467827Y-105433271D02*
X123324970Y-105504700D01*
D10*
D11*
X30012000Y-97490000D02*
X138012000Y-97490000D01*
D10*
D13*
X31703728Y-98194438D02*
X32846585Y-98194438D01*
X32025157Y-100194438D02*
X32275157Y-98194438D01*
X33263252Y-100194438D02*
X33429919Y-98861104D01*
X33513252Y-98194438D02*
X33406109Y-98289676D01*
X33406109Y-98289676D02*
X33489443Y-98384914D01*
X33489443Y-98384914D02*
X33596586Y-98289676D01*
X33596586Y-98289676D02*
X33513252Y-98194438D01*
X33513252Y-98194438D02*
X33489443Y-98384914D01*
X34096586Y-98861104D02*
X34858490Y-98861104D01*
X34465633Y-98194438D02*
X34251348Y-99908723D01*
X34251348Y-99908723D02*
X34322776Y-100099200D01*
X34322776Y-100099200D02*
X34501348Y-100194438D01*
X34501348Y-100194438D02*
X34691824Y-100194438D01*
X35644205Y-100194438D02*
X35465633Y-100099200D01*
X35465633Y-100099200D02*
X35394205Y-99908723D01*
X35394205Y-99908723D02*
X35608490Y-98194438D01*
X37179919Y-100099200D02*
X36977538Y-100194438D01*
X36977538Y-100194438D02*
X36596585Y-100194438D01*
X36596585Y-100194438D02*
X36418014Y-100099200D01*
X36418014Y-100099200D02*
X36346585Y-99908723D01*
X36346585Y-99908723D02*
X36441824Y-99146819D01*
X36441824Y-99146819D02*
X36560871Y-98956342D01*
X36560871Y-98956342D02*
X36763252Y-98861104D01*
X36763252Y-98861104D02*
X37144204Y-98861104D01*
X37144204Y-98861104D02*
X37322776Y-98956342D01*
X37322776Y-98956342D02*
X37394204Y-99146819D01*
X37394204Y-99146819D02*
X37370395Y-99337295D01*
X37370395Y-99337295D02*
X36394204Y-99527771D01*
X38144205Y-100003961D02*
X38227538Y-100099200D01*
X38227538Y-100099200D02*
X38120395Y-100194438D01*
X38120395Y-100194438D02*
X38037062Y-100099200D01*
X38037062Y-100099200D02*
X38144205Y-100003961D01*
X38144205Y-100003961D02*
X38120395Y-100194438D01*
X38275157Y-98956342D02*
X38358490Y-99051580D01*
X38358490Y-99051580D02*
X38251348Y-99146819D01*
X38251348Y-99146819D02*
X38168014Y-99051580D01*
X38168014Y-99051580D02*
X38275157Y-98956342D01*
X38275157Y-98956342D02*
X38251348Y-99146819D01*
X40596586Y-100194438D02*
X40846586Y-98194438D01*
X40846586Y-98194438D02*
X41739443Y-100194438D01*
X41739443Y-100194438D02*
X41989443Y-98194438D01*
X42822777Y-99146819D02*
X43489443Y-99146819D01*
X43644205Y-100194438D02*
X42691824Y-100194438D01*
X42691824Y-100194438D02*
X42941824Y-98194438D01*
X42941824Y-98194438D02*
X43894205Y-98194438D01*
X45644205Y-100194438D02*
X45096586Y-99242057D01*
X44501348Y-100194438D02*
X44751348Y-98194438D01*
X44751348Y-98194438D02*
X45513253Y-98194438D01*
X45513253Y-98194438D02*
X45691824Y-98289676D01*
X45691824Y-98289676D02*
X45775158Y-98384914D01*
X45775158Y-98384914D02*
X45846586Y-98575390D01*
X45846586Y-98575390D02*
X45810872Y-98861104D01*
X45810872Y-98861104D02*
X45691824Y-99051580D01*
X45691824Y-99051580D02*
X45584682Y-99146819D01*
X45584682Y-99146819D02*
X45382301Y-99242057D01*
X45382301Y-99242057D02*
X44620396Y-99242057D01*
X46465634Y-98194438D02*
X46882301Y-100194438D01*
X46882301Y-100194438D02*
X47798967Y-98194438D01*
X48846587Y-98194438D02*
X49227539Y-98194438D01*
X49227539Y-98194438D02*
X49406110Y-98289676D01*
X49406110Y-98289676D02*
X49572777Y-98480152D01*
X49572777Y-98480152D02*
X49620396Y-98861104D01*
X49620396Y-98861104D02*
X49537063Y-99527771D01*
X49537063Y-99527771D02*
X49394206Y-99908723D01*
X49394206Y-99908723D02*
X49179920Y-100099200D01*
X49179920Y-100099200D02*
X48977539Y-100194438D01*
X48977539Y-100194438D02*
X48596587Y-100194438D01*
X48596587Y-100194438D02*
X48418015Y-100099200D01*
X48418015Y-100099200D02*
X48251349Y-99908723D01*
X48251349Y-99908723D02*
X48203729Y-99527771D01*
X48203729Y-99527771D02*
X48287063Y-98861104D01*
X48287063Y-98861104D02*
X48429920Y-98480152D01*
X48429920Y-98480152D02*
X48644206Y-98289676D01*
X48644206Y-98289676D02*
X48846587Y-98194438D01*
X50560872Y-98194438D02*
X50358491Y-99813485D01*
X50358491Y-99813485D02*
X50429920Y-100003961D01*
X50429920Y-100003961D02*
X50513253Y-100099200D01*
X50513253Y-100099200D02*
X50691825Y-100194438D01*
X50691825Y-100194438D02*
X51072777Y-100194438D01*
X51072777Y-100194438D02*
X51275158Y-100099200D01*
X51275158Y-100099200D02*
X51382301Y-100003961D01*
X51382301Y-100003961D02*
X51501348Y-99813485D01*
X51501348Y-99813485D02*
X51703729Y-98194438D01*
X52322777Y-100099200D02*
X52596586Y-100194438D01*
X52596586Y-100194438D02*
X53072777Y-100194438D01*
X53072777Y-100194438D02*
X53275158Y-100099200D01*
X53275158Y-100099200D02*
X53382301Y-100003961D01*
X53382301Y-100003961D02*
X53501348Y-99813485D01*
X53501348Y-99813485D02*
X53525158Y-99623009D01*
X53525158Y-99623009D02*
X53453729Y-99432533D01*
X53453729Y-99432533D02*
X53370396Y-99337295D01*
X53370396Y-99337295D02*
X53191825Y-99242057D01*
X53191825Y-99242057D02*
X52822777Y-99146819D01*
X52822777Y-99146819D02*
X52644205Y-99051580D01*
X52644205Y-99051580D02*
X52560872Y-98956342D01*
X52560872Y-98956342D02*
X52489444Y-98765866D01*
X52489444Y-98765866D02*
X52513253Y-98575390D01*
X52513253Y-98575390D02*
X52632301Y-98384914D01*
X52632301Y-98384914D02*
X52739444Y-98289676D01*
X52739444Y-98289676D02*
X52941825Y-98194438D01*
X52941825Y-98194438D02*
X53418015Y-98194438D01*
X53418015Y-98194438D02*
X53691825Y-98289676D01*
X55929920Y-99432533D02*
X57453730Y-99432533D01*
X59965635Y-99146819D02*
X60632301Y-99146819D01*
X60787063Y-100194438D02*
X59834682Y-100194438D01*
X59834682Y-100194438D02*
X60084682Y-98194438D01*
X60084682Y-98194438D02*
X61037063Y-98194438D01*
X62810873Y-100003961D02*
X62703730Y-100099200D01*
X62703730Y-100099200D02*
X62406111Y-100194438D01*
X62406111Y-100194438D02*
X62215635Y-100194438D01*
X62215635Y-100194438D02*
X61941825Y-100099200D01*
X61941825Y-100099200D02*
X61775159Y-99908723D01*
X61775159Y-99908723D02*
X61703730Y-99718247D01*
X61703730Y-99718247D02*
X61656111Y-99337295D01*
X61656111Y-99337295D02*
X61691825Y-99051580D01*
X61691825Y-99051580D02*
X61834682Y-98670628D01*
X61834682Y-98670628D02*
X61953730Y-98480152D01*
X61953730Y-98480152D02*
X62168016Y-98289676D01*
X62168016Y-98289676D02*
X62465635Y-98194438D01*
X62465635Y-98194438D02*
X62656111Y-98194438D01*
X62656111Y-98194438D02*
X62929921Y-98289676D01*
X62929921Y-98289676D02*
X63013254Y-98384914D01*
X64929921Y-98289676D02*
X64751349Y-98194438D01*
X64751349Y-98194438D02*
X64465635Y-98194438D01*
X64465635Y-98194438D02*
X64168016Y-98289676D01*
X64168016Y-98289676D02*
X63953730Y-98480152D01*
X63953730Y-98480152D02*
X63834682Y-98670628D01*
X63834682Y-98670628D02*
X63691825Y-99051580D01*
X63691825Y-99051580D02*
X63656111Y-99337295D01*
X63656111Y-99337295D02*
X63703730Y-99718247D01*
X63703730Y-99718247D02*
X63775159Y-99908723D01*
X63775159Y-99908723D02*
X63941825Y-100099200D01*
X63941825Y-100099200D02*
X64215635Y-100194438D01*
X64215635Y-100194438D02*
X64406111Y-100194438D01*
X64406111Y-100194438D02*
X64703730Y-100099200D01*
X64703730Y-100099200D02*
X64810873Y-100003961D01*
X64810873Y-100003961D02*
X64894206Y-99337295D01*
X64894206Y-99337295D02*
X64513254Y-99337295D01*
X67084683Y-100099200D02*
X67358492Y-100194438D01*
X67358492Y-100194438D02*
X67834683Y-100194438D01*
X67834683Y-100194438D02*
X68037064Y-100099200D01*
X68037064Y-100099200D02*
X68144207Y-100003961D01*
X68144207Y-100003961D02*
X68263254Y-99813485D01*
X68263254Y-99813485D02*
X68287064Y-99623009D01*
X68287064Y-99623009D02*
X68215635Y-99432533D01*
X68215635Y-99432533D02*
X68132302Y-99337295D01*
X68132302Y-99337295D02*
X67953731Y-99242057D01*
X67953731Y-99242057D02*
X67584683Y-99146819D01*
X67584683Y-99146819D02*
X67406111Y-99051580D01*
X67406111Y-99051580D02*
X67322778Y-98956342D01*
X67322778Y-98956342D02*
X67251350Y-98765866D01*
X67251350Y-98765866D02*
X67275159Y-98575390D01*
X67275159Y-98575390D02*
X67394207Y-98384914D01*
X67394207Y-98384914D02*
X67501350Y-98289676D01*
X67501350Y-98289676D02*
X67703731Y-98194438D01*
X67703731Y-98194438D02*
X68179921Y-98194438D01*
X68179921Y-98194438D02*
X68453731Y-98289676D01*
X69846588Y-100099200D02*
X69644207Y-100194438D01*
X69644207Y-100194438D02*
X69263254Y-100194438D01*
X69263254Y-100194438D02*
X69084683Y-100099200D01*
X69084683Y-100099200D02*
X69013254Y-99908723D01*
X69013254Y-99908723D02*
X69108493Y-99146819D01*
X69108493Y-99146819D02*
X69227540Y-98956342D01*
X69227540Y-98956342D02*
X69429921Y-98861104D01*
X69429921Y-98861104D02*
X69810873Y-98861104D01*
X69810873Y-98861104D02*
X69989445Y-98956342D01*
X69989445Y-98956342D02*
X70060873Y-99146819D01*
X70060873Y-99146819D02*
X70037064Y-99337295D01*
X70037064Y-99337295D02*
X69060873Y-99527771D01*
X70953731Y-98861104D02*
X70787064Y-100194438D01*
X70929921Y-99051580D02*
X71037064Y-98956342D01*
X71037064Y-98956342D02*
X71239445Y-98861104D01*
X71239445Y-98861104D02*
X71525159Y-98861104D01*
X71525159Y-98861104D02*
X71703731Y-98956342D01*
X71703731Y-98956342D02*
X71775159Y-99146819D01*
X71775159Y-99146819D02*
X71644207Y-100194438D01*
X72513255Y-100099200D02*
X72691826Y-100194438D01*
X72691826Y-100194438D02*
X73072779Y-100194438D01*
X73072779Y-100194438D02*
X73275160Y-100099200D01*
X73275160Y-100099200D02*
X73394207Y-99908723D01*
X73394207Y-99908723D02*
X73406112Y-99813485D01*
X73406112Y-99813485D02*
X73334683Y-99623009D01*
X73334683Y-99623009D02*
X73156112Y-99527771D01*
X73156112Y-99527771D02*
X72870398Y-99527771D01*
X72870398Y-99527771D02*
X72691826Y-99432533D01*
X72691826Y-99432533D02*
X72620398Y-99242057D01*
X72620398Y-99242057D02*
X72632303Y-99146819D01*
X72632303Y-99146819D02*
X72751350Y-98956342D01*
X72751350Y-98956342D02*
X72953731Y-98861104D01*
X72953731Y-98861104D02*
X73239445Y-98861104D01*
X73239445Y-98861104D02*
X73418017Y-98956342D01*
X74501351Y-100194438D02*
X74322779Y-100099200D01*
X74322779Y-100099200D02*
X74239446Y-100003961D01*
X74239446Y-100003961D02*
X74168017Y-99813485D01*
X74168017Y-99813485D02*
X74239446Y-99242057D01*
X74239446Y-99242057D02*
X74358493Y-99051580D01*
X74358493Y-99051580D02*
X74465636Y-98956342D01*
X74465636Y-98956342D02*
X74668017Y-98861104D01*
X74668017Y-98861104D02*
X74953731Y-98861104D01*
X74953731Y-98861104D02*
X75132303Y-98956342D01*
X75132303Y-98956342D02*
X75215636Y-99051580D01*
X75215636Y-99051580D02*
X75287065Y-99242057D01*
X75287065Y-99242057D02*
X75215636Y-99813485D01*
X75215636Y-99813485D02*
X75096589Y-100003961D01*
X75096589Y-100003961D02*
X74989446Y-100099200D01*
X74989446Y-100099200D02*
X74787065Y-100194438D01*
X74787065Y-100194438D02*
X74501351Y-100194438D01*
X76025160Y-100194438D02*
X76191827Y-98861104D01*
X76144208Y-99242057D02*
X76263255Y-99051580D01*
X76263255Y-99051580D02*
X76370398Y-98956342D01*
X76370398Y-98956342D02*
X76572779Y-98861104D01*
X76572779Y-98861104D02*
X76763255Y-98861104D01*
D10*
D11*
X31967826Y-95590414D02*
X31467826Y-95590414D01*
X31467826Y-96376128D02*
X31467826Y-94876128D01*
X31467826Y-94876128D02*
X32182112Y-94876128D01*
X32753540Y-96376128D02*
X32753540Y-95376128D01*
X32753540Y-94876128D02*
X32682112Y-94947557D01*
X32682112Y-94947557D02*
X32753540Y-95018985D01*
X32753540Y-95018985D02*
X32824969Y-94947557D01*
X32824969Y-94947557D02*
X32753540Y-94876128D01*
X32753540Y-94876128D02*
X32753540Y-95018985D01*
X33682112Y-96376128D02*
X33539255Y-96304700D01*
X33539255Y-96304700D02*
X33467826Y-96161842D01*
X33467826Y-96161842D02*
X33467826Y-94876128D01*
X34824969Y-96304700D02*
X34682112Y-96376128D01*
X34682112Y-96376128D02*
X34396398Y-96376128D01*
X34396398Y-96376128D02*
X34253540Y-96304700D01*
X34253540Y-96304700D02*
X34182112Y-96161842D01*
X34182112Y-96161842D02*
X34182112Y-95590414D01*
X34182112Y-95590414D02*
X34253540Y-95447557D01*
X34253540Y-95447557D02*
X34396398Y-95376128D01*
X34396398Y-95376128D02*
X34682112Y-95376128D01*
X34682112Y-95376128D02*
X34824969Y-95447557D01*
X34824969Y-95447557D02*
X34896398Y-95590414D01*
X34896398Y-95590414D02*
X34896398Y-95733271D01*
X34896398Y-95733271D02*
X34182112Y-95876128D01*
X35539254Y-96233271D02*
X35610683Y-96304700D01*
X35610683Y-96304700D02*
X35539254Y-96376128D01*
X35539254Y-96376128D02*
X35467826Y-96304700D01*
X35467826Y-96304700D02*
X35539254Y-96233271D01*
X35539254Y-96233271D02*
X35539254Y-96376128D01*
X35539254Y-95447557D02*
X35610683Y-95518985D01*
X35610683Y-95518985D02*
X35539254Y-95590414D01*
X35539254Y-95590414D02*
X35467826Y-95518985D01*
X35467826Y-95518985D02*
X35539254Y-95447557D01*
X35539254Y-95447557D02*
X35539254Y-95590414D01*
X37396397Y-95376128D02*
X37396397Y-96376128D01*
X37396397Y-95518985D02*
X37467826Y-95447557D01*
X37467826Y-95447557D02*
X37610683Y-95376128D01*
X37610683Y-95376128D02*
X37824969Y-95376128D01*
X37824969Y-95376128D02*
X37967826Y-95447557D01*
X37967826Y-95447557D02*
X38039255Y-95590414D01*
X38039255Y-95590414D02*
X38039255Y-96376128D01*
X39324969Y-96304700D02*
X39182112Y-96376128D01*
X39182112Y-96376128D02*
X38896398Y-96376128D01*
X38896398Y-96376128D02*
X38753540Y-96304700D01*
X38753540Y-96304700D02*
X38682112Y-96161842D01*
X38682112Y-96161842D02*
X38682112Y-95590414D01*
X38682112Y-95590414D02*
X38753540Y-95447557D01*
X38753540Y-95447557D02*
X38896398Y-95376128D01*
X38896398Y-95376128D02*
X39182112Y-95376128D01*
X39182112Y-95376128D02*
X39324969Y-95447557D01*
X39324969Y-95447557D02*
X39396398Y-95590414D01*
X39396398Y-95590414D02*
X39396398Y-95733271D01*
X39396398Y-95733271D02*
X38682112Y-95876128D01*
X40039254Y-96376128D02*
X40039254Y-95376128D01*
X40039254Y-95661842D02*
X40110683Y-95518985D01*
X40110683Y-95518985D02*
X40182112Y-95447557D01*
X40182112Y-95447557D02*
X40324969Y-95376128D01*
X40324969Y-95376128D02*
X40467826Y-95376128D01*
X40824968Y-95376128D02*
X41182111Y-96376128D01*
X41182111Y-96376128D02*
X41539254Y-95376128D01*
X42324968Y-96376128D02*
X42182111Y-96304700D01*
X42182111Y-96304700D02*
X42110682Y-96233271D01*
X42110682Y-96233271D02*
X42039254Y-96090414D01*
X42039254Y-96090414D02*
X42039254Y-95661842D01*
X42039254Y-95661842D02*
X42110682Y-95518985D01*
X42110682Y-95518985D02*
X42182111Y-95447557D01*
X42182111Y-95447557D02*
X42324968Y-95376128D01*
X42324968Y-95376128D02*
X42539254Y-95376128D01*
X42539254Y-95376128D02*
X42682111Y-95447557D01*
X42682111Y-95447557D02*
X42753540Y-95518985D01*
X42753540Y-95518985D02*
X42824968Y-95661842D01*
X42824968Y-95661842D02*
X42824968Y-96090414D01*
X42824968Y-96090414D02*
X42753540Y-96233271D01*
X42753540Y-96233271D02*
X42682111Y-96304700D01*
X42682111Y-96304700D02*
X42539254Y-96376128D01*
X42539254Y-96376128D02*
X42324968Y-96376128D01*
X44110683Y-95376128D02*
X44110683Y-96376128D01*
X43467825Y-95376128D02*
X43467825Y-96161842D01*
X43467825Y-96161842D02*
X43539254Y-96304700D01*
X43539254Y-96304700D02*
X43682111Y-96376128D01*
X43682111Y-96376128D02*
X43896397Y-96376128D01*
X43896397Y-96376128D02*
X44039254Y-96304700D01*
X44039254Y-96304700D02*
X44110683Y-96233271D01*
X44753540Y-96304700D02*
X44896397Y-96376128D01*
X44896397Y-96376128D02*
X45182111Y-96376128D01*
X45182111Y-96376128D02*
X45324968Y-96304700D01*
X45324968Y-96304700D02*
X45396397Y-96161842D01*
X45396397Y-96161842D02*
X45396397Y-96090414D01*
X45396397Y-96090414D02*
X45324968Y-95947557D01*
X45324968Y-95947557D02*
X45182111Y-95876128D01*
X45182111Y-95876128D02*
X44967826Y-95876128D01*
X44967826Y-95876128D02*
X44824968Y-95804700D01*
X44824968Y-95804700D02*
X44753540Y-95661842D01*
X44753540Y-95661842D02*
X44753540Y-95590414D01*
X44753540Y-95590414D02*
X44824968Y-95447557D01*
X44824968Y-95447557D02*
X44967826Y-95376128D01*
X44967826Y-95376128D02*
X45182111Y-95376128D01*
X45182111Y-95376128D02*
X45324968Y-95447557D01*
X46039254Y-95804700D02*
X47182112Y-95804700D01*
X48467826Y-96304700D02*
X48324969Y-96376128D01*
X48324969Y-96376128D02*
X48039255Y-96376128D01*
X48039255Y-96376128D02*
X47896397Y-96304700D01*
X47896397Y-96304700D02*
X47824969Y-96161842D01*
X47824969Y-96161842D02*
X47824969Y-95590414D01*
X47824969Y-95590414D02*
X47896397Y-95447557D01*
X47896397Y-95447557D02*
X48039255Y-95376128D01*
X48039255Y-95376128D02*
X48324969Y-95376128D01*
X48324969Y-95376128D02*
X48467826Y-95447557D01*
X48467826Y-95447557D02*
X48539255Y-95590414D01*
X48539255Y-95590414D02*
X48539255Y-95733271D01*
X48539255Y-95733271D02*
X47824969Y-95876128D01*
X49824969Y-96304700D02*
X49682111Y-96376128D01*
X49682111Y-96376128D02*
X49396397Y-96376128D01*
X49396397Y-96376128D02*
X49253540Y-96304700D01*
X49253540Y-96304700D02*
X49182111Y-96233271D01*
X49182111Y-96233271D02*
X49110683Y-96090414D01*
X49110683Y-96090414D02*
X49110683Y-95661842D01*
X49110683Y-95661842D02*
X49182111Y-95518985D01*
X49182111Y-95518985D02*
X49253540Y-95447557D01*
X49253540Y-95447557D02*
X49396397Y-95376128D01*
X49396397Y-95376128D02*
X49682111Y-95376128D01*
X49682111Y-95376128D02*
X49824969Y-95447557D01*
X51110683Y-95376128D02*
X51110683Y-96590414D01*
X51110683Y-96590414D02*
X51039254Y-96733271D01*
X51039254Y-96733271D02*
X50967825Y-96804700D01*
X50967825Y-96804700D02*
X50824968Y-96876128D01*
X50824968Y-96876128D02*
X50610683Y-96876128D01*
X50610683Y-96876128D02*
X50467825Y-96804700D01*
X51110683Y-96304700D02*
X50967825Y-96376128D01*
X50967825Y-96376128D02*
X50682111Y-96376128D01*
X50682111Y-96376128D02*
X50539254Y-96304700D01*
X50539254Y-96304700D02*
X50467825Y-96233271D01*
X50467825Y-96233271D02*
X50396397Y-96090414D01*
X50396397Y-96090414D02*
X50396397Y-95661842D01*
X50396397Y-95661842D02*
X50467825Y-95518985D01*
X50467825Y-95518985D02*
X50539254Y-95447557D01*
X50539254Y-95447557D02*
X50682111Y-95376128D01*
X50682111Y-95376128D02*
X50967825Y-95376128D01*
X50967825Y-95376128D02*
X51110683Y-95447557D01*
X51824968Y-96233271D02*
X51896397Y-96304700D01*
X51896397Y-96304700D02*
X51824968Y-96376128D01*
X51824968Y-96376128D02*
X51753540Y-96304700D01*
X51753540Y-96304700D02*
X51824968Y-96233271D01*
X51824968Y-96233271D02*
X51824968Y-96376128D01*
X52539254Y-96376128D02*
X52539254Y-94876128D01*
X52682112Y-95804700D02*
X53110683Y-96376128D01*
X53110683Y-95376128D02*
X52539254Y-95947557D01*
X53753540Y-96376128D02*
X53753540Y-95376128D01*
X53753540Y-94876128D02*
X53682112Y-94947557D01*
X53682112Y-94947557D02*
X53753540Y-95018985D01*
X53753540Y-95018985D02*
X53824969Y-94947557D01*
X53824969Y-94947557D02*
X53753540Y-94876128D01*
X53753540Y-94876128D02*
X53753540Y-95018985D01*
X55110684Y-96304700D02*
X54967826Y-96376128D01*
X54967826Y-96376128D02*
X54682112Y-96376128D01*
X54682112Y-96376128D02*
X54539255Y-96304700D01*
X54539255Y-96304700D02*
X54467826Y-96233271D01*
X54467826Y-96233271D02*
X54396398Y-96090414D01*
X54396398Y-96090414D02*
X54396398Y-95661842D01*
X54396398Y-95661842D02*
X54467826Y-95518985D01*
X54467826Y-95518985D02*
X54539255Y-95447557D01*
X54539255Y-95447557D02*
X54682112Y-95376128D01*
X54682112Y-95376128D02*
X54967826Y-95376128D01*
X54967826Y-95376128D02*
X55110684Y-95447557D01*
X56396398Y-96376128D02*
X56396398Y-95590414D01*
X56396398Y-95590414D02*
X56324969Y-95447557D01*
X56324969Y-95447557D02*
X56182112Y-95376128D01*
X56182112Y-95376128D02*
X55896398Y-95376128D01*
X55896398Y-95376128D02*
X55753540Y-95447557D01*
X56396398Y-96304700D02*
X56253540Y-96376128D01*
X56253540Y-96376128D02*
X55896398Y-96376128D01*
X55896398Y-96376128D02*
X55753540Y-96304700D01*
X55753540Y-96304700D02*
X55682112Y-96161842D01*
X55682112Y-96161842D02*
X55682112Y-96018985D01*
X55682112Y-96018985D02*
X55753540Y-95876128D01*
X55753540Y-95876128D02*
X55896398Y-95804700D01*
X55896398Y-95804700D02*
X56253540Y-95804700D01*
X56253540Y-95804700D02*
X56396398Y-95733271D01*
X57753541Y-96376128D02*
X57753541Y-94876128D01*
X57753541Y-96304700D02*
X57610683Y-96376128D01*
X57610683Y-96376128D02*
X57324969Y-96376128D01*
X57324969Y-96376128D02*
X57182112Y-96304700D01*
X57182112Y-96304700D02*
X57110683Y-96233271D01*
X57110683Y-96233271D02*
X57039255Y-96090414D01*
X57039255Y-96090414D02*
X57039255Y-95661842D01*
X57039255Y-95661842D02*
X57110683Y-95518985D01*
X57110683Y-95518985D02*
X57182112Y-95447557D01*
X57182112Y-95447557D02*
X57324969Y-95376128D01*
X57324969Y-95376128D02*
X57610683Y-95376128D01*
X57610683Y-95376128D02*
X57753541Y-95447557D01*
X58110684Y-96518985D02*
X59253541Y-96518985D01*
X59610683Y-95376128D02*
X59610683Y-96876128D01*
X59610683Y-95447557D02*
X59753541Y-95376128D01*
X59753541Y-95376128D02*
X60039255Y-95376128D01*
X60039255Y-95376128D02*
X60182112Y-95447557D01*
X60182112Y-95447557D02*
X60253541Y-95518985D01*
X60253541Y-95518985D02*
X60324969Y-95661842D01*
X60324969Y-95661842D02*
X60324969Y-96090414D01*
X60324969Y-96090414D02*
X60253541Y-96233271D01*
X60253541Y-96233271D02*
X60182112Y-96304700D01*
X60182112Y-96304700D02*
X60039255Y-96376128D01*
X60039255Y-96376128D02*
X59753541Y-96376128D01*
X59753541Y-96376128D02*
X59610683Y-96304700D01*
X61610684Y-96304700D02*
X61467826Y-96376128D01*
X61467826Y-96376128D02*
X61182112Y-96376128D01*
X61182112Y-96376128D02*
X61039255Y-96304700D01*
X61039255Y-96304700D02*
X60967826Y-96233271D01*
X60967826Y-96233271D02*
X60896398Y-96090414D01*
X60896398Y-96090414D02*
X60896398Y-95661842D01*
X60896398Y-95661842D02*
X60967826Y-95518985D01*
X60967826Y-95518985D02*
X61039255Y-95447557D01*
X61039255Y-95447557D02*
X61182112Y-95376128D01*
X61182112Y-95376128D02*
X61467826Y-95376128D01*
X61467826Y-95376128D02*
X61610684Y-95447557D01*
X62253540Y-96376128D02*
X62253540Y-94876128D01*
X62253540Y-95447557D02*
X62396398Y-95376128D01*
X62396398Y-95376128D02*
X62682112Y-95376128D01*
X62682112Y-95376128D02*
X62824969Y-95447557D01*
X62824969Y-95447557D02*
X62896398Y-95518985D01*
X62896398Y-95518985D02*
X62967826Y-95661842D01*
X62967826Y-95661842D02*
X62967826Y-96090414D01*
X62967826Y-96090414D02*
X62896398Y-96233271D01*
X62896398Y-96233271D02*
X62824969Y-96304700D01*
X62824969Y-96304700D02*
X62682112Y-96376128D01*
X62682112Y-96376128D02*
X62396398Y-96376128D01*
X62396398Y-96376128D02*
X62253540Y-96304700D01*
D10*
D11*
X30012000Y-91490000D02*
X138012000Y-91490000D01*
D10*
D11*
X31396398Y-93604700D02*
X31610684Y-93676128D01*
X31610684Y-93676128D02*
X31967826Y-93676128D01*
X31967826Y-93676128D02*
X32110684Y-93604700D01*
X32110684Y-93604700D02*
X32182112Y-93533271D01*
X32182112Y-93533271D02*
X32253541Y-93390414D01*
X32253541Y-93390414D02*
X32253541Y-93247557D01*
X32253541Y-93247557D02*
X32182112Y-93104700D01*
X32182112Y-93104700D02*
X32110684Y-93033271D01*
X32110684Y-93033271D02*
X31967826Y-92961842D01*
X31967826Y-92961842D02*
X31682112Y-92890414D01*
X31682112Y-92890414D02*
X31539255Y-92818985D01*
X31539255Y-92818985D02*
X31467826Y-92747557D01*
X31467826Y-92747557D02*
X31396398Y-92604700D01*
X31396398Y-92604700D02*
X31396398Y-92461842D01*
X31396398Y-92461842D02*
X31467826Y-92318985D01*
X31467826Y-92318985D02*
X31539255Y-92247557D01*
X31539255Y-92247557D02*
X31682112Y-92176128D01*
X31682112Y-92176128D02*
X32039255Y-92176128D01*
X32039255Y-92176128D02*
X32253541Y-92247557D01*
X32896397Y-93676128D02*
X32896397Y-92176128D01*
X33539255Y-93676128D02*
X33539255Y-92890414D01*
X33539255Y-92890414D02*
X33467826Y-92747557D01*
X33467826Y-92747557D02*
X33324969Y-92676128D01*
X33324969Y-92676128D02*
X33110683Y-92676128D01*
X33110683Y-92676128D02*
X32967826Y-92747557D01*
X32967826Y-92747557D02*
X32896397Y-92818985D01*
X34824969Y-93604700D02*
X34682112Y-93676128D01*
X34682112Y-93676128D02*
X34396398Y-93676128D01*
X34396398Y-93676128D02*
X34253540Y-93604700D01*
X34253540Y-93604700D02*
X34182112Y-93461842D01*
X34182112Y-93461842D02*
X34182112Y-92890414D01*
X34182112Y-92890414D02*
X34253540Y-92747557D01*
X34253540Y-92747557D02*
X34396398Y-92676128D01*
X34396398Y-92676128D02*
X34682112Y-92676128D01*
X34682112Y-92676128D02*
X34824969Y-92747557D01*
X34824969Y-92747557D02*
X34896398Y-92890414D01*
X34896398Y-92890414D02*
X34896398Y-93033271D01*
X34896398Y-93033271D02*
X34182112Y-93176128D01*
X36110683Y-93604700D02*
X35967826Y-93676128D01*
X35967826Y-93676128D02*
X35682112Y-93676128D01*
X35682112Y-93676128D02*
X35539254Y-93604700D01*
X35539254Y-93604700D02*
X35467826Y-93461842D01*
X35467826Y-93461842D02*
X35467826Y-92890414D01*
X35467826Y-92890414D02*
X35539254Y-92747557D01*
X35539254Y-92747557D02*
X35682112Y-92676128D01*
X35682112Y-92676128D02*
X35967826Y-92676128D01*
X35967826Y-92676128D02*
X36110683Y-92747557D01*
X36110683Y-92747557D02*
X36182112Y-92890414D01*
X36182112Y-92890414D02*
X36182112Y-93033271D01*
X36182112Y-93033271D02*
X35467826Y-93176128D01*
X36610683Y-92676128D02*
X37182111Y-92676128D01*
X36824968Y-92176128D02*
X36824968Y-93461842D01*
X36824968Y-93461842D02*
X36896397Y-93604700D01*
X36896397Y-93604700D02*
X37039254Y-93676128D01*
X37039254Y-93676128D02*
X37182111Y-93676128D01*
X37682111Y-93533271D02*
X37753540Y-93604700D01*
X37753540Y-93604700D02*
X37682111Y-93676128D01*
X37682111Y-93676128D02*
X37610683Y-93604700D01*
X37610683Y-93604700D02*
X37682111Y-93533271D01*
X37682111Y-93533271D02*
X37682111Y-93676128D01*
X37682111Y-92747557D02*
X37753540Y-92818985D01*
X37753540Y-92818985D02*
X37682111Y-92890414D01*
X37682111Y-92890414D02*
X37610683Y-92818985D01*
X37610683Y-92818985D02*
X37682111Y-92747557D01*
X37682111Y-92747557D02*
X37682111Y-92890414D01*
D10*
D11*
X32324969Y-87533271D02*
X32253541Y-87604700D01*
X32253541Y-87604700D02*
X32039255Y-87676128D01*
X32039255Y-87676128D02*
X31896398Y-87676128D01*
X31896398Y-87676128D02*
X31682112Y-87604700D01*
X31682112Y-87604700D02*
X31539255Y-87461842D01*
X31539255Y-87461842D02*
X31467826Y-87318985D01*
X31467826Y-87318985D02*
X31396398Y-87033271D01*
X31396398Y-87033271D02*
X31396398Y-86818985D01*
X31396398Y-86818985D02*
X31467826Y-86533271D01*
X31467826Y-86533271D02*
X31539255Y-86390414D01*
X31539255Y-86390414D02*
X31682112Y-86247557D01*
X31682112Y-86247557D02*
X31896398Y-86176128D01*
X31896398Y-86176128D02*
X32039255Y-86176128D01*
X32039255Y-86176128D02*
X32253541Y-86247557D01*
X32253541Y-86247557D02*
X32324969Y-86318985D01*
X33182112Y-87676128D02*
X33039255Y-87604700D01*
X33039255Y-87604700D02*
X32967826Y-87533271D01*
X32967826Y-87533271D02*
X32896398Y-87390414D01*
X32896398Y-87390414D02*
X32896398Y-86961842D01*
X32896398Y-86961842D02*
X32967826Y-86818985D01*
X32967826Y-86818985D02*
X33039255Y-86747557D01*
X33039255Y-86747557D02*
X33182112Y-86676128D01*
X33182112Y-86676128D02*
X33396398Y-86676128D01*
X33396398Y-86676128D02*
X33539255Y-86747557D01*
X33539255Y-86747557D02*
X33610684Y-86818985D01*
X33610684Y-86818985D02*
X33682112Y-86961842D01*
X33682112Y-86961842D02*
X33682112Y-87390414D01*
X33682112Y-87390414D02*
X33610684Y-87533271D01*
X33610684Y-87533271D02*
X33539255Y-87604700D01*
X33539255Y-87604700D02*
X33396398Y-87676128D01*
X33396398Y-87676128D02*
X33182112Y-87676128D01*
X34324969Y-86676128D02*
X34324969Y-88176128D01*
X34324969Y-86747557D02*
X34467827Y-86676128D01*
X34467827Y-86676128D02*
X34753541Y-86676128D01*
X34753541Y-86676128D02*
X34896398Y-86747557D01*
X34896398Y-86747557D02*
X34967827Y-86818985D01*
X34967827Y-86818985D02*
X35039255Y-86961842D01*
X35039255Y-86961842D02*
X35039255Y-87390414D01*
X35039255Y-87390414D02*
X34967827Y-87533271D01*
X34967827Y-87533271D02*
X34896398Y-87604700D01*
X34896398Y-87604700D02*
X34753541Y-87676128D01*
X34753541Y-87676128D02*
X34467827Y-87676128D01*
X34467827Y-87676128D02*
X34324969Y-87604700D01*
X35539255Y-86676128D02*
X35896398Y-87676128D01*
X36253541Y-86676128D02*
X35896398Y-87676128D01*
X35896398Y-87676128D02*
X35753541Y-88033271D01*
X35753541Y-88033271D02*
X35682112Y-88104700D01*
X35682112Y-88104700D02*
X35539255Y-88176128D01*
X36824969Y-87676128D02*
X36824969Y-86676128D01*
X36824969Y-86961842D02*
X36896398Y-86818985D01*
X36896398Y-86818985D02*
X36967827Y-86747557D01*
X36967827Y-86747557D02*
X37110684Y-86676128D01*
X37110684Y-86676128D02*
X37253541Y-86676128D01*
X37753540Y-87676128D02*
X37753540Y-86676128D01*
X37753540Y-86176128D02*
X37682112Y-86247557D01*
X37682112Y-86247557D02*
X37753540Y-86318985D01*
X37753540Y-86318985D02*
X37824969Y-86247557D01*
X37824969Y-86247557D02*
X37753540Y-86176128D01*
X37753540Y-86176128D02*
X37753540Y-86318985D01*
X39110684Y-86676128D02*
X39110684Y-87890414D01*
X39110684Y-87890414D02*
X39039255Y-88033271D01*
X39039255Y-88033271D02*
X38967826Y-88104700D01*
X38967826Y-88104700D02*
X38824969Y-88176128D01*
X38824969Y-88176128D02*
X38610684Y-88176128D01*
X38610684Y-88176128D02*
X38467826Y-88104700D01*
X39110684Y-87604700D02*
X38967826Y-87676128D01*
X38967826Y-87676128D02*
X38682112Y-87676128D01*
X38682112Y-87676128D02*
X38539255Y-87604700D01*
X38539255Y-87604700D02*
X38467826Y-87533271D01*
X38467826Y-87533271D02*
X38396398Y-87390414D01*
X38396398Y-87390414D02*
X38396398Y-86961842D01*
X38396398Y-86961842D02*
X38467826Y-86818985D01*
X38467826Y-86818985D02*
X38539255Y-86747557D01*
X38539255Y-86747557D02*
X38682112Y-86676128D01*
X38682112Y-86676128D02*
X38967826Y-86676128D01*
X38967826Y-86676128D02*
X39110684Y-86747557D01*
X39824969Y-87676128D02*
X39824969Y-86176128D01*
X40467827Y-87676128D02*
X40467827Y-86890414D01*
X40467827Y-86890414D02*
X40396398Y-86747557D01*
X40396398Y-86747557D02*
X40253541Y-86676128D01*
X40253541Y-86676128D02*
X40039255Y-86676128D01*
X40039255Y-86676128D02*
X39896398Y-86747557D01*
X39896398Y-86747557D02*
X39824969Y-86818985D01*
X40967827Y-86676128D02*
X41539255Y-86676128D01*
X41182112Y-86176128D02*
X41182112Y-87461842D01*
X41182112Y-87461842D02*
X41253541Y-87604700D01*
X41253541Y-87604700D02*
X41396398Y-87676128D01*
X41396398Y-87676128D02*
X41539255Y-87676128D01*
X43610684Y-88247557D02*
X43539255Y-88176128D01*
X43539255Y-88176128D02*
X43396398Y-87961842D01*
X43396398Y-87961842D02*
X43324970Y-87818985D01*
X43324970Y-87818985D02*
X43253541Y-87604700D01*
X43253541Y-87604700D02*
X43182112Y-87247557D01*
X43182112Y-87247557D02*
X43182112Y-86961842D01*
X43182112Y-86961842D02*
X43253541Y-86604700D01*
X43253541Y-86604700D02*
X43324970Y-86390414D01*
X43324970Y-86390414D02*
X43396398Y-86247557D01*
X43396398Y-86247557D02*
X43539255Y-86033271D01*
X43539255Y-86033271D02*
X43610684Y-85961842D01*
X44824970Y-87604700D02*
X44682112Y-87676128D01*
X44682112Y-87676128D02*
X44396398Y-87676128D01*
X44396398Y-87676128D02*
X44253541Y-87604700D01*
X44253541Y-87604700D02*
X44182112Y-87533271D01*
X44182112Y-87533271D02*
X44110684Y-87390414D01*
X44110684Y-87390414D02*
X44110684Y-86961842D01*
X44110684Y-86961842D02*
X44182112Y-86818985D01*
X44182112Y-86818985D02*
X44253541Y-86747557D01*
X44253541Y-86747557D02*
X44396398Y-86676128D01*
X44396398Y-86676128D02*
X44682112Y-86676128D01*
X44682112Y-86676128D02*
X44824970Y-86747557D01*
X45324969Y-88247557D02*
X45396398Y-88176128D01*
X45396398Y-88176128D02*
X45539255Y-87961842D01*
X45539255Y-87961842D02*
X45610684Y-87818985D01*
X45610684Y-87818985D02*
X45682112Y-87604700D01*
X45682112Y-87604700D02*
X45753541Y-87247557D01*
X45753541Y-87247557D02*
X45753541Y-86961842D01*
X45753541Y-86961842D02*
X45682112Y-86604700D01*
X45682112Y-86604700D02*
X45610684Y-86390414D01*
X45610684Y-86390414D02*
X45539255Y-86247557D01*
X45539255Y-86247557D02*
X45396398Y-86033271D01*
X45396398Y-86033271D02*
X45324969Y-85961842D01*
X47539255Y-86318985D02*
X47610683Y-86247557D01*
X47610683Y-86247557D02*
X47753541Y-86176128D01*
X47753541Y-86176128D02*
X48110683Y-86176128D01*
X48110683Y-86176128D02*
X48253541Y-86247557D01*
X48253541Y-86247557D02*
X48324969Y-86318985D01*
X48324969Y-86318985D02*
X48396398Y-86461842D01*
X48396398Y-86461842D02*
X48396398Y-86604700D01*
X48396398Y-86604700D02*
X48324969Y-86818985D01*
X48324969Y-86818985D02*
X47467826Y-87676128D01*
X47467826Y-87676128D02*
X48396398Y-87676128D01*
X49324969Y-86176128D02*
X49467826Y-86176128D01*
X49467826Y-86176128D02*
X49610683Y-86247557D01*
X49610683Y-86247557D02*
X49682112Y-86318985D01*
X49682112Y-86318985D02*
X49753540Y-86461842D01*
X49753540Y-86461842D02*
X49824969Y-86747557D01*
X49824969Y-86747557D02*
X49824969Y-87104700D01*
X49824969Y-87104700D02*
X49753540Y-87390414D01*
X49753540Y-87390414D02*
X49682112Y-87533271D01*
X49682112Y-87533271D02*
X49610683Y-87604700D01*
X49610683Y-87604700D02*
X49467826Y-87676128D01*
X49467826Y-87676128D02*
X49324969Y-87676128D01*
X49324969Y-87676128D02*
X49182112Y-87604700D01*
X49182112Y-87604700D02*
X49110683Y-87533271D01*
X49110683Y-87533271D02*
X49039254Y-87390414D01*
X49039254Y-87390414D02*
X48967826Y-87104700D01*
X48967826Y-87104700D02*
X48967826Y-86747557D01*
X48967826Y-86747557D02*
X49039254Y-86461842D01*
X49039254Y-86461842D02*
X49110683Y-86318985D01*
X49110683Y-86318985D02*
X49182112Y-86247557D01*
X49182112Y-86247557D02*
X49324969Y-86176128D01*
X50396397Y-86318985D02*
X50467825Y-86247557D01*
X50467825Y-86247557D02*
X50610683Y-86176128D01*
X50610683Y-86176128D02*
X50967825Y-86176128D01*
X50967825Y-86176128D02*
X51110683Y-86247557D01*
X51110683Y-86247557D02*
X51182111Y-86318985D01*
X51182111Y-86318985D02*
X51253540Y-86461842D01*
X51253540Y-86461842D02*
X51253540Y-86604700D01*
X51253540Y-86604700D02*
X51182111Y-86818985D01*
X51182111Y-86818985D02*
X50324968Y-87676128D01*
X50324968Y-87676128D02*
X51253540Y-87676128D01*
X52539254Y-86676128D02*
X52539254Y-87676128D01*
X52182111Y-86104700D02*
X51824968Y-87176128D01*
X51824968Y-87176128D02*
X52753539Y-87176128D01*
X54467824Y-87676128D02*
X54467824Y-86176128D01*
X55182110Y-87676128D02*
X55182110Y-86176128D01*
X55182110Y-86176128D02*
X56039253Y-87676128D01*
X56039253Y-87676128D02*
X56039253Y-86176128D01*
X56682111Y-87604700D02*
X56896397Y-87676128D01*
X56896397Y-87676128D02*
X57253539Y-87676128D01*
X57253539Y-87676128D02*
X57396397Y-87604700D01*
X57396397Y-87604700D02*
X57467825Y-87533271D01*
X57467825Y-87533271D02*
X57539254Y-87390414D01*
X57539254Y-87390414D02*
X57539254Y-87247557D01*
X57539254Y-87247557D02*
X57467825Y-87104700D01*
X57467825Y-87104700D02*
X57396397Y-87033271D01*
X57396397Y-87033271D02*
X57253539Y-86961842D01*
X57253539Y-86961842D02*
X56967825Y-86890414D01*
X56967825Y-86890414D02*
X56824968Y-86818985D01*
X56824968Y-86818985D02*
X56753539Y-86747557D01*
X56753539Y-86747557D02*
X56682111Y-86604700D01*
X56682111Y-86604700D02*
X56682111Y-86461842D01*
X56682111Y-86461842D02*
X56753539Y-86318985D01*
X56753539Y-86318985D02*
X56824968Y-86247557D01*
X56824968Y-86247557D02*
X56967825Y-86176128D01*
X56967825Y-86176128D02*
X57324968Y-86176128D01*
X57324968Y-86176128D02*
X57539254Y-86247557D01*
X58110682Y-87247557D02*
X58824968Y-87247557D01*
X57967825Y-87676128D02*
X58467825Y-86176128D01*
X58467825Y-86176128D02*
X58967825Y-87676128D01*
X61324967Y-87676128D02*
X60610681Y-87676128D01*
X60610681Y-87676128D02*
X60610681Y-86176128D01*
X61682110Y-86676128D02*
X62039253Y-87676128D01*
X62396396Y-86676128D02*
X62039253Y-87676128D01*
X62039253Y-87676128D02*
X61896396Y-88033271D01*
X61896396Y-88033271D02*
X61824967Y-88104700D01*
X61824967Y-88104700D02*
X61682110Y-88176128D01*
X63182110Y-87676128D02*
X63039253Y-87604700D01*
X63039253Y-87604700D02*
X62967824Y-87533271D01*
X62967824Y-87533271D02*
X62896396Y-87390414D01*
X62896396Y-87390414D02*
X62896396Y-86961842D01*
X62896396Y-86961842D02*
X62967824Y-86818985D01*
X62967824Y-86818985D02*
X63039253Y-86747557D01*
X63039253Y-86747557D02*
X63182110Y-86676128D01*
X63182110Y-86676128D02*
X63396396Y-86676128D01*
X63396396Y-86676128D02*
X63539253Y-86747557D01*
X63539253Y-86747557D02*
X63610682Y-86818985D01*
X63610682Y-86818985D02*
X63682110Y-86961842D01*
X63682110Y-86961842D02*
X63682110Y-87390414D01*
X63682110Y-87390414D02*
X63610682Y-87533271D01*
X63610682Y-87533271D02*
X63539253Y-87604700D01*
X63539253Y-87604700D02*
X63396396Y-87676128D01*
X63396396Y-87676128D02*
X63182110Y-87676128D01*
X64324967Y-86676128D02*
X64324967Y-87676128D01*
X64324967Y-86818985D02*
X64396396Y-86747557D01*
X64396396Y-86747557D02*
X64539253Y-86676128D01*
X64539253Y-86676128D02*
X64753539Y-86676128D01*
X64753539Y-86676128D02*
X64896396Y-86747557D01*
X64896396Y-86747557D02*
X64967825Y-86890414D01*
X64967825Y-86890414D02*
X64967825Y-87676128D01*
X65753539Y-87604700D02*
X65753539Y-87676128D01*
X65753539Y-87676128D02*
X65682110Y-87818985D01*
X65682110Y-87818985D02*
X65610682Y-87890414D01*
X68396396Y-87533271D02*
X68324968Y-87604700D01*
X68324968Y-87604700D02*
X68110682Y-87676128D01*
X68110682Y-87676128D02*
X67967825Y-87676128D01*
X67967825Y-87676128D02*
X67753539Y-87604700D01*
X67753539Y-87604700D02*
X67610682Y-87461842D01*
X67610682Y-87461842D02*
X67539253Y-87318985D01*
X67539253Y-87318985D02*
X67467825Y-87033271D01*
X67467825Y-87033271D02*
X67467825Y-86818985D01*
X67467825Y-86818985D02*
X67539253Y-86533271D01*
X67539253Y-86533271D02*
X67610682Y-86390414D01*
X67610682Y-86390414D02*
X67753539Y-86247557D01*
X67753539Y-86247557D02*
X67967825Y-86176128D01*
X67967825Y-86176128D02*
X68110682Y-86176128D01*
X68110682Y-86176128D02*
X68324968Y-86247557D01*
X68324968Y-86247557D02*
X68396396Y-86318985D01*
X69039253Y-87676128D02*
X69039253Y-86176128D01*
X69039253Y-86176128D02*
X69896396Y-87676128D01*
X69896396Y-87676128D02*
X69896396Y-86176128D01*
X71467825Y-87676128D02*
X70967825Y-86961842D01*
X70610682Y-87676128D02*
X70610682Y-86176128D01*
X70610682Y-86176128D02*
X71182111Y-86176128D01*
X71182111Y-86176128D02*
X71324968Y-86247557D01*
X71324968Y-86247557D02*
X71396397Y-86318985D01*
X71396397Y-86318985D02*
X71467825Y-86461842D01*
X71467825Y-86461842D02*
X71467825Y-86676128D01*
X71467825Y-86676128D02*
X71396397Y-86818985D01*
X71396397Y-86818985D02*
X71324968Y-86890414D01*
X71324968Y-86890414D02*
X71182111Y-86961842D01*
X71182111Y-86961842D02*
X70610682Y-86961842D01*
X72039254Y-87604700D02*
X72253540Y-87676128D01*
X72253540Y-87676128D02*
X72610682Y-87676128D01*
X72610682Y-87676128D02*
X72753540Y-87604700D01*
X72753540Y-87604700D02*
X72824968Y-87533271D01*
X72824968Y-87533271D02*
X72896397Y-87390414D01*
X72896397Y-87390414D02*
X72896397Y-87247557D01*
X72896397Y-87247557D02*
X72824968Y-87104700D01*
X72824968Y-87104700D02*
X72753540Y-87033271D01*
X72753540Y-87033271D02*
X72610682Y-86961842D01*
X72610682Y-86961842D02*
X72324968Y-86890414D01*
X72324968Y-86890414D02*
X72182111Y-86818985D01*
X72182111Y-86818985D02*
X72110682Y-86747557D01*
X72110682Y-86747557D02*
X72039254Y-86604700D01*
X72039254Y-86604700D02*
X72039254Y-86461842D01*
X72039254Y-86461842D02*
X72110682Y-86318985D01*
X72110682Y-86318985D02*
X72182111Y-86247557D01*
X72182111Y-86247557D02*
X72324968Y-86176128D01*
X72324968Y-86176128D02*
X72682111Y-86176128D01*
X72682111Y-86176128D02*
X72896397Y-86247557D01*
X73610682Y-87604700D02*
X73610682Y-87676128D01*
X73610682Y-87676128D02*
X73539253Y-87818985D01*
X73539253Y-87818985D02*
X73467825Y-87890414D01*
X75396396Y-87676128D02*
X75396396Y-86176128D01*
X76110682Y-87676128D02*
X76110682Y-86176128D01*
X76110682Y-86176128D02*
X76967825Y-87676128D01*
X76967825Y-87676128D02*
X76967825Y-86176128D01*
X78396397Y-87676128D02*
X77682111Y-87676128D01*
X77682111Y-87676128D02*
X77682111Y-86176128D01*
X80039254Y-86176128D02*
X80039254Y-87390414D01*
X80039254Y-87390414D02*
X80110683Y-87533271D01*
X80110683Y-87533271D02*
X80182112Y-87604700D01*
X80182112Y-87604700D02*
X80324969Y-87676128D01*
X80324969Y-87676128D02*
X80610683Y-87676128D01*
X80610683Y-87676128D02*
X80753540Y-87604700D01*
X80753540Y-87604700D02*
X80824969Y-87533271D01*
X80824969Y-87533271D02*
X80896397Y-87390414D01*
X80896397Y-87390414D02*
X80896397Y-86176128D01*
X81610683Y-87676128D02*
X81610683Y-86176128D01*
X81610683Y-86176128D02*
X82110683Y-87247557D01*
X82110683Y-87247557D02*
X82610683Y-86176128D01*
X82610683Y-86176128D02*
X82610683Y-87676128D01*
X84182112Y-87676128D02*
X83682112Y-86961842D01*
X83324969Y-87676128D02*
X83324969Y-86176128D01*
X83324969Y-86176128D02*
X83896398Y-86176128D01*
X83896398Y-86176128D02*
X84039255Y-86247557D01*
X84039255Y-86247557D02*
X84110684Y-86318985D01*
X84110684Y-86318985D02*
X84182112Y-86461842D01*
X84182112Y-86461842D02*
X84182112Y-86676128D01*
X84182112Y-86676128D02*
X84110684Y-86818985D01*
X84110684Y-86818985D02*
X84039255Y-86890414D01*
X84039255Y-86890414D02*
X83896398Y-86961842D01*
X83896398Y-86961842D02*
X83324969Y-86961842D01*
X85539255Y-86176128D02*
X84824969Y-86176128D01*
X84824969Y-86176128D02*
X84753541Y-86890414D01*
X84753541Y-86890414D02*
X84824969Y-86818985D01*
X84824969Y-86818985D02*
X84967827Y-86747557D01*
X84967827Y-86747557D02*
X85324969Y-86747557D01*
X85324969Y-86747557D02*
X85467827Y-86818985D01*
X85467827Y-86818985D02*
X85539255Y-86890414D01*
X85539255Y-86890414D02*
X85610684Y-87033271D01*
X85610684Y-87033271D02*
X85610684Y-87390414D01*
X85610684Y-87390414D02*
X85539255Y-87533271D01*
X85539255Y-87533271D02*
X85467827Y-87604700D01*
X85467827Y-87604700D02*
X85324969Y-87676128D01*
X85324969Y-87676128D02*
X84967827Y-87676128D01*
X84967827Y-87676128D02*
X84824969Y-87604700D01*
X84824969Y-87604700D02*
X84753541Y-87533271D01*
X86182112Y-86318985D02*
X86253540Y-86247557D01*
X86253540Y-86247557D02*
X86396398Y-86176128D01*
X86396398Y-86176128D02*
X86753540Y-86176128D01*
X86753540Y-86176128D02*
X86896398Y-86247557D01*
X86896398Y-86247557D02*
X86967826Y-86318985D01*
X86967826Y-86318985D02*
X87039255Y-86461842D01*
X87039255Y-86461842D02*
X87039255Y-86604700D01*
X87039255Y-86604700D02*
X86967826Y-86818985D01*
X86967826Y-86818985D02*
X86110683Y-87676128D01*
X86110683Y-87676128D02*
X87039255Y-87676128D01*
X87539254Y-86176128D02*
X88539254Y-86176128D01*
X88539254Y-86176128D02*
X87896397Y-87676128D01*
X89396397Y-86176128D02*
X89539254Y-86176128D01*
X89539254Y-86176128D02*
X89682111Y-86247557D01*
X89682111Y-86247557D02*
X89753540Y-86318985D01*
X89753540Y-86318985D02*
X89824968Y-86461842D01*
X89824968Y-86461842D02*
X89896397Y-86747557D01*
X89896397Y-86747557D02*
X89896397Y-87104700D01*
X89896397Y-87104700D02*
X89824968Y-87390414D01*
X89824968Y-87390414D02*
X89753540Y-87533271D01*
X89753540Y-87533271D02*
X89682111Y-87604700D01*
X89682111Y-87604700D02*
X89539254Y-87676128D01*
X89539254Y-87676128D02*
X89396397Y-87676128D01*
X89396397Y-87676128D02*
X89253540Y-87604700D01*
X89253540Y-87604700D02*
X89182111Y-87533271D01*
X89182111Y-87533271D02*
X89110682Y-87390414D01*
X89110682Y-87390414D02*
X89039254Y-87104700D01*
X89039254Y-87104700D02*
X89039254Y-86747557D01*
X89039254Y-86747557D02*
X89110682Y-86461842D01*
X89110682Y-86461842D02*
X89182111Y-86318985D01*
X89182111Y-86318985D02*
X89253540Y-86247557D01*
X89253540Y-86247557D02*
X89396397Y-86176128D01*
D10*
D11*
X32182112Y-84676128D02*
X31467826Y-84676128D01*
X31467826Y-84676128D02*
X31467826Y-83176128D01*
X32682112Y-84676128D02*
X32682112Y-83676128D01*
X32682112Y-83176128D02*
X32610684Y-83247557D01*
X32610684Y-83247557D02*
X32682112Y-83318985D01*
X32682112Y-83318985D02*
X32753541Y-83247557D01*
X32753541Y-83247557D02*
X32682112Y-83176128D01*
X32682112Y-83176128D02*
X32682112Y-83318985D01*
X34039256Y-84604700D02*
X33896398Y-84676128D01*
X33896398Y-84676128D02*
X33610684Y-84676128D01*
X33610684Y-84676128D02*
X33467827Y-84604700D01*
X33467827Y-84604700D02*
X33396398Y-84533271D01*
X33396398Y-84533271D02*
X33324970Y-84390414D01*
X33324970Y-84390414D02*
X33324970Y-83961842D01*
X33324970Y-83961842D02*
X33396398Y-83818985D01*
X33396398Y-83818985D02*
X33467827Y-83747557D01*
X33467827Y-83747557D02*
X33610684Y-83676128D01*
X33610684Y-83676128D02*
X33896398Y-83676128D01*
X33896398Y-83676128D02*
X34039256Y-83747557D01*
X35253541Y-84604700D02*
X35110684Y-84676128D01*
X35110684Y-84676128D02*
X34824970Y-84676128D01*
X34824970Y-84676128D02*
X34682112Y-84604700D01*
X34682112Y-84604700D02*
X34610684Y-84461842D01*
X34610684Y-84461842D02*
X34610684Y-83890414D01*
X34610684Y-83890414D02*
X34682112Y-83747557D01*
X34682112Y-83747557D02*
X34824970Y-83676128D01*
X34824970Y-83676128D02*
X35110684Y-83676128D01*
X35110684Y-83676128D02*
X35253541Y-83747557D01*
X35253541Y-83747557D02*
X35324970Y-83890414D01*
X35324970Y-83890414D02*
X35324970Y-84033271D01*
X35324970Y-84033271D02*
X34610684Y-84176128D01*
X35967826Y-83676128D02*
X35967826Y-84676128D01*
X35967826Y-83818985D02*
X36039255Y-83747557D01*
X36039255Y-83747557D02*
X36182112Y-83676128D01*
X36182112Y-83676128D02*
X36396398Y-83676128D01*
X36396398Y-83676128D02*
X36539255Y-83747557D01*
X36539255Y-83747557D02*
X36610684Y-83890414D01*
X36610684Y-83890414D02*
X36610684Y-84676128D01*
X37253541Y-84604700D02*
X37396398Y-84676128D01*
X37396398Y-84676128D02*
X37682112Y-84676128D01*
X37682112Y-84676128D02*
X37824969Y-84604700D01*
X37824969Y-84604700D02*
X37896398Y-84461842D01*
X37896398Y-84461842D02*
X37896398Y-84390414D01*
X37896398Y-84390414D02*
X37824969Y-84247557D01*
X37824969Y-84247557D02*
X37682112Y-84176128D01*
X37682112Y-84176128D02*
X37467827Y-84176128D01*
X37467827Y-84176128D02*
X37324969Y-84104700D01*
X37324969Y-84104700D02*
X37253541Y-83961842D01*
X37253541Y-83961842D02*
X37253541Y-83890414D01*
X37253541Y-83890414D02*
X37324969Y-83747557D01*
X37324969Y-83747557D02*
X37467827Y-83676128D01*
X37467827Y-83676128D02*
X37682112Y-83676128D01*
X37682112Y-83676128D02*
X37824969Y-83747557D01*
X39110684Y-84604700D02*
X38967827Y-84676128D01*
X38967827Y-84676128D02*
X38682113Y-84676128D01*
X38682113Y-84676128D02*
X38539255Y-84604700D01*
X38539255Y-84604700D02*
X38467827Y-84461842D01*
X38467827Y-84461842D02*
X38467827Y-83890414D01*
X38467827Y-83890414D02*
X38539255Y-83747557D01*
X38539255Y-83747557D02*
X38682113Y-83676128D01*
X38682113Y-83676128D02*
X38967827Y-83676128D01*
X38967827Y-83676128D02*
X39110684Y-83747557D01*
X39110684Y-83747557D02*
X39182113Y-83890414D01*
X39182113Y-83890414D02*
X39182113Y-84033271D01*
X39182113Y-84033271D02*
X38467827Y-84176128D01*
X40967826Y-84533271D02*
X41039255Y-84604700D01*
X41039255Y-84604700D02*
X40967826Y-84676128D01*
X40967826Y-84676128D02*
X40896398Y-84604700D01*
X40896398Y-84604700D02*
X40967826Y-84533271D01*
X40967826Y-84533271D02*
X40967826Y-84676128D01*
X40967826Y-83747557D02*
X41039255Y-83818985D01*
X41039255Y-83818985D02*
X40967826Y-83890414D01*
X40967826Y-83890414D02*
X40896398Y-83818985D01*
X40896398Y-83818985D02*
X40967826Y-83747557D01*
X40967826Y-83747557D02*
X40967826Y-83890414D01*
X42824969Y-84676128D02*
X42824969Y-83176128D01*
X42824969Y-83176128D02*
X43324969Y-84247557D01*
X43324969Y-84247557D02*
X43824969Y-83176128D01*
X43824969Y-83176128D02*
X43824969Y-84676128D01*
X44539255Y-84676128D02*
X44539255Y-83176128D01*
X45039256Y-83176128D02*
X45896399Y-83176128D01*
X45467827Y-84676128D02*
X45467827Y-83176128D01*
X48253541Y-84676128D02*
X47539255Y-84676128D01*
X47539255Y-84676128D02*
X47539255Y-83176128D01*
X48753541Y-84676128D02*
X48753541Y-83676128D01*
X48753541Y-83176128D02*
X48682113Y-83247557D01*
X48682113Y-83247557D02*
X48753541Y-83318985D01*
X48753541Y-83318985D02*
X48824970Y-83247557D01*
X48824970Y-83247557D02*
X48753541Y-83176128D01*
X48753541Y-83176128D02*
X48753541Y-83318985D01*
X50110685Y-84604700D02*
X49967827Y-84676128D01*
X49967827Y-84676128D02*
X49682113Y-84676128D01*
X49682113Y-84676128D02*
X49539256Y-84604700D01*
X49539256Y-84604700D02*
X49467827Y-84533271D01*
X49467827Y-84533271D02*
X49396399Y-84390414D01*
X49396399Y-84390414D02*
X49396399Y-83961842D01*
X49396399Y-83961842D02*
X49467827Y-83818985D01*
X49467827Y-83818985D02*
X49539256Y-83747557D01*
X49539256Y-83747557D02*
X49682113Y-83676128D01*
X49682113Y-83676128D02*
X49967827Y-83676128D01*
X49967827Y-83676128D02*
X50110685Y-83747557D01*
X51324970Y-84604700D02*
X51182113Y-84676128D01*
X51182113Y-84676128D02*
X50896399Y-84676128D01*
X50896399Y-84676128D02*
X50753541Y-84604700D01*
X50753541Y-84604700D02*
X50682113Y-84461842D01*
X50682113Y-84461842D02*
X50682113Y-83890414D01*
X50682113Y-83890414D02*
X50753541Y-83747557D01*
X50753541Y-83747557D02*
X50896399Y-83676128D01*
X50896399Y-83676128D02*
X51182113Y-83676128D01*
X51182113Y-83676128D02*
X51324970Y-83747557D01*
X51324970Y-83747557D02*
X51396399Y-83890414D01*
X51396399Y-83890414D02*
X51396399Y-84033271D01*
X51396399Y-84033271D02*
X50682113Y-84176128D01*
X52039255Y-83676128D02*
X52039255Y-84676128D01*
X52039255Y-83818985D02*
X52110684Y-83747557D01*
X52110684Y-83747557D02*
X52253541Y-83676128D01*
X52253541Y-83676128D02*
X52467827Y-83676128D01*
X52467827Y-83676128D02*
X52610684Y-83747557D01*
X52610684Y-83747557D02*
X52682113Y-83890414D01*
X52682113Y-83890414D02*
X52682113Y-84676128D01*
X53324970Y-84604700D02*
X53467827Y-84676128D01*
X53467827Y-84676128D02*
X53753541Y-84676128D01*
X53753541Y-84676128D02*
X53896398Y-84604700D01*
X53896398Y-84604700D02*
X53967827Y-84461842D01*
X53967827Y-84461842D02*
X53967827Y-84390414D01*
X53967827Y-84390414D02*
X53896398Y-84247557D01*
X53896398Y-84247557D02*
X53753541Y-84176128D01*
X53753541Y-84176128D02*
X53539256Y-84176128D01*
X53539256Y-84176128D02*
X53396398Y-84104700D01*
X53396398Y-84104700D02*
X53324970Y-83961842D01*
X53324970Y-83961842D02*
X53324970Y-83890414D01*
X53324970Y-83890414D02*
X53396398Y-83747557D01*
X53396398Y-83747557D02*
X53539256Y-83676128D01*
X53539256Y-83676128D02*
X53753541Y-83676128D01*
X53753541Y-83676128D02*
X53896398Y-83747557D01*
X55182113Y-84604700D02*
X55039256Y-84676128D01*
X55039256Y-84676128D02*
X54753542Y-84676128D01*
X54753542Y-84676128D02*
X54610684Y-84604700D01*
X54610684Y-84604700D02*
X54539256Y-84461842D01*
X54539256Y-84461842D02*
X54539256Y-83890414D01*
X54539256Y-83890414D02*
X54610684Y-83747557D01*
X54610684Y-83747557D02*
X54753542Y-83676128D01*
X54753542Y-83676128D02*
X55039256Y-83676128D01*
X55039256Y-83676128D02*
X55182113Y-83747557D01*
X55182113Y-83747557D02*
X55253542Y-83890414D01*
X55253542Y-83890414D02*
X55253542Y-84033271D01*
X55253542Y-84033271D02*
X54539256Y-84176128D01*
D10*
D11*
X32324969Y-81533271D02*
X32253541Y-81604700D01*
X32253541Y-81604700D02*
X32039255Y-81676128D01*
X32039255Y-81676128D02*
X31896398Y-81676128D01*
X31896398Y-81676128D02*
X31682112Y-81604700D01*
X31682112Y-81604700D02*
X31539255Y-81461842D01*
X31539255Y-81461842D02*
X31467826Y-81318985D01*
X31467826Y-81318985D02*
X31396398Y-81033271D01*
X31396398Y-81033271D02*
X31396398Y-80818985D01*
X31396398Y-80818985D02*
X31467826Y-80533271D01*
X31467826Y-80533271D02*
X31539255Y-80390414D01*
X31539255Y-80390414D02*
X31682112Y-80247557D01*
X31682112Y-80247557D02*
X31896398Y-80176128D01*
X31896398Y-80176128D02*
X32039255Y-80176128D01*
X32039255Y-80176128D02*
X32253541Y-80247557D01*
X32253541Y-80247557D02*
X32324969Y-80318985D01*
X33182112Y-81676128D02*
X33039255Y-81604700D01*
X33039255Y-81604700D02*
X32967826Y-81533271D01*
X32967826Y-81533271D02*
X32896398Y-81390414D01*
X32896398Y-81390414D02*
X32896398Y-80961842D01*
X32896398Y-80961842D02*
X32967826Y-80818985D01*
X32967826Y-80818985D02*
X33039255Y-80747557D01*
X33039255Y-80747557D02*
X33182112Y-80676128D01*
X33182112Y-80676128D02*
X33396398Y-80676128D01*
X33396398Y-80676128D02*
X33539255Y-80747557D01*
X33539255Y-80747557D02*
X33610684Y-80818985D01*
X33610684Y-80818985D02*
X33682112Y-80961842D01*
X33682112Y-80961842D02*
X33682112Y-81390414D01*
X33682112Y-81390414D02*
X33610684Y-81533271D01*
X33610684Y-81533271D02*
X33539255Y-81604700D01*
X33539255Y-81604700D02*
X33396398Y-81676128D01*
X33396398Y-81676128D02*
X33182112Y-81676128D01*
X34324969Y-80676128D02*
X34324969Y-81676128D01*
X34324969Y-80818985D02*
X34396398Y-80747557D01*
X34396398Y-80747557D02*
X34539255Y-80676128D01*
X34539255Y-80676128D02*
X34753541Y-80676128D01*
X34753541Y-80676128D02*
X34896398Y-80747557D01*
X34896398Y-80747557D02*
X34967827Y-80890414D01*
X34967827Y-80890414D02*
X34967827Y-81676128D01*
X35467827Y-80676128D02*
X36039255Y-80676128D01*
X35682112Y-80176128D02*
X35682112Y-81461842D01*
X35682112Y-81461842D02*
X35753541Y-81604700D01*
X35753541Y-81604700D02*
X35896398Y-81676128D01*
X35896398Y-81676128D02*
X36039255Y-81676128D01*
X37182113Y-81676128D02*
X37182113Y-80890414D01*
X37182113Y-80890414D02*
X37110684Y-80747557D01*
X37110684Y-80747557D02*
X36967827Y-80676128D01*
X36967827Y-80676128D02*
X36682113Y-80676128D01*
X36682113Y-80676128D02*
X36539255Y-80747557D01*
X37182113Y-81604700D02*
X37039255Y-81676128D01*
X37039255Y-81676128D02*
X36682113Y-81676128D01*
X36682113Y-81676128D02*
X36539255Y-81604700D01*
X36539255Y-81604700D02*
X36467827Y-81461842D01*
X36467827Y-81461842D02*
X36467827Y-81318985D01*
X36467827Y-81318985D02*
X36539255Y-81176128D01*
X36539255Y-81176128D02*
X36682113Y-81104700D01*
X36682113Y-81104700D02*
X37039255Y-81104700D01*
X37039255Y-81104700D02*
X37182113Y-81033271D01*
X38539256Y-81604700D02*
X38396398Y-81676128D01*
X38396398Y-81676128D02*
X38110684Y-81676128D01*
X38110684Y-81676128D02*
X37967827Y-81604700D01*
X37967827Y-81604700D02*
X37896398Y-81533271D01*
X37896398Y-81533271D02*
X37824970Y-81390414D01*
X37824970Y-81390414D02*
X37824970Y-80961842D01*
X37824970Y-80961842D02*
X37896398Y-80818985D01*
X37896398Y-80818985D02*
X37967827Y-80747557D01*
X37967827Y-80747557D02*
X38110684Y-80676128D01*
X38110684Y-80676128D02*
X38396398Y-80676128D01*
X38396398Y-80676128D02*
X38539256Y-80747557D01*
X38967827Y-80676128D02*
X39539255Y-80676128D01*
X39182112Y-80176128D02*
X39182112Y-81461842D01*
X39182112Y-81461842D02*
X39253541Y-81604700D01*
X39253541Y-81604700D02*
X39396398Y-81676128D01*
X39396398Y-81676128D02*
X39539255Y-81676128D01*
X41182112Y-81533271D02*
X41253541Y-81604700D01*
X41253541Y-81604700D02*
X41182112Y-81676128D01*
X41182112Y-81676128D02*
X41110684Y-81604700D01*
X41110684Y-81604700D02*
X41182112Y-81533271D01*
X41182112Y-81533271D02*
X41182112Y-81676128D01*
X41182112Y-80747557D02*
X41253541Y-80818985D01*
X41253541Y-80818985D02*
X41182112Y-80890414D01*
X41182112Y-80890414D02*
X41110684Y-80818985D01*
X41110684Y-80818985D02*
X41182112Y-80747557D01*
X41182112Y-80747557D02*
X41182112Y-80890414D01*
X43039255Y-81676128D02*
X43039255Y-80176128D01*
X43039255Y-80747557D02*
X43182113Y-80676128D01*
X43182113Y-80676128D02*
X43467827Y-80676128D01*
X43467827Y-80676128D02*
X43610684Y-80747557D01*
X43610684Y-80747557D02*
X43682113Y-80818985D01*
X43682113Y-80818985D02*
X43753541Y-80961842D01*
X43753541Y-80961842D02*
X43753541Y-81390414D01*
X43753541Y-81390414D02*
X43682113Y-81533271D01*
X43682113Y-81533271D02*
X43610684Y-81604700D01*
X43610684Y-81604700D02*
X43467827Y-81676128D01*
X43467827Y-81676128D02*
X43182113Y-81676128D01*
X43182113Y-81676128D02*
X43039255Y-81604700D01*
X44967827Y-81604700D02*
X44824970Y-81676128D01*
X44824970Y-81676128D02*
X44539256Y-81676128D01*
X44539256Y-81676128D02*
X44396398Y-81604700D01*
X44396398Y-81604700D02*
X44324970Y-81461842D01*
X44324970Y-81461842D02*
X44324970Y-80890414D01*
X44324970Y-80890414D02*
X44396398Y-80747557D01*
X44396398Y-80747557D02*
X44539256Y-80676128D01*
X44539256Y-80676128D02*
X44824970Y-80676128D01*
X44824970Y-80676128D02*
X44967827Y-80747557D01*
X44967827Y-80747557D02*
X45039256Y-80890414D01*
X45039256Y-80890414D02*
X45039256Y-81033271D01*
X45039256Y-81033271D02*
X44324970Y-81176128D01*
X45682112Y-81676128D02*
X45682112Y-80676128D01*
X45682112Y-80961842D02*
X45753541Y-80818985D01*
X45753541Y-80818985D02*
X45824970Y-80747557D01*
X45824970Y-80747557D02*
X45967827Y-80676128D01*
X45967827Y-80676128D02*
X46110684Y-80676128D01*
X46396398Y-80676128D02*
X46967826Y-80676128D01*
X46610683Y-80176128D02*
X46610683Y-81461842D01*
X46610683Y-81461842D02*
X46682112Y-81604700D01*
X46682112Y-81604700D02*
X46824969Y-81676128D01*
X46824969Y-81676128D02*
X46967826Y-81676128D01*
X47467826Y-81676128D02*
X47467826Y-80676128D01*
X47467826Y-80961842D02*
X47539255Y-80818985D01*
X47539255Y-80818985D02*
X47610684Y-80747557D01*
X47610684Y-80747557D02*
X47753541Y-80676128D01*
X47753541Y-80676128D02*
X47896398Y-80676128D01*
X49039255Y-81676128D02*
X49039255Y-80890414D01*
X49039255Y-80890414D02*
X48967826Y-80747557D01*
X48967826Y-80747557D02*
X48824969Y-80676128D01*
X48824969Y-80676128D02*
X48539255Y-80676128D01*
X48539255Y-80676128D02*
X48396397Y-80747557D01*
X49039255Y-81604700D02*
X48896397Y-81676128D01*
X48896397Y-81676128D02*
X48539255Y-81676128D01*
X48539255Y-81676128D02*
X48396397Y-81604700D01*
X48396397Y-81604700D02*
X48324969Y-81461842D01*
X48324969Y-81461842D02*
X48324969Y-81318985D01*
X48324969Y-81318985D02*
X48396397Y-81176128D01*
X48396397Y-81176128D02*
X48539255Y-81104700D01*
X48539255Y-81104700D02*
X48896397Y-81104700D01*
X48896397Y-81104700D02*
X49039255Y-81033271D01*
X49753540Y-80676128D02*
X49753540Y-81676128D01*
X49753540Y-80818985D02*
X49824969Y-80747557D01*
X49824969Y-80747557D02*
X49967826Y-80676128D01*
X49967826Y-80676128D02*
X50182112Y-80676128D01*
X50182112Y-80676128D02*
X50324969Y-80747557D01*
X50324969Y-80747557D02*
X50396398Y-80890414D01*
X50396398Y-80890414D02*
X50396398Y-81676128D01*
X51753541Y-81676128D02*
X51753541Y-80176128D01*
X51753541Y-81604700D02*
X51610683Y-81676128D01*
X51610683Y-81676128D02*
X51324969Y-81676128D01*
X51324969Y-81676128D02*
X51182112Y-81604700D01*
X51182112Y-81604700D02*
X51110683Y-81533271D01*
X51110683Y-81533271D02*
X51039255Y-81390414D01*
X51039255Y-81390414D02*
X51039255Y-80961842D01*
X51039255Y-80961842D02*
X51110683Y-80818985D01*
X51110683Y-80818985D02*
X51182112Y-80747557D01*
X51182112Y-80747557D02*
X51324969Y-80676128D01*
X51324969Y-80676128D02*
X51610683Y-80676128D01*
X51610683Y-80676128D02*
X51753541Y-80747557D01*
X52467826Y-81533271D02*
X52539255Y-81604700D01*
X52539255Y-81604700D02*
X52467826Y-81676128D01*
X52467826Y-81676128D02*
X52396398Y-81604700D01*
X52396398Y-81604700D02*
X52467826Y-81533271D01*
X52467826Y-81533271D02*
X52467826Y-81676128D01*
X53182112Y-81676128D02*
X53182112Y-80676128D01*
X53182112Y-80818985D02*
X53253541Y-80747557D01*
X53253541Y-80747557D02*
X53396398Y-80676128D01*
X53396398Y-80676128D02*
X53610684Y-80676128D01*
X53610684Y-80676128D02*
X53753541Y-80747557D01*
X53753541Y-80747557D02*
X53824970Y-80890414D01*
X53824970Y-80890414D02*
X53824970Y-81676128D01*
X53824970Y-80890414D02*
X53896398Y-80747557D01*
X53896398Y-80747557D02*
X54039255Y-80676128D01*
X54039255Y-80676128D02*
X54253541Y-80676128D01*
X54253541Y-80676128D02*
X54396398Y-80747557D01*
X54396398Y-80747557D02*
X54467827Y-80890414D01*
X54467827Y-80890414D02*
X54467827Y-81676128D01*
X55824970Y-81676128D02*
X55824970Y-80890414D01*
X55824970Y-80890414D02*
X55753541Y-80747557D01*
X55753541Y-80747557D02*
X55610684Y-80676128D01*
X55610684Y-80676128D02*
X55324970Y-80676128D01*
X55324970Y-80676128D02*
X55182112Y-80747557D01*
X55824970Y-81604700D02*
X55682112Y-81676128D01*
X55682112Y-81676128D02*
X55324970Y-81676128D01*
X55324970Y-81676128D02*
X55182112Y-81604700D01*
X55182112Y-81604700D02*
X55110684Y-81461842D01*
X55110684Y-81461842D02*
X55110684Y-81318985D01*
X55110684Y-81318985D02*
X55182112Y-81176128D01*
X55182112Y-81176128D02*
X55324970Y-81104700D01*
X55324970Y-81104700D02*
X55682112Y-81104700D01*
X55682112Y-81104700D02*
X55824970Y-81033271D01*
X56467827Y-81604700D02*
X56610684Y-81676128D01*
X56610684Y-81676128D02*
X56896398Y-81676128D01*
X56896398Y-81676128D02*
X57039255Y-81604700D01*
X57039255Y-81604700D02*
X57110684Y-81461842D01*
X57110684Y-81461842D02*
X57110684Y-81390414D01*
X57110684Y-81390414D02*
X57039255Y-81247557D01*
X57039255Y-81247557D02*
X56896398Y-81176128D01*
X56896398Y-81176128D02*
X56682113Y-81176128D01*
X56682113Y-81176128D02*
X56539255Y-81104700D01*
X56539255Y-81104700D02*
X56467827Y-80961842D01*
X56467827Y-80961842D02*
X56467827Y-80890414D01*
X56467827Y-80890414D02*
X56539255Y-80747557D01*
X56539255Y-80747557D02*
X56682113Y-80676128D01*
X56682113Y-80676128D02*
X56896398Y-80676128D01*
X56896398Y-80676128D02*
X57039255Y-80747557D01*
X57682113Y-81604700D02*
X57824970Y-81676128D01*
X57824970Y-81676128D02*
X58110684Y-81676128D01*
X58110684Y-81676128D02*
X58253541Y-81604700D01*
X58253541Y-81604700D02*
X58324970Y-81461842D01*
X58324970Y-81461842D02*
X58324970Y-81390414D01*
X58324970Y-81390414D02*
X58253541Y-81247557D01*
X58253541Y-81247557D02*
X58110684Y-81176128D01*
X58110684Y-81176128D02*
X57896399Y-81176128D01*
X57896399Y-81176128D02*
X57753541Y-81104700D01*
X57753541Y-81104700D02*
X57682113Y-80961842D01*
X57682113Y-80961842D02*
X57682113Y-80890414D01*
X57682113Y-80890414D02*
X57753541Y-80747557D01*
X57753541Y-80747557D02*
X57896399Y-80676128D01*
X57896399Y-80676128D02*
X58110684Y-80676128D01*
X58110684Y-80676128D02*
X58253541Y-80747557D01*
X59182113Y-81676128D02*
X59039256Y-81604700D01*
X59039256Y-81604700D02*
X58967827Y-81533271D01*
X58967827Y-81533271D02*
X58896399Y-81390414D01*
X58896399Y-81390414D02*
X58896399Y-80961842D01*
X58896399Y-80961842D02*
X58967827Y-80818985D01*
X58967827Y-80818985D02*
X59039256Y-80747557D01*
X59039256Y-80747557D02*
X59182113Y-80676128D01*
X59182113Y-80676128D02*
X59396399Y-80676128D01*
X59396399Y-80676128D02*
X59539256Y-80747557D01*
X59539256Y-80747557D02*
X59610685Y-80818985D01*
X59610685Y-80818985D02*
X59682113Y-80961842D01*
X59682113Y-80961842D02*
X59682113Y-81390414D01*
X59682113Y-81390414D02*
X59610685Y-81533271D01*
X59610685Y-81533271D02*
X59539256Y-81604700D01*
X59539256Y-81604700D02*
X59396399Y-81676128D01*
X59396399Y-81676128D02*
X59182113Y-81676128D01*
X60110685Y-80676128D02*
X60682113Y-80676128D01*
X60324970Y-80176128D02*
X60324970Y-81461842D01*
X60324970Y-81461842D02*
X60396399Y-81604700D01*
X60396399Y-81604700D02*
X60539256Y-81676128D01*
X60539256Y-81676128D02*
X60682113Y-81676128D01*
X62110685Y-80961842D02*
X62039256Y-80890414D01*
X62039256Y-80890414D02*
X61896399Y-80818985D01*
X61896399Y-80818985D02*
X61753542Y-80818985D01*
X61753542Y-80818985D02*
X61610685Y-80890414D01*
X61610685Y-80890414D02*
X61539256Y-80961842D01*
X61539256Y-80961842D02*
X61467828Y-81104700D01*
X61467828Y-81104700D02*
X61467828Y-81247557D01*
X61467828Y-81247557D02*
X61539256Y-81390414D01*
X61539256Y-81390414D02*
X61610685Y-81461842D01*
X61610685Y-81461842D02*
X61753542Y-81533271D01*
X61753542Y-81533271D02*
X61896399Y-81533271D01*
X61896399Y-81533271D02*
X62039256Y-81461842D01*
X62039256Y-81461842D02*
X62110685Y-81390414D01*
X62110685Y-80818985D02*
X62110685Y-81390414D01*
X62110685Y-81390414D02*
X62182113Y-81461842D01*
X62182113Y-81461842D02*
X62253542Y-81461842D01*
X62253542Y-81461842D02*
X62396399Y-81390414D01*
X62396399Y-81390414D02*
X62467828Y-81247557D01*
X62467828Y-81247557D02*
X62467828Y-80890414D01*
X62467828Y-80890414D02*
X62324971Y-80676128D01*
X62324971Y-80676128D02*
X62110685Y-80533271D01*
X62110685Y-80533271D02*
X61824971Y-80461842D01*
X61824971Y-80461842D02*
X61539256Y-80533271D01*
X61539256Y-80533271D02*
X61324971Y-80676128D01*
X61324971Y-80676128D02*
X61182113Y-80890414D01*
X61182113Y-80890414D02*
X61110685Y-81176128D01*
X61110685Y-81176128D02*
X61182113Y-81461842D01*
X61182113Y-81461842D02*
X61324971Y-81676128D01*
X61324971Y-81676128D02*
X61539256Y-81818985D01*
X61539256Y-81818985D02*
X61824971Y-81890414D01*
X61824971Y-81890414D02*
X62110685Y-81818985D01*
X62110685Y-81818985D02*
X62324971Y-81676128D01*
X63110684Y-81676128D02*
X63110684Y-80676128D01*
X63110684Y-80176128D02*
X63039256Y-80247557D01*
X63039256Y-80247557D02*
X63110684Y-80318985D01*
X63110684Y-80318985D02*
X63182113Y-80247557D01*
X63182113Y-80247557D02*
X63110684Y-80176128D01*
X63110684Y-80176128D02*
X63110684Y-80318985D01*
X63824970Y-80676128D02*
X63824970Y-81676128D01*
X63824970Y-80818985D02*
X63896399Y-80747557D01*
X63896399Y-80747557D02*
X64039256Y-80676128D01*
X64039256Y-80676128D02*
X64253542Y-80676128D01*
X64253542Y-80676128D02*
X64396399Y-80747557D01*
X64396399Y-80747557D02*
X64467828Y-80890414D01*
X64467828Y-80890414D02*
X64467828Y-81676128D01*
X65110685Y-81604700D02*
X65253542Y-81676128D01*
X65253542Y-81676128D02*
X65539256Y-81676128D01*
X65539256Y-81676128D02*
X65682113Y-81604700D01*
X65682113Y-81604700D02*
X65753542Y-81461842D01*
X65753542Y-81461842D02*
X65753542Y-81390414D01*
X65753542Y-81390414D02*
X65682113Y-81247557D01*
X65682113Y-81247557D02*
X65539256Y-81176128D01*
X65539256Y-81176128D02*
X65324971Y-81176128D01*
X65324971Y-81176128D02*
X65182113Y-81104700D01*
X65182113Y-81104700D02*
X65110685Y-80961842D01*
X65110685Y-80961842D02*
X65110685Y-80890414D01*
X65110685Y-80890414D02*
X65182113Y-80747557D01*
X65182113Y-80747557D02*
X65324971Y-80676128D01*
X65324971Y-80676128D02*
X65539256Y-80676128D01*
X65539256Y-80676128D02*
X65682113Y-80747557D01*
X67039257Y-81676128D02*
X67039257Y-80890414D01*
X67039257Y-80890414D02*
X66967828Y-80747557D01*
X66967828Y-80747557D02*
X66824971Y-80676128D01*
X66824971Y-80676128D02*
X66539257Y-80676128D01*
X66539257Y-80676128D02*
X66396399Y-80747557D01*
X67039257Y-81604700D02*
X66896399Y-81676128D01*
X66896399Y-81676128D02*
X66539257Y-81676128D01*
X66539257Y-81676128D02*
X66396399Y-81604700D01*
X66396399Y-81604700D02*
X66324971Y-81461842D01*
X66324971Y-81461842D02*
X66324971Y-81318985D01*
X66324971Y-81318985D02*
X66396399Y-81176128D01*
X66396399Y-81176128D02*
X66539257Y-81104700D01*
X66539257Y-81104700D02*
X66896399Y-81104700D01*
X66896399Y-81104700D02*
X67039257Y-81033271D01*
X67753542Y-81104700D02*
X68896400Y-81104700D01*
X69824971Y-81676128D02*
X69682114Y-81604700D01*
X69682114Y-81604700D02*
X69610685Y-81461842D01*
X69610685Y-81461842D02*
X69610685Y-80176128D01*
X70253542Y-80676128D02*
X70610685Y-81676128D01*
X70967828Y-80676128D02*
X70610685Y-81676128D01*
X70610685Y-81676128D02*
X70467828Y-82033271D01*
X70467828Y-82033271D02*
X70396399Y-82104700D01*
X70396399Y-82104700D02*
X70253542Y-82176128D01*
X71753542Y-81676128D02*
X71610685Y-81604700D01*
X71610685Y-81604700D02*
X71539256Y-81533271D01*
X71539256Y-81533271D02*
X71467828Y-81390414D01*
X71467828Y-81390414D02*
X71467828Y-80961842D01*
X71467828Y-80961842D02*
X71539256Y-80818985D01*
X71539256Y-80818985D02*
X71610685Y-80747557D01*
X71610685Y-80747557D02*
X71753542Y-80676128D01*
X71753542Y-80676128D02*
X71967828Y-80676128D01*
X71967828Y-80676128D02*
X72110685Y-80747557D01*
X72110685Y-80747557D02*
X72182114Y-80818985D01*
X72182114Y-80818985D02*
X72253542Y-80961842D01*
X72253542Y-80961842D02*
X72253542Y-81390414D01*
X72253542Y-81390414D02*
X72182114Y-81533271D01*
X72182114Y-81533271D02*
X72110685Y-81604700D01*
X72110685Y-81604700D02*
X71967828Y-81676128D01*
X71967828Y-81676128D02*
X71753542Y-81676128D01*
X72896399Y-80676128D02*
X72896399Y-81676128D01*
X72896399Y-80818985D02*
X72967828Y-80747557D01*
X72967828Y-80747557D02*
X73110685Y-80676128D01*
X73110685Y-80676128D02*
X73324971Y-80676128D01*
X73324971Y-80676128D02*
X73467828Y-80747557D01*
X73467828Y-80747557D02*
X73539257Y-80890414D01*
X73539257Y-80890414D02*
X73539257Y-81676128D01*
X74253542Y-81533271D02*
X74324971Y-81604700D01*
X74324971Y-81604700D02*
X74253542Y-81676128D01*
X74253542Y-81676128D02*
X74182114Y-81604700D01*
X74182114Y-81604700D02*
X74253542Y-81533271D01*
X74253542Y-81533271D02*
X74253542Y-81676128D01*
X74753543Y-80676128D02*
X75324971Y-80676128D01*
X74967828Y-81676128D02*
X74967828Y-80390414D01*
X74967828Y-80390414D02*
X75039257Y-80247557D01*
X75039257Y-80247557D02*
X75182114Y-80176128D01*
X75182114Y-80176128D02*
X75324971Y-80176128D01*
X75824971Y-81676128D02*
X75824971Y-80676128D01*
X75824971Y-80961842D02*
X75896400Y-80818985D01*
X75896400Y-80818985D02*
X75967829Y-80747557D01*
X75967829Y-80747557D02*
X76110686Y-80676128D01*
X76110686Y-80676128D02*
X76253543Y-80676128D01*
D10*
D11*
X31396398Y-78247557D02*
X32110684Y-78247557D01*
X31253541Y-78676128D02*
X31753541Y-77176128D01*
X31753541Y-77176128D02*
X32253541Y-78676128D01*
X33396398Y-77676128D02*
X33396398Y-78676128D01*
X32753540Y-77676128D02*
X32753540Y-78461842D01*
X32753540Y-78461842D02*
X32824969Y-78604700D01*
X32824969Y-78604700D02*
X32967826Y-78676128D01*
X32967826Y-78676128D02*
X33182112Y-78676128D01*
X33182112Y-78676128D02*
X33324969Y-78604700D01*
X33324969Y-78604700D02*
X33396398Y-78533271D01*
X33896398Y-77676128D02*
X34467826Y-77676128D01*
X34110683Y-77176128D02*
X34110683Y-78461842D01*
X34110683Y-78461842D02*
X34182112Y-78604700D01*
X34182112Y-78604700D02*
X34324969Y-78676128D01*
X34324969Y-78676128D02*
X34467826Y-78676128D01*
X34967826Y-78676128D02*
X34967826Y-77176128D01*
X35610684Y-78676128D02*
X35610684Y-77890414D01*
X35610684Y-77890414D02*
X35539255Y-77747557D01*
X35539255Y-77747557D02*
X35396398Y-77676128D01*
X35396398Y-77676128D02*
X35182112Y-77676128D01*
X35182112Y-77676128D02*
X35039255Y-77747557D01*
X35039255Y-77747557D02*
X34967826Y-77818985D01*
X36539255Y-78676128D02*
X36396398Y-78604700D01*
X36396398Y-78604700D02*
X36324969Y-78533271D01*
X36324969Y-78533271D02*
X36253541Y-78390414D01*
X36253541Y-78390414D02*
X36253541Y-77961842D01*
X36253541Y-77961842D02*
X36324969Y-77818985D01*
X36324969Y-77818985D02*
X36396398Y-77747557D01*
X36396398Y-77747557D02*
X36539255Y-77676128D01*
X36539255Y-77676128D02*
X36753541Y-77676128D01*
X36753541Y-77676128D02*
X36896398Y-77747557D01*
X36896398Y-77747557D02*
X36967827Y-77818985D01*
X36967827Y-77818985D02*
X37039255Y-77961842D01*
X37039255Y-77961842D02*
X37039255Y-78390414D01*
X37039255Y-78390414D02*
X36967827Y-78533271D01*
X36967827Y-78533271D02*
X36896398Y-78604700D01*
X36896398Y-78604700D02*
X36753541Y-78676128D01*
X36753541Y-78676128D02*
X36539255Y-78676128D01*
X37682112Y-78676128D02*
X37682112Y-77676128D01*
X37682112Y-77961842D02*
X37753541Y-77818985D01*
X37753541Y-77818985D02*
X37824970Y-77747557D01*
X37824970Y-77747557D02*
X37967827Y-77676128D01*
X37967827Y-77676128D02*
X38110684Y-77676128D01*
X38539255Y-78604700D02*
X38682112Y-78676128D01*
X38682112Y-78676128D02*
X38967826Y-78676128D01*
X38967826Y-78676128D02*
X39110683Y-78604700D01*
X39110683Y-78604700D02*
X39182112Y-78461842D01*
X39182112Y-78461842D02*
X39182112Y-78390414D01*
X39182112Y-78390414D02*
X39110683Y-78247557D01*
X39110683Y-78247557D02*
X38967826Y-78176128D01*
X38967826Y-78176128D02*
X38753541Y-78176128D01*
X38753541Y-78176128D02*
X38610683Y-78104700D01*
X38610683Y-78104700D02*
X38539255Y-77961842D01*
X38539255Y-77961842D02*
X38539255Y-77890414D01*
X38539255Y-77890414D02*
X38610683Y-77747557D01*
X38610683Y-77747557D02*
X38753541Y-77676128D01*
X38753541Y-77676128D02*
X38967826Y-77676128D01*
X38967826Y-77676128D02*
X39110683Y-77747557D01*
X40967826Y-78533271D02*
X41039255Y-78604700D01*
X41039255Y-78604700D02*
X40967826Y-78676128D01*
X40967826Y-78676128D02*
X40896398Y-78604700D01*
X40896398Y-78604700D02*
X40967826Y-78533271D01*
X40967826Y-78533271D02*
X40967826Y-78676128D01*
X40967826Y-77747557D02*
X41039255Y-77818985D01*
X41039255Y-77818985D02*
X40967826Y-77890414D01*
X40967826Y-77890414D02*
X40896398Y-77818985D01*
X40896398Y-77818985D02*
X40967826Y-77747557D01*
X40967826Y-77747557D02*
X40967826Y-77890414D01*
X43324969Y-77890414D02*
X43539255Y-77961842D01*
X43539255Y-77961842D02*
X43610684Y-78033271D01*
X43610684Y-78033271D02*
X43682112Y-78176128D01*
X43682112Y-78176128D02*
X43682112Y-78390414D01*
X43682112Y-78390414D02*
X43610684Y-78533271D01*
X43610684Y-78533271D02*
X43539255Y-78604700D01*
X43539255Y-78604700D02*
X43396398Y-78676128D01*
X43396398Y-78676128D02*
X42824969Y-78676128D01*
X42824969Y-78676128D02*
X42824969Y-77176128D01*
X42824969Y-77176128D02*
X43324969Y-77176128D01*
X43324969Y-77176128D02*
X43467827Y-77247557D01*
X43467827Y-77247557D02*
X43539255Y-77318985D01*
X43539255Y-77318985D02*
X43610684Y-77461842D01*
X43610684Y-77461842D02*
X43610684Y-77604700D01*
X43610684Y-77604700D02*
X43539255Y-77747557D01*
X43539255Y-77747557D02*
X43467827Y-77818985D01*
X43467827Y-77818985D02*
X43324969Y-77890414D01*
X43324969Y-77890414D02*
X42824969Y-77890414D01*
X44896398Y-78604700D02*
X44753541Y-78676128D01*
X44753541Y-78676128D02*
X44467827Y-78676128D01*
X44467827Y-78676128D02*
X44324969Y-78604700D01*
X44324969Y-78604700D02*
X44253541Y-78461842D01*
X44253541Y-78461842D02*
X44253541Y-77890414D01*
X44253541Y-77890414D02*
X44324969Y-77747557D01*
X44324969Y-77747557D02*
X44467827Y-77676128D01*
X44467827Y-77676128D02*
X44753541Y-77676128D01*
X44753541Y-77676128D02*
X44896398Y-77747557D01*
X44896398Y-77747557D02*
X44967827Y-77890414D01*
X44967827Y-77890414D02*
X44967827Y-78033271D01*
X44967827Y-78033271D02*
X44253541Y-78176128D01*
X45610683Y-78676128D02*
X45610683Y-77676128D01*
X45610683Y-77961842D02*
X45682112Y-77818985D01*
X45682112Y-77818985D02*
X45753541Y-77747557D01*
X45753541Y-77747557D02*
X45896398Y-77676128D01*
X45896398Y-77676128D02*
X46039255Y-77676128D01*
X46324969Y-77676128D02*
X46896397Y-77676128D01*
X46539254Y-77176128D02*
X46539254Y-78461842D01*
X46539254Y-78461842D02*
X46610683Y-78604700D01*
X46610683Y-78604700D02*
X46753540Y-78676128D01*
X46753540Y-78676128D02*
X46896397Y-78676128D01*
X47396397Y-78676128D02*
X47396397Y-77676128D01*
X47396397Y-77961842D02*
X47467826Y-77818985D01*
X47467826Y-77818985D02*
X47539255Y-77747557D01*
X47539255Y-77747557D02*
X47682112Y-77676128D01*
X47682112Y-77676128D02*
X47824969Y-77676128D01*
X48967826Y-78676128D02*
X48967826Y-77890414D01*
X48967826Y-77890414D02*
X48896397Y-77747557D01*
X48896397Y-77747557D02*
X48753540Y-77676128D01*
X48753540Y-77676128D02*
X48467826Y-77676128D01*
X48467826Y-77676128D02*
X48324968Y-77747557D01*
X48967826Y-78604700D02*
X48824968Y-78676128D01*
X48824968Y-78676128D02*
X48467826Y-78676128D01*
X48467826Y-78676128D02*
X48324968Y-78604700D01*
X48324968Y-78604700D02*
X48253540Y-78461842D01*
X48253540Y-78461842D02*
X48253540Y-78318985D01*
X48253540Y-78318985D02*
X48324968Y-78176128D01*
X48324968Y-78176128D02*
X48467826Y-78104700D01*
X48467826Y-78104700D02*
X48824968Y-78104700D01*
X48824968Y-78104700D02*
X48967826Y-78033271D01*
X49682111Y-77676128D02*
X49682111Y-78676128D01*
X49682111Y-77818985D02*
X49753540Y-77747557D01*
X49753540Y-77747557D02*
X49896397Y-77676128D01*
X49896397Y-77676128D02*
X50110683Y-77676128D01*
X50110683Y-77676128D02*
X50253540Y-77747557D01*
X50253540Y-77747557D02*
X50324969Y-77890414D01*
X50324969Y-77890414D02*
X50324969Y-78676128D01*
X51682112Y-78676128D02*
X51682112Y-77176128D01*
X51682112Y-78604700D02*
X51539254Y-78676128D01*
X51539254Y-78676128D02*
X51253540Y-78676128D01*
X51253540Y-78676128D02*
X51110683Y-78604700D01*
X51110683Y-78604700D02*
X51039254Y-78533271D01*
X51039254Y-78533271D02*
X50967826Y-78390414D01*
X50967826Y-78390414D02*
X50967826Y-77961842D01*
X50967826Y-77961842D02*
X51039254Y-77818985D01*
X51039254Y-77818985D02*
X51110683Y-77747557D01*
X51110683Y-77747557D02*
X51253540Y-77676128D01*
X51253540Y-77676128D02*
X51539254Y-77676128D01*
X51539254Y-77676128D02*
X51682112Y-77747557D01*
X53539254Y-78676128D02*
X53539254Y-77176128D01*
X53539254Y-77176128D02*
X54039254Y-78247557D01*
X54039254Y-78247557D02*
X54539254Y-77176128D01*
X54539254Y-77176128D02*
X54539254Y-78676128D01*
X55896398Y-78676128D02*
X55896398Y-77890414D01*
X55896398Y-77890414D02*
X55824969Y-77747557D01*
X55824969Y-77747557D02*
X55682112Y-77676128D01*
X55682112Y-77676128D02*
X55396398Y-77676128D01*
X55396398Y-77676128D02*
X55253540Y-77747557D01*
X55896398Y-78604700D02*
X55753540Y-78676128D01*
X55753540Y-78676128D02*
X55396398Y-78676128D01*
X55396398Y-78676128D02*
X55253540Y-78604700D01*
X55253540Y-78604700D02*
X55182112Y-78461842D01*
X55182112Y-78461842D02*
X55182112Y-78318985D01*
X55182112Y-78318985D02*
X55253540Y-78176128D01*
X55253540Y-78176128D02*
X55396398Y-78104700D01*
X55396398Y-78104700D02*
X55753540Y-78104700D01*
X55753540Y-78104700D02*
X55896398Y-78033271D01*
X56539255Y-78604700D02*
X56682112Y-78676128D01*
X56682112Y-78676128D02*
X56967826Y-78676128D01*
X56967826Y-78676128D02*
X57110683Y-78604700D01*
X57110683Y-78604700D02*
X57182112Y-78461842D01*
X57182112Y-78461842D02*
X57182112Y-78390414D01*
X57182112Y-78390414D02*
X57110683Y-78247557D01*
X57110683Y-78247557D02*
X56967826Y-78176128D01*
X56967826Y-78176128D02*
X56753541Y-78176128D01*
X56753541Y-78176128D02*
X56610683Y-78104700D01*
X56610683Y-78104700D02*
X56539255Y-77961842D01*
X56539255Y-77961842D02*
X56539255Y-77890414D01*
X56539255Y-77890414D02*
X56610683Y-77747557D01*
X56610683Y-77747557D02*
X56753541Y-77676128D01*
X56753541Y-77676128D02*
X56967826Y-77676128D01*
X56967826Y-77676128D02*
X57110683Y-77747557D01*
X57753541Y-78604700D02*
X57896398Y-78676128D01*
X57896398Y-78676128D02*
X58182112Y-78676128D01*
X58182112Y-78676128D02*
X58324969Y-78604700D01*
X58324969Y-78604700D02*
X58396398Y-78461842D01*
X58396398Y-78461842D02*
X58396398Y-78390414D01*
X58396398Y-78390414D02*
X58324969Y-78247557D01*
X58324969Y-78247557D02*
X58182112Y-78176128D01*
X58182112Y-78176128D02*
X57967827Y-78176128D01*
X57967827Y-78176128D02*
X57824969Y-78104700D01*
X57824969Y-78104700D02*
X57753541Y-77961842D01*
X57753541Y-77961842D02*
X57753541Y-77890414D01*
X57753541Y-77890414D02*
X57824969Y-77747557D01*
X57824969Y-77747557D02*
X57967827Y-77676128D01*
X57967827Y-77676128D02*
X58182112Y-77676128D01*
X58182112Y-77676128D02*
X58324969Y-77747557D01*
X59253541Y-78676128D02*
X59110684Y-78604700D01*
X59110684Y-78604700D02*
X59039255Y-78533271D01*
X59039255Y-78533271D02*
X58967827Y-78390414D01*
X58967827Y-78390414D02*
X58967827Y-77961842D01*
X58967827Y-77961842D02*
X59039255Y-77818985D01*
X59039255Y-77818985D02*
X59110684Y-77747557D01*
X59110684Y-77747557D02*
X59253541Y-77676128D01*
X59253541Y-77676128D02*
X59467827Y-77676128D01*
X59467827Y-77676128D02*
X59610684Y-77747557D01*
X59610684Y-77747557D02*
X59682113Y-77818985D01*
X59682113Y-77818985D02*
X59753541Y-77961842D01*
X59753541Y-77961842D02*
X59753541Y-78390414D01*
X59753541Y-78390414D02*
X59682113Y-78533271D01*
X59682113Y-78533271D02*
X59610684Y-78604700D01*
X59610684Y-78604700D02*
X59467827Y-78676128D01*
X59467827Y-78676128D02*
X59253541Y-78676128D01*
X60182113Y-77676128D02*
X60753541Y-77676128D01*
X60396398Y-77176128D02*
X60396398Y-78461842D01*
X60396398Y-78461842D02*
X60467827Y-78604700D01*
X60467827Y-78604700D02*
X60610684Y-78676128D01*
X60610684Y-78676128D02*
X60753541Y-78676128D01*
X61324970Y-78604700D02*
X61324970Y-78676128D01*
X61324970Y-78676128D02*
X61253541Y-78818985D01*
X61253541Y-78818985D02*
X61182113Y-78890414D01*
X63110684Y-78676128D02*
X63110684Y-77176128D01*
X63110684Y-77176128D02*
X63610684Y-78247557D01*
X63610684Y-78247557D02*
X64110684Y-77176128D01*
X64110684Y-77176128D02*
X64110684Y-78676128D01*
X65467828Y-78676128D02*
X65467828Y-77890414D01*
X65467828Y-77890414D02*
X65396399Y-77747557D01*
X65396399Y-77747557D02*
X65253542Y-77676128D01*
X65253542Y-77676128D02*
X64967828Y-77676128D01*
X64967828Y-77676128D02*
X64824970Y-77747557D01*
X65467828Y-78604700D02*
X65324970Y-78676128D01*
X65324970Y-78676128D02*
X64967828Y-78676128D01*
X64967828Y-78676128D02*
X64824970Y-78604700D01*
X64824970Y-78604700D02*
X64753542Y-78461842D01*
X64753542Y-78461842D02*
X64753542Y-78318985D01*
X64753542Y-78318985D02*
X64824970Y-78176128D01*
X64824970Y-78176128D02*
X64967828Y-78104700D01*
X64967828Y-78104700D02*
X65324970Y-78104700D01*
X65324970Y-78104700D02*
X65467828Y-78033271D01*
X65967828Y-77676128D02*
X66539256Y-77676128D01*
X66182113Y-77176128D02*
X66182113Y-78461842D01*
X66182113Y-78461842D02*
X66253542Y-78604700D01*
X66253542Y-78604700D02*
X66396399Y-78676128D01*
X66396399Y-78676128D02*
X66539256Y-78676128D01*
X66824971Y-77676128D02*
X67396399Y-77676128D01*
X67039256Y-77176128D02*
X67039256Y-78461842D01*
X67039256Y-78461842D02*
X67110685Y-78604700D01*
X67110685Y-78604700D02*
X67253542Y-78676128D01*
X67253542Y-78676128D02*
X67396399Y-78676128D01*
X67896399Y-78676128D02*
X67896399Y-77176128D01*
X68539257Y-78676128D02*
X68539257Y-77890414D01*
X68539257Y-77890414D02*
X68467828Y-77747557D01*
X68467828Y-77747557D02*
X68324971Y-77676128D01*
X68324971Y-77676128D02*
X68110685Y-77676128D01*
X68110685Y-77676128D02*
X67967828Y-77747557D01*
X67967828Y-77747557D02*
X67896399Y-77818985D01*
X69253542Y-78676128D02*
X69253542Y-77676128D01*
X69253542Y-77176128D02*
X69182114Y-77247557D01*
X69182114Y-77247557D02*
X69253542Y-77318985D01*
X69253542Y-77318985D02*
X69324971Y-77247557D01*
X69324971Y-77247557D02*
X69253542Y-77176128D01*
X69253542Y-77176128D02*
X69253542Y-77318985D01*
X70539257Y-78604700D02*
X70396400Y-78676128D01*
X70396400Y-78676128D02*
X70110686Y-78676128D01*
X70110686Y-78676128D02*
X69967828Y-78604700D01*
X69967828Y-78604700D02*
X69896400Y-78461842D01*
X69896400Y-78461842D02*
X69896400Y-77890414D01*
X69896400Y-77890414D02*
X69967828Y-77747557D01*
X69967828Y-77747557D02*
X70110686Y-77676128D01*
X70110686Y-77676128D02*
X70396400Y-77676128D01*
X70396400Y-77676128D02*
X70539257Y-77747557D01*
X70539257Y-77747557D02*
X70610686Y-77890414D01*
X70610686Y-77890414D02*
X70610686Y-78033271D01*
X70610686Y-78033271D02*
X69896400Y-78176128D01*
X71896400Y-77676128D02*
X71896400Y-78676128D01*
X71253542Y-77676128D02*
X71253542Y-78461842D01*
X71253542Y-78461842D02*
X71324971Y-78604700D01*
X71324971Y-78604700D02*
X71467828Y-78676128D01*
X71467828Y-78676128D02*
X71682114Y-78676128D01*
X71682114Y-78676128D02*
X71824971Y-78604700D01*
X71824971Y-78604700D02*
X71896400Y-78533271D01*
X73753542Y-78676128D02*
X73753542Y-77176128D01*
X73753542Y-77176128D02*
X74253542Y-78247557D01*
X74253542Y-78247557D02*
X74753542Y-77176128D01*
X74753542Y-77176128D02*
X74753542Y-78676128D01*
X76039257Y-78604700D02*
X75896400Y-78676128D01*
X75896400Y-78676128D02*
X75610686Y-78676128D01*
X75610686Y-78676128D02*
X75467828Y-78604700D01*
X75467828Y-78604700D02*
X75396400Y-78461842D01*
X75396400Y-78461842D02*
X75396400Y-77890414D01*
X75396400Y-77890414D02*
X75467828Y-77747557D01*
X75467828Y-77747557D02*
X75610686Y-77676128D01*
X75610686Y-77676128D02*
X75896400Y-77676128D01*
X75896400Y-77676128D02*
X76039257Y-77747557D01*
X76039257Y-77747557D02*
X76110686Y-77890414D01*
X76110686Y-77890414D02*
X76110686Y-78033271D01*
X76110686Y-78033271D02*
X75396400Y-78176128D01*
X76682114Y-78604700D02*
X76824971Y-78676128D01*
X76824971Y-78676128D02*
X77110685Y-78676128D01*
X77110685Y-78676128D02*
X77253542Y-78604700D01*
X77253542Y-78604700D02*
X77324971Y-78461842D01*
X77324971Y-78461842D02*
X77324971Y-78390414D01*
X77324971Y-78390414D02*
X77253542Y-78247557D01*
X77253542Y-78247557D02*
X77110685Y-78176128D01*
X77110685Y-78176128D02*
X76896400Y-78176128D01*
X76896400Y-78176128D02*
X76753542Y-78104700D01*
X76753542Y-78104700D02*
X76682114Y-77961842D01*
X76682114Y-77961842D02*
X76682114Y-77890414D01*
X76682114Y-77890414D02*
X76753542Y-77747557D01*
X76753542Y-77747557D02*
X76896400Y-77676128D01*
X76896400Y-77676128D02*
X77110685Y-77676128D01*
X77110685Y-77676128D02*
X77253542Y-77747557D01*
X77967828Y-77676128D02*
X77967828Y-78676128D01*
X77967828Y-77818985D02*
X78039257Y-77747557D01*
X78039257Y-77747557D02*
X78182114Y-77676128D01*
X78182114Y-77676128D02*
X78396400Y-77676128D01*
X78396400Y-77676128D02*
X78539257Y-77747557D01*
X78539257Y-77747557D02*
X78610686Y-77890414D01*
X78610686Y-77890414D02*
X78610686Y-78676128D01*
X79967829Y-78676128D02*
X79967829Y-77890414D01*
X79967829Y-77890414D02*
X79896400Y-77747557D01*
X79896400Y-77747557D02*
X79753543Y-77676128D01*
X79753543Y-77676128D02*
X79467829Y-77676128D01*
X79467829Y-77676128D02*
X79324971Y-77747557D01*
X79967829Y-78604700D02*
X79824971Y-78676128D01*
X79824971Y-78676128D02*
X79467829Y-78676128D01*
X79467829Y-78676128D02*
X79324971Y-78604700D01*
X79324971Y-78604700D02*
X79253543Y-78461842D01*
X79253543Y-78461842D02*
X79253543Y-78318985D01*
X79253543Y-78318985D02*
X79324971Y-78176128D01*
X79324971Y-78176128D02*
X79467829Y-78104700D01*
X79467829Y-78104700D02*
X79824971Y-78104700D01*
X79824971Y-78104700D02*
X79967829Y-78033271D01*
X81324972Y-77676128D02*
X81324972Y-78890414D01*
X81324972Y-78890414D02*
X81253543Y-79033271D01*
X81253543Y-79033271D02*
X81182114Y-79104700D01*
X81182114Y-79104700D02*
X81039257Y-79176128D01*
X81039257Y-79176128D02*
X80824972Y-79176128D01*
X80824972Y-79176128D02*
X80682114Y-79104700D01*
X81324972Y-78604700D02*
X81182114Y-78676128D01*
X81182114Y-78676128D02*
X80896400Y-78676128D01*
X80896400Y-78676128D02*
X80753543Y-78604700D01*
X80753543Y-78604700D02*
X80682114Y-78533271D01*
X80682114Y-78533271D02*
X80610686Y-78390414D01*
X80610686Y-78390414D02*
X80610686Y-77961842D01*
X80610686Y-77961842D02*
X80682114Y-77818985D01*
X80682114Y-77818985D02*
X80753543Y-77747557D01*
X80753543Y-77747557D02*
X80896400Y-77676128D01*
X80896400Y-77676128D02*
X81182114Y-77676128D01*
X81182114Y-77676128D02*
X81324972Y-77747557D01*
X82610686Y-78604700D02*
X82467829Y-78676128D01*
X82467829Y-78676128D02*
X82182115Y-78676128D01*
X82182115Y-78676128D02*
X82039257Y-78604700D01*
X82039257Y-78604700D02*
X81967829Y-78461842D01*
X81967829Y-78461842D02*
X81967829Y-77890414D01*
X81967829Y-77890414D02*
X82039257Y-77747557D01*
X82039257Y-77747557D02*
X82182115Y-77676128D01*
X82182115Y-77676128D02*
X82467829Y-77676128D01*
X82467829Y-77676128D02*
X82610686Y-77747557D01*
X82610686Y-77747557D02*
X82682115Y-77890414D01*
X82682115Y-77890414D02*
X82682115Y-78033271D01*
X82682115Y-78033271D02*
X81967829Y-78176128D01*
X83396400Y-78604700D02*
X83396400Y-78676128D01*
X83396400Y-78676128D02*
X83324971Y-78818985D01*
X83324971Y-78818985D02*
X83253543Y-78890414D01*
X85182114Y-78676128D02*
X85182114Y-77176128D01*
X85182114Y-77890414D02*
X86039257Y-77890414D01*
X86039257Y-78676128D02*
X86039257Y-77176128D01*
X87396401Y-77676128D02*
X87396401Y-78676128D01*
X86753543Y-77676128D02*
X86753543Y-78461842D01*
X86753543Y-78461842D02*
X86824972Y-78604700D01*
X86824972Y-78604700D02*
X86967829Y-78676128D01*
X86967829Y-78676128D02*
X87182115Y-78676128D01*
X87182115Y-78676128D02*
X87324972Y-78604700D01*
X87324972Y-78604700D02*
X87396401Y-78533271D01*
X88753544Y-77676128D02*
X88753544Y-78890414D01*
X88753544Y-78890414D02*
X88682115Y-79033271D01*
X88682115Y-79033271D02*
X88610686Y-79104700D01*
X88610686Y-79104700D02*
X88467829Y-79176128D01*
X88467829Y-79176128D02*
X88253544Y-79176128D01*
X88253544Y-79176128D02*
X88110686Y-79104700D01*
X88753544Y-78604700D02*
X88610686Y-78676128D01*
X88610686Y-78676128D02*
X88324972Y-78676128D01*
X88324972Y-78676128D02*
X88182115Y-78604700D01*
X88182115Y-78604700D02*
X88110686Y-78533271D01*
X88110686Y-78533271D02*
X88039258Y-78390414D01*
X88039258Y-78390414D02*
X88039258Y-77961842D01*
X88039258Y-77961842D02*
X88110686Y-77818985D01*
X88110686Y-77818985D02*
X88182115Y-77747557D01*
X88182115Y-77747557D02*
X88324972Y-77676128D01*
X88324972Y-77676128D02*
X88610686Y-77676128D01*
X88610686Y-77676128D02*
X88753544Y-77747557D01*
X89682115Y-78676128D02*
X89539258Y-78604700D01*
X89539258Y-78604700D02*
X89467829Y-78533271D01*
X89467829Y-78533271D02*
X89396401Y-78390414D01*
X89396401Y-78390414D02*
X89396401Y-77961842D01*
X89396401Y-77961842D02*
X89467829Y-77818985D01*
X89467829Y-77818985D02*
X89539258Y-77747557D01*
X89539258Y-77747557D02*
X89682115Y-77676128D01*
X89682115Y-77676128D02*
X89896401Y-77676128D01*
X89896401Y-77676128D02*
X90039258Y-77747557D01*
X90039258Y-77747557D02*
X90110687Y-77818985D01*
X90110687Y-77818985D02*
X90182115Y-77961842D01*
X90182115Y-77961842D02*
X90182115Y-78390414D01*
X90182115Y-78390414D02*
X90110687Y-78533271D01*
X90110687Y-78533271D02*
X90039258Y-78604700D01*
X90039258Y-78604700D02*
X89896401Y-78676128D01*
X89896401Y-78676128D02*
X89682115Y-78676128D01*
X92467829Y-77890414D02*
X92682115Y-77961842D01*
X92682115Y-77961842D02*
X92753544Y-78033271D01*
X92753544Y-78033271D02*
X92824972Y-78176128D01*
X92824972Y-78176128D02*
X92824972Y-78390414D01*
X92824972Y-78390414D02*
X92753544Y-78533271D01*
X92753544Y-78533271D02*
X92682115Y-78604700D01*
X92682115Y-78604700D02*
X92539258Y-78676128D01*
X92539258Y-78676128D02*
X91967829Y-78676128D01*
X91967829Y-78676128D02*
X91967829Y-77176128D01*
X91967829Y-77176128D02*
X92467829Y-77176128D01*
X92467829Y-77176128D02*
X92610687Y-77247557D01*
X92610687Y-77247557D02*
X92682115Y-77318985D01*
X92682115Y-77318985D02*
X92753544Y-77461842D01*
X92753544Y-77461842D02*
X92753544Y-77604700D01*
X92753544Y-77604700D02*
X92682115Y-77747557D01*
X92682115Y-77747557D02*
X92610687Y-77818985D01*
X92610687Y-77818985D02*
X92467829Y-77890414D01*
X92467829Y-77890414D02*
X91967829Y-77890414D01*
X94110687Y-77676128D02*
X94110687Y-78676128D01*
X93467829Y-77676128D02*
X93467829Y-78461842D01*
X93467829Y-78461842D02*
X93539258Y-78604700D01*
X93539258Y-78604700D02*
X93682115Y-78676128D01*
X93682115Y-78676128D02*
X93896401Y-78676128D01*
X93896401Y-78676128D02*
X94039258Y-78604700D01*
X94039258Y-78604700D02*
X94110687Y-78533271D01*
X94682115Y-77676128D02*
X95039258Y-78676128D01*
X95396401Y-77676128D02*
X95039258Y-78676128D01*
X95039258Y-78676128D02*
X94896401Y-79033271D01*
X94896401Y-79033271D02*
X94824972Y-79104700D01*
X94824972Y-79104700D02*
X94682115Y-79176128D01*
D10*
D11*
X50012000Y-101490000D02*
X50012000Y-104490000D01*
D10*
D11*
X114012000Y-101490000D02*
X114012000Y-107990000D01*
D12*
X66800225Y-46330828D02*
X67657368Y-46330828D01*
X67228796Y-47830828D02*
X67228796Y-46330828D01*
X68371653Y-47830828D02*
X68228796Y-47759400D01*
X68228796Y-47759400D02*
X68157367Y-47687971D01*
X68157367Y-47687971D02*
X68085939Y-47545114D01*
X68085939Y-47545114D02*
X68085939Y-47116542D01*
X68085939Y-47116542D02*
X68157367Y-46973685D01*
X68157367Y-46973685D02*
X68228796Y-46902257D01*
X68228796Y-46902257D02*
X68371653Y-46830828D01*
X68371653Y-46830828D02*
X68585939Y-46830828D01*
X68585939Y-46830828D02*
X68728796Y-46902257D01*
X68728796Y-46902257D02*
X68800225Y-46973685D01*
X68800225Y-46973685D02*
X68871653Y-47116542D01*
X68871653Y-47116542D02*
X68871653Y-47545114D01*
X68871653Y-47545114D02*
X68800225Y-47687971D01*
X68800225Y-47687971D02*
X68728796Y-47759400D01*
X68728796Y-47759400D02*
X68585939Y-47830828D01*
X68585939Y-47830828D02*
X68371653Y-47830828D01*
X69514510Y-46830828D02*
X69514510Y-48330828D01*
X69514510Y-46902257D02*
X69657368Y-46830828D01*
X69657368Y-46830828D02*
X69943082Y-46830828D01*
X69943082Y-46830828D02*
X70085939Y-46902257D01*
X70085939Y-46902257D02*
X70157368Y-46973685D01*
X70157368Y-46973685D02*
X70228796Y-47116542D01*
X70228796Y-47116542D02*
X70228796Y-47545114D01*
X70228796Y-47545114D02*
X70157368Y-47687971D01*
X70157368Y-47687971D02*
X70085939Y-47759400D01*
X70085939Y-47759400D02*
X69943082Y-47830828D01*
X69943082Y-47830828D02*
X69657368Y-47830828D01*
X69657368Y-47830828D02*
X69514510Y-47759400D01*
X71943082Y-47759400D02*
X72157368Y-47830828D01*
X72157368Y-47830828D02*
X72514510Y-47830828D01*
X72514510Y-47830828D02*
X72657368Y-47759400D01*
X72657368Y-47759400D02*
X72728796Y-47687971D01*
X72728796Y-47687971D02*
X72800225Y-47545114D01*
X72800225Y-47545114D02*
X72800225Y-47402257D01*
X72800225Y-47402257D02*
X72728796Y-47259400D01*
X72728796Y-47259400D02*
X72657368Y-47187971D01*
X72657368Y-47187971D02*
X72514510Y-47116542D01*
X72514510Y-47116542D02*
X72228796Y-47045114D01*
X72228796Y-47045114D02*
X72085939Y-46973685D01*
X72085939Y-46973685D02*
X72014510Y-46902257D01*
X72014510Y-46902257D02*
X71943082Y-46759400D01*
X71943082Y-46759400D02*
X71943082Y-46616542D01*
X71943082Y-46616542D02*
X72014510Y-46473685D01*
X72014510Y-46473685D02*
X72085939Y-46402257D01*
X72085939Y-46402257D02*
X72228796Y-46330828D01*
X72228796Y-46330828D02*
X72585939Y-46330828D01*
X72585939Y-46330828D02*
X72800225Y-46402257D01*
X73657367Y-47830828D02*
X73514510Y-47759400D01*
X73514510Y-47759400D02*
X73443081Y-47687971D01*
X73443081Y-47687971D02*
X73371653Y-47545114D01*
X73371653Y-47545114D02*
X73371653Y-47116542D01*
X73371653Y-47116542D02*
X73443081Y-46973685D01*
X73443081Y-46973685D02*
X73514510Y-46902257D01*
X73514510Y-46902257D02*
X73657367Y-46830828D01*
X73657367Y-46830828D02*
X73871653Y-46830828D01*
X73871653Y-46830828D02*
X74014510Y-46902257D01*
X74014510Y-46902257D02*
X74085939Y-46973685D01*
X74085939Y-46973685D02*
X74157367Y-47116542D01*
X74157367Y-47116542D02*
X74157367Y-47545114D01*
X74157367Y-47545114D02*
X74085939Y-47687971D01*
X74085939Y-47687971D02*
X74014510Y-47759400D01*
X74014510Y-47759400D02*
X73871653Y-47830828D01*
X73871653Y-47830828D02*
X73657367Y-47830828D01*
X75014510Y-47830828D02*
X74871653Y-47759400D01*
X74871653Y-47759400D02*
X74800224Y-47616542D01*
X74800224Y-47616542D02*
X74800224Y-46330828D01*
X76228796Y-47830828D02*
X76228796Y-46330828D01*
X76228796Y-47759400D02*
X76085938Y-47830828D01*
X76085938Y-47830828D02*
X75800224Y-47830828D01*
X75800224Y-47830828D02*
X75657367Y-47759400D01*
X75657367Y-47759400D02*
X75585938Y-47687971D01*
X75585938Y-47687971D02*
X75514510Y-47545114D01*
X75514510Y-47545114D02*
X75514510Y-47116542D01*
X75514510Y-47116542D02*
X75585938Y-46973685D01*
X75585938Y-46973685D02*
X75657367Y-46902257D01*
X75657367Y-46902257D02*
X75800224Y-46830828D01*
X75800224Y-46830828D02*
X76085938Y-46830828D01*
X76085938Y-46830828D02*
X76228796Y-46902257D01*
X77514510Y-47759400D02*
X77371653Y-47830828D01*
X77371653Y-47830828D02*
X77085939Y-47830828D01*
X77085939Y-47830828D02*
X76943081Y-47759400D01*
X76943081Y-47759400D02*
X76871653Y-47616542D01*
X76871653Y-47616542D02*
X76871653Y-47045114D01*
X76871653Y-47045114D02*
X76943081Y-46902257D01*
X76943081Y-46902257D02*
X77085939Y-46830828D01*
X77085939Y-46830828D02*
X77371653Y-46830828D01*
X77371653Y-46830828D02*
X77514510Y-46902257D01*
X77514510Y-46902257D02*
X77585939Y-47045114D01*
X77585939Y-47045114D02*
X77585939Y-47187971D01*
X77585939Y-47187971D02*
X76871653Y-47330828D01*
X78228795Y-47830828D02*
X78228795Y-46830828D01*
X78228795Y-47116542D02*
X78300224Y-46973685D01*
X78300224Y-46973685D02*
X78371653Y-46902257D01*
X78371653Y-46902257D02*
X78514510Y-46830828D01*
X78514510Y-46830828D02*
X78657367Y-46830828D01*
X80300223Y-47830828D02*
X80300223Y-46330828D01*
X80300223Y-46330828D02*
X80800223Y-47402257D01*
X80800223Y-47402257D02*
X81300223Y-46330828D01*
X81300223Y-46330828D02*
X81300223Y-47830828D01*
X82657367Y-47830828D02*
X82657367Y-47045114D01*
X82657367Y-47045114D02*
X82585938Y-46902257D01*
X82585938Y-46902257D02*
X82443081Y-46830828D01*
X82443081Y-46830828D02*
X82157367Y-46830828D01*
X82157367Y-46830828D02*
X82014509Y-46902257D01*
X82657367Y-47759400D02*
X82514509Y-47830828D01*
X82514509Y-47830828D02*
X82157367Y-47830828D01*
X82157367Y-47830828D02*
X82014509Y-47759400D01*
X82014509Y-47759400D02*
X81943081Y-47616542D01*
X81943081Y-47616542D02*
X81943081Y-47473685D01*
X81943081Y-47473685D02*
X82014509Y-47330828D01*
X82014509Y-47330828D02*
X82157367Y-47259400D01*
X82157367Y-47259400D02*
X82514509Y-47259400D01*
X82514509Y-47259400D02*
X82657367Y-47187971D01*
X83300224Y-47759400D02*
X83443081Y-47830828D01*
X83443081Y-47830828D02*
X83728795Y-47830828D01*
X83728795Y-47830828D02*
X83871652Y-47759400D01*
X83871652Y-47759400D02*
X83943081Y-47616542D01*
X83943081Y-47616542D02*
X83943081Y-47545114D01*
X83943081Y-47545114D02*
X83871652Y-47402257D01*
X83871652Y-47402257D02*
X83728795Y-47330828D01*
X83728795Y-47330828D02*
X83514510Y-47330828D01*
X83514510Y-47330828D02*
X83371652Y-47259400D01*
X83371652Y-47259400D02*
X83300224Y-47116542D01*
X83300224Y-47116542D02*
X83300224Y-47045114D01*
X83300224Y-47045114D02*
X83371652Y-46902257D01*
X83371652Y-46902257D02*
X83514510Y-46830828D01*
X83514510Y-46830828D02*
X83728795Y-46830828D01*
X83728795Y-46830828D02*
X83871652Y-46902257D01*
X84585938Y-47830828D02*
X84585938Y-46330828D01*
X84728796Y-47259400D02*
X85157367Y-47830828D01*
X85157367Y-46830828D02*
X84585938Y-47402257D01*
D14*
%TO.C,U3*%
X39025000Y-45925000D02*
X40875000Y-45925000D01*
X40875000Y-45250000D01*
X41225000Y-45250000D01*
X41225000Y-48650000D01*
X40875000Y-48650000D01*
X40875000Y-47975000D01*
X39025000Y-47975000D01*
X39025000Y-48650000D01*
X38675000Y-48650000D01*
X38675000Y-45250000D01*
X39025000Y-45250000D01*
X39025000Y-45925000D01*
G36*
X39025000Y-45925000D02*
G01*
X40875000Y-45925000D01*
X40875000Y-45250000D01*
X41225000Y-45250000D01*
X41225000Y-48650000D01*
X40875000Y-48650000D01*
X40875000Y-47975000D01*
X39025000Y-47975000D01*
X39025000Y-48650000D01*
X38675000Y-48650000D01*
X38675000Y-45250000D01*
X39025000Y-45250000D01*
X39025000Y-45925000D01*
G37*
X38316000Y-45801000D02*
X38323000Y-45802000D01*
X38331000Y-45803000D01*
X38339000Y-45805000D01*
X38346000Y-45807000D01*
X38354000Y-45810000D01*
X38361000Y-45813000D01*
X38368000Y-45816000D01*
X38375000Y-45820000D01*
X38382000Y-45824000D01*
X38388000Y-45829000D01*
X38394000Y-45833000D01*
X38400000Y-45839000D01*
X38406000Y-45844000D01*
X38411000Y-45850000D01*
X38417000Y-45856000D01*
X38421000Y-45862000D01*
X38426000Y-45868000D01*
X38430000Y-45875000D01*
X38434000Y-45882000D01*
X38437000Y-45889000D01*
X38440000Y-45896000D01*
X38443000Y-45904000D01*
X38445000Y-45911000D01*
X38447000Y-45919000D01*
X38448000Y-45927000D01*
X38449000Y-45934000D01*
X38450000Y-45942000D01*
X38450000Y-45950000D01*
X38450000Y-45958000D01*
X38449000Y-45966000D01*
X38448000Y-45973000D01*
X38447000Y-45981000D01*
X38445000Y-45989000D01*
X38443000Y-45996000D01*
X38440000Y-46004000D01*
X38437000Y-46011000D01*
X38434000Y-46018000D01*
X38430000Y-46025000D01*
X38426000Y-46032000D01*
X38421000Y-46038000D01*
X38417000Y-46044000D01*
X38411000Y-46050000D01*
X38406000Y-46056000D01*
X38400000Y-46061000D01*
X38394000Y-46067000D01*
X38388000Y-46071000D01*
X38382000Y-46076000D01*
X38375000Y-46080000D01*
X38368000Y-46084000D01*
X38361000Y-46087000D01*
X38354000Y-46090000D01*
X38346000Y-46093000D01*
X38339000Y-46095000D01*
X38331000Y-46097000D01*
X38323000Y-46098000D01*
X38316000Y-46099000D01*
X38308000Y-46100000D01*
X38300000Y-46100000D01*
X37500000Y-46100000D01*
X37500000Y-45950000D01*
X37500000Y-45800000D01*
X38300000Y-45800000D01*
X38308000Y-45800000D01*
X38316000Y-45801000D01*
G36*
X38316000Y-45801000D02*
G01*
X38323000Y-45802000D01*
X38331000Y-45803000D01*
X38339000Y-45805000D01*
X38346000Y-45807000D01*
X38354000Y-45810000D01*
X38361000Y-45813000D01*
X38368000Y-45816000D01*
X38375000Y-45820000D01*
X38382000Y-45824000D01*
X38388000Y-45829000D01*
X38394000Y-45833000D01*
X38400000Y-45839000D01*
X38406000Y-45844000D01*
X38411000Y-45850000D01*
X38417000Y-45856000D01*
X38421000Y-45862000D01*
X38426000Y-45868000D01*
X38430000Y-45875000D01*
X38434000Y-45882000D01*
X38437000Y-45889000D01*
X38440000Y-45896000D01*
X38443000Y-45904000D01*
X38445000Y-45911000D01*
X38447000Y-45919000D01*
X38448000Y-45927000D01*
X38449000Y-45934000D01*
X38450000Y-45942000D01*
X38450000Y-45950000D01*
X38450000Y-45958000D01*
X38449000Y-45966000D01*
X38448000Y-45973000D01*
X38447000Y-45981000D01*
X38445000Y-45989000D01*
X38443000Y-45996000D01*
X38440000Y-46004000D01*
X38437000Y-46011000D01*
X38434000Y-46018000D01*
X38430000Y-46025000D01*
X38426000Y-46032000D01*
X38421000Y-46038000D01*
X38417000Y-46044000D01*
X38411000Y-46050000D01*
X38406000Y-46056000D01*
X38400000Y-46061000D01*
X38394000Y-46067000D01*
X38388000Y-46071000D01*
X38382000Y-46076000D01*
X38375000Y-46080000D01*
X38368000Y-46084000D01*
X38361000Y-46087000D01*
X38354000Y-46090000D01*
X38346000Y-46093000D01*
X38339000Y-46095000D01*
X38331000Y-46097000D01*
X38323000Y-46098000D01*
X38316000Y-46099000D01*
X38308000Y-46100000D01*
X38300000Y-46100000D01*
X37500000Y-46100000D01*
X37500000Y-45950000D01*
X37500000Y-45800000D01*
X38300000Y-45800000D01*
X38308000Y-45800000D01*
X38316000Y-45801000D01*
G37*
X38316000Y-46201000D02*
X38323000Y-46202000D01*
X38331000Y-46203000D01*
X38339000Y-46205000D01*
X38346000Y-46207000D01*
X38354000Y-46210000D01*
X38361000Y-46213000D01*
X38368000Y-46216000D01*
X38375000Y-46220000D01*
X38382000Y-46224000D01*
X38388000Y-46229000D01*
X38394000Y-46233000D01*
X38400000Y-46239000D01*
X38406000Y-46244000D01*
X38411000Y-46250000D01*
X38417000Y-46256000D01*
X38421000Y-46262000D01*
X38426000Y-46268000D01*
X38430000Y-46275000D01*
X38434000Y-46282000D01*
X38437000Y-46289000D01*
X38440000Y-46296000D01*
X38443000Y-46304000D01*
X38445000Y-46311000D01*
X38447000Y-46319000D01*
X38448000Y-46327000D01*
X38449000Y-46334000D01*
X38450000Y-46342000D01*
X38450000Y-46350000D01*
X38450000Y-46358000D01*
X38449000Y-46366000D01*
X38448000Y-46373000D01*
X38447000Y-46381000D01*
X38445000Y-46389000D01*
X38443000Y-46396000D01*
X38440000Y-46404000D01*
X38437000Y-46411000D01*
X38434000Y-46418000D01*
X38430000Y-46425000D01*
X38426000Y-46432000D01*
X38421000Y-46438000D01*
X38417000Y-46444000D01*
X38411000Y-46450000D01*
X38406000Y-46456000D01*
X38400000Y-46461000D01*
X38394000Y-46467000D01*
X38388000Y-46471000D01*
X38382000Y-46476000D01*
X38375000Y-46480000D01*
X38368000Y-46484000D01*
X38361000Y-46487000D01*
X38354000Y-46490000D01*
X38346000Y-46493000D01*
X38339000Y-46495000D01*
X38331000Y-46497000D01*
X38323000Y-46498000D01*
X38316000Y-46499000D01*
X38308000Y-46500000D01*
X38300000Y-46500000D01*
X37500000Y-46500000D01*
X37500000Y-46350000D01*
X37500000Y-46200000D01*
X38300000Y-46200000D01*
X38308000Y-46200000D01*
X38316000Y-46201000D01*
G36*
X38316000Y-46201000D02*
G01*
X38323000Y-46202000D01*
X38331000Y-46203000D01*
X38339000Y-46205000D01*
X38346000Y-46207000D01*
X38354000Y-46210000D01*
X38361000Y-46213000D01*
X38368000Y-46216000D01*
X38375000Y-46220000D01*
X38382000Y-46224000D01*
X38388000Y-46229000D01*
X38394000Y-46233000D01*
X38400000Y-46239000D01*
X38406000Y-46244000D01*
X38411000Y-46250000D01*
X38417000Y-46256000D01*
X38421000Y-46262000D01*
X38426000Y-46268000D01*
X38430000Y-46275000D01*
X38434000Y-46282000D01*
X38437000Y-46289000D01*
X38440000Y-46296000D01*
X38443000Y-46304000D01*
X38445000Y-46311000D01*
X38447000Y-46319000D01*
X38448000Y-46327000D01*
X38449000Y-46334000D01*
X38450000Y-46342000D01*
X38450000Y-46350000D01*
X38450000Y-46358000D01*
X38449000Y-46366000D01*
X38448000Y-46373000D01*
X38447000Y-46381000D01*
X38445000Y-46389000D01*
X38443000Y-46396000D01*
X38440000Y-46404000D01*
X38437000Y-46411000D01*
X38434000Y-46418000D01*
X38430000Y-46425000D01*
X38426000Y-46432000D01*
X38421000Y-46438000D01*
X38417000Y-46444000D01*
X38411000Y-46450000D01*
X38406000Y-46456000D01*
X38400000Y-46461000D01*
X38394000Y-46467000D01*
X38388000Y-46471000D01*
X38382000Y-46476000D01*
X38375000Y-46480000D01*
X38368000Y-46484000D01*
X38361000Y-46487000D01*
X38354000Y-46490000D01*
X38346000Y-46493000D01*
X38339000Y-46495000D01*
X38331000Y-46497000D01*
X38323000Y-46498000D01*
X38316000Y-46499000D01*
X38308000Y-46500000D01*
X38300000Y-46500000D01*
X37500000Y-46500000D01*
X37500000Y-46350000D01*
X37500000Y-46200000D01*
X38300000Y-46200000D01*
X38308000Y-46200000D01*
X38316000Y-46201000D01*
G37*
X38316000Y-46601000D02*
X38323000Y-46602000D01*
X38331000Y-46603000D01*
X38339000Y-46605000D01*
X38346000Y-46607000D01*
X38354000Y-46610000D01*
X38361000Y-46613000D01*
X38368000Y-46616000D01*
X38375000Y-46620000D01*
X38382000Y-46624000D01*
X38388000Y-46629000D01*
X38394000Y-46633000D01*
X38400000Y-46639000D01*
X38406000Y-46644000D01*
X38411000Y-46650000D01*
X38417000Y-46656000D01*
X38421000Y-46662000D01*
X38426000Y-46668000D01*
X38430000Y-46675000D01*
X38434000Y-46682000D01*
X38437000Y-46689000D01*
X38440000Y-46696000D01*
X38443000Y-46704000D01*
X38445000Y-46711000D01*
X38447000Y-46719000D01*
X38448000Y-46727000D01*
X38449000Y-46734000D01*
X38450000Y-46742000D01*
X38450000Y-46750000D01*
X38450000Y-46758000D01*
X38449000Y-46766000D01*
X38448000Y-46773000D01*
X38447000Y-46781000D01*
X38445000Y-46789000D01*
X38443000Y-46796000D01*
X38440000Y-46804000D01*
X38437000Y-46811000D01*
X38434000Y-46818000D01*
X38430000Y-46825000D01*
X38426000Y-46832000D01*
X38421000Y-46838000D01*
X38417000Y-46844000D01*
X38411000Y-46850000D01*
X38406000Y-46856000D01*
X38400000Y-46861000D01*
X38394000Y-46867000D01*
X38388000Y-46871000D01*
X38382000Y-46876000D01*
X38375000Y-46880000D01*
X38368000Y-46884000D01*
X38361000Y-46887000D01*
X38354000Y-46890000D01*
X38346000Y-46893000D01*
X38339000Y-46895000D01*
X38331000Y-46897000D01*
X38323000Y-46898000D01*
X38316000Y-46899000D01*
X38308000Y-46900000D01*
X38300000Y-46900000D01*
X37500000Y-46900000D01*
X37500000Y-46750000D01*
X37500000Y-46600000D01*
X38300000Y-46600000D01*
X38308000Y-46600000D01*
X38316000Y-46601000D01*
G36*
X38316000Y-46601000D02*
G01*
X38323000Y-46602000D01*
X38331000Y-46603000D01*
X38339000Y-46605000D01*
X38346000Y-46607000D01*
X38354000Y-46610000D01*
X38361000Y-46613000D01*
X38368000Y-46616000D01*
X38375000Y-46620000D01*
X38382000Y-46624000D01*
X38388000Y-46629000D01*
X38394000Y-46633000D01*
X38400000Y-46639000D01*
X38406000Y-46644000D01*
X38411000Y-46650000D01*
X38417000Y-46656000D01*
X38421000Y-46662000D01*
X38426000Y-46668000D01*
X38430000Y-46675000D01*
X38434000Y-46682000D01*
X38437000Y-46689000D01*
X38440000Y-46696000D01*
X38443000Y-46704000D01*
X38445000Y-46711000D01*
X38447000Y-46719000D01*
X38448000Y-46727000D01*
X38449000Y-46734000D01*
X38450000Y-46742000D01*
X38450000Y-46750000D01*
X38450000Y-46758000D01*
X38449000Y-46766000D01*
X38448000Y-46773000D01*
X38447000Y-46781000D01*
X38445000Y-46789000D01*
X38443000Y-46796000D01*
X38440000Y-46804000D01*
X38437000Y-46811000D01*
X38434000Y-46818000D01*
X38430000Y-46825000D01*
X38426000Y-46832000D01*
X38421000Y-46838000D01*
X38417000Y-46844000D01*
X38411000Y-46850000D01*
X38406000Y-46856000D01*
X38400000Y-46861000D01*
X38394000Y-46867000D01*
X38388000Y-46871000D01*
X38382000Y-46876000D01*
X38375000Y-46880000D01*
X38368000Y-46884000D01*
X38361000Y-46887000D01*
X38354000Y-46890000D01*
X38346000Y-46893000D01*
X38339000Y-46895000D01*
X38331000Y-46897000D01*
X38323000Y-46898000D01*
X38316000Y-46899000D01*
X38308000Y-46900000D01*
X38300000Y-46900000D01*
X37500000Y-46900000D01*
X37500000Y-46750000D01*
X37500000Y-46600000D01*
X38300000Y-46600000D01*
X38308000Y-46600000D01*
X38316000Y-46601000D01*
G37*
X38316000Y-47001000D02*
X38323000Y-47002000D01*
X38331000Y-47003000D01*
X38339000Y-47005000D01*
X38346000Y-47007000D01*
X38354000Y-47010000D01*
X38361000Y-47013000D01*
X38368000Y-47016000D01*
X38375000Y-47020000D01*
X38382000Y-47024000D01*
X38388000Y-47029000D01*
X38394000Y-47033000D01*
X38400000Y-47039000D01*
X38406000Y-47044000D01*
X38411000Y-47050000D01*
X38417000Y-47056000D01*
X38421000Y-47062000D01*
X38426000Y-47068000D01*
X38430000Y-47075000D01*
X38434000Y-47082000D01*
X38437000Y-47089000D01*
X38440000Y-47096000D01*
X38443000Y-47104000D01*
X38445000Y-47111000D01*
X38447000Y-47119000D01*
X38448000Y-47127000D01*
X38449000Y-47134000D01*
X38450000Y-47142000D01*
X38450000Y-47150000D01*
X38450000Y-47158000D01*
X38449000Y-47166000D01*
X38448000Y-47173000D01*
X38447000Y-47181000D01*
X38445000Y-47189000D01*
X38443000Y-47196000D01*
X38440000Y-47204000D01*
X38437000Y-47211000D01*
X38434000Y-47218000D01*
X38430000Y-47225000D01*
X38426000Y-47232000D01*
X38421000Y-47238000D01*
X38417000Y-47244000D01*
X38411000Y-47250000D01*
X38406000Y-47256000D01*
X38400000Y-47261000D01*
X38394000Y-47267000D01*
X38388000Y-47271000D01*
X38382000Y-47276000D01*
X38375000Y-47280000D01*
X38368000Y-47284000D01*
X38361000Y-47287000D01*
X38354000Y-47290000D01*
X38346000Y-47293000D01*
X38339000Y-47295000D01*
X38331000Y-47297000D01*
X38323000Y-47298000D01*
X38316000Y-47299000D01*
X38308000Y-47300000D01*
X38300000Y-47300000D01*
X37500000Y-47300000D01*
X37500000Y-47150000D01*
X37500000Y-47000000D01*
X38300000Y-47000000D01*
X38308000Y-47000000D01*
X38316000Y-47001000D01*
G36*
X38316000Y-47001000D02*
G01*
X38323000Y-47002000D01*
X38331000Y-47003000D01*
X38339000Y-47005000D01*
X38346000Y-47007000D01*
X38354000Y-47010000D01*
X38361000Y-47013000D01*
X38368000Y-47016000D01*
X38375000Y-47020000D01*
X38382000Y-47024000D01*
X38388000Y-47029000D01*
X38394000Y-47033000D01*
X38400000Y-47039000D01*
X38406000Y-47044000D01*
X38411000Y-47050000D01*
X38417000Y-47056000D01*
X38421000Y-47062000D01*
X38426000Y-47068000D01*
X38430000Y-47075000D01*
X38434000Y-47082000D01*
X38437000Y-47089000D01*
X38440000Y-47096000D01*
X38443000Y-47104000D01*
X38445000Y-47111000D01*
X38447000Y-47119000D01*
X38448000Y-47127000D01*
X38449000Y-47134000D01*
X38450000Y-47142000D01*
X38450000Y-47150000D01*
X38450000Y-47158000D01*
X38449000Y-47166000D01*
X38448000Y-47173000D01*
X38447000Y-47181000D01*
X38445000Y-47189000D01*
X38443000Y-47196000D01*
X38440000Y-47204000D01*
X38437000Y-47211000D01*
X38434000Y-47218000D01*
X38430000Y-47225000D01*
X38426000Y-47232000D01*
X38421000Y-47238000D01*
X38417000Y-47244000D01*
X38411000Y-47250000D01*
X38406000Y-47256000D01*
X38400000Y-47261000D01*
X38394000Y-47267000D01*
X38388000Y-47271000D01*
X38382000Y-47276000D01*
X38375000Y-47280000D01*
X38368000Y-47284000D01*
X38361000Y-47287000D01*
X38354000Y-47290000D01*
X38346000Y-47293000D01*
X38339000Y-47295000D01*
X38331000Y-47297000D01*
X38323000Y-47298000D01*
X38316000Y-47299000D01*
X38308000Y-47300000D01*
X38300000Y-47300000D01*
X37500000Y-47300000D01*
X37500000Y-47150000D01*
X37500000Y-47000000D01*
X38300000Y-47000000D01*
X38308000Y-47000000D01*
X38316000Y-47001000D01*
G37*
X38316000Y-47401000D02*
X38323000Y-47402000D01*
X38331000Y-47403000D01*
X38339000Y-47405000D01*
X38346000Y-47407000D01*
X38354000Y-47410000D01*
X38361000Y-47413000D01*
X38368000Y-47416000D01*
X38375000Y-47420000D01*
X38382000Y-47424000D01*
X38388000Y-47429000D01*
X38394000Y-47433000D01*
X38400000Y-47439000D01*
X38406000Y-47444000D01*
X38411000Y-47450000D01*
X38417000Y-47456000D01*
X38421000Y-47462000D01*
X38426000Y-47468000D01*
X38430000Y-47475000D01*
X38434000Y-47482000D01*
X38437000Y-47489000D01*
X38440000Y-47496000D01*
X38443000Y-47504000D01*
X38445000Y-47511000D01*
X38447000Y-47519000D01*
X38448000Y-47527000D01*
X38449000Y-47534000D01*
X38450000Y-47542000D01*
X38450000Y-47550000D01*
X38450000Y-47558000D01*
X38449000Y-47566000D01*
X38448000Y-47573000D01*
X38447000Y-47581000D01*
X38445000Y-47589000D01*
X38443000Y-47596000D01*
X38440000Y-47604000D01*
X38437000Y-47611000D01*
X38434000Y-47618000D01*
X38430000Y-47625000D01*
X38426000Y-47632000D01*
X38421000Y-47638000D01*
X38417000Y-47644000D01*
X38411000Y-47650000D01*
X38406000Y-47656000D01*
X38400000Y-47661000D01*
X38394000Y-47667000D01*
X38388000Y-47671000D01*
X38382000Y-47676000D01*
X38375000Y-47680000D01*
X38368000Y-47684000D01*
X38361000Y-47687000D01*
X38354000Y-47690000D01*
X38346000Y-47693000D01*
X38339000Y-47695000D01*
X38331000Y-47697000D01*
X38323000Y-47698000D01*
X38316000Y-47699000D01*
X38308000Y-47700000D01*
X38300000Y-47700000D01*
X37500000Y-47700000D01*
X37500000Y-47550000D01*
X37500000Y-47400000D01*
X38300000Y-47400000D01*
X38308000Y-47400000D01*
X38316000Y-47401000D01*
G36*
X38316000Y-47401000D02*
G01*
X38323000Y-47402000D01*
X38331000Y-47403000D01*
X38339000Y-47405000D01*
X38346000Y-47407000D01*
X38354000Y-47410000D01*
X38361000Y-47413000D01*
X38368000Y-47416000D01*
X38375000Y-47420000D01*
X38382000Y-47424000D01*
X38388000Y-47429000D01*
X38394000Y-47433000D01*
X38400000Y-47439000D01*
X38406000Y-47444000D01*
X38411000Y-47450000D01*
X38417000Y-47456000D01*
X38421000Y-47462000D01*
X38426000Y-47468000D01*
X38430000Y-47475000D01*
X38434000Y-47482000D01*
X38437000Y-47489000D01*
X38440000Y-47496000D01*
X38443000Y-47504000D01*
X38445000Y-47511000D01*
X38447000Y-47519000D01*
X38448000Y-47527000D01*
X38449000Y-47534000D01*
X38450000Y-47542000D01*
X38450000Y-47550000D01*
X38450000Y-47558000D01*
X38449000Y-47566000D01*
X38448000Y-47573000D01*
X38447000Y-47581000D01*
X38445000Y-47589000D01*
X38443000Y-47596000D01*
X38440000Y-47604000D01*
X38437000Y-47611000D01*
X38434000Y-47618000D01*
X38430000Y-47625000D01*
X38426000Y-47632000D01*
X38421000Y-47638000D01*
X38417000Y-47644000D01*
X38411000Y-47650000D01*
X38406000Y-47656000D01*
X38400000Y-47661000D01*
X38394000Y-47667000D01*
X38388000Y-47671000D01*
X38382000Y-47676000D01*
X38375000Y-47680000D01*
X38368000Y-47684000D01*
X38361000Y-47687000D01*
X38354000Y-47690000D01*
X38346000Y-47693000D01*
X38339000Y-47695000D01*
X38331000Y-47697000D01*
X38323000Y-47698000D01*
X38316000Y-47699000D01*
X38308000Y-47700000D01*
X38300000Y-47700000D01*
X37500000Y-47700000D01*
X37500000Y-47550000D01*
X37500000Y-47400000D01*
X38300000Y-47400000D01*
X38308000Y-47400000D01*
X38316000Y-47401000D01*
G37*
X38316000Y-47801000D02*
X38323000Y-47802000D01*
X38331000Y-47803000D01*
X38339000Y-47805000D01*
X38346000Y-47807000D01*
X38354000Y-47810000D01*
X38361000Y-47813000D01*
X38368000Y-47816000D01*
X38375000Y-47820000D01*
X38382000Y-47824000D01*
X38388000Y-47829000D01*
X38394000Y-47833000D01*
X38400000Y-47839000D01*
X38406000Y-47844000D01*
X38411000Y-47850000D01*
X38417000Y-47856000D01*
X38421000Y-47862000D01*
X38426000Y-47868000D01*
X38430000Y-47875000D01*
X38434000Y-47882000D01*
X38437000Y-47889000D01*
X38440000Y-47896000D01*
X38443000Y-47904000D01*
X38445000Y-47911000D01*
X38447000Y-47919000D01*
X38448000Y-47927000D01*
X38449000Y-47934000D01*
X38450000Y-47942000D01*
X38450000Y-47950000D01*
X38450000Y-47958000D01*
X38449000Y-47966000D01*
X38448000Y-47973000D01*
X38447000Y-47981000D01*
X38445000Y-47989000D01*
X38443000Y-47996000D01*
X38440000Y-48004000D01*
X38437000Y-48011000D01*
X38434000Y-48018000D01*
X38430000Y-48025000D01*
X38426000Y-48032000D01*
X38421000Y-48038000D01*
X38417000Y-48044000D01*
X38411000Y-48050000D01*
X38406000Y-48056000D01*
X38400000Y-48061000D01*
X38394000Y-48067000D01*
X38388000Y-48071000D01*
X38382000Y-48076000D01*
X38375000Y-48080000D01*
X38368000Y-48084000D01*
X38361000Y-48087000D01*
X38354000Y-48090000D01*
X38346000Y-48093000D01*
X38339000Y-48095000D01*
X38331000Y-48097000D01*
X38323000Y-48098000D01*
X38316000Y-48099000D01*
X38308000Y-48100000D01*
X38300000Y-48100000D01*
X37500000Y-48100000D01*
X37500000Y-47950000D01*
X37500000Y-47800000D01*
X38300000Y-47800000D01*
X38308000Y-47800000D01*
X38316000Y-47801000D01*
G36*
X38316000Y-47801000D02*
G01*
X38323000Y-47802000D01*
X38331000Y-47803000D01*
X38339000Y-47805000D01*
X38346000Y-47807000D01*
X38354000Y-47810000D01*
X38361000Y-47813000D01*
X38368000Y-47816000D01*
X38375000Y-47820000D01*
X38382000Y-47824000D01*
X38388000Y-47829000D01*
X38394000Y-47833000D01*
X38400000Y-47839000D01*
X38406000Y-47844000D01*
X38411000Y-47850000D01*
X38417000Y-47856000D01*
X38421000Y-47862000D01*
X38426000Y-47868000D01*
X38430000Y-47875000D01*
X38434000Y-47882000D01*
X38437000Y-47889000D01*
X38440000Y-47896000D01*
X38443000Y-47904000D01*
X38445000Y-47911000D01*
X38447000Y-47919000D01*
X38448000Y-47927000D01*
X38449000Y-47934000D01*
X38450000Y-47942000D01*
X38450000Y-47950000D01*
X38450000Y-47958000D01*
X38449000Y-47966000D01*
X38448000Y-47973000D01*
X38447000Y-47981000D01*
X38445000Y-47989000D01*
X38443000Y-47996000D01*
X38440000Y-48004000D01*
X38437000Y-48011000D01*
X38434000Y-48018000D01*
X38430000Y-48025000D01*
X38426000Y-48032000D01*
X38421000Y-48038000D01*
X38417000Y-48044000D01*
X38411000Y-48050000D01*
X38406000Y-48056000D01*
X38400000Y-48061000D01*
X38394000Y-48067000D01*
X38388000Y-48071000D01*
X38382000Y-48076000D01*
X38375000Y-48080000D01*
X38368000Y-48084000D01*
X38361000Y-48087000D01*
X38354000Y-48090000D01*
X38346000Y-48093000D01*
X38339000Y-48095000D01*
X38331000Y-48097000D01*
X38323000Y-48098000D01*
X38316000Y-48099000D01*
X38308000Y-48100000D01*
X38300000Y-48100000D01*
X37500000Y-48100000D01*
X37500000Y-47950000D01*
X37500000Y-47800000D01*
X38300000Y-47800000D01*
X38308000Y-47800000D01*
X38316000Y-47801000D01*
G37*
X42400000Y-45950000D02*
X42400000Y-46100000D01*
X41600000Y-46100000D01*
X41592000Y-46100000D01*
X41584000Y-46099000D01*
X41577000Y-46098000D01*
X41569000Y-46097000D01*
X41561000Y-46095000D01*
X41554000Y-46093000D01*
X41546000Y-46090000D01*
X41539000Y-46087000D01*
X41532000Y-46084000D01*
X41525000Y-46080000D01*
X41518000Y-46076000D01*
X41512000Y-46071000D01*
X41506000Y-46067000D01*
X41500000Y-46061000D01*
X41494000Y-46056000D01*
X41489000Y-46050000D01*
X41483000Y-46044000D01*
X41479000Y-46038000D01*
X41474000Y-46032000D01*
X41470000Y-46025000D01*
X41466000Y-46018000D01*
X41463000Y-46011000D01*
X41460000Y-46004000D01*
X41457000Y-45996000D01*
X41455000Y-45989000D01*
X41453000Y-45981000D01*
X41452000Y-45973000D01*
X41451000Y-45966000D01*
X41450000Y-45958000D01*
X41450000Y-45950000D01*
X41450000Y-45942000D01*
X41451000Y-45934000D01*
X41452000Y-45927000D01*
X41453000Y-45919000D01*
X41455000Y-45911000D01*
X41457000Y-45904000D01*
X41460000Y-45896000D01*
X41463000Y-45889000D01*
X41466000Y-45882000D01*
X41470000Y-45875000D01*
X41474000Y-45868000D01*
X41479000Y-45862000D01*
X41483000Y-45856000D01*
X41489000Y-45850000D01*
X41494000Y-45844000D01*
X41500000Y-45839000D01*
X41506000Y-45833000D01*
X41512000Y-45829000D01*
X41518000Y-45824000D01*
X41525000Y-45820000D01*
X41532000Y-45816000D01*
X41539000Y-45813000D01*
X41546000Y-45810000D01*
X41554000Y-45807000D01*
X41561000Y-45805000D01*
X41569000Y-45803000D01*
X41577000Y-45802000D01*
X41584000Y-45801000D01*
X41592000Y-45800000D01*
X41600000Y-45800000D01*
X42400000Y-45800000D01*
X42400000Y-45950000D01*
G36*
X42400000Y-45950000D02*
G01*
X42400000Y-46100000D01*
X41600000Y-46100000D01*
X41592000Y-46100000D01*
X41584000Y-46099000D01*
X41577000Y-46098000D01*
X41569000Y-46097000D01*
X41561000Y-46095000D01*
X41554000Y-46093000D01*
X41546000Y-46090000D01*
X41539000Y-46087000D01*
X41532000Y-46084000D01*
X41525000Y-46080000D01*
X41518000Y-46076000D01*
X41512000Y-46071000D01*
X41506000Y-46067000D01*
X41500000Y-46061000D01*
X41494000Y-46056000D01*
X41489000Y-46050000D01*
X41483000Y-46044000D01*
X41479000Y-46038000D01*
X41474000Y-46032000D01*
X41470000Y-46025000D01*
X41466000Y-46018000D01*
X41463000Y-46011000D01*
X41460000Y-46004000D01*
X41457000Y-45996000D01*
X41455000Y-45989000D01*
X41453000Y-45981000D01*
X41452000Y-45973000D01*
X41451000Y-45966000D01*
X41450000Y-45958000D01*
X41450000Y-45950000D01*
X41450000Y-45942000D01*
X41451000Y-45934000D01*
X41452000Y-45927000D01*
X41453000Y-45919000D01*
X41455000Y-45911000D01*
X41457000Y-45904000D01*
X41460000Y-45896000D01*
X41463000Y-45889000D01*
X41466000Y-45882000D01*
X41470000Y-45875000D01*
X41474000Y-45868000D01*
X41479000Y-45862000D01*
X41483000Y-45856000D01*
X41489000Y-45850000D01*
X41494000Y-45844000D01*
X41500000Y-45839000D01*
X41506000Y-45833000D01*
X41512000Y-45829000D01*
X41518000Y-45824000D01*
X41525000Y-45820000D01*
X41532000Y-45816000D01*
X41539000Y-45813000D01*
X41546000Y-45810000D01*
X41554000Y-45807000D01*
X41561000Y-45805000D01*
X41569000Y-45803000D01*
X41577000Y-45802000D01*
X41584000Y-45801000D01*
X41592000Y-45800000D01*
X41600000Y-45800000D01*
X42400000Y-45800000D01*
X42400000Y-45950000D01*
G37*
X42400000Y-46350000D02*
X42400000Y-46500000D01*
X41600000Y-46500000D01*
X41592000Y-46500000D01*
X41584000Y-46499000D01*
X41577000Y-46498000D01*
X41569000Y-46497000D01*
X41561000Y-46495000D01*
X41554000Y-46493000D01*
X41546000Y-46490000D01*
X41539000Y-46487000D01*
X41532000Y-46484000D01*
X41525000Y-46480000D01*
X41518000Y-46476000D01*
X41512000Y-46471000D01*
X41506000Y-46467000D01*
X41500000Y-46461000D01*
X41494000Y-46456000D01*
X41489000Y-46450000D01*
X41483000Y-46444000D01*
X41479000Y-46438000D01*
X41474000Y-46432000D01*
X41470000Y-46425000D01*
X41466000Y-46418000D01*
X41463000Y-46411000D01*
X41460000Y-46404000D01*
X41457000Y-46396000D01*
X41455000Y-46389000D01*
X41453000Y-46381000D01*
X41452000Y-46373000D01*
X41451000Y-46366000D01*
X41450000Y-46358000D01*
X41450000Y-46350000D01*
X41450000Y-46342000D01*
X41451000Y-46334000D01*
X41452000Y-46327000D01*
X41453000Y-46319000D01*
X41455000Y-46311000D01*
X41457000Y-46304000D01*
X41460000Y-46296000D01*
X41463000Y-46289000D01*
X41466000Y-46282000D01*
X41470000Y-46275000D01*
X41474000Y-46268000D01*
X41479000Y-46262000D01*
X41483000Y-46256000D01*
X41489000Y-46250000D01*
X41494000Y-46244000D01*
X41500000Y-46239000D01*
X41506000Y-46233000D01*
X41512000Y-46229000D01*
X41518000Y-46224000D01*
X41525000Y-46220000D01*
X41532000Y-46216000D01*
X41539000Y-46213000D01*
X41546000Y-46210000D01*
X41554000Y-46207000D01*
X41561000Y-46205000D01*
X41569000Y-46203000D01*
X41577000Y-46202000D01*
X41584000Y-46201000D01*
X41592000Y-46200000D01*
X41600000Y-46200000D01*
X42400000Y-46200000D01*
X42400000Y-46350000D01*
G36*
X42400000Y-46350000D02*
G01*
X42400000Y-46500000D01*
X41600000Y-46500000D01*
X41592000Y-46500000D01*
X41584000Y-46499000D01*
X41577000Y-46498000D01*
X41569000Y-46497000D01*
X41561000Y-46495000D01*
X41554000Y-46493000D01*
X41546000Y-46490000D01*
X41539000Y-46487000D01*
X41532000Y-46484000D01*
X41525000Y-46480000D01*
X41518000Y-46476000D01*
X41512000Y-46471000D01*
X41506000Y-46467000D01*
X41500000Y-46461000D01*
X41494000Y-46456000D01*
X41489000Y-46450000D01*
X41483000Y-46444000D01*
X41479000Y-46438000D01*
X41474000Y-46432000D01*
X41470000Y-46425000D01*
X41466000Y-46418000D01*
X41463000Y-46411000D01*
X41460000Y-46404000D01*
X41457000Y-46396000D01*
X41455000Y-46389000D01*
X41453000Y-46381000D01*
X41452000Y-46373000D01*
X41451000Y-46366000D01*
X41450000Y-46358000D01*
X41450000Y-46350000D01*
X41450000Y-46342000D01*
X41451000Y-46334000D01*
X41452000Y-46327000D01*
X41453000Y-46319000D01*
X41455000Y-46311000D01*
X41457000Y-46304000D01*
X41460000Y-46296000D01*
X41463000Y-46289000D01*
X41466000Y-46282000D01*
X41470000Y-46275000D01*
X41474000Y-46268000D01*
X41479000Y-46262000D01*
X41483000Y-46256000D01*
X41489000Y-46250000D01*
X41494000Y-46244000D01*
X41500000Y-46239000D01*
X41506000Y-46233000D01*
X41512000Y-46229000D01*
X41518000Y-46224000D01*
X41525000Y-46220000D01*
X41532000Y-46216000D01*
X41539000Y-46213000D01*
X41546000Y-46210000D01*
X41554000Y-46207000D01*
X41561000Y-46205000D01*
X41569000Y-46203000D01*
X41577000Y-46202000D01*
X41584000Y-46201000D01*
X41592000Y-46200000D01*
X41600000Y-46200000D01*
X42400000Y-46200000D01*
X42400000Y-46350000D01*
G37*
X42400000Y-46750000D02*
X42400000Y-46900000D01*
X41600000Y-46900000D01*
X41592000Y-46900000D01*
X41584000Y-46899000D01*
X41577000Y-46898000D01*
X41569000Y-46897000D01*
X41561000Y-46895000D01*
X41554000Y-46893000D01*
X41546000Y-46890000D01*
X41539000Y-46887000D01*
X41532000Y-46884000D01*
X41525000Y-46880000D01*
X41518000Y-46876000D01*
X41512000Y-46871000D01*
X41506000Y-46867000D01*
X41500000Y-46861000D01*
X41494000Y-46856000D01*
X41489000Y-46850000D01*
X41483000Y-46844000D01*
X41479000Y-46838000D01*
X41474000Y-46832000D01*
X41470000Y-46825000D01*
X41466000Y-46818000D01*
X41463000Y-46811000D01*
X41460000Y-46804000D01*
X41457000Y-46796000D01*
X41455000Y-46789000D01*
X41453000Y-46781000D01*
X41452000Y-46773000D01*
X41451000Y-46766000D01*
X41450000Y-46758000D01*
X41450000Y-46750000D01*
X41450000Y-46742000D01*
X41451000Y-46734000D01*
X41452000Y-46727000D01*
X41453000Y-46719000D01*
X41455000Y-46711000D01*
X41457000Y-46704000D01*
X41460000Y-46696000D01*
X41463000Y-46689000D01*
X41466000Y-46682000D01*
X41470000Y-46675000D01*
X41474000Y-46668000D01*
X41479000Y-46662000D01*
X41483000Y-46656000D01*
X41489000Y-46650000D01*
X41494000Y-46644000D01*
X41500000Y-46639000D01*
X41506000Y-46633000D01*
X41512000Y-46629000D01*
X41518000Y-46624000D01*
X41525000Y-46620000D01*
X41532000Y-46616000D01*
X41539000Y-46613000D01*
X41546000Y-46610000D01*
X41554000Y-46607000D01*
X41561000Y-46605000D01*
X41569000Y-46603000D01*
X41577000Y-46602000D01*
X41584000Y-46601000D01*
X41592000Y-46600000D01*
X41600000Y-46600000D01*
X42400000Y-46600000D01*
X42400000Y-46750000D01*
G36*
X42400000Y-46750000D02*
G01*
X42400000Y-46900000D01*
X41600000Y-46900000D01*
X41592000Y-46900000D01*
X41584000Y-46899000D01*
X41577000Y-46898000D01*
X41569000Y-46897000D01*
X41561000Y-46895000D01*
X41554000Y-46893000D01*
X41546000Y-46890000D01*
X41539000Y-46887000D01*
X41532000Y-46884000D01*
X41525000Y-46880000D01*
X41518000Y-46876000D01*
X41512000Y-46871000D01*
X41506000Y-46867000D01*
X41500000Y-46861000D01*
X41494000Y-46856000D01*
X41489000Y-46850000D01*
X41483000Y-46844000D01*
X41479000Y-46838000D01*
X41474000Y-46832000D01*
X41470000Y-46825000D01*
X41466000Y-46818000D01*
X41463000Y-46811000D01*
X41460000Y-46804000D01*
X41457000Y-46796000D01*
X41455000Y-46789000D01*
X41453000Y-46781000D01*
X41452000Y-46773000D01*
X41451000Y-46766000D01*
X41450000Y-46758000D01*
X41450000Y-46750000D01*
X41450000Y-46742000D01*
X41451000Y-46734000D01*
X41452000Y-46727000D01*
X41453000Y-46719000D01*
X41455000Y-46711000D01*
X41457000Y-46704000D01*
X41460000Y-46696000D01*
X41463000Y-46689000D01*
X41466000Y-46682000D01*
X41470000Y-46675000D01*
X41474000Y-46668000D01*
X41479000Y-46662000D01*
X41483000Y-46656000D01*
X41489000Y-46650000D01*
X41494000Y-46644000D01*
X41500000Y-46639000D01*
X41506000Y-46633000D01*
X41512000Y-46629000D01*
X41518000Y-46624000D01*
X41525000Y-46620000D01*
X41532000Y-46616000D01*
X41539000Y-46613000D01*
X41546000Y-46610000D01*
X41554000Y-46607000D01*
X41561000Y-46605000D01*
X41569000Y-46603000D01*
X41577000Y-46602000D01*
X41584000Y-46601000D01*
X41592000Y-46600000D01*
X41600000Y-46600000D01*
X42400000Y-46600000D01*
X42400000Y-46750000D01*
G37*
X42400000Y-47150000D02*
X42400000Y-47300000D01*
X41600000Y-47300000D01*
X41592000Y-47300000D01*
X41584000Y-47299000D01*
X41577000Y-47298000D01*
X41569000Y-47297000D01*
X41561000Y-47295000D01*
X41554000Y-47293000D01*
X41546000Y-47290000D01*
X41539000Y-47287000D01*
X41532000Y-47284000D01*
X41525000Y-47280000D01*
X41518000Y-47276000D01*
X41512000Y-47271000D01*
X41506000Y-47267000D01*
X41500000Y-47261000D01*
X41494000Y-47256000D01*
X41489000Y-47250000D01*
X41483000Y-47244000D01*
X41479000Y-47238000D01*
X41474000Y-47232000D01*
X41470000Y-47225000D01*
X41466000Y-47218000D01*
X41463000Y-47211000D01*
X41460000Y-47204000D01*
X41457000Y-47196000D01*
X41455000Y-47189000D01*
X41453000Y-47181000D01*
X41452000Y-47173000D01*
X41451000Y-47166000D01*
X41450000Y-47158000D01*
X41450000Y-47150000D01*
X41450000Y-47142000D01*
X41451000Y-47134000D01*
X41452000Y-47127000D01*
X41453000Y-47119000D01*
X41455000Y-47111000D01*
X41457000Y-47104000D01*
X41460000Y-47096000D01*
X41463000Y-47089000D01*
X41466000Y-47082000D01*
X41470000Y-47075000D01*
X41474000Y-47068000D01*
X41479000Y-47062000D01*
X41483000Y-47056000D01*
X41489000Y-47050000D01*
X41494000Y-47044000D01*
X41500000Y-47039000D01*
X41506000Y-47033000D01*
X41512000Y-47029000D01*
X41518000Y-47024000D01*
X41525000Y-47020000D01*
X41532000Y-47016000D01*
X41539000Y-47013000D01*
X41546000Y-47010000D01*
X41554000Y-47007000D01*
X41561000Y-47005000D01*
X41569000Y-47003000D01*
X41577000Y-47002000D01*
X41584000Y-47001000D01*
X41592000Y-47000000D01*
X41600000Y-47000000D01*
X42400000Y-47000000D01*
X42400000Y-47150000D01*
G36*
X42400000Y-47150000D02*
G01*
X42400000Y-47300000D01*
X41600000Y-47300000D01*
X41592000Y-47300000D01*
X41584000Y-47299000D01*
X41577000Y-47298000D01*
X41569000Y-47297000D01*
X41561000Y-47295000D01*
X41554000Y-47293000D01*
X41546000Y-47290000D01*
X41539000Y-47287000D01*
X41532000Y-47284000D01*
X41525000Y-47280000D01*
X41518000Y-47276000D01*
X41512000Y-47271000D01*
X41506000Y-47267000D01*
X41500000Y-47261000D01*
X41494000Y-47256000D01*
X41489000Y-47250000D01*
X41483000Y-47244000D01*
X41479000Y-47238000D01*
X41474000Y-47232000D01*
X41470000Y-47225000D01*
X41466000Y-47218000D01*
X41463000Y-47211000D01*
X41460000Y-47204000D01*
X41457000Y-47196000D01*
X41455000Y-47189000D01*
X41453000Y-47181000D01*
X41452000Y-47173000D01*
X41451000Y-47166000D01*
X41450000Y-47158000D01*
X41450000Y-47150000D01*
X41450000Y-47142000D01*
X41451000Y-47134000D01*
X41452000Y-47127000D01*
X41453000Y-47119000D01*
X41455000Y-47111000D01*
X41457000Y-47104000D01*
X41460000Y-47096000D01*
X41463000Y-47089000D01*
X41466000Y-47082000D01*
X41470000Y-47075000D01*
X41474000Y-47068000D01*
X41479000Y-47062000D01*
X41483000Y-47056000D01*
X41489000Y-47050000D01*
X41494000Y-47044000D01*
X41500000Y-47039000D01*
X41506000Y-47033000D01*
X41512000Y-47029000D01*
X41518000Y-47024000D01*
X41525000Y-47020000D01*
X41532000Y-47016000D01*
X41539000Y-47013000D01*
X41546000Y-47010000D01*
X41554000Y-47007000D01*
X41561000Y-47005000D01*
X41569000Y-47003000D01*
X41577000Y-47002000D01*
X41584000Y-47001000D01*
X41592000Y-47000000D01*
X41600000Y-47000000D01*
X42400000Y-47000000D01*
X42400000Y-47150000D01*
G37*
X42400000Y-47550000D02*
X42400000Y-47700000D01*
X41600000Y-47700000D01*
X41592000Y-47700000D01*
X41584000Y-47699000D01*
X41577000Y-47698000D01*
X41569000Y-47697000D01*
X41561000Y-47695000D01*
X41554000Y-47693000D01*
X41546000Y-47690000D01*
X41539000Y-47687000D01*
X41532000Y-47684000D01*
X41525000Y-47680000D01*
X41518000Y-47676000D01*
X41512000Y-47671000D01*
X41506000Y-47667000D01*
X41500000Y-47661000D01*
X41494000Y-47656000D01*
X41489000Y-47650000D01*
X41483000Y-47644000D01*
X41479000Y-47638000D01*
X41474000Y-47632000D01*
X41470000Y-47625000D01*
X41466000Y-47618000D01*
X41463000Y-47611000D01*
X41460000Y-47604000D01*
X41457000Y-47596000D01*
X41455000Y-47589000D01*
X41453000Y-47581000D01*
X41452000Y-47573000D01*
X41451000Y-47566000D01*
X41450000Y-47558000D01*
X41450000Y-47550000D01*
X41450000Y-47542000D01*
X41451000Y-47534000D01*
X41452000Y-47527000D01*
X41453000Y-47519000D01*
X41455000Y-47511000D01*
X41457000Y-47504000D01*
X41460000Y-47496000D01*
X41463000Y-47489000D01*
X41466000Y-47482000D01*
X41470000Y-47475000D01*
X41474000Y-47468000D01*
X41479000Y-47462000D01*
X41483000Y-47456000D01*
X41489000Y-47450000D01*
X41494000Y-47444000D01*
X41500000Y-47439000D01*
X41506000Y-47433000D01*
X41512000Y-47429000D01*
X41518000Y-47424000D01*
X41525000Y-47420000D01*
X41532000Y-47416000D01*
X41539000Y-47413000D01*
X41546000Y-47410000D01*
X41554000Y-47407000D01*
X41561000Y-47405000D01*
X41569000Y-47403000D01*
X41577000Y-47402000D01*
X41584000Y-47401000D01*
X41592000Y-47400000D01*
X41600000Y-47400000D01*
X42400000Y-47400000D01*
X42400000Y-47550000D01*
G36*
X42400000Y-47550000D02*
G01*
X42400000Y-47700000D01*
X41600000Y-47700000D01*
X41592000Y-47700000D01*
X41584000Y-47699000D01*
X41577000Y-47698000D01*
X41569000Y-47697000D01*
X41561000Y-47695000D01*
X41554000Y-47693000D01*
X41546000Y-47690000D01*
X41539000Y-47687000D01*
X41532000Y-47684000D01*
X41525000Y-47680000D01*
X41518000Y-47676000D01*
X41512000Y-47671000D01*
X41506000Y-47667000D01*
X41500000Y-47661000D01*
X41494000Y-47656000D01*
X41489000Y-47650000D01*
X41483000Y-47644000D01*
X41479000Y-47638000D01*
X41474000Y-47632000D01*
X41470000Y-47625000D01*
X41466000Y-47618000D01*
X41463000Y-47611000D01*
X41460000Y-47604000D01*
X41457000Y-47596000D01*
X41455000Y-47589000D01*
X41453000Y-47581000D01*
X41452000Y-47573000D01*
X41451000Y-47566000D01*
X41450000Y-47558000D01*
X41450000Y-47550000D01*
X41450000Y-47542000D01*
X41451000Y-47534000D01*
X41452000Y-47527000D01*
X41453000Y-47519000D01*
X41455000Y-47511000D01*
X41457000Y-47504000D01*
X41460000Y-47496000D01*
X41463000Y-47489000D01*
X41466000Y-47482000D01*
X41470000Y-47475000D01*
X41474000Y-47468000D01*
X41479000Y-47462000D01*
X41483000Y-47456000D01*
X41489000Y-47450000D01*
X41494000Y-47444000D01*
X41500000Y-47439000D01*
X41506000Y-47433000D01*
X41512000Y-47429000D01*
X41518000Y-47424000D01*
X41525000Y-47420000D01*
X41532000Y-47416000D01*
X41539000Y-47413000D01*
X41546000Y-47410000D01*
X41554000Y-47407000D01*
X41561000Y-47405000D01*
X41569000Y-47403000D01*
X41577000Y-47402000D01*
X41584000Y-47401000D01*
X41592000Y-47400000D01*
X41600000Y-47400000D01*
X42400000Y-47400000D01*
X42400000Y-47550000D01*
G37*
X42400000Y-47950000D02*
X42400000Y-48100000D01*
X41600000Y-48100000D01*
X41592000Y-48100000D01*
X41584000Y-48099000D01*
X41577000Y-48098000D01*
X41569000Y-48097000D01*
X41561000Y-48095000D01*
X41554000Y-48093000D01*
X41546000Y-48090000D01*
X41539000Y-48087000D01*
X41532000Y-48084000D01*
X41525000Y-48080000D01*
X41518000Y-48076000D01*
X41512000Y-48071000D01*
X41506000Y-48067000D01*
X41500000Y-48061000D01*
X41494000Y-48056000D01*
X41489000Y-48050000D01*
X41483000Y-48044000D01*
X41479000Y-48038000D01*
X41474000Y-48032000D01*
X41470000Y-48025000D01*
X41466000Y-48018000D01*
X41463000Y-48011000D01*
X41460000Y-48004000D01*
X41457000Y-47996000D01*
X41455000Y-47989000D01*
X41453000Y-47981000D01*
X41452000Y-47973000D01*
X41451000Y-47966000D01*
X41450000Y-47958000D01*
X41450000Y-47950000D01*
X41450000Y-47942000D01*
X41451000Y-47934000D01*
X41452000Y-47927000D01*
X41453000Y-47919000D01*
X41455000Y-47911000D01*
X41457000Y-47904000D01*
X41460000Y-47896000D01*
X41463000Y-47889000D01*
X41466000Y-47882000D01*
X41470000Y-47875000D01*
X41474000Y-47868000D01*
X41479000Y-47862000D01*
X41483000Y-47856000D01*
X41489000Y-47850000D01*
X41494000Y-47844000D01*
X41500000Y-47839000D01*
X41506000Y-47833000D01*
X41512000Y-47829000D01*
X41518000Y-47824000D01*
X41525000Y-47820000D01*
X41532000Y-47816000D01*
X41539000Y-47813000D01*
X41546000Y-47810000D01*
X41554000Y-47807000D01*
X41561000Y-47805000D01*
X41569000Y-47803000D01*
X41577000Y-47802000D01*
X41584000Y-47801000D01*
X41592000Y-47800000D01*
X41600000Y-47800000D01*
X42400000Y-47800000D01*
X42400000Y-47950000D01*
G36*
X42400000Y-47950000D02*
G01*
X42400000Y-48100000D01*
X41600000Y-48100000D01*
X41592000Y-48100000D01*
X41584000Y-48099000D01*
X41577000Y-48098000D01*
X41569000Y-48097000D01*
X41561000Y-48095000D01*
X41554000Y-48093000D01*
X41546000Y-48090000D01*
X41539000Y-48087000D01*
X41532000Y-48084000D01*
X41525000Y-48080000D01*
X41518000Y-48076000D01*
X41512000Y-48071000D01*
X41506000Y-48067000D01*
X41500000Y-48061000D01*
X41494000Y-48056000D01*
X41489000Y-48050000D01*
X41483000Y-48044000D01*
X41479000Y-48038000D01*
X41474000Y-48032000D01*
X41470000Y-48025000D01*
X41466000Y-48018000D01*
X41463000Y-48011000D01*
X41460000Y-48004000D01*
X41457000Y-47996000D01*
X41455000Y-47989000D01*
X41453000Y-47981000D01*
X41452000Y-47973000D01*
X41451000Y-47966000D01*
X41450000Y-47958000D01*
X41450000Y-47950000D01*
X41450000Y-47942000D01*
X41451000Y-47934000D01*
X41452000Y-47927000D01*
X41453000Y-47919000D01*
X41455000Y-47911000D01*
X41457000Y-47904000D01*
X41460000Y-47896000D01*
X41463000Y-47889000D01*
X41466000Y-47882000D01*
X41470000Y-47875000D01*
X41474000Y-47868000D01*
X41479000Y-47862000D01*
X41483000Y-47856000D01*
X41489000Y-47850000D01*
X41494000Y-47844000D01*
X41500000Y-47839000D01*
X41506000Y-47833000D01*
X41512000Y-47829000D01*
X41518000Y-47824000D01*
X41525000Y-47820000D01*
X41532000Y-47816000D01*
X41539000Y-47813000D01*
X41546000Y-47810000D01*
X41554000Y-47807000D01*
X41561000Y-47805000D01*
X41569000Y-47803000D01*
X41577000Y-47802000D01*
X41584000Y-47801000D01*
X41592000Y-47800000D01*
X41600000Y-47800000D01*
X42400000Y-47800000D01*
X42400000Y-47950000D01*
G37*
%TD*%
D15*
%TO.C,U6*%
X49110000Y-52200000D03*
X49110000Y-51250000D03*
X49110000Y-50300000D03*
X46790000Y-50300000D03*
X46790000Y-51250000D03*
X46790000Y-52200000D03*
%TD*%
D16*
%TO.C,U1*%
X48349999Y-40250001D03*
D17*
X49250000Y-40449998D03*
X49575000Y-39799999D03*
X49900000Y-40449998D03*
X50225000Y-39799999D03*
X50550000Y-40449998D03*
D16*
X51450000Y-40250001D03*
D17*
X51650000Y-39350000D03*
X51000000Y-39025000D03*
X51650000Y-38700000D03*
X51000000Y-38375000D03*
X51650000Y-38050000D03*
X51000000Y-37725000D03*
X51650000Y-37400000D03*
X51000000Y-37075000D03*
X51650000Y-36750000D03*
X51000000Y-36425000D03*
X51650000Y-36100000D03*
X51000000Y-35775000D03*
X51650000Y-35450000D03*
X51000000Y-35125000D03*
X51650000Y-34800000D03*
X51000000Y-34475000D03*
X51650000Y-34150000D03*
D16*
X51450000Y-33250000D03*
D17*
X50550000Y-33050000D03*
X50225000Y-33700000D03*
X49900000Y-33050000D03*
X49575000Y-33700000D03*
X49250000Y-33050000D03*
D16*
X48349999Y-33250000D03*
D17*
X48150002Y-34150000D03*
X48800001Y-34475000D03*
X48150002Y-34800000D03*
X48800001Y-35125000D03*
X48150002Y-35450000D03*
X48800001Y-35775000D03*
X48150002Y-36100000D03*
X48800001Y-36425000D03*
X48150002Y-36750000D03*
X48800001Y-37075000D03*
X48150002Y-37400000D03*
X48800001Y-37725000D03*
X48150002Y-38050000D03*
X48800001Y-38375000D03*
X48150002Y-38700000D03*
X48800001Y-39025000D03*
X48150002Y-39350000D03*
X52400000Y-40449998D03*
X53400000Y-40449998D03*
X54400000Y-40449998D03*
D16*
X55350000Y-40250001D03*
D17*
X55550500Y-39250000D03*
X55550500Y-38250000D03*
X55550500Y-37250000D03*
X55550500Y-36250000D03*
X55550500Y-35250000D03*
X55550500Y-34250000D03*
D16*
X55350000Y-33250000D03*
D17*
X54400000Y-33050000D03*
X53400000Y-33050000D03*
X52400000Y-33050000D03*
%TD*%
D18*
%TO.C,R29*%
X43500000Y-55620000D03*
X43500000Y-56580000D03*
%TD*%
D19*
%TO.C,U7*%
X47000000Y-59400000D03*
X48450000Y-59400000D03*
X47000000Y-56050000D03*
X48450000Y-56050000D03*
D20*
X45975000Y-57725000D03*
%TD*%
D21*
%TO.C,C12*%
X37526029Y-33869023D03*
X37526029Y-32909023D03*
%TD*%
D22*
%TO.C,R13*%
X41700000Y-30760000D03*
X41700000Y-29740000D03*
%TD*%
D23*
%TO.C,R20*%
X39490000Y-40850000D03*
X40510000Y-40850000D03*
%TD*%
%TO.C,R16*%
X35440000Y-35300000D03*
X36460000Y-35300000D03*
%TD*%
D24*
%TO.C,U2*%
X34671029Y-48762023D03*
X34171029Y-48762023D03*
X33671029Y-48762023D03*
X33171029Y-48762023D03*
D25*
X32486029Y-49447023D03*
X32486029Y-49947023D03*
X32486029Y-50447023D03*
X32486029Y-50947023D03*
D24*
X33171029Y-51632023D03*
X33671029Y-51632023D03*
X34171029Y-51632023D03*
X34671029Y-51632023D03*
D25*
X35356029Y-50947023D03*
X35356029Y-50447023D03*
X35356029Y-49947023D03*
X35356029Y-49447023D03*
D26*
X33921029Y-50197023D03*
%TD*%
D27*
%TO.C,C1*%
X36670000Y-51150000D03*
X37630000Y-51150000D03*
%TD*%
D28*
%TO.C,R30*%
X43500000Y-57590000D03*
X43500000Y-58610000D03*
%TD*%
D29*
%TO.C,C8*%
X45380000Y-50000000D03*
X44420000Y-50000000D03*
%TD*%
D23*
%TO.C,R8*%
X43140000Y-47200000D03*
X44160000Y-47200000D03*
%TD*%
D30*
%TO.C,U9*%
X43600000Y-52300000D03*
X41700000Y-52300000D03*
X42650000Y-54300000D03*
%TD*%
D28*
%TO.C,R11*%
X35450000Y-32890000D03*
X35450000Y-33910000D03*
%TD*%
D31*
%TO.C,R21*%
X42710000Y-40850000D03*
X41690000Y-40850000D03*
%TD*%
D18*
%TO.C,C16*%
X43800000Y-39770000D03*
X43800000Y-40730000D03*
%TD*%
D28*
%TO.C,R12*%
X34400000Y-32890000D03*
X34400000Y-33910000D03*
%TD*%
D31*
%TO.C,R10*%
X36460000Y-39200000D03*
X35440000Y-39200000D03*
%TD*%
D21*
%TO.C,C11*%
X40575029Y-30727023D03*
X40575029Y-29767023D03*
%TD*%
D31*
%TO.C,R25*%
X42710000Y-39650000D03*
X41690000Y-39650000D03*
%TD*%
D27*
%TO.C,C4*%
X33120000Y-47450000D03*
X34080000Y-47450000D03*
%TD*%
D22*
%TO.C,R22*%
X49050000Y-42810000D03*
X49050000Y-41790000D03*
%TD*%
D32*
%TO.C,J2*%
X31550000Y-44750000D03*
X31550000Y-43500000D03*
X31550000Y-42250000D03*
%TD*%
D33*
%TO.C,J3*%
X32000000Y-29580000D03*
D34*
X32000000Y-32120000D03*
X32000000Y-34660000D03*
X32000000Y-37200000D03*
%TD*%
D23*
%TO.C,R17*%
X35440000Y-36394023D03*
X36460000Y-36394023D03*
%TD*%
D22*
%TO.C,R14*%
X44600000Y-56610000D03*
X44600000Y-55590000D03*
%TD*%
D18*
%TO.C,C14*%
X38250000Y-29770000D03*
X38250000Y-30730000D03*
%TD*%
D27*
%TO.C,C5*%
X43170000Y-46050000D03*
X44130000Y-46050000D03*
%TD*%
D35*
%TO.C,D1*%
X43100000Y-50150000D03*
X39800000Y-50150000D03*
%TD*%
D28*
%TO.C,R18*%
X39400000Y-29740000D03*
X39400000Y-30760000D03*
%TD*%
D21*
%TO.C,C6*%
X40700000Y-44330000D03*
X40700000Y-43370000D03*
%TD*%
D27*
%TO.C,C15*%
X39520000Y-37989023D03*
X40480000Y-37989023D03*
%TD*%
D31*
%TO.C,R6*%
X36110000Y-47450000D03*
X35090000Y-47450000D03*
%TD*%
D23*
%TO.C,R23*%
X39490000Y-39647023D03*
X40510000Y-39647023D03*
%TD*%
D36*
%TO.C,J1*%
X34050000Y-56580000D03*
X34550000Y-56580000D03*
X35050000Y-56580000D03*
X35550000Y-56580000D03*
X36050000Y-56580000D03*
X36550000Y-56580000D03*
X37550000Y-56580000D03*
X38050000Y-56580000D03*
X38550000Y-56580000D03*
X39050000Y-56580000D03*
X39550000Y-56580000D03*
X40050000Y-56580000D03*
D37*
X40150000Y-57880000D03*
D36*
X39300000Y-57880000D03*
X38800000Y-57880000D03*
X38300000Y-57880000D03*
X37800000Y-57880000D03*
X37300000Y-57880000D03*
X36800000Y-57880000D03*
X36300000Y-57880000D03*
X35800000Y-57880000D03*
X35300000Y-57880000D03*
X34800000Y-57880000D03*
D37*
X33950000Y-57880000D03*
D38*
X32730000Y-56990000D03*
X41370000Y-56990000D03*
D39*
X32730000Y-62350000D03*
X41370000Y-62350000D03*
%TD*%
D23*
%TO.C,R5*%
X36640000Y-50100000D03*
X37660000Y-50100000D03*
%TD*%
D27*
%TO.C,C9*%
X49020000Y-45200000D03*
X49980000Y-45200000D03*
%TD*%
D40*
%TO.C,H2*%
X53996971Y-61999977D03*
%TD*%
D31*
%TO.C,R27*%
X42690029Y-38000000D03*
X41670029Y-38000000D03*
%TD*%
D21*
%TO.C,C7*%
X43750000Y-33430000D03*
X43750000Y-32470000D03*
%TD*%
D29*
%TO.C,C2*%
X34480000Y-54900000D03*
X33520000Y-54900000D03*
%TD*%
D31*
%TO.C,R3*%
X37660000Y-49050000D03*
X36640000Y-49050000D03*
%TD*%
D41*
%TO.C,R9*%
X35675000Y-37800000D03*
X37325000Y-37800000D03*
%TD*%
D42*
%TO.C,U8*%
X49045029Y-27657023D03*
X43965029Y-28673023D03*
X43965029Y-26641023D03*
D43*
X47775029Y-27022023D03*
X47775029Y-28292023D03*
X46505029Y-27022023D03*
X46505029Y-28292023D03*
X45235029Y-27007023D03*
X45235029Y-28292023D03*
%TD*%
D31*
%TO.C,R28*%
X33410000Y-53100000D03*
X32390000Y-53100000D03*
%TD*%
D22*
%TO.C,R26*%
X45850000Y-42810000D03*
X45850000Y-41790000D03*
%TD*%
D31*
%TO.C,R24*%
X47960000Y-41850000D03*
X46940000Y-41850000D03*
%TD*%
D40*
%TO.C,H1*%
X31999971Y-26001977D03*
%TD*%
D23*
%TO.C,R1*%
X34440000Y-53100000D03*
X35460000Y-53100000D03*
%TD*%
D44*
%TO.C,D5*%
X42150000Y-44312500D03*
X42850000Y-44312500D03*
X42850000Y-43012500D03*
X42150000Y-43012500D03*
%TD*%
D28*
%TO.C,R15*%
X36500000Y-32890000D03*
X36500000Y-33910000D03*
%TD*%
D27*
%TO.C,C13*%
X48120000Y-53900000D03*
X49080000Y-53900000D03*
%TD*%
D44*
%TO.C,D4*%
X47100000Y-44400000D03*
X47800000Y-44400000D03*
X47800000Y-43100000D03*
X47100000Y-43100000D03*
%TD*%
D18*
%TO.C,C3*%
X31150000Y-48500000D03*
X31150000Y-49460000D03*
%TD*%
D45*
%TO.C,U5*%
X38701029Y-33881023D03*
X38701029Y-34381023D03*
X38701029Y-34881023D03*
X38701029Y-35381023D03*
X38701029Y-35881023D03*
D46*
X39596029Y-36776023D03*
X40096029Y-36776023D03*
X40596029Y-36776023D03*
X41096029Y-36776023D03*
X41596029Y-36776023D03*
D45*
X42491029Y-35881023D03*
X42491029Y-35381023D03*
X42491029Y-34881023D03*
X42491029Y-34381023D03*
X42491029Y-33881023D03*
D46*
X41596029Y-32986023D03*
X41096029Y-32986023D03*
X40596029Y-32986023D03*
X40096029Y-32986023D03*
X39596029Y-32986023D03*
D47*
X40596029Y-34881023D03*
%TD*%
D23*
%TO.C,R7*%
X43126077Y-48450000D03*
X44146077Y-48450000D03*
%TD*%
D28*
%TO.C,R32*%
X39500000Y-43340000D03*
X39500000Y-44360000D03*
%TD*%
D18*
%TO.C,C10*%
X37550000Y-35470000D03*
X37550000Y-36430000D03*
%TD*%
D22*
%TO.C,R19*%
X37100000Y-30760000D03*
X37100000Y-29740000D03*
%TD*%
D48*
%TO.C,U4*%
X46682500Y-46600000D03*
X46682500Y-47550000D03*
X46682500Y-48500000D03*
X49192500Y-48500000D03*
X49192500Y-46600000D03*
%TD*%
D49*
%TO.C,F1*%
X37100000Y-53350000D03*
X39900000Y-53350000D03*
%TD*%
D50*
X55999971Y-26001977D02*
X56000000Y-62000000D01*
X35000000Y-26170500D02*
X40844000Y-26170500D01*
X35000000Y-26170500D02*
X35000000Y-24000000D01*
X32000000Y-64000000D02*
G75*
G02*
X30003044Y-61997000I21700J2018600D01*
G01*
X56000000Y-62000000D02*
G75*
G02*
X53997000Y-63996956I-2018600J21700D01*
G01*
X54002971Y-23998977D02*
X40844000Y-24000000D01*
X53997000Y-63997000D02*
X32000000Y-64000000D01*
X30003000Y-26002000D02*
X30003000Y-61997000D01*
X30003000Y-26002000D02*
G75*
G02*
X32000000Y-24000033I2012600J-10600D01*
G01*
X35000000Y-24000000D02*
X32000000Y-24000000D01*
X40844000Y-26170500D02*
X40844000Y-24000000D01*
X54002971Y-23998977D02*
G75*
G02*
X55999880Y-26001978I-21771J-2018623D01*
G01*
M02*
