%TF.GenerationSoftware,KiCad,Pcbnew,9.0.0*%
%TF.CreationDate,2025-03-20T22:35:40+01:00*%
%TF.ProjectId,nervous-ecg,6e657276-6f75-4732-9d65-63672e6b6963,1.0.1*%
%TF.SameCoordinates,Original*%
%TF.FileFunction,Legend,Top*%
%TF.FilePolarity,Positive*%
%FSLAX46Y46*%
G04 Gerber Fmt 4.6, Leading zero omitted, Abs format (unit mm)*
G04 Created by KiCad (PCBNEW 9.0.0) date 2025-03-20 22:35:40*
%MOMM*%
%LPD*%
G01*
G04 APERTURE LIST*
%ADD10C,0.100000*%
%ADD11C,0.150000*%
%ADD12C,0.300000*%
%ADD13C,0.400000*%
%ADD14C,0.127000*%
%ADD15C,0.200000*%
%ADD16C,0.120000*%
%ADD17C,0.152400*%
%TA.AperFunction,Profile*%
%ADD18C,0.254000*%
%TD*%
G04 APERTURE END LIST*
D10*
D11*
X30012000Y-75990000D02*
X138012000Y-75990000D01*
X138012000Y-107990000D01*
X30012000Y-107990000D01*
X30012000Y-75990000D01*
D10*
D11*
X10000000Y-10000000D02*
X140012000Y-10000000D01*
X140012000Y-109990000D01*
X10000000Y-109990000D01*
X10000000Y-10000000D01*
D10*
D11*
X12000000Y-12000000D02*
X138012000Y-12000000D01*
X138012000Y-107990000D01*
X12000000Y-107990000D01*
X12000000Y-12000000D01*
D10*
D11*
X60000000Y-12000000D02*
X60000000Y-10000000D01*
D10*
D11*
X110000000Y-12000000D02*
X110000000Y-10000000D01*
D10*
D11*
X36089160Y-11593604D02*
X35346303Y-11593604D01*
X35717731Y-11593604D02*
X35717731Y-10293604D01*
X35717731Y-10293604D02*
X35593922Y-10479319D01*
X35593922Y-10479319D02*
X35470112Y-10603128D01*
X35470112Y-10603128D02*
X35346303Y-10665033D01*
D10*
D11*
X85346303Y-10417414D02*
X85408207Y-10355509D01*
X85408207Y-10355509D02*
X85532017Y-10293604D01*
X85532017Y-10293604D02*
X85841541Y-10293604D01*
X85841541Y-10293604D02*
X85965350Y-10355509D01*
X85965350Y-10355509D02*
X86027255Y-10417414D01*
X86027255Y-10417414D02*
X86089160Y-10541223D01*
X86089160Y-10541223D02*
X86089160Y-10665033D01*
X86089160Y-10665033D02*
X86027255Y-10850747D01*
X86027255Y-10850747D02*
X85284398Y-11593604D01*
X85284398Y-11593604D02*
X86089160Y-11593604D01*
D10*
D11*
X135284398Y-10293604D02*
X136089160Y-10293604D01*
X136089160Y-10293604D02*
X135655826Y-10788842D01*
X135655826Y-10788842D02*
X135841541Y-10788842D01*
X135841541Y-10788842D02*
X135965350Y-10850747D01*
X135965350Y-10850747D02*
X136027255Y-10912652D01*
X136027255Y-10912652D02*
X136089160Y-11036461D01*
X136089160Y-11036461D02*
X136089160Y-11345985D01*
X136089160Y-11345985D02*
X136027255Y-11469795D01*
X136027255Y-11469795D02*
X135965350Y-11531700D01*
X135965350Y-11531700D02*
X135841541Y-11593604D01*
X135841541Y-11593604D02*
X135470112Y-11593604D01*
X135470112Y-11593604D02*
X135346303Y-11531700D01*
X135346303Y-11531700D02*
X135284398Y-11469795D01*
D10*
D11*
X60000000Y-107990000D02*
X60000000Y-109990000D01*
D10*
D11*
X110000000Y-107990000D02*
X110000000Y-109990000D01*
D10*
D11*
X36089160Y-109583604D02*
X35346303Y-109583604D01*
X35717731Y-109583604D02*
X35717731Y-108283604D01*
X35717731Y-108283604D02*
X35593922Y-108469319D01*
X35593922Y-108469319D02*
X35470112Y-108593128D01*
X35470112Y-108593128D02*
X35346303Y-108655033D01*
D10*
D11*
X85346303Y-108407414D02*
X85408207Y-108345509D01*
X85408207Y-108345509D02*
X85532017Y-108283604D01*
X85532017Y-108283604D02*
X85841541Y-108283604D01*
X85841541Y-108283604D02*
X85965350Y-108345509D01*
X85965350Y-108345509D02*
X86027255Y-108407414D01*
X86027255Y-108407414D02*
X86089160Y-108531223D01*
X86089160Y-108531223D02*
X86089160Y-108655033D01*
X86089160Y-108655033D02*
X86027255Y-108840747D01*
X86027255Y-108840747D02*
X85284398Y-109583604D01*
X85284398Y-109583604D02*
X86089160Y-109583604D01*
D10*
D11*
X135284398Y-108283604D02*
X136089160Y-108283604D01*
X136089160Y-108283604D02*
X135655826Y-108778842D01*
X135655826Y-108778842D02*
X135841541Y-108778842D01*
X135841541Y-108778842D02*
X135965350Y-108840747D01*
X135965350Y-108840747D02*
X136027255Y-108902652D01*
X136027255Y-108902652D02*
X136089160Y-109026461D01*
X136089160Y-109026461D02*
X136089160Y-109335985D01*
X136089160Y-109335985D02*
X136027255Y-109459795D01*
X136027255Y-109459795D02*
X135965350Y-109521700D01*
X135965350Y-109521700D02*
X135841541Y-109583604D01*
X135841541Y-109583604D02*
X135470112Y-109583604D01*
X135470112Y-109583604D02*
X135346303Y-109521700D01*
X135346303Y-109521700D02*
X135284398Y-109459795D01*
D10*
D11*
X10000000Y-60000000D02*
X12000000Y-60000000D01*
D10*
D11*
X10690476Y-35222176D02*
X11309523Y-35222176D01*
X10566666Y-35593604D02*
X10999999Y-34293604D01*
X10999999Y-34293604D02*
X11433333Y-35593604D01*
D10*
D11*
X11092857Y-84912652D02*
X11278571Y-84974557D01*
X11278571Y-84974557D02*
X11340476Y-85036461D01*
X11340476Y-85036461D02*
X11402380Y-85160271D01*
X11402380Y-85160271D02*
X11402380Y-85345985D01*
X11402380Y-85345985D02*
X11340476Y-85469795D01*
X11340476Y-85469795D02*
X11278571Y-85531700D01*
X11278571Y-85531700D02*
X11154761Y-85593604D01*
X11154761Y-85593604D02*
X10659523Y-85593604D01*
X10659523Y-85593604D02*
X10659523Y-84293604D01*
X10659523Y-84293604D02*
X11092857Y-84293604D01*
X11092857Y-84293604D02*
X11216666Y-84355509D01*
X11216666Y-84355509D02*
X11278571Y-84417414D01*
X11278571Y-84417414D02*
X11340476Y-84541223D01*
X11340476Y-84541223D02*
X11340476Y-84665033D01*
X11340476Y-84665033D02*
X11278571Y-84788842D01*
X11278571Y-84788842D02*
X11216666Y-84850747D01*
X11216666Y-84850747D02*
X11092857Y-84912652D01*
X11092857Y-84912652D02*
X10659523Y-84912652D01*
D10*
D11*
X140012000Y-60000000D02*
X138012000Y-60000000D01*
D10*
D11*
X138702476Y-35222176D02*
X139321523Y-35222176D01*
X138578666Y-35593604D02*
X139011999Y-34293604D01*
X139011999Y-34293604D02*
X139445333Y-35593604D01*
D10*
D11*
X139104857Y-84912652D02*
X139290571Y-84974557D01*
X139290571Y-84974557D02*
X139352476Y-85036461D01*
X139352476Y-85036461D02*
X139414380Y-85160271D01*
X139414380Y-85160271D02*
X139414380Y-85345985D01*
X139414380Y-85345985D02*
X139352476Y-85469795D01*
X139352476Y-85469795D02*
X139290571Y-85531700D01*
X139290571Y-85531700D02*
X139166761Y-85593604D01*
X139166761Y-85593604D02*
X138671523Y-85593604D01*
X138671523Y-85593604D02*
X138671523Y-84293604D01*
X138671523Y-84293604D02*
X139104857Y-84293604D01*
X139104857Y-84293604D02*
X139228666Y-84355509D01*
X139228666Y-84355509D02*
X139290571Y-84417414D01*
X139290571Y-84417414D02*
X139352476Y-84541223D01*
X139352476Y-84541223D02*
X139352476Y-84665033D01*
X139352476Y-84665033D02*
X139290571Y-84788842D01*
X139290571Y-84788842D02*
X139228666Y-84850747D01*
X139228666Y-84850747D02*
X139104857Y-84912652D01*
X139104857Y-84912652D02*
X138671523Y-84912652D01*
D10*
D11*
X53467826Y-103776128D02*
X53467826Y-102276128D01*
X53467826Y-102276128D02*
X53824969Y-102276128D01*
X53824969Y-102276128D02*
X54039255Y-102347557D01*
X54039255Y-102347557D02*
X54182112Y-102490414D01*
X54182112Y-102490414D02*
X54253541Y-102633271D01*
X54253541Y-102633271D02*
X54324969Y-102918985D01*
X54324969Y-102918985D02*
X54324969Y-103133271D01*
X54324969Y-103133271D02*
X54253541Y-103418985D01*
X54253541Y-103418985D02*
X54182112Y-103561842D01*
X54182112Y-103561842D02*
X54039255Y-103704700D01*
X54039255Y-103704700D02*
X53824969Y-103776128D01*
X53824969Y-103776128D02*
X53467826Y-103776128D01*
X55610684Y-103776128D02*
X55610684Y-102990414D01*
X55610684Y-102990414D02*
X55539255Y-102847557D01*
X55539255Y-102847557D02*
X55396398Y-102776128D01*
X55396398Y-102776128D02*
X55110684Y-102776128D01*
X55110684Y-102776128D02*
X54967826Y-102847557D01*
X55610684Y-103704700D02*
X55467826Y-103776128D01*
X55467826Y-103776128D02*
X55110684Y-103776128D01*
X55110684Y-103776128D02*
X54967826Y-103704700D01*
X54967826Y-103704700D02*
X54896398Y-103561842D01*
X54896398Y-103561842D02*
X54896398Y-103418985D01*
X54896398Y-103418985D02*
X54967826Y-103276128D01*
X54967826Y-103276128D02*
X55110684Y-103204700D01*
X55110684Y-103204700D02*
X55467826Y-103204700D01*
X55467826Y-103204700D02*
X55610684Y-103133271D01*
X56110684Y-102776128D02*
X56682112Y-102776128D01*
X56324969Y-102276128D02*
X56324969Y-103561842D01*
X56324969Y-103561842D02*
X56396398Y-103704700D01*
X56396398Y-103704700D02*
X56539255Y-103776128D01*
X56539255Y-103776128D02*
X56682112Y-103776128D01*
X57753541Y-103704700D02*
X57610684Y-103776128D01*
X57610684Y-103776128D02*
X57324970Y-103776128D01*
X57324970Y-103776128D02*
X57182112Y-103704700D01*
X57182112Y-103704700D02*
X57110684Y-103561842D01*
X57110684Y-103561842D02*
X57110684Y-102990414D01*
X57110684Y-102990414D02*
X57182112Y-102847557D01*
X57182112Y-102847557D02*
X57324970Y-102776128D01*
X57324970Y-102776128D02*
X57610684Y-102776128D01*
X57610684Y-102776128D02*
X57753541Y-102847557D01*
X57753541Y-102847557D02*
X57824970Y-102990414D01*
X57824970Y-102990414D02*
X57824970Y-103133271D01*
X57824970Y-103133271D02*
X57110684Y-103276128D01*
X58467826Y-103633271D02*
X58539255Y-103704700D01*
X58539255Y-103704700D02*
X58467826Y-103776128D01*
X58467826Y-103776128D02*
X58396398Y-103704700D01*
X58396398Y-103704700D02*
X58467826Y-103633271D01*
X58467826Y-103633271D02*
X58467826Y-103776128D01*
X58467826Y-102847557D02*
X58539255Y-102918985D01*
X58539255Y-102918985D02*
X58467826Y-102990414D01*
X58467826Y-102990414D02*
X58396398Y-102918985D01*
X58396398Y-102918985D02*
X58467826Y-102847557D01*
X58467826Y-102847557D02*
X58467826Y-102990414D01*
X60253541Y-102418985D02*
X60324969Y-102347557D01*
X60324969Y-102347557D02*
X60467827Y-102276128D01*
X60467827Y-102276128D02*
X60824969Y-102276128D01*
X60824969Y-102276128D02*
X60967827Y-102347557D01*
X60967827Y-102347557D02*
X61039255Y-102418985D01*
X61039255Y-102418985D02*
X61110684Y-102561842D01*
X61110684Y-102561842D02*
X61110684Y-102704700D01*
X61110684Y-102704700D02*
X61039255Y-102918985D01*
X61039255Y-102918985D02*
X60182112Y-103776128D01*
X60182112Y-103776128D02*
X61110684Y-103776128D01*
X62039255Y-102276128D02*
X62182112Y-102276128D01*
X62182112Y-102276128D02*
X62324969Y-102347557D01*
X62324969Y-102347557D02*
X62396398Y-102418985D01*
X62396398Y-102418985D02*
X62467826Y-102561842D01*
X62467826Y-102561842D02*
X62539255Y-102847557D01*
X62539255Y-102847557D02*
X62539255Y-103204700D01*
X62539255Y-103204700D02*
X62467826Y-103490414D01*
X62467826Y-103490414D02*
X62396398Y-103633271D01*
X62396398Y-103633271D02*
X62324969Y-103704700D01*
X62324969Y-103704700D02*
X62182112Y-103776128D01*
X62182112Y-103776128D02*
X62039255Y-103776128D01*
X62039255Y-103776128D02*
X61896398Y-103704700D01*
X61896398Y-103704700D02*
X61824969Y-103633271D01*
X61824969Y-103633271D02*
X61753540Y-103490414D01*
X61753540Y-103490414D02*
X61682112Y-103204700D01*
X61682112Y-103204700D02*
X61682112Y-102847557D01*
X61682112Y-102847557D02*
X61753540Y-102561842D01*
X61753540Y-102561842D02*
X61824969Y-102418985D01*
X61824969Y-102418985D02*
X61896398Y-102347557D01*
X61896398Y-102347557D02*
X62039255Y-102276128D01*
X63110683Y-102418985D02*
X63182111Y-102347557D01*
X63182111Y-102347557D02*
X63324969Y-102276128D01*
X63324969Y-102276128D02*
X63682111Y-102276128D01*
X63682111Y-102276128D02*
X63824969Y-102347557D01*
X63824969Y-102347557D02*
X63896397Y-102418985D01*
X63896397Y-102418985D02*
X63967826Y-102561842D01*
X63967826Y-102561842D02*
X63967826Y-102704700D01*
X63967826Y-102704700D02*
X63896397Y-102918985D01*
X63896397Y-102918985D02*
X63039254Y-103776128D01*
X63039254Y-103776128D02*
X63967826Y-103776128D01*
X65324968Y-102276128D02*
X64610682Y-102276128D01*
X64610682Y-102276128D02*
X64539254Y-102990414D01*
X64539254Y-102990414D02*
X64610682Y-102918985D01*
X64610682Y-102918985D02*
X64753540Y-102847557D01*
X64753540Y-102847557D02*
X65110682Y-102847557D01*
X65110682Y-102847557D02*
X65253540Y-102918985D01*
X65253540Y-102918985D02*
X65324968Y-102990414D01*
X65324968Y-102990414D02*
X65396397Y-103133271D01*
X65396397Y-103133271D02*
X65396397Y-103490414D01*
X65396397Y-103490414D02*
X65324968Y-103633271D01*
X65324968Y-103633271D02*
X65253540Y-103704700D01*
X65253540Y-103704700D02*
X65110682Y-103776128D01*
X65110682Y-103776128D02*
X64753540Y-103776128D01*
X64753540Y-103776128D02*
X64610682Y-103704700D01*
X64610682Y-103704700D02*
X64539254Y-103633271D01*
X66039253Y-103204700D02*
X67182111Y-103204700D01*
X68182111Y-102276128D02*
X68324968Y-102276128D01*
X68324968Y-102276128D02*
X68467825Y-102347557D01*
X68467825Y-102347557D02*
X68539254Y-102418985D01*
X68539254Y-102418985D02*
X68610682Y-102561842D01*
X68610682Y-102561842D02*
X68682111Y-102847557D01*
X68682111Y-102847557D02*
X68682111Y-103204700D01*
X68682111Y-103204700D02*
X68610682Y-103490414D01*
X68610682Y-103490414D02*
X68539254Y-103633271D01*
X68539254Y-103633271D02*
X68467825Y-103704700D01*
X68467825Y-103704700D02*
X68324968Y-103776128D01*
X68324968Y-103776128D02*
X68182111Y-103776128D01*
X68182111Y-103776128D02*
X68039254Y-103704700D01*
X68039254Y-103704700D02*
X67967825Y-103633271D01*
X67967825Y-103633271D02*
X67896396Y-103490414D01*
X67896396Y-103490414D02*
X67824968Y-103204700D01*
X67824968Y-103204700D02*
X67824968Y-102847557D01*
X67824968Y-102847557D02*
X67896396Y-102561842D01*
X67896396Y-102561842D02*
X67967825Y-102418985D01*
X67967825Y-102418985D02*
X68039254Y-102347557D01*
X68039254Y-102347557D02*
X68182111Y-102276128D01*
X69182110Y-102276128D02*
X70110682Y-102276128D01*
X70110682Y-102276128D02*
X69610682Y-102847557D01*
X69610682Y-102847557D02*
X69824967Y-102847557D01*
X69824967Y-102847557D02*
X69967825Y-102918985D01*
X69967825Y-102918985D02*
X70039253Y-102990414D01*
X70039253Y-102990414D02*
X70110682Y-103133271D01*
X70110682Y-103133271D02*
X70110682Y-103490414D01*
X70110682Y-103490414D02*
X70039253Y-103633271D01*
X70039253Y-103633271D02*
X69967825Y-103704700D01*
X69967825Y-103704700D02*
X69824967Y-103776128D01*
X69824967Y-103776128D02*
X69396396Y-103776128D01*
X69396396Y-103776128D02*
X69253539Y-103704700D01*
X69253539Y-103704700D02*
X69182110Y-103633271D01*
X70753538Y-103204700D02*
X71896396Y-103204700D01*
X72539253Y-102418985D02*
X72610681Y-102347557D01*
X72610681Y-102347557D02*
X72753539Y-102276128D01*
X72753539Y-102276128D02*
X73110681Y-102276128D01*
X73110681Y-102276128D02*
X73253539Y-102347557D01*
X73253539Y-102347557D02*
X73324967Y-102418985D01*
X73324967Y-102418985D02*
X73396396Y-102561842D01*
X73396396Y-102561842D02*
X73396396Y-102704700D01*
X73396396Y-102704700D02*
X73324967Y-102918985D01*
X73324967Y-102918985D02*
X72467824Y-103776128D01*
X72467824Y-103776128D02*
X73396396Y-103776128D01*
X74324967Y-102276128D02*
X74467824Y-102276128D01*
X74467824Y-102276128D02*
X74610681Y-102347557D01*
X74610681Y-102347557D02*
X74682110Y-102418985D01*
X74682110Y-102418985D02*
X74753538Y-102561842D01*
X74753538Y-102561842D02*
X74824967Y-102847557D01*
X74824967Y-102847557D02*
X74824967Y-103204700D01*
X74824967Y-103204700D02*
X74753538Y-103490414D01*
X74753538Y-103490414D02*
X74682110Y-103633271D01*
X74682110Y-103633271D02*
X74610681Y-103704700D01*
X74610681Y-103704700D02*
X74467824Y-103776128D01*
X74467824Y-103776128D02*
X74324967Y-103776128D01*
X74324967Y-103776128D02*
X74182110Y-103704700D01*
X74182110Y-103704700D02*
X74110681Y-103633271D01*
X74110681Y-103633271D02*
X74039252Y-103490414D01*
X74039252Y-103490414D02*
X73967824Y-103204700D01*
X73967824Y-103204700D02*
X73967824Y-102847557D01*
X73967824Y-102847557D02*
X74039252Y-102561842D01*
X74039252Y-102561842D02*
X74110681Y-102418985D01*
X74110681Y-102418985D02*
X74182110Y-102347557D01*
X74182110Y-102347557D02*
X74324967Y-102276128D01*
D10*
D11*
X30012000Y-104490000D02*
X138012000Y-104490000D01*
D10*
D11*
X31467826Y-106576128D02*
X31467826Y-105076128D01*
X32324969Y-106576128D02*
X31682112Y-105718985D01*
X32324969Y-105076128D02*
X31467826Y-105933271D01*
X32967826Y-106576128D02*
X32967826Y-105576128D01*
X32967826Y-105076128D02*
X32896398Y-105147557D01*
X32896398Y-105147557D02*
X32967826Y-105218985D01*
X32967826Y-105218985D02*
X33039255Y-105147557D01*
X33039255Y-105147557D02*
X32967826Y-105076128D01*
X32967826Y-105076128D02*
X32967826Y-105218985D01*
X34539255Y-106433271D02*
X34467827Y-106504700D01*
X34467827Y-106504700D02*
X34253541Y-106576128D01*
X34253541Y-106576128D02*
X34110684Y-106576128D01*
X34110684Y-106576128D02*
X33896398Y-106504700D01*
X33896398Y-106504700D02*
X33753541Y-106361842D01*
X33753541Y-106361842D02*
X33682112Y-106218985D01*
X33682112Y-106218985D02*
X33610684Y-105933271D01*
X33610684Y-105933271D02*
X33610684Y-105718985D01*
X33610684Y-105718985D02*
X33682112Y-105433271D01*
X33682112Y-105433271D02*
X33753541Y-105290414D01*
X33753541Y-105290414D02*
X33896398Y-105147557D01*
X33896398Y-105147557D02*
X34110684Y-105076128D01*
X34110684Y-105076128D02*
X34253541Y-105076128D01*
X34253541Y-105076128D02*
X34467827Y-105147557D01*
X34467827Y-105147557D02*
X34539255Y-105218985D01*
X35824970Y-106576128D02*
X35824970Y-105790414D01*
X35824970Y-105790414D02*
X35753541Y-105647557D01*
X35753541Y-105647557D02*
X35610684Y-105576128D01*
X35610684Y-105576128D02*
X35324970Y-105576128D01*
X35324970Y-105576128D02*
X35182112Y-105647557D01*
X35824970Y-106504700D02*
X35682112Y-106576128D01*
X35682112Y-106576128D02*
X35324970Y-106576128D01*
X35324970Y-106576128D02*
X35182112Y-106504700D01*
X35182112Y-106504700D02*
X35110684Y-106361842D01*
X35110684Y-106361842D02*
X35110684Y-106218985D01*
X35110684Y-106218985D02*
X35182112Y-106076128D01*
X35182112Y-106076128D02*
X35324970Y-106004700D01*
X35324970Y-106004700D02*
X35682112Y-106004700D01*
X35682112Y-106004700D02*
X35824970Y-105933271D01*
X37182113Y-106576128D02*
X37182113Y-105076128D01*
X37182113Y-106504700D02*
X37039255Y-106576128D01*
X37039255Y-106576128D02*
X36753541Y-106576128D01*
X36753541Y-106576128D02*
X36610684Y-106504700D01*
X36610684Y-106504700D02*
X36539255Y-106433271D01*
X36539255Y-106433271D02*
X36467827Y-106290414D01*
X36467827Y-106290414D02*
X36467827Y-105861842D01*
X36467827Y-105861842D02*
X36539255Y-105718985D01*
X36539255Y-105718985D02*
X36610684Y-105647557D01*
X36610684Y-105647557D02*
X36753541Y-105576128D01*
X36753541Y-105576128D02*
X37039255Y-105576128D01*
X37039255Y-105576128D02*
X37182113Y-105647557D01*
X39039255Y-105790414D02*
X39539255Y-105790414D01*
X39753541Y-106576128D02*
X39039255Y-106576128D01*
X39039255Y-106576128D02*
X39039255Y-105076128D01*
X39039255Y-105076128D02*
X39753541Y-105076128D01*
X40396398Y-106433271D02*
X40467827Y-106504700D01*
X40467827Y-106504700D02*
X40396398Y-106576128D01*
X40396398Y-106576128D02*
X40324970Y-106504700D01*
X40324970Y-106504700D02*
X40396398Y-106433271D01*
X40396398Y-106433271D02*
X40396398Y-106576128D01*
X41110684Y-106576128D02*
X41110684Y-105076128D01*
X41110684Y-105076128D02*
X41467827Y-105076128D01*
X41467827Y-105076128D02*
X41682113Y-105147557D01*
X41682113Y-105147557D02*
X41824970Y-105290414D01*
X41824970Y-105290414D02*
X41896399Y-105433271D01*
X41896399Y-105433271D02*
X41967827Y-105718985D01*
X41967827Y-105718985D02*
X41967827Y-105933271D01*
X41967827Y-105933271D02*
X41896399Y-106218985D01*
X41896399Y-106218985D02*
X41824970Y-106361842D01*
X41824970Y-106361842D02*
X41682113Y-106504700D01*
X41682113Y-106504700D02*
X41467827Y-106576128D01*
X41467827Y-106576128D02*
X41110684Y-106576128D01*
X42610684Y-106433271D02*
X42682113Y-106504700D01*
X42682113Y-106504700D02*
X42610684Y-106576128D01*
X42610684Y-106576128D02*
X42539256Y-106504700D01*
X42539256Y-106504700D02*
X42610684Y-106433271D01*
X42610684Y-106433271D02*
X42610684Y-106576128D01*
X43253542Y-106147557D02*
X43967828Y-106147557D01*
X43110685Y-106576128D02*
X43610685Y-105076128D01*
X43610685Y-105076128D02*
X44110685Y-106576128D01*
X44610684Y-106433271D02*
X44682113Y-106504700D01*
X44682113Y-106504700D02*
X44610684Y-106576128D01*
X44610684Y-106576128D02*
X44539256Y-106504700D01*
X44539256Y-106504700D02*
X44610684Y-106433271D01*
X44610684Y-106433271D02*
X44610684Y-106576128D01*
X46539256Y-106576128D02*
X46824970Y-106576128D01*
X46824970Y-106576128D02*
X46967827Y-106504700D01*
X46967827Y-106504700D02*
X47039256Y-106433271D01*
X47039256Y-106433271D02*
X47182113Y-106218985D01*
X47182113Y-106218985D02*
X47253542Y-105933271D01*
X47253542Y-105933271D02*
X47253542Y-105361842D01*
X47253542Y-105361842D02*
X47182113Y-105218985D01*
X47182113Y-105218985D02*
X47110685Y-105147557D01*
X47110685Y-105147557D02*
X46967827Y-105076128D01*
X46967827Y-105076128D02*
X46682113Y-105076128D01*
X46682113Y-105076128D02*
X46539256Y-105147557D01*
X46539256Y-105147557D02*
X46467827Y-105218985D01*
X46467827Y-105218985D02*
X46396399Y-105361842D01*
X46396399Y-105361842D02*
X46396399Y-105718985D01*
X46396399Y-105718985D02*
X46467827Y-105861842D01*
X46467827Y-105861842D02*
X46539256Y-105933271D01*
X46539256Y-105933271D02*
X46682113Y-106004700D01*
X46682113Y-106004700D02*
X46967827Y-106004700D01*
X46967827Y-106004700D02*
X47110685Y-105933271D01*
X47110685Y-105933271D02*
X47182113Y-105861842D01*
X47182113Y-105861842D02*
X47253542Y-105718985D01*
X47896398Y-106433271D02*
X47967827Y-106504700D01*
X47967827Y-106504700D02*
X47896398Y-106576128D01*
X47896398Y-106576128D02*
X47824970Y-106504700D01*
X47824970Y-106504700D02*
X47896398Y-106433271D01*
X47896398Y-106433271D02*
X47896398Y-106576128D01*
X48896399Y-105076128D02*
X49039256Y-105076128D01*
X49039256Y-105076128D02*
X49182113Y-105147557D01*
X49182113Y-105147557D02*
X49253542Y-105218985D01*
X49253542Y-105218985D02*
X49324970Y-105361842D01*
X49324970Y-105361842D02*
X49396399Y-105647557D01*
X49396399Y-105647557D02*
X49396399Y-106004700D01*
X49396399Y-106004700D02*
X49324970Y-106290414D01*
X49324970Y-106290414D02*
X49253542Y-106433271D01*
X49253542Y-106433271D02*
X49182113Y-106504700D01*
X49182113Y-106504700D02*
X49039256Y-106576128D01*
X49039256Y-106576128D02*
X48896399Y-106576128D01*
X48896399Y-106576128D02*
X48753542Y-106504700D01*
X48753542Y-106504700D02*
X48682113Y-106433271D01*
X48682113Y-106433271D02*
X48610684Y-106290414D01*
X48610684Y-106290414D02*
X48539256Y-106004700D01*
X48539256Y-106004700D02*
X48539256Y-105647557D01*
X48539256Y-105647557D02*
X48610684Y-105361842D01*
X48610684Y-105361842D02*
X48682113Y-105218985D01*
X48682113Y-105218985D02*
X48753542Y-105147557D01*
X48753542Y-105147557D02*
X48896399Y-105076128D01*
X50039255Y-106433271D02*
X50110684Y-106504700D01*
X50110684Y-106504700D02*
X50039255Y-106576128D01*
X50039255Y-106576128D02*
X49967827Y-106504700D01*
X49967827Y-106504700D02*
X50039255Y-106433271D01*
X50039255Y-106433271D02*
X50039255Y-106576128D01*
X51039256Y-105076128D02*
X51182113Y-105076128D01*
X51182113Y-105076128D02*
X51324970Y-105147557D01*
X51324970Y-105147557D02*
X51396399Y-105218985D01*
X51396399Y-105218985D02*
X51467827Y-105361842D01*
X51467827Y-105361842D02*
X51539256Y-105647557D01*
X51539256Y-105647557D02*
X51539256Y-106004700D01*
X51539256Y-106004700D02*
X51467827Y-106290414D01*
X51467827Y-106290414D02*
X51396399Y-106433271D01*
X51396399Y-106433271D02*
X51324970Y-106504700D01*
X51324970Y-106504700D02*
X51182113Y-106576128D01*
X51182113Y-106576128D02*
X51039256Y-106576128D01*
X51039256Y-106576128D02*
X50896399Y-106504700D01*
X50896399Y-106504700D02*
X50824970Y-106433271D01*
X50824970Y-106433271D02*
X50753541Y-106290414D01*
X50753541Y-106290414D02*
X50682113Y-106004700D01*
X50682113Y-106004700D02*
X50682113Y-105647557D01*
X50682113Y-105647557D02*
X50753541Y-105361842D01*
X50753541Y-105361842D02*
X50824970Y-105218985D01*
X50824970Y-105218985D02*
X50896399Y-105147557D01*
X50896399Y-105147557D02*
X51039256Y-105076128D01*
D10*
D11*
X30012000Y-101490000D02*
X138012000Y-101490000D01*
D10*
D12*
X117423653Y-103768328D02*
X116923653Y-103054042D01*
X116566510Y-103768328D02*
X116566510Y-102268328D01*
X116566510Y-102268328D02*
X117137939Y-102268328D01*
X117137939Y-102268328D02*
X117280796Y-102339757D01*
X117280796Y-102339757D02*
X117352225Y-102411185D01*
X117352225Y-102411185D02*
X117423653Y-102554042D01*
X117423653Y-102554042D02*
X117423653Y-102768328D01*
X117423653Y-102768328D02*
X117352225Y-102911185D01*
X117352225Y-102911185D02*
X117280796Y-102982614D01*
X117280796Y-102982614D02*
X117137939Y-103054042D01*
X117137939Y-103054042D02*
X116566510Y-103054042D01*
X118637939Y-103696900D02*
X118495082Y-103768328D01*
X118495082Y-103768328D02*
X118209368Y-103768328D01*
X118209368Y-103768328D02*
X118066510Y-103696900D01*
X118066510Y-103696900D02*
X117995082Y-103554042D01*
X117995082Y-103554042D02*
X117995082Y-102982614D01*
X117995082Y-102982614D02*
X118066510Y-102839757D01*
X118066510Y-102839757D02*
X118209368Y-102768328D01*
X118209368Y-102768328D02*
X118495082Y-102768328D01*
X118495082Y-102768328D02*
X118637939Y-102839757D01*
X118637939Y-102839757D02*
X118709368Y-102982614D01*
X118709368Y-102982614D02*
X118709368Y-103125471D01*
X118709368Y-103125471D02*
X117995082Y-103268328D01*
X119209367Y-102768328D02*
X119566510Y-103768328D01*
X119566510Y-103768328D02*
X119923653Y-102768328D01*
X120495081Y-103625471D02*
X120566510Y-103696900D01*
X120566510Y-103696900D02*
X120495081Y-103768328D01*
X120495081Y-103768328D02*
X120423653Y-103696900D01*
X120423653Y-103696900D02*
X120495081Y-103625471D01*
X120495081Y-103625471D02*
X120495081Y-103768328D01*
X120495081Y-102839757D02*
X120566510Y-102911185D01*
X120566510Y-102911185D02*
X120495081Y-102982614D01*
X120495081Y-102982614D02*
X120423653Y-102911185D01*
X120423653Y-102911185D02*
X120495081Y-102839757D01*
X120495081Y-102839757D02*
X120495081Y-102982614D01*
X123137939Y-103768328D02*
X122280796Y-103768328D01*
X122709367Y-103768328D02*
X122709367Y-102268328D01*
X122709367Y-102268328D02*
X122566510Y-102482614D01*
X122566510Y-102482614D02*
X122423653Y-102625471D01*
X122423653Y-102625471D02*
X122280796Y-102696900D01*
X123780795Y-103625471D02*
X123852224Y-103696900D01*
X123852224Y-103696900D02*
X123780795Y-103768328D01*
X123780795Y-103768328D02*
X123709367Y-103696900D01*
X123709367Y-103696900D02*
X123780795Y-103625471D01*
X123780795Y-103625471D02*
X123780795Y-103768328D01*
X124780796Y-102268328D02*
X124923653Y-102268328D01*
X124923653Y-102268328D02*
X125066510Y-102339757D01*
X125066510Y-102339757D02*
X125137939Y-102411185D01*
X125137939Y-102411185D02*
X125209367Y-102554042D01*
X125209367Y-102554042D02*
X125280796Y-102839757D01*
X125280796Y-102839757D02*
X125280796Y-103196900D01*
X125280796Y-103196900D02*
X125209367Y-103482614D01*
X125209367Y-103482614D02*
X125137939Y-103625471D01*
X125137939Y-103625471D02*
X125066510Y-103696900D01*
X125066510Y-103696900D02*
X124923653Y-103768328D01*
X124923653Y-103768328D02*
X124780796Y-103768328D01*
X124780796Y-103768328D02*
X124637939Y-103696900D01*
X124637939Y-103696900D02*
X124566510Y-103625471D01*
X124566510Y-103625471D02*
X124495081Y-103482614D01*
X124495081Y-103482614D02*
X124423653Y-103196900D01*
X124423653Y-103196900D02*
X124423653Y-102839757D01*
X124423653Y-102839757D02*
X124495081Y-102554042D01*
X124495081Y-102554042D02*
X124566510Y-102411185D01*
X124566510Y-102411185D02*
X124637939Y-102339757D01*
X124637939Y-102339757D02*
X124780796Y-102268328D01*
X125923652Y-103625471D02*
X125995081Y-103696900D01*
X125995081Y-103696900D02*
X125923652Y-103768328D01*
X125923652Y-103768328D02*
X125852224Y-103696900D01*
X125852224Y-103696900D02*
X125923652Y-103625471D01*
X125923652Y-103625471D02*
X125923652Y-103768328D01*
X127423653Y-103768328D02*
X126566510Y-103768328D01*
X126995081Y-103768328D02*
X126995081Y-102268328D01*
X126995081Y-102268328D02*
X126852224Y-102482614D01*
X126852224Y-102482614D02*
X126709367Y-102625471D01*
X126709367Y-102625471D02*
X126566510Y-102696900D01*
D10*
D11*
X31396398Y-103704700D02*
X31610684Y-103776128D01*
X31610684Y-103776128D02*
X31967826Y-103776128D01*
X31967826Y-103776128D02*
X32110684Y-103704700D01*
X32110684Y-103704700D02*
X32182112Y-103633271D01*
X32182112Y-103633271D02*
X32253541Y-103490414D01*
X32253541Y-103490414D02*
X32253541Y-103347557D01*
X32253541Y-103347557D02*
X32182112Y-103204700D01*
X32182112Y-103204700D02*
X32110684Y-103133271D01*
X32110684Y-103133271D02*
X31967826Y-103061842D01*
X31967826Y-103061842D02*
X31682112Y-102990414D01*
X31682112Y-102990414D02*
X31539255Y-102918985D01*
X31539255Y-102918985D02*
X31467826Y-102847557D01*
X31467826Y-102847557D02*
X31396398Y-102704700D01*
X31396398Y-102704700D02*
X31396398Y-102561842D01*
X31396398Y-102561842D02*
X31467826Y-102418985D01*
X31467826Y-102418985D02*
X31539255Y-102347557D01*
X31539255Y-102347557D02*
X31682112Y-102276128D01*
X31682112Y-102276128D02*
X32039255Y-102276128D01*
X32039255Y-102276128D02*
X32253541Y-102347557D01*
X32896397Y-103776128D02*
X32896397Y-102776128D01*
X32896397Y-102276128D02*
X32824969Y-102347557D01*
X32824969Y-102347557D02*
X32896397Y-102418985D01*
X32896397Y-102418985D02*
X32967826Y-102347557D01*
X32967826Y-102347557D02*
X32896397Y-102276128D01*
X32896397Y-102276128D02*
X32896397Y-102418985D01*
X33467826Y-102776128D02*
X34253541Y-102776128D01*
X34253541Y-102776128D02*
X33467826Y-103776128D01*
X33467826Y-103776128D02*
X34253541Y-103776128D01*
X35396398Y-103704700D02*
X35253541Y-103776128D01*
X35253541Y-103776128D02*
X34967827Y-103776128D01*
X34967827Y-103776128D02*
X34824969Y-103704700D01*
X34824969Y-103704700D02*
X34753541Y-103561842D01*
X34753541Y-103561842D02*
X34753541Y-102990414D01*
X34753541Y-102990414D02*
X34824969Y-102847557D01*
X34824969Y-102847557D02*
X34967827Y-102776128D01*
X34967827Y-102776128D02*
X35253541Y-102776128D01*
X35253541Y-102776128D02*
X35396398Y-102847557D01*
X35396398Y-102847557D02*
X35467827Y-102990414D01*
X35467827Y-102990414D02*
X35467827Y-103133271D01*
X35467827Y-103133271D02*
X34753541Y-103276128D01*
X36110683Y-103633271D02*
X36182112Y-103704700D01*
X36182112Y-103704700D02*
X36110683Y-103776128D01*
X36110683Y-103776128D02*
X36039255Y-103704700D01*
X36039255Y-103704700D02*
X36110683Y-103633271D01*
X36110683Y-103633271D02*
X36110683Y-103776128D01*
X36110683Y-102847557D02*
X36182112Y-102918985D01*
X36182112Y-102918985D02*
X36110683Y-102990414D01*
X36110683Y-102990414D02*
X36039255Y-102918985D01*
X36039255Y-102918985D02*
X36110683Y-102847557D01*
X36110683Y-102847557D02*
X36110683Y-102990414D01*
X37967826Y-102276128D02*
X37967826Y-103490414D01*
X37967826Y-103490414D02*
X38039255Y-103633271D01*
X38039255Y-103633271D02*
X38110684Y-103704700D01*
X38110684Y-103704700D02*
X38253541Y-103776128D01*
X38253541Y-103776128D02*
X38539255Y-103776128D01*
X38539255Y-103776128D02*
X38682112Y-103704700D01*
X38682112Y-103704700D02*
X38753541Y-103633271D01*
X38753541Y-103633271D02*
X38824969Y-103490414D01*
X38824969Y-103490414D02*
X38824969Y-102276128D01*
X39467827Y-103704700D02*
X39610684Y-103776128D01*
X39610684Y-103776128D02*
X39896398Y-103776128D01*
X39896398Y-103776128D02*
X40039255Y-103704700D01*
X40039255Y-103704700D02*
X40110684Y-103561842D01*
X40110684Y-103561842D02*
X40110684Y-103490414D01*
X40110684Y-103490414D02*
X40039255Y-103347557D01*
X40039255Y-103347557D02*
X39896398Y-103276128D01*
X39896398Y-103276128D02*
X39682113Y-103276128D01*
X39682113Y-103276128D02*
X39539255Y-103204700D01*
X39539255Y-103204700D02*
X39467827Y-103061842D01*
X39467827Y-103061842D02*
X39467827Y-102990414D01*
X39467827Y-102990414D02*
X39539255Y-102847557D01*
X39539255Y-102847557D02*
X39682113Y-102776128D01*
X39682113Y-102776128D02*
X39896398Y-102776128D01*
X39896398Y-102776128D02*
X40039255Y-102847557D01*
X41324970Y-103704700D02*
X41182113Y-103776128D01*
X41182113Y-103776128D02*
X40896399Y-103776128D01*
X40896399Y-103776128D02*
X40753541Y-103704700D01*
X40753541Y-103704700D02*
X40682113Y-103561842D01*
X40682113Y-103561842D02*
X40682113Y-102990414D01*
X40682113Y-102990414D02*
X40753541Y-102847557D01*
X40753541Y-102847557D02*
X40896399Y-102776128D01*
X40896399Y-102776128D02*
X41182113Y-102776128D01*
X41182113Y-102776128D02*
X41324970Y-102847557D01*
X41324970Y-102847557D02*
X41396399Y-102990414D01*
X41396399Y-102990414D02*
X41396399Y-103133271D01*
X41396399Y-103133271D02*
X40682113Y-103276128D01*
X42039255Y-103776128D02*
X42039255Y-102776128D01*
X42039255Y-103061842D02*
X42110684Y-102918985D01*
X42110684Y-102918985D02*
X42182113Y-102847557D01*
X42182113Y-102847557D02*
X42324970Y-102776128D01*
X42324970Y-102776128D02*
X42467827Y-102776128D01*
D10*
D11*
X116467826Y-106576128D02*
X116467826Y-105076128D01*
X117824970Y-106576128D02*
X117824970Y-105076128D01*
X117824970Y-106504700D02*
X117682112Y-106576128D01*
X117682112Y-106576128D02*
X117396398Y-106576128D01*
X117396398Y-106576128D02*
X117253541Y-106504700D01*
X117253541Y-106504700D02*
X117182112Y-106433271D01*
X117182112Y-106433271D02*
X117110684Y-106290414D01*
X117110684Y-106290414D02*
X117110684Y-105861842D01*
X117110684Y-105861842D02*
X117182112Y-105718985D01*
X117182112Y-105718985D02*
X117253541Y-105647557D01*
X117253541Y-105647557D02*
X117396398Y-105576128D01*
X117396398Y-105576128D02*
X117682112Y-105576128D01*
X117682112Y-105576128D02*
X117824970Y-105647557D01*
X118539255Y-106433271D02*
X118610684Y-106504700D01*
X118610684Y-106504700D02*
X118539255Y-106576128D01*
X118539255Y-106576128D02*
X118467827Y-106504700D01*
X118467827Y-106504700D02*
X118539255Y-106433271D01*
X118539255Y-106433271D02*
X118539255Y-106576128D01*
X118539255Y-105647557D02*
X118610684Y-105718985D01*
X118610684Y-105718985D02*
X118539255Y-105790414D01*
X118539255Y-105790414D02*
X118467827Y-105718985D01*
X118467827Y-105718985D02*
X118539255Y-105647557D01*
X118539255Y-105647557D02*
X118539255Y-105790414D01*
X121110684Y-105076128D02*
X120396398Y-105076128D01*
X120396398Y-105076128D02*
X120324970Y-105790414D01*
X120324970Y-105790414D02*
X120396398Y-105718985D01*
X120396398Y-105718985D02*
X120539256Y-105647557D01*
X120539256Y-105647557D02*
X120896398Y-105647557D01*
X120896398Y-105647557D02*
X121039256Y-105718985D01*
X121039256Y-105718985D02*
X121110684Y-105790414D01*
X121110684Y-105790414D02*
X121182113Y-105933271D01*
X121182113Y-105933271D02*
X121182113Y-106290414D01*
X121182113Y-106290414D02*
X121110684Y-106433271D01*
X121110684Y-106433271D02*
X121039256Y-106504700D01*
X121039256Y-106504700D02*
X120896398Y-106576128D01*
X120896398Y-106576128D02*
X120539256Y-106576128D01*
X120539256Y-106576128D02*
X120396398Y-106504700D01*
X120396398Y-106504700D02*
X120324970Y-106433271D01*
X122896398Y-105004700D02*
X121610684Y-106933271D01*
X123467827Y-106576128D02*
X123753541Y-106576128D01*
X123753541Y-106576128D02*
X123896398Y-106504700D01*
X123896398Y-106504700D02*
X123967827Y-106433271D01*
X123967827Y-106433271D02*
X124110684Y-106218985D01*
X124110684Y-106218985D02*
X124182113Y-105933271D01*
X124182113Y-105933271D02*
X124182113Y-105361842D01*
X124182113Y-105361842D02*
X124110684Y-105218985D01*
X124110684Y-105218985D02*
X124039256Y-105147557D01*
X124039256Y-105147557D02*
X123896398Y-105076128D01*
X123896398Y-105076128D02*
X123610684Y-105076128D01*
X123610684Y-105076128D02*
X123467827Y-105147557D01*
X123467827Y-105147557D02*
X123396398Y-105218985D01*
X123396398Y-105218985D02*
X123324970Y-105361842D01*
X123324970Y-105361842D02*
X123324970Y-105718985D01*
X123324970Y-105718985D02*
X123396398Y-105861842D01*
X123396398Y-105861842D02*
X123467827Y-105933271D01*
X123467827Y-105933271D02*
X123610684Y-106004700D01*
X123610684Y-106004700D02*
X123896398Y-106004700D01*
X123896398Y-106004700D02*
X124039256Y-105933271D01*
X124039256Y-105933271D02*
X124110684Y-105861842D01*
X124110684Y-105861842D02*
X124182113Y-105718985D01*
D10*
D11*
X30012000Y-97490000D02*
X138012000Y-97490000D01*
D10*
D13*
X31703728Y-98194438D02*
X32846585Y-98194438D01*
X32025157Y-100194438D02*
X32275157Y-98194438D01*
X33263252Y-100194438D02*
X33429919Y-98861104D01*
X33513252Y-98194438D02*
X33406109Y-98289676D01*
X33406109Y-98289676D02*
X33489443Y-98384914D01*
X33489443Y-98384914D02*
X33596586Y-98289676D01*
X33596586Y-98289676D02*
X33513252Y-98194438D01*
X33513252Y-98194438D02*
X33489443Y-98384914D01*
X34096586Y-98861104D02*
X34858490Y-98861104D01*
X34465633Y-98194438D02*
X34251348Y-99908723D01*
X34251348Y-99908723D02*
X34322776Y-100099200D01*
X34322776Y-100099200D02*
X34501348Y-100194438D01*
X34501348Y-100194438D02*
X34691824Y-100194438D01*
X35644205Y-100194438D02*
X35465633Y-100099200D01*
X35465633Y-100099200D02*
X35394205Y-99908723D01*
X35394205Y-99908723D02*
X35608490Y-98194438D01*
X37179919Y-100099200D02*
X36977538Y-100194438D01*
X36977538Y-100194438D02*
X36596585Y-100194438D01*
X36596585Y-100194438D02*
X36418014Y-100099200D01*
X36418014Y-100099200D02*
X36346585Y-99908723D01*
X36346585Y-99908723D02*
X36441824Y-99146819D01*
X36441824Y-99146819D02*
X36560871Y-98956342D01*
X36560871Y-98956342D02*
X36763252Y-98861104D01*
X36763252Y-98861104D02*
X37144204Y-98861104D01*
X37144204Y-98861104D02*
X37322776Y-98956342D01*
X37322776Y-98956342D02*
X37394204Y-99146819D01*
X37394204Y-99146819D02*
X37370395Y-99337295D01*
X37370395Y-99337295D02*
X36394204Y-99527771D01*
X38144205Y-100003961D02*
X38227538Y-100099200D01*
X38227538Y-100099200D02*
X38120395Y-100194438D01*
X38120395Y-100194438D02*
X38037062Y-100099200D01*
X38037062Y-100099200D02*
X38144205Y-100003961D01*
X38144205Y-100003961D02*
X38120395Y-100194438D01*
X38275157Y-98956342D02*
X38358490Y-99051580D01*
X38358490Y-99051580D02*
X38251348Y-99146819D01*
X38251348Y-99146819D02*
X38168014Y-99051580D01*
X38168014Y-99051580D02*
X38275157Y-98956342D01*
X38275157Y-98956342D02*
X38251348Y-99146819D01*
X40596586Y-100194438D02*
X40846586Y-98194438D01*
X40846586Y-98194438D02*
X41739443Y-100194438D01*
X41739443Y-100194438D02*
X41989443Y-98194438D01*
X42822777Y-99146819D02*
X43489443Y-99146819D01*
X43644205Y-100194438D02*
X42691824Y-100194438D01*
X42691824Y-100194438D02*
X42941824Y-98194438D01*
X42941824Y-98194438D02*
X43894205Y-98194438D01*
X45644205Y-100194438D02*
X45096586Y-99242057D01*
X44501348Y-100194438D02*
X44751348Y-98194438D01*
X44751348Y-98194438D02*
X45513253Y-98194438D01*
X45513253Y-98194438D02*
X45691824Y-98289676D01*
X45691824Y-98289676D02*
X45775158Y-98384914D01*
X45775158Y-98384914D02*
X45846586Y-98575390D01*
X45846586Y-98575390D02*
X45810872Y-98861104D01*
X45810872Y-98861104D02*
X45691824Y-99051580D01*
X45691824Y-99051580D02*
X45584682Y-99146819D01*
X45584682Y-99146819D02*
X45382301Y-99242057D01*
X45382301Y-99242057D02*
X44620396Y-99242057D01*
X46465634Y-98194438D02*
X46882301Y-100194438D01*
X46882301Y-100194438D02*
X47798967Y-98194438D01*
X48846587Y-98194438D02*
X49227539Y-98194438D01*
X49227539Y-98194438D02*
X49406110Y-98289676D01*
X49406110Y-98289676D02*
X49572777Y-98480152D01*
X49572777Y-98480152D02*
X49620396Y-98861104D01*
X49620396Y-98861104D02*
X49537063Y-99527771D01*
X49537063Y-99527771D02*
X49394206Y-99908723D01*
X49394206Y-99908723D02*
X49179920Y-100099200D01*
X49179920Y-100099200D02*
X48977539Y-100194438D01*
X48977539Y-100194438D02*
X48596587Y-100194438D01*
X48596587Y-100194438D02*
X48418015Y-100099200D01*
X48418015Y-100099200D02*
X48251349Y-99908723D01*
X48251349Y-99908723D02*
X48203729Y-99527771D01*
X48203729Y-99527771D02*
X48287063Y-98861104D01*
X48287063Y-98861104D02*
X48429920Y-98480152D01*
X48429920Y-98480152D02*
X48644206Y-98289676D01*
X48644206Y-98289676D02*
X48846587Y-98194438D01*
X50560872Y-98194438D02*
X50358491Y-99813485D01*
X50358491Y-99813485D02*
X50429920Y-100003961D01*
X50429920Y-100003961D02*
X50513253Y-100099200D01*
X50513253Y-100099200D02*
X50691825Y-100194438D01*
X50691825Y-100194438D02*
X51072777Y-100194438D01*
X51072777Y-100194438D02*
X51275158Y-100099200D01*
X51275158Y-100099200D02*
X51382301Y-100003961D01*
X51382301Y-100003961D02*
X51501348Y-99813485D01*
X51501348Y-99813485D02*
X51703729Y-98194438D01*
X52322777Y-100099200D02*
X52596586Y-100194438D01*
X52596586Y-100194438D02*
X53072777Y-100194438D01*
X53072777Y-100194438D02*
X53275158Y-100099200D01*
X53275158Y-100099200D02*
X53382301Y-100003961D01*
X53382301Y-100003961D02*
X53501348Y-99813485D01*
X53501348Y-99813485D02*
X53525158Y-99623009D01*
X53525158Y-99623009D02*
X53453729Y-99432533D01*
X53453729Y-99432533D02*
X53370396Y-99337295D01*
X53370396Y-99337295D02*
X53191825Y-99242057D01*
X53191825Y-99242057D02*
X52822777Y-99146819D01*
X52822777Y-99146819D02*
X52644205Y-99051580D01*
X52644205Y-99051580D02*
X52560872Y-98956342D01*
X52560872Y-98956342D02*
X52489444Y-98765866D01*
X52489444Y-98765866D02*
X52513253Y-98575390D01*
X52513253Y-98575390D02*
X52632301Y-98384914D01*
X52632301Y-98384914D02*
X52739444Y-98289676D01*
X52739444Y-98289676D02*
X52941825Y-98194438D01*
X52941825Y-98194438D02*
X53418015Y-98194438D01*
X53418015Y-98194438D02*
X53691825Y-98289676D01*
X55929920Y-99432533D02*
X57453730Y-99432533D01*
X59965635Y-99146819D02*
X60632301Y-99146819D01*
X60787063Y-100194438D02*
X59834682Y-100194438D01*
X59834682Y-100194438D02*
X60084682Y-98194438D01*
X60084682Y-98194438D02*
X61037063Y-98194438D01*
X62810873Y-100003961D02*
X62703730Y-100099200D01*
X62703730Y-100099200D02*
X62406111Y-100194438D01*
X62406111Y-100194438D02*
X62215635Y-100194438D01*
X62215635Y-100194438D02*
X61941825Y-100099200D01*
X61941825Y-100099200D02*
X61775159Y-99908723D01*
X61775159Y-99908723D02*
X61703730Y-99718247D01*
X61703730Y-99718247D02*
X61656111Y-99337295D01*
X61656111Y-99337295D02*
X61691825Y-99051580D01*
X61691825Y-99051580D02*
X61834682Y-98670628D01*
X61834682Y-98670628D02*
X61953730Y-98480152D01*
X61953730Y-98480152D02*
X62168016Y-98289676D01*
X62168016Y-98289676D02*
X62465635Y-98194438D01*
X62465635Y-98194438D02*
X62656111Y-98194438D01*
X62656111Y-98194438D02*
X62929921Y-98289676D01*
X62929921Y-98289676D02*
X63013254Y-98384914D01*
X64929921Y-98289676D02*
X64751349Y-98194438D01*
X64751349Y-98194438D02*
X64465635Y-98194438D01*
X64465635Y-98194438D02*
X64168016Y-98289676D01*
X64168016Y-98289676D02*
X63953730Y-98480152D01*
X63953730Y-98480152D02*
X63834682Y-98670628D01*
X63834682Y-98670628D02*
X63691825Y-99051580D01*
X63691825Y-99051580D02*
X63656111Y-99337295D01*
X63656111Y-99337295D02*
X63703730Y-99718247D01*
X63703730Y-99718247D02*
X63775159Y-99908723D01*
X63775159Y-99908723D02*
X63941825Y-100099200D01*
X63941825Y-100099200D02*
X64215635Y-100194438D01*
X64215635Y-100194438D02*
X64406111Y-100194438D01*
X64406111Y-100194438D02*
X64703730Y-100099200D01*
X64703730Y-100099200D02*
X64810873Y-100003961D01*
X64810873Y-100003961D02*
X64894206Y-99337295D01*
X64894206Y-99337295D02*
X64513254Y-99337295D01*
X67084683Y-100099200D02*
X67358492Y-100194438D01*
X67358492Y-100194438D02*
X67834683Y-100194438D01*
X67834683Y-100194438D02*
X68037064Y-100099200D01*
X68037064Y-100099200D02*
X68144207Y-100003961D01*
X68144207Y-100003961D02*
X68263254Y-99813485D01*
X68263254Y-99813485D02*
X68287064Y-99623009D01*
X68287064Y-99623009D02*
X68215635Y-99432533D01*
X68215635Y-99432533D02*
X68132302Y-99337295D01*
X68132302Y-99337295D02*
X67953731Y-99242057D01*
X67953731Y-99242057D02*
X67584683Y-99146819D01*
X67584683Y-99146819D02*
X67406111Y-99051580D01*
X67406111Y-99051580D02*
X67322778Y-98956342D01*
X67322778Y-98956342D02*
X67251350Y-98765866D01*
X67251350Y-98765866D02*
X67275159Y-98575390D01*
X67275159Y-98575390D02*
X67394207Y-98384914D01*
X67394207Y-98384914D02*
X67501350Y-98289676D01*
X67501350Y-98289676D02*
X67703731Y-98194438D01*
X67703731Y-98194438D02*
X68179921Y-98194438D01*
X68179921Y-98194438D02*
X68453731Y-98289676D01*
X69846588Y-100099200D02*
X69644207Y-100194438D01*
X69644207Y-100194438D02*
X69263254Y-100194438D01*
X69263254Y-100194438D02*
X69084683Y-100099200D01*
X69084683Y-100099200D02*
X69013254Y-99908723D01*
X69013254Y-99908723D02*
X69108493Y-99146819D01*
X69108493Y-99146819D02*
X69227540Y-98956342D01*
X69227540Y-98956342D02*
X69429921Y-98861104D01*
X69429921Y-98861104D02*
X69810873Y-98861104D01*
X69810873Y-98861104D02*
X69989445Y-98956342D01*
X69989445Y-98956342D02*
X70060873Y-99146819D01*
X70060873Y-99146819D02*
X70037064Y-99337295D01*
X70037064Y-99337295D02*
X69060873Y-99527771D01*
X70953731Y-98861104D02*
X70787064Y-100194438D01*
X70929921Y-99051580D02*
X71037064Y-98956342D01*
X71037064Y-98956342D02*
X71239445Y-98861104D01*
X71239445Y-98861104D02*
X71525159Y-98861104D01*
X71525159Y-98861104D02*
X71703731Y-98956342D01*
X71703731Y-98956342D02*
X71775159Y-99146819D01*
X71775159Y-99146819D02*
X71644207Y-100194438D01*
X72513255Y-100099200D02*
X72691826Y-100194438D01*
X72691826Y-100194438D02*
X73072779Y-100194438D01*
X73072779Y-100194438D02*
X73275160Y-100099200D01*
X73275160Y-100099200D02*
X73394207Y-99908723D01*
X73394207Y-99908723D02*
X73406112Y-99813485D01*
X73406112Y-99813485D02*
X73334683Y-99623009D01*
X73334683Y-99623009D02*
X73156112Y-99527771D01*
X73156112Y-99527771D02*
X72870398Y-99527771D01*
X72870398Y-99527771D02*
X72691826Y-99432533D01*
X72691826Y-99432533D02*
X72620398Y-99242057D01*
X72620398Y-99242057D02*
X72632303Y-99146819D01*
X72632303Y-99146819D02*
X72751350Y-98956342D01*
X72751350Y-98956342D02*
X72953731Y-98861104D01*
X72953731Y-98861104D02*
X73239445Y-98861104D01*
X73239445Y-98861104D02*
X73418017Y-98956342D01*
X74501351Y-100194438D02*
X74322779Y-100099200D01*
X74322779Y-100099200D02*
X74239446Y-100003961D01*
X74239446Y-100003961D02*
X74168017Y-99813485D01*
X74168017Y-99813485D02*
X74239446Y-99242057D01*
X74239446Y-99242057D02*
X74358493Y-99051580D01*
X74358493Y-99051580D02*
X74465636Y-98956342D01*
X74465636Y-98956342D02*
X74668017Y-98861104D01*
X74668017Y-98861104D02*
X74953731Y-98861104D01*
X74953731Y-98861104D02*
X75132303Y-98956342D01*
X75132303Y-98956342D02*
X75215636Y-99051580D01*
X75215636Y-99051580D02*
X75287065Y-99242057D01*
X75287065Y-99242057D02*
X75215636Y-99813485D01*
X75215636Y-99813485D02*
X75096589Y-100003961D01*
X75096589Y-100003961D02*
X74989446Y-100099200D01*
X74989446Y-100099200D02*
X74787065Y-100194438D01*
X74787065Y-100194438D02*
X74501351Y-100194438D01*
X76025160Y-100194438D02*
X76191827Y-98861104D01*
X76144208Y-99242057D02*
X76263255Y-99051580D01*
X76263255Y-99051580D02*
X76370398Y-98956342D01*
X76370398Y-98956342D02*
X76572779Y-98861104D01*
X76572779Y-98861104D02*
X76763255Y-98861104D01*
D10*
D11*
X31967826Y-95590414D02*
X31467826Y-95590414D01*
X31467826Y-96376128D02*
X31467826Y-94876128D01*
X31467826Y-94876128D02*
X32182112Y-94876128D01*
X32753540Y-96376128D02*
X32753540Y-95376128D01*
X32753540Y-94876128D02*
X32682112Y-94947557D01*
X32682112Y-94947557D02*
X32753540Y-95018985D01*
X32753540Y-95018985D02*
X32824969Y-94947557D01*
X32824969Y-94947557D02*
X32753540Y-94876128D01*
X32753540Y-94876128D02*
X32753540Y-95018985D01*
X33682112Y-96376128D02*
X33539255Y-96304700D01*
X33539255Y-96304700D02*
X33467826Y-96161842D01*
X33467826Y-96161842D02*
X33467826Y-94876128D01*
X34824969Y-96304700D02*
X34682112Y-96376128D01*
X34682112Y-96376128D02*
X34396398Y-96376128D01*
X34396398Y-96376128D02*
X34253540Y-96304700D01*
X34253540Y-96304700D02*
X34182112Y-96161842D01*
X34182112Y-96161842D02*
X34182112Y-95590414D01*
X34182112Y-95590414D02*
X34253540Y-95447557D01*
X34253540Y-95447557D02*
X34396398Y-95376128D01*
X34396398Y-95376128D02*
X34682112Y-95376128D01*
X34682112Y-95376128D02*
X34824969Y-95447557D01*
X34824969Y-95447557D02*
X34896398Y-95590414D01*
X34896398Y-95590414D02*
X34896398Y-95733271D01*
X34896398Y-95733271D02*
X34182112Y-95876128D01*
X35539254Y-96233271D02*
X35610683Y-96304700D01*
X35610683Y-96304700D02*
X35539254Y-96376128D01*
X35539254Y-96376128D02*
X35467826Y-96304700D01*
X35467826Y-96304700D02*
X35539254Y-96233271D01*
X35539254Y-96233271D02*
X35539254Y-96376128D01*
X35539254Y-95447557D02*
X35610683Y-95518985D01*
X35610683Y-95518985D02*
X35539254Y-95590414D01*
X35539254Y-95590414D02*
X35467826Y-95518985D01*
X35467826Y-95518985D02*
X35539254Y-95447557D01*
X35539254Y-95447557D02*
X35539254Y-95590414D01*
X37396397Y-95376128D02*
X37396397Y-96376128D01*
X37396397Y-95518985D02*
X37467826Y-95447557D01*
X37467826Y-95447557D02*
X37610683Y-95376128D01*
X37610683Y-95376128D02*
X37824969Y-95376128D01*
X37824969Y-95376128D02*
X37967826Y-95447557D01*
X37967826Y-95447557D02*
X38039255Y-95590414D01*
X38039255Y-95590414D02*
X38039255Y-96376128D01*
X39324969Y-96304700D02*
X39182112Y-96376128D01*
X39182112Y-96376128D02*
X38896398Y-96376128D01*
X38896398Y-96376128D02*
X38753540Y-96304700D01*
X38753540Y-96304700D02*
X38682112Y-96161842D01*
X38682112Y-96161842D02*
X38682112Y-95590414D01*
X38682112Y-95590414D02*
X38753540Y-95447557D01*
X38753540Y-95447557D02*
X38896398Y-95376128D01*
X38896398Y-95376128D02*
X39182112Y-95376128D01*
X39182112Y-95376128D02*
X39324969Y-95447557D01*
X39324969Y-95447557D02*
X39396398Y-95590414D01*
X39396398Y-95590414D02*
X39396398Y-95733271D01*
X39396398Y-95733271D02*
X38682112Y-95876128D01*
X40039254Y-96376128D02*
X40039254Y-95376128D01*
X40039254Y-95661842D02*
X40110683Y-95518985D01*
X40110683Y-95518985D02*
X40182112Y-95447557D01*
X40182112Y-95447557D02*
X40324969Y-95376128D01*
X40324969Y-95376128D02*
X40467826Y-95376128D01*
X40824968Y-95376128D02*
X41182111Y-96376128D01*
X41182111Y-96376128D02*
X41539254Y-95376128D01*
X42324968Y-96376128D02*
X42182111Y-96304700D01*
X42182111Y-96304700D02*
X42110682Y-96233271D01*
X42110682Y-96233271D02*
X42039254Y-96090414D01*
X42039254Y-96090414D02*
X42039254Y-95661842D01*
X42039254Y-95661842D02*
X42110682Y-95518985D01*
X42110682Y-95518985D02*
X42182111Y-95447557D01*
X42182111Y-95447557D02*
X42324968Y-95376128D01*
X42324968Y-95376128D02*
X42539254Y-95376128D01*
X42539254Y-95376128D02*
X42682111Y-95447557D01*
X42682111Y-95447557D02*
X42753540Y-95518985D01*
X42753540Y-95518985D02*
X42824968Y-95661842D01*
X42824968Y-95661842D02*
X42824968Y-96090414D01*
X42824968Y-96090414D02*
X42753540Y-96233271D01*
X42753540Y-96233271D02*
X42682111Y-96304700D01*
X42682111Y-96304700D02*
X42539254Y-96376128D01*
X42539254Y-96376128D02*
X42324968Y-96376128D01*
X44110683Y-95376128D02*
X44110683Y-96376128D01*
X43467825Y-95376128D02*
X43467825Y-96161842D01*
X43467825Y-96161842D02*
X43539254Y-96304700D01*
X43539254Y-96304700D02*
X43682111Y-96376128D01*
X43682111Y-96376128D02*
X43896397Y-96376128D01*
X43896397Y-96376128D02*
X44039254Y-96304700D01*
X44039254Y-96304700D02*
X44110683Y-96233271D01*
X44753540Y-96304700D02*
X44896397Y-96376128D01*
X44896397Y-96376128D02*
X45182111Y-96376128D01*
X45182111Y-96376128D02*
X45324968Y-96304700D01*
X45324968Y-96304700D02*
X45396397Y-96161842D01*
X45396397Y-96161842D02*
X45396397Y-96090414D01*
X45396397Y-96090414D02*
X45324968Y-95947557D01*
X45324968Y-95947557D02*
X45182111Y-95876128D01*
X45182111Y-95876128D02*
X44967826Y-95876128D01*
X44967826Y-95876128D02*
X44824968Y-95804700D01*
X44824968Y-95804700D02*
X44753540Y-95661842D01*
X44753540Y-95661842D02*
X44753540Y-95590414D01*
X44753540Y-95590414D02*
X44824968Y-95447557D01*
X44824968Y-95447557D02*
X44967826Y-95376128D01*
X44967826Y-95376128D02*
X45182111Y-95376128D01*
X45182111Y-95376128D02*
X45324968Y-95447557D01*
X46039254Y-95804700D02*
X47182112Y-95804700D01*
X48467826Y-96304700D02*
X48324969Y-96376128D01*
X48324969Y-96376128D02*
X48039255Y-96376128D01*
X48039255Y-96376128D02*
X47896397Y-96304700D01*
X47896397Y-96304700D02*
X47824969Y-96161842D01*
X47824969Y-96161842D02*
X47824969Y-95590414D01*
X47824969Y-95590414D02*
X47896397Y-95447557D01*
X47896397Y-95447557D02*
X48039255Y-95376128D01*
X48039255Y-95376128D02*
X48324969Y-95376128D01*
X48324969Y-95376128D02*
X48467826Y-95447557D01*
X48467826Y-95447557D02*
X48539255Y-95590414D01*
X48539255Y-95590414D02*
X48539255Y-95733271D01*
X48539255Y-95733271D02*
X47824969Y-95876128D01*
X49824969Y-96304700D02*
X49682111Y-96376128D01*
X49682111Y-96376128D02*
X49396397Y-96376128D01*
X49396397Y-96376128D02*
X49253540Y-96304700D01*
X49253540Y-96304700D02*
X49182111Y-96233271D01*
X49182111Y-96233271D02*
X49110683Y-96090414D01*
X49110683Y-96090414D02*
X49110683Y-95661842D01*
X49110683Y-95661842D02*
X49182111Y-95518985D01*
X49182111Y-95518985D02*
X49253540Y-95447557D01*
X49253540Y-95447557D02*
X49396397Y-95376128D01*
X49396397Y-95376128D02*
X49682111Y-95376128D01*
X49682111Y-95376128D02*
X49824969Y-95447557D01*
X51110683Y-95376128D02*
X51110683Y-96590414D01*
X51110683Y-96590414D02*
X51039254Y-96733271D01*
X51039254Y-96733271D02*
X50967825Y-96804700D01*
X50967825Y-96804700D02*
X50824968Y-96876128D01*
X50824968Y-96876128D02*
X50610683Y-96876128D01*
X50610683Y-96876128D02*
X50467825Y-96804700D01*
X51110683Y-96304700D02*
X50967825Y-96376128D01*
X50967825Y-96376128D02*
X50682111Y-96376128D01*
X50682111Y-96376128D02*
X50539254Y-96304700D01*
X50539254Y-96304700D02*
X50467825Y-96233271D01*
X50467825Y-96233271D02*
X50396397Y-96090414D01*
X50396397Y-96090414D02*
X50396397Y-95661842D01*
X50396397Y-95661842D02*
X50467825Y-95518985D01*
X50467825Y-95518985D02*
X50539254Y-95447557D01*
X50539254Y-95447557D02*
X50682111Y-95376128D01*
X50682111Y-95376128D02*
X50967825Y-95376128D01*
X50967825Y-95376128D02*
X51110683Y-95447557D01*
X51824968Y-96233271D02*
X51896397Y-96304700D01*
X51896397Y-96304700D02*
X51824968Y-96376128D01*
X51824968Y-96376128D02*
X51753540Y-96304700D01*
X51753540Y-96304700D02*
X51824968Y-96233271D01*
X51824968Y-96233271D02*
X51824968Y-96376128D01*
X52539254Y-96376128D02*
X52539254Y-94876128D01*
X52682112Y-95804700D02*
X53110683Y-96376128D01*
X53110683Y-95376128D02*
X52539254Y-95947557D01*
X53753540Y-96376128D02*
X53753540Y-95376128D01*
X53753540Y-94876128D02*
X53682112Y-94947557D01*
X53682112Y-94947557D02*
X53753540Y-95018985D01*
X53753540Y-95018985D02*
X53824969Y-94947557D01*
X53824969Y-94947557D02*
X53753540Y-94876128D01*
X53753540Y-94876128D02*
X53753540Y-95018985D01*
X55110684Y-96304700D02*
X54967826Y-96376128D01*
X54967826Y-96376128D02*
X54682112Y-96376128D01*
X54682112Y-96376128D02*
X54539255Y-96304700D01*
X54539255Y-96304700D02*
X54467826Y-96233271D01*
X54467826Y-96233271D02*
X54396398Y-96090414D01*
X54396398Y-96090414D02*
X54396398Y-95661842D01*
X54396398Y-95661842D02*
X54467826Y-95518985D01*
X54467826Y-95518985D02*
X54539255Y-95447557D01*
X54539255Y-95447557D02*
X54682112Y-95376128D01*
X54682112Y-95376128D02*
X54967826Y-95376128D01*
X54967826Y-95376128D02*
X55110684Y-95447557D01*
X56396398Y-96376128D02*
X56396398Y-95590414D01*
X56396398Y-95590414D02*
X56324969Y-95447557D01*
X56324969Y-95447557D02*
X56182112Y-95376128D01*
X56182112Y-95376128D02*
X55896398Y-95376128D01*
X55896398Y-95376128D02*
X55753540Y-95447557D01*
X56396398Y-96304700D02*
X56253540Y-96376128D01*
X56253540Y-96376128D02*
X55896398Y-96376128D01*
X55896398Y-96376128D02*
X55753540Y-96304700D01*
X55753540Y-96304700D02*
X55682112Y-96161842D01*
X55682112Y-96161842D02*
X55682112Y-96018985D01*
X55682112Y-96018985D02*
X55753540Y-95876128D01*
X55753540Y-95876128D02*
X55896398Y-95804700D01*
X55896398Y-95804700D02*
X56253540Y-95804700D01*
X56253540Y-95804700D02*
X56396398Y-95733271D01*
X57753541Y-96376128D02*
X57753541Y-94876128D01*
X57753541Y-96304700D02*
X57610683Y-96376128D01*
X57610683Y-96376128D02*
X57324969Y-96376128D01*
X57324969Y-96376128D02*
X57182112Y-96304700D01*
X57182112Y-96304700D02*
X57110683Y-96233271D01*
X57110683Y-96233271D02*
X57039255Y-96090414D01*
X57039255Y-96090414D02*
X57039255Y-95661842D01*
X57039255Y-95661842D02*
X57110683Y-95518985D01*
X57110683Y-95518985D02*
X57182112Y-95447557D01*
X57182112Y-95447557D02*
X57324969Y-95376128D01*
X57324969Y-95376128D02*
X57610683Y-95376128D01*
X57610683Y-95376128D02*
X57753541Y-95447557D01*
X58110684Y-96518985D02*
X59253541Y-96518985D01*
X59610683Y-95376128D02*
X59610683Y-96876128D01*
X59610683Y-95447557D02*
X59753541Y-95376128D01*
X59753541Y-95376128D02*
X60039255Y-95376128D01*
X60039255Y-95376128D02*
X60182112Y-95447557D01*
X60182112Y-95447557D02*
X60253541Y-95518985D01*
X60253541Y-95518985D02*
X60324969Y-95661842D01*
X60324969Y-95661842D02*
X60324969Y-96090414D01*
X60324969Y-96090414D02*
X60253541Y-96233271D01*
X60253541Y-96233271D02*
X60182112Y-96304700D01*
X60182112Y-96304700D02*
X60039255Y-96376128D01*
X60039255Y-96376128D02*
X59753541Y-96376128D01*
X59753541Y-96376128D02*
X59610683Y-96304700D01*
X61610684Y-96304700D02*
X61467826Y-96376128D01*
X61467826Y-96376128D02*
X61182112Y-96376128D01*
X61182112Y-96376128D02*
X61039255Y-96304700D01*
X61039255Y-96304700D02*
X60967826Y-96233271D01*
X60967826Y-96233271D02*
X60896398Y-96090414D01*
X60896398Y-96090414D02*
X60896398Y-95661842D01*
X60896398Y-95661842D02*
X60967826Y-95518985D01*
X60967826Y-95518985D02*
X61039255Y-95447557D01*
X61039255Y-95447557D02*
X61182112Y-95376128D01*
X61182112Y-95376128D02*
X61467826Y-95376128D01*
X61467826Y-95376128D02*
X61610684Y-95447557D01*
X62253540Y-96376128D02*
X62253540Y-94876128D01*
X62253540Y-95447557D02*
X62396398Y-95376128D01*
X62396398Y-95376128D02*
X62682112Y-95376128D01*
X62682112Y-95376128D02*
X62824969Y-95447557D01*
X62824969Y-95447557D02*
X62896398Y-95518985D01*
X62896398Y-95518985D02*
X62967826Y-95661842D01*
X62967826Y-95661842D02*
X62967826Y-96090414D01*
X62967826Y-96090414D02*
X62896398Y-96233271D01*
X62896398Y-96233271D02*
X62824969Y-96304700D01*
X62824969Y-96304700D02*
X62682112Y-96376128D01*
X62682112Y-96376128D02*
X62396398Y-96376128D01*
X62396398Y-96376128D02*
X62253540Y-96304700D01*
D10*
D11*
X30012000Y-91490000D02*
X138012000Y-91490000D01*
D10*
D11*
X31396398Y-93604700D02*
X31610684Y-93676128D01*
X31610684Y-93676128D02*
X31967826Y-93676128D01*
X31967826Y-93676128D02*
X32110684Y-93604700D01*
X32110684Y-93604700D02*
X32182112Y-93533271D01*
X32182112Y-93533271D02*
X32253541Y-93390414D01*
X32253541Y-93390414D02*
X32253541Y-93247557D01*
X32253541Y-93247557D02*
X32182112Y-93104700D01*
X32182112Y-93104700D02*
X32110684Y-93033271D01*
X32110684Y-93033271D02*
X31967826Y-92961842D01*
X31967826Y-92961842D02*
X31682112Y-92890414D01*
X31682112Y-92890414D02*
X31539255Y-92818985D01*
X31539255Y-92818985D02*
X31467826Y-92747557D01*
X31467826Y-92747557D02*
X31396398Y-92604700D01*
X31396398Y-92604700D02*
X31396398Y-92461842D01*
X31396398Y-92461842D02*
X31467826Y-92318985D01*
X31467826Y-92318985D02*
X31539255Y-92247557D01*
X31539255Y-92247557D02*
X31682112Y-92176128D01*
X31682112Y-92176128D02*
X32039255Y-92176128D01*
X32039255Y-92176128D02*
X32253541Y-92247557D01*
X32896397Y-93676128D02*
X32896397Y-92176128D01*
X33539255Y-93676128D02*
X33539255Y-92890414D01*
X33539255Y-92890414D02*
X33467826Y-92747557D01*
X33467826Y-92747557D02*
X33324969Y-92676128D01*
X33324969Y-92676128D02*
X33110683Y-92676128D01*
X33110683Y-92676128D02*
X32967826Y-92747557D01*
X32967826Y-92747557D02*
X32896397Y-92818985D01*
X34824969Y-93604700D02*
X34682112Y-93676128D01*
X34682112Y-93676128D02*
X34396398Y-93676128D01*
X34396398Y-93676128D02*
X34253540Y-93604700D01*
X34253540Y-93604700D02*
X34182112Y-93461842D01*
X34182112Y-93461842D02*
X34182112Y-92890414D01*
X34182112Y-92890414D02*
X34253540Y-92747557D01*
X34253540Y-92747557D02*
X34396398Y-92676128D01*
X34396398Y-92676128D02*
X34682112Y-92676128D01*
X34682112Y-92676128D02*
X34824969Y-92747557D01*
X34824969Y-92747557D02*
X34896398Y-92890414D01*
X34896398Y-92890414D02*
X34896398Y-93033271D01*
X34896398Y-93033271D02*
X34182112Y-93176128D01*
X36110683Y-93604700D02*
X35967826Y-93676128D01*
X35967826Y-93676128D02*
X35682112Y-93676128D01*
X35682112Y-93676128D02*
X35539254Y-93604700D01*
X35539254Y-93604700D02*
X35467826Y-93461842D01*
X35467826Y-93461842D02*
X35467826Y-92890414D01*
X35467826Y-92890414D02*
X35539254Y-92747557D01*
X35539254Y-92747557D02*
X35682112Y-92676128D01*
X35682112Y-92676128D02*
X35967826Y-92676128D01*
X35967826Y-92676128D02*
X36110683Y-92747557D01*
X36110683Y-92747557D02*
X36182112Y-92890414D01*
X36182112Y-92890414D02*
X36182112Y-93033271D01*
X36182112Y-93033271D02*
X35467826Y-93176128D01*
X36610683Y-92676128D02*
X37182111Y-92676128D01*
X36824968Y-92176128D02*
X36824968Y-93461842D01*
X36824968Y-93461842D02*
X36896397Y-93604700D01*
X36896397Y-93604700D02*
X37039254Y-93676128D01*
X37039254Y-93676128D02*
X37182111Y-93676128D01*
X37682111Y-93533271D02*
X37753540Y-93604700D01*
X37753540Y-93604700D02*
X37682111Y-93676128D01*
X37682111Y-93676128D02*
X37610683Y-93604700D01*
X37610683Y-93604700D02*
X37682111Y-93533271D01*
X37682111Y-93533271D02*
X37682111Y-93676128D01*
X37682111Y-92747557D02*
X37753540Y-92818985D01*
X37753540Y-92818985D02*
X37682111Y-92890414D01*
X37682111Y-92890414D02*
X37610683Y-92818985D01*
X37610683Y-92818985D02*
X37682111Y-92747557D01*
X37682111Y-92747557D02*
X37682111Y-92890414D01*
D10*
D11*
X32324969Y-87533271D02*
X32253541Y-87604700D01*
X32253541Y-87604700D02*
X32039255Y-87676128D01*
X32039255Y-87676128D02*
X31896398Y-87676128D01*
X31896398Y-87676128D02*
X31682112Y-87604700D01*
X31682112Y-87604700D02*
X31539255Y-87461842D01*
X31539255Y-87461842D02*
X31467826Y-87318985D01*
X31467826Y-87318985D02*
X31396398Y-87033271D01*
X31396398Y-87033271D02*
X31396398Y-86818985D01*
X31396398Y-86818985D02*
X31467826Y-86533271D01*
X31467826Y-86533271D02*
X31539255Y-86390414D01*
X31539255Y-86390414D02*
X31682112Y-86247557D01*
X31682112Y-86247557D02*
X31896398Y-86176128D01*
X31896398Y-86176128D02*
X32039255Y-86176128D01*
X32039255Y-86176128D02*
X32253541Y-86247557D01*
X32253541Y-86247557D02*
X32324969Y-86318985D01*
X33182112Y-87676128D02*
X33039255Y-87604700D01*
X33039255Y-87604700D02*
X32967826Y-87533271D01*
X32967826Y-87533271D02*
X32896398Y-87390414D01*
X32896398Y-87390414D02*
X32896398Y-86961842D01*
X32896398Y-86961842D02*
X32967826Y-86818985D01*
X32967826Y-86818985D02*
X33039255Y-86747557D01*
X33039255Y-86747557D02*
X33182112Y-86676128D01*
X33182112Y-86676128D02*
X33396398Y-86676128D01*
X33396398Y-86676128D02*
X33539255Y-86747557D01*
X33539255Y-86747557D02*
X33610684Y-86818985D01*
X33610684Y-86818985D02*
X33682112Y-86961842D01*
X33682112Y-86961842D02*
X33682112Y-87390414D01*
X33682112Y-87390414D02*
X33610684Y-87533271D01*
X33610684Y-87533271D02*
X33539255Y-87604700D01*
X33539255Y-87604700D02*
X33396398Y-87676128D01*
X33396398Y-87676128D02*
X33182112Y-87676128D01*
X34324969Y-86676128D02*
X34324969Y-88176128D01*
X34324969Y-86747557D02*
X34467827Y-86676128D01*
X34467827Y-86676128D02*
X34753541Y-86676128D01*
X34753541Y-86676128D02*
X34896398Y-86747557D01*
X34896398Y-86747557D02*
X34967827Y-86818985D01*
X34967827Y-86818985D02*
X35039255Y-86961842D01*
X35039255Y-86961842D02*
X35039255Y-87390414D01*
X35039255Y-87390414D02*
X34967827Y-87533271D01*
X34967827Y-87533271D02*
X34896398Y-87604700D01*
X34896398Y-87604700D02*
X34753541Y-87676128D01*
X34753541Y-87676128D02*
X34467827Y-87676128D01*
X34467827Y-87676128D02*
X34324969Y-87604700D01*
X35539255Y-86676128D02*
X35896398Y-87676128D01*
X36253541Y-86676128D02*
X35896398Y-87676128D01*
X35896398Y-87676128D02*
X35753541Y-88033271D01*
X35753541Y-88033271D02*
X35682112Y-88104700D01*
X35682112Y-88104700D02*
X35539255Y-88176128D01*
X36824969Y-87676128D02*
X36824969Y-86676128D01*
X36824969Y-86961842D02*
X36896398Y-86818985D01*
X36896398Y-86818985D02*
X36967827Y-86747557D01*
X36967827Y-86747557D02*
X37110684Y-86676128D01*
X37110684Y-86676128D02*
X37253541Y-86676128D01*
X37753540Y-87676128D02*
X37753540Y-86676128D01*
X37753540Y-86176128D02*
X37682112Y-86247557D01*
X37682112Y-86247557D02*
X37753540Y-86318985D01*
X37753540Y-86318985D02*
X37824969Y-86247557D01*
X37824969Y-86247557D02*
X37753540Y-86176128D01*
X37753540Y-86176128D02*
X37753540Y-86318985D01*
X39110684Y-86676128D02*
X39110684Y-87890414D01*
X39110684Y-87890414D02*
X39039255Y-88033271D01*
X39039255Y-88033271D02*
X38967826Y-88104700D01*
X38967826Y-88104700D02*
X38824969Y-88176128D01*
X38824969Y-88176128D02*
X38610684Y-88176128D01*
X38610684Y-88176128D02*
X38467826Y-88104700D01*
X39110684Y-87604700D02*
X38967826Y-87676128D01*
X38967826Y-87676128D02*
X38682112Y-87676128D01*
X38682112Y-87676128D02*
X38539255Y-87604700D01*
X38539255Y-87604700D02*
X38467826Y-87533271D01*
X38467826Y-87533271D02*
X38396398Y-87390414D01*
X38396398Y-87390414D02*
X38396398Y-86961842D01*
X38396398Y-86961842D02*
X38467826Y-86818985D01*
X38467826Y-86818985D02*
X38539255Y-86747557D01*
X38539255Y-86747557D02*
X38682112Y-86676128D01*
X38682112Y-86676128D02*
X38967826Y-86676128D01*
X38967826Y-86676128D02*
X39110684Y-86747557D01*
X39824969Y-87676128D02*
X39824969Y-86176128D01*
X40467827Y-87676128D02*
X40467827Y-86890414D01*
X40467827Y-86890414D02*
X40396398Y-86747557D01*
X40396398Y-86747557D02*
X40253541Y-86676128D01*
X40253541Y-86676128D02*
X40039255Y-86676128D01*
X40039255Y-86676128D02*
X39896398Y-86747557D01*
X39896398Y-86747557D02*
X39824969Y-86818985D01*
X40967827Y-86676128D02*
X41539255Y-86676128D01*
X41182112Y-86176128D02*
X41182112Y-87461842D01*
X41182112Y-87461842D02*
X41253541Y-87604700D01*
X41253541Y-87604700D02*
X41396398Y-87676128D01*
X41396398Y-87676128D02*
X41539255Y-87676128D01*
X43610684Y-88247557D02*
X43539255Y-88176128D01*
X43539255Y-88176128D02*
X43396398Y-87961842D01*
X43396398Y-87961842D02*
X43324970Y-87818985D01*
X43324970Y-87818985D02*
X43253541Y-87604700D01*
X43253541Y-87604700D02*
X43182112Y-87247557D01*
X43182112Y-87247557D02*
X43182112Y-86961842D01*
X43182112Y-86961842D02*
X43253541Y-86604700D01*
X43253541Y-86604700D02*
X43324970Y-86390414D01*
X43324970Y-86390414D02*
X43396398Y-86247557D01*
X43396398Y-86247557D02*
X43539255Y-86033271D01*
X43539255Y-86033271D02*
X43610684Y-85961842D01*
X44824970Y-87604700D02*
X44682112Y-87676128D01*
X44682112Y-87676128D02*
X44396398Y-87676128D01*
X44396398Y-87676128D02*
X44253541Y-87604700D01*
X44253541Y-87604700D02*
X44182112Y-87533271D01*
X44182112Y-87533271D02*
X44110684Y-87390414D01*
X44110684Y-87390414D02*
X44110684Y-86961842D01*
X44110684Y-86961842D02*
X44182112Y-86818985D01*
X44182112Y-86818985D02*
X44253541Y-86747557D01*
X44253541Y-86747557D02*
X44396398Y-86676128D01*
X44396398Y-86676128D02*
X44682112Y-86676128D01*
X44682112Y-86676128D02*
X44824970Y-86747557D01*
X45324969Y-88247557D02*
X45396398Y-88176128D01*
X45396398Y-88176128D02*
X45539255Y-87961842D01*
X45539255Y-87961842D02*
X45610684Y-87818985D01*
X45610684Y-87818985D02*
X45682112Y-87604700D01*
X45682112Y-87604700D02*
X45753541Y-87247557D01*
X45753541Y-87247557D02*
X45753541Y-86961842D01*
X45753541Y-86961842D02*
X45682112Y-86604700D01*
X45682112Y-86604700D02*
X45610684Y-86390414D01*
X45610684Y-86390414D02*
X45539255Y-86247557D01*
X45539255Y-86247557D02*
X45396398Y-86033271D01*
X45396398Y-86033271D02*
X45324969Y-85961842D01*
X47539255Y-86318985D02*
X47610683Y-86247557D01*
X47610683Y-86247557D02*
X47753541Y-86176128D01*
X47753541Y-86176128D02*
X48110683Y-86176128D01*
X48110683Y-86176128D02*
X48253541Y-86247557D01*
X48253541Y-86247557D02*
X48324969Y-86318985D01*
X48324969Y-86318985D02*
X48396398Y-86461842D01*
X48396398Y-86461842D02*
X48396398Y-86604700D01*
X48396398Y-86604700D02*
X48324969Y-86818985D01*
X48324969Y-86818985D02*
X47467826Y-87676128D01*
X47467826Y-87676128D02*
X48396398Y-87676128D01*
X49324969Y-86176128D02*
X49467826Y-86176128D01*
X49467826Y-86176128D02*
X49610683Y-86247557D01*
X49610683Y-86247557D02*
X49682112Y-86318985D01*
X49682112Y-86318985D02*
X49753540Y-86461842D01*
X49753540Y-86461842D02*
X49824969Y-86747557D01*
X49824969Y-86747557D02*
X49824969Y-87104700D01*
X49824969Y-87104700D02*
X49753540Y-87390414D01*
X49753540Y-87390414D02*
X49682112Y-87533271D01*
X49682112Y-87533271D02*
X49610683Y-87604700D01*
X49610683Y-87604700D02*
X49467826Y-87676128D01*
X49467826Y-87676128D02*
X49324969Y-87676128D01*
X49324969Y-87676128D02*
X49182112Y-87604700D01*
X49182112Y-87604700D02*
X49110683Y-87533271D01*
X49110683Y-87533271D02*
X49039254Y-87390414D01*
X49039254Y-87390414D02*
X48967826Y-87104700D01*
X48967826Y-87104700D02*
X48967826Y-86747557D01*
X48967826Y-86747557D02*
X49039254Y-86461842D01*
X49039254Y-86461842D02*
X49110683Y-86318985D01*
X49110683Y-86318985D02*
X49182112Y-86247557D01*
X49182112Y-86247557D02*
X49324969Y-86176128D01*
X50396397Y-86318985D02*
X50467825Y-86247557D01*
X50467825Y-86247557D02*
X50610683Y-86176128D01*
X50610683Y-86176128D02*
X50967825Y-86176128D01*
X50967825Y-86176128D02*
X51110683Y-86247557D01*
X51110683Y-86247557D02*
X51182111Y-86318985D01*
X51182111Y-86318985D02*
X51253540Y-86461842D01*
X51253540Y-86461842D02*
X51253540Y-86604700D01*
X51253540Y-86604700D02*
X51182111Y-86818985D01*
X51182111Y-86818985D02*
X50324968Y-87676128D01*
X50324968Y-87676128D02*
X51253540Y-87676128D01*
X52539254Y-86676128D02*
X52539254Y-87676128D01*
X52182111Y-86104700D02*
X51824968Y-87176128D01*
X51824968Y-87176128D02*
X52753539Y-87176128D01*
X54467824Y-87676128D02*
X54467824Y-86176128D01*
X55182110Y-87676128D02*
X55182110Y-86176128D01*
X55182110Y-86176128D02*
X56039253Y-87676128D01*
X56039253Y-87676128D02*
X56039253Y-86176128D01*
X56682111Y-87604700D02*
X56896397Y-87676128D01*
X56896397Y-87676128D02*
X57253539Y-87676128D01*
X57253539Y-87676128D02*
X57396397Y-87604700D01*
X57396397Y-87604700D02*
X57467825Y-87533271D01*
X57467825Y-87533271D02*
X57539254Y-87390414D01*
X57539254Y-87390414D02*
X57539254Y-87247557D01*
X57539254Y-87247557D02*
X57467825Y-87104700D01*
X57467825Y-87104700D02*
X57396397Y-87033271D01*
X57396397Y-87033271D02*
X57253539Y-86961842D01*
X57253539Y-86961842D02*
X56967825Y-86890414D01*
X56967825Y-86890414D02*
X56824968Y-86818985D01*
X56824968Y-86818985D02*
X56753539Y-86747557D01*
X56753539Y-86747557D02*
X56682111Y-86604700D01*
X56682111Y-86604700D02*
X56682111Y-86461842D01*
X56682111Y-86461842D02*
X56753539Y-86318985D01*
X56753539Y-86318985D02*
X56824968Y-86247557D01*
X56824968Y-86247557D02*
X56967825Y-86176128D01*
X56967825Y-86176128D02*
X57324968Y-86176128D01*
X57324968Y-86176128D02*
X57539254Y-86247557D01*
X58110682Y-87247557D02*
X58824968Y-87247557D01*
X57967825Y-87676128D02*
X58467825Y-86176128D01*
X58467825Y-86176128D02*
X58967825Y-87676128D01*
X61324967Y-87676128D02*
X60610681Y-87676128D01*
X60610681Y-87676128D02*
X60610681Y-86176128D01*
X61682110Y-86676128D02*
X62039253Y-87676128D01*
X62396396Y-86676128D02*
X62039253Y-87676128D01*
X62039253Y-87676128D02*
X61896396Y-88033271D01*
X61896396Y-88033271D02*
X61824967Y-88104700D01*
X61824967Y-88104700D02*
X61682110Y-88176128D01*
X63182110Y-87676128D02*
X63039253Y-87604700D01*
X63039253Y-87604700D02*
X62967824Y-87533271D01*
X62967824Y-87533271D02*
X62896396Y-87390414D01*
X62896396Y-87390414D02*
X62896396Y-86961842D01*
X62896396Y-86961842D02*
X62967824Y-86818985D01*
X62967824Y-86818985D02*
X63039253Y-86747557D01*
X63039253Y-86747557D02*
X63182110Y-86676128D01*
X63182110Y-86676128D02*
X63396396Y-86676128D01*
X63396396Y-86676128D02*
X63539253Y-86747557D01*
X63539253Y-86747557D02*
X63610682Y-86818985D01*
X63610682Y-86818985D02*
X63682110Y-86961842D01*
X63682110Y-86961842D02*
X63682110Y-87390414D01*
X63682110Y-87390414D02*
X63610682Y-87533271D01*
X63610682Y-87533271D02*
X63539253Y-87604700D01*
X63539253Y-87604700D02*
X63396396Y-87676128D01*
X63396396Y-87676128D02*
X63182110Y-87676128D01*
X64324967Y-86676128D02*
X64324967Y-87676128D01*
X64324967Y-86818985D02*
X64396396Y-86747557D01*
X64396396Y-86747557D02*
X64539253Y-86676128D01*
X64539253Y-86676128D02*
X64753539Y-86676128D01*
X64753539Y-86676128D02*
X64896396Y-86747557D01*
X64896396Y-86747557D02*
X64967825Y-86890414D01*
X64967825Y-86890414D02*
X64967825Y-87676128D01*
X65753539Y-87604700D02*
X65753539Y-87676128D01*
X65753539Y-87676128D02*
X65682110Y-87818985D01*
X65682110Y-87818985D02*
X65610682Y-87890414D01*
X68396396Y-87533271D02*
X68324968Y-87604700D01*
X68324968Y-87604700D02*
X68110682Y-87676128D01*
X68110682Y-87676128D02*
X67967825Y-87676128D01*
X67967825Y-87676128D02*
X67753539Y-87604700D01*
X67753539Y-87604700D02*
X67610682Y-87461842D01*
X67610682Y-87461842D02*
X67539253Y-87318985D01*
X67539253Y-87318985D02*
X67467825Y-87033271D01*
X67467825Y-87033271D02*
X67467825Y-86818985D01*
X67467825Y-86818985D02*
X67539253Y-86533271D01*
X67539253Y-86533271D02*
X67610682Y-86390414D01*
X67610682Y-86390414D02*
X67753539Y-86247557D01*
X67753539Y-86247557D02*
X67967825Y-86176128D01*
X67967825Y-86176128D02*
X68110682Y-86176128D01*
X68110682Y-86176128D02*
X68324968Y-86247557D01*
X68324968Y-86247557D02*
X68396396Y-86318985D01*
X69039253Y-87676128D02*
X69039253Y-86176128D01*
X69039253Y-86176128D02*
X69896396Y-87676128D01*
X69896396Y-87676128D02*
X69896396Y-86176128D01*
X71467825Y-87676128D02*
X70967825Y-86961842D01*
X70610682Y-87676128D02*
X70610682Y-86176128D01*
X70610682Y-86176128D02*
X71182111Y-86176128D01*
X71182111Y-86176128D02*
X71324968Y-86247557D01*
X71324968Y-86247557D02*
X71396397Y-86318985D01*
X71396397Y-86318985D02*
X71467825Y-86461842D01*
X71467825Y-86461842D02*
X71467825Y-86676128D01*
X71467825Y-86676128D02*
X71396397Y-86818985D01*
X71396397Y-86818985D02*
X71324968Y-86890414D01*
X71324968Y-86890414D02*
X71182111Y-86961842D01*
X71182111Y-86961842D02*
X70610682Y-86961842D01*
X72039254Y-87604700D02*
X72253540Y-87676128D01*
X72253540Y-87676128D02*
X72610682Y-87676128D01*
X72610682Y-87676128D02*
X72753540Y-87604700D01*
X72753540Y-87604700D02*
X72824968Y-87533271D01*
X72824968Y-87533271D02*
X72896397Y-87390414D01*
X72896397Y-87390414D02*
X72896397Y-87247557D01*
X72896397Y-87247557D02*
X72824968Y-87104700D01*
X72824968Y-87104700D02*
X72753540Y-87033271D01*
X72753540Y-87033271D02*
X72610682Y-86961842D01*
X72610682Y-86961842D02*
X72324968Y-86890414D01*
X72324968Y-86890414D02*
X72182111Y-86818985D01*
X72182111Y-86818985D02*
X72110682Y-86747557D01*
X72110682Y-86747557D02*
X72039254Y-86604700D01*
X72039254Y-86604700D02*
X72039254Y-86461842D01*
X72039254Y-86461842D02*
X72110682Y-86318985D01*
X72110682Y-86318985D02*
X72182111Y-86247557D01*
X72182111Y-86247557D02*
X72324968Y-86176128D01*
X72324968Y-86176128D02*
X72682111Y-86176128D01*
X72682111Y-86176128D02*
X72896397Y-86247557D01*
X73610682Y-87604700D02*
X73610682Y-87676128D01*
X73610682Y-87676128D02*
X73539253Y-87818985D01*
X73539253Y-87818985D02*
X73467825Y-87890414D01*
X75396396Y-87676128D02*
X75396396Y-86176128D01*
X76110682Y-87676128D02*
X76110682Y-86176128D01*
X76110682Y-86176128D02*
X76967825Y-87676128D01*
X76967825Y-87676128D02*
X76967825Y-86176128D01*
X78396397Y-87676128D02*
X77682111Y-87676128D01*
X77682111Y-87676128D02*
X77682111Y-86176128D01*
X80039254Y-86176128D02*
X80039254Y-87390414D01*
X80039254Y-87390414D02*
X80110683Y-87533271D01*
X80110683Y-87533271D02*
X80182112Y-87604700D01*
X80182112Y-87604700D02*
X80324969Y-87676128D01*
X80324969Y-87676128D02*
X80610683Y-87676128D01*
X80610683Y-87676128D02*
X80753540Y-87604700D01*
X80753540Y-87604700D02*
X80824969Y-87533271D01*
X80824969Y-87533271D02*
X80896397Y-87390414D01*
X80896397Y-87390414D02*
X80896397Y-86176128D01*
X81610683Y-87676128D02*
X81610683Y-86176128D01*
X81610683Y-86176128D02*
X82110683Y-87247557D01*
X82110683Y-87247557D02*
X82610683Y-86176128D01*
X82610683Y-86176128D02*
X82610683Y-87676128D01*
X84182112Y-87676128D02*
X83682112Y-86961842D01*
X83324969Y-87676128D02*
X83324969Y-86176128D01*
X83324969Y-86176128D02*
X83896398Y-86176128D01*
X83896398Y-86176128D02*
X84039255Y-86247557D01*
X84039255Y-86247557D02*
X84110684Y-86318985D01*
X84110684Y-86318985D02*
X84182112Y-86461842D01*
X84182112Y-86461842D02*
X84182112Y-86676128D01*
X84182112Y-86676128D02*
X84110684Y-86818985D01*
X84110684Y-86818985D02*
X84039255Y-86890414D01*
X84039255Y-86890414D02*
X83896398Y-86961842D01*
X83896398Y-86961842D02*
X83324969Y-86961842D01*
X85539255Y-86176128D02*
X84824969Y-86176128D01*
X84824969Y-86176128D02*
X84753541Y-86890414D01*
X84753541Y-86890414D02*
X84824969Y-86818985D01*
X84824969Y-86818985D02*
X84967827Y-86747557D01*
X84967827Y-86747557D02*
X85324969Y-86747557D01*
X85324969Y-86747557D02*
X85467827Y-86818985D01*
X85467827Y-86818985D02*
X85539255Y-86890414D01*
X85539255Y-86890414D02*
X85610684Y-87033271D01*
X85610684Y-87033271D02*
X85610684Y-87390414D01*
X85610684Y-87390414D02*
X85539255Y-87533271D01*
X85539255Y-87533271D02*
X85467827Y-87604700D01*
X85467827Y-87604700D02*
X85324969Y-87676128D01*
X85324969Y-87676128D02*
X84967827Y-87676128D01*
X84967827Y-87676128D02*
X84824969Y-87604700D01*
X84824969Y-87604700D02*
X84753541Y-87533271D01*
X86182112Y-86318985D02*
X86253540Y-86247557D01*
X86253540Y-86247557D02*
X86396398Y-86176128D01*
X86396398Y-86176128D02*
X86753540Y-86176128D01*
X86753540Y-86176128D02*
X86896398Y-86247557D01*
X86896398Y-86247557D02*
X86967826Y-86318985D01*
X86967826Y-86318985D02*
X87039255Y-86461842D01*
X87039255Y-86461842D02*
X87039255Y-86604700D01*
X87039255Y-86604700D02*
X86967826Y-86818985D01*
X86967826Y-86818985D02*
X86110683Y-87676128D01*
X86110683Y-87676128D02*
X87039255Y-87676128D01*
X87539254Y-86176128D02*
X88539254Y-86176128D01*
X88539254Y-86176128D02*
X87896397Y-87676128D01*
X89396397Y-86176128D02*
X89539254Y-86176128D01*
X89539254Y-86176128D02*
X89682111Y-86247557D01*
X89682111Y-86247557D02*
X89753540Y-86318985D01*
X89753540Y-86318985D02*
X89824968Y-86461842D01*
X89824968Y-86461842D02*
X89896397Y-86747557D01*
X89896397Y-86747557D02*
X89896397Y-87104700D01*
X89896397Y-87104700D02*
X89824968Y-87390414D01*
X89824968Y-87390414D02*
X89753540Y-87533271D01*
X89753540Y-87533271D02*
X89682111Y-87604700D01*
X89682111Y-87604700D02*
X89539254Y-87676128D01*
X89539254Y-87676128D02*
X89396397Y-87676128D01*
X89396397Y-87676128D02*
X89253540Y-87604700D01*
X89253540Y-87604700D02*
X89182111Y-87533271D01*
X89182111Y-87533271D02*
X89110682Y-87390414D01*
X89110682Y-87390414D02*
X89039254Y-87104700D01*
X89039254Y-87104700D02*
X89039254Y-86747557D01*
X89039254Y-86747557D02*
X89110682Y-86461842D01*
X89110682Y-86461842D02*
X89182111Y-86318985D01*
X89182111Y-86318985D02*
X89253540Y-86247557D01*
X89253540Y-86247557D02*
X89396397Y-86176128D01*
D10*
D11*
X32182112Y-84676128D02*
X31467826Y-84676128D01*
X31467826Y-84676128D02*
X31467826Y-83176128D01*
X32682112Y-84676128D02*
X32682112Y-83676128D01*
X32682112Y-83176128D02*
X32610684Y-83247557D01*
X32610684Y-83247557D02*
X32682112Y-83318985D01*
X32682112Y-83318985D02*
X32753541Y-83247557D01*
X32753541Y-83247557D02*
X32682112Y-83176128D01*
X32682112Y-83176128D02*
X32682112Y-83318985D01*
X34039256Y-84604700D02*
X33896398Y-84676128D01*
X33896398Y-84676128D02*
X33610684Y-84676128D01*
X33610684Y-84676128D02*
X33467827Y-84604700D01*
X33467827Y-84604700D02*
X33396398Y-84533271D01*
X33396398Y-84533271D02*
X33324970Y-84390414D01*
X33324970Y-84390414D02*
X33324970Y-83961842D01*
X33324970Y-83961842D02*
X33396398Y-83818985D01*
X33396398Y-83818985D02*
X33467827Y-83747557D01*
X33467827Y-83747557D02*
X33610684Y-83676128D01*
X33610684Y-83676128D02*
X33896398Y-83676128D01*
X33896398Y-83676128D02*
X34039256Y-83747557D01*
X35253541Y-84604700D02*
X35110684Y-84676128D01*
X35110684Y-84676128D02*
X34824970Y-84676128D01*
X34824970Y-84676128D02*
X34682112Y-84604700D01*
X34682112Y-84604700D02*
X34610684Y-84461842D01*
X34610684Y-84461842D02*
X34610684Y-83890414D01*
X34610684Y-83890414D02*
X34682112Y-83747557D01*
X34682112Y-83747557D02*
X34824970Y-83676128D01*
X34824970Y-83676128D02*
X35110684Y-83676128D01*
X35110684Y-83676128D02*
X35253541Y-83747557D01*
X35253541Y-83747557D02*
X35324970Y-83890414D01*
X35324970Y-83890414D02*
X35324970Y-84033271D01*
X35324970Y-84033271D02*
X34610684Y-84176128D01*
X35967826Y-83676128D02*
X35967826Y-84676128D01*
X35967826Y-83818985D02*
X36039255Y-83747557D01*
X36039255Y-83747557D02*
X36182112Y-83676128D01*
X36182112Y-83676128D02*
X36396398Y-83676128D01*
X36396398Y-83676128D02*
X36539255Y-83747557D01*
X36539255Y-83747557D02*
X36610684Y-83890414D01*
X36610684Y-83890414D02*
X36610684Y-84676128D01*
X37253541Y-84604700D02*
X37396398Y-84676128D01*
X37396398Y-84676128D02*
X37682112Y-84676128D01*
X37682112Y-84676128D02*
X37824969Y-84604700D01*
X37824969Y-84604700D02*
X37896398Y-84461842D01*
X37896398Y-84461842D02*
X37896398Y-84390414D01*
X37896398Y-84390414D02*
X37824969Y-84247557D01*
X37824969Y-84247557D02*
X37682112Y-84176128D01*
X37682112Y-84176128D02*
X37467827Y-84176128D01*
X37467827Y-84176128D02*
X37324969Y-84104700D01*
X37324969Y-84104700D02*
X37253541Y-83961842D01*
X37253541Y-83961842D02*
X37253541Y-83890414D01*
X37253541Y-83890414D02*
X37324969Y-83747557D01*
X37324969Y-83747557D02*
X37467827Y-83676128D01*
X37467827Y-83676128D02*
X37682112Y-83676128D01*
X37682112Y-83676128D02*
X37824969Y-83747557D01*
X39110684Y-84604700D02*
X38967827Y-84676128D01*
X38967827Y-84676128D02*
X38682113Y-84676128D01*
X38682113Y-84676128D02*
X38539255Y-84604700D01*
X38539255Y-84604700D02*
X38467827Y-84461842D01*
X38467827Y-84461842D02*
X38467827Y-83890414D01*
X38467827Y-83890414D02*
X38539255Y-83747557D01*
X38539255Y-83747557D02*
X38682113Y-83676128D01*
X38682113Y-83676128D02*
X38967827Y-83676128D01*
X38967827Y-83676128D02*
X39110684Y-83747557D01*
X39110684Y-83747557D02*
X39182113Y-83890414D01*
X39182113Y-83890414D02*
X39182113Y-84033271D01*
X39182113Y-84033271D02*
X38467827Y-84176128D01*
X40967826Y-84533271D02*
X41039255Y-84604700D01*
X41039255Y-84604700D02*
X40967826Y-84676128D01*
X40967826Y-84676128D02*
X40896398Y-84604700D01*
X40896398Y-84604700D02*
X40967826Y-84533271D01*
X40967826Y-84533271D02*
X40967826Y-84676128D01*
X40967826Y-83747557D02*
X41039255Y-83818985D01*
X41039255Y-83818985D02*
X40967826Y-83890414D01*
X40967826Y-83890414D02*
X40896398Y-83818985D01*
X40896398Y-83818985D02*
X40967826Y-83747557D01*
X40967826Y-83747557D02*
X40967826Y-83890414D01*
X42824969Y-84676128D02*
X42824969Y-83176128D01*
X42824969Y-83176128D02*
X43324969Y-84247557D01*
X43324969Y-84247557D02*
X43824969Y-83176128D01*
X43824969Y-83176128D02*
X43824969Y-84676128D01*
X44539255Y-84676128D02*
X44539255Y-83176128D01*
X45039256Y-83176128D02*
X45896399Y-83176128D01*
X45467827Y-84676128D02*
X45467827Y-83176128D01*
X48253541Y-84676128D02*
X47539255Y-84676128D01*
X47539255Y-84676128D02*
X47539255Y-83176128D01*
X48753541Y-84676128D02*
X48753541Y-83676128D01*
X48753541Y-83176128D02*
X48682113Y-83247557D01*
X48682113Y-83247557D02*
X48753541Y-83318985D01*
X48753541Y-83318985D02*
X48824970Y-83247557D01*
X48824970Y-83247557D02*
X48753541Y-83176128D01*
X48753541Y-83176128D02*
X48753541Y-83318985D01*
X50110685Y-84604700D02*
X49967827Y-84676128D01*
X49967827Y-84676128D02*
X49682113Y-84676128D01*
X49682113Y-84676128D02*
X49539256Y-84604700D01*
X49539256Y-84604700D02*
X49467827Y-84533271D01*
X49467827Y-84533271D02*
X49396399Y-84390414D01*
X49396399Y-84390414D02*
X49396399Y-83961842D01*
X49396399Y-83961842D02*
X49467827Y-83818985D01*
X49467827Y-83818985D02*
X49539256Y-83747557D01*
X49539256Y-83747557D02*
X49682113Y-83676128D01*
X49682113Y-83676128D02*
X49967827Y-83676128D01*
X49967827Y-83676128D02*
X50110685Y-83747557D01*
X51324970Y-84604700D02*
X51182113Y-84676128D01*
X51182113Y-84676128D02*
X50896399Y-84676128D01*
X50896399Y-84676128D02*
X50753541Y-84604700D01*
X50753541Y-84604700D02*
X50682113Y-84461842D01*
X50682113Y-84461842D02*
X50682113Y-83890414D01*
X50682113Y-83890414D02*
X50753541Y-83747557D01*
X50753541Y-83747557D02*
X50896399Y-83676128D01*
X50896399Y-83676128D02*
X51182113Y-83676128D01*
X51182113Y-83676128D02*
X51324970Y-83747557D01*
X51324970Y-83747557D02*
X51396399Y-83890414D01*
X51396399Y-83890414D02*
X51396399Y-84033271D01*
X51396399Y-84033271D02*
X50682113Y-84176128D01*
X52039255Y-83676128D02*
X52039255Y-84676128D01*
X52039255Y-83818985D02*
X52110684Y-83747557D01*
X52110684Y-83747557D02*
X52253541Y-83676128D01*
X52253541Y-83676128D02*
X52467827Y-83676128D01*
X52467827Y-83676128D02*
X52610684Y-83747557D01*
X52610684Y-83747557D02*
X52682113Y-83890414D01*
X52682113Y-83890414D02*
X52682113Y-84676128D01*
X53324970Y-84604700D02*
X53467827Y-84676128D01*
X53467827Y-84676128D02*
X53753541Y-84676128D01*
X53753541Y-84676128D02*
X53896398Y-84604700D01*
X53896398Y-84604700D02*
X53967827Y-84461842D01*
X53967827Y-84461842D02*
X53967827Y-84390414D01*
X53967827Y-84390414D02*
X53896398Y-84247557D01*
X53896398Y-84247557D02*
X53753541Y-84176128D01*
X53753541Y-84176128D02*
X53539256Y-84176128D01*
X53539256Y-84176128D02*
X53396398Y-84104700D01*
X53396398Y-84104700D02*
X53324970Y-83961842D01*
X53324970Y-83961842D02*
X53324970Y-83890414D01*
X53324970Y-83890414D02*
X53396398Y-83747557D01*
X53396398Y-83747557D02*
X53539256Y-83676128D01*
X53539256Y-83676128D02*
X53753541Y-83676128D01*
X53753541Y-83676128D02*
X53896398Y-83747557D01*
X55182113Y-84604700D02*
X55039256Y-84676128D01*
X55039256Y-84676128D02*
X54753542Y-84676128D01*
X54753542Y-84676128D02*
X54610684Y-84604700D01*
X54610684Y-84604700D02*
X54539256Y-84461842D01*
X54539256Y-84461842D02*
X54539256Y-83890414D01*
X54539256Y-83890414D02*
X54610684Y-83747557D01*
X54610684Y-83747557D02*
X54753542Y-83676128D01*
X54753542Y-83676128D02*
X55039256Y-83676128D01*
X55039256Y-83676128D02*
X55182113Y-83747557D01*
X55182113Y-83747557D02*
X55253542Y-83890414D01*
X55253542Y-83890414D02*
X55253542Y-84033271D01*
X55253542Y-84033271D02*
X54539256Y-84176128D01*
D10*
D11*
X32324969Y-81533271D02*
X32253541Y-81604700D01*
X32253541Y-81604700D02*
X32039255Y-81676128D01*
X32039255Y-81676128D02*
X31896398Y-81676128D01*
X31896398Y-81676128D02*
X31682112Y-81604700D01*
X31682112Y-81604700D02*
X31539255Y-81461842D01*
X31539255Y-81461842D02*
X31467826Y-81318985D01*
X31467826Y-81318985D02*
X31396398Y-81033271D01*
X31396398Y-81033271D02*
X31396398Y-80818985D01*
X31396398Y-80818985D02*
X31467826Y-80533271D01*
X31467826Y-80533271D02*
X31539255Y-80390414D01*
X31539255Y-80390414D02*
X31682112Y-80247557D01*
X31682112Y-80247557D02*
X31896398Y-80176128D01*
X31896398Y-80176128D02*
X32039255Y-80176128D01*
X32039255Y-80176128D02*
X32253541Y-80247557D01*
X32253541Y-80247557D02*
X32324969Y-80318985D01*
X33182112Y-81676128D02*
X33039255Y-81604700D01*
X33039255Y-81604700D02*
X32967826Y-81533271D01*
X32967826Y-81533271D02*
X32896398Y-81390414D01*
X32896398Y-81390414D02*
X32896398Y-80961842D01*
X32896398Y-80961842D02*
X32967826Y-80818985D01*
X32967826Y-80818985D02*
X33039255Y-80747557D01*
X33039255Y-80747557D02*
X33182112Y-80676128D01*
X33182112Y-80676128D02*
X33396398Y-80676128D01*
X33396398Y-80676128D02*
X33539255Y-80747557D01*
X33539255Y-80747557D02*
X33610684Y-80818985D01*
X33610684Y-80818985D02*
X33682112Y-80961842D01*
X33682112Y-80961842D02*
X33682112Y-81390414D01*
X33682112Y-81390414D02*
X33610684Y-81533271D01*
X33610684Y-81533271D02*
X33539255Y-81604700D01*
X33539255Y-81604700D02*
X33396398Y-81676128D01*
X33396398Y-81676128D02*
X33182112Y-81676128D01*
X34324969Y-80676128D02*
X34324969Y-81676128D01*
X34324969Y-80818985D02*
X34396398Y-80747557D01*
X34396398Y-80747557D02*
X34539255Y-80676128D01*
X34539255Y-80676128D02*
X34753541Y-80676128D01*
X34753541Y-80676128D02*
X34896398Y-80747557D01*
X34896398Y-80747557D02*
X34967827Y-80890414D01*
X34967827Y-80890414D02*
X34967827Y-81676128D01*
X35467827Y-80676128D02*
X36039255Y-80676128D01*
X35682112Y-80176128D02*
X35682112Y-81461842D01*
X35682112Y-81461842D02*
X35753541Y-81604700D01*
X35753541Y-81604700D02*
X35896398Y-81676128D01*
X35896398Y-81676128D02*
X36039255Y-81676128D01*
X37182113Y-81676128D02*
X37182113Y-80890414D01*
X37182113Y-80890414D02*
X37110684Y-80747557D01*
X37110684Y-80747557D02*
X36967827Y-80676128D01*
X36967827Y-80676128D02*
X36682113Y-80676128D01*
X36682113Y-80676128D02*
X36539255Y-80747557D01*
X37182113Y-81604700D02*
X37039255Y-81676128D01*
X37039255Y-81676128D02*
X36682113Y-81676128D01*
X36682113Y-81676128D02*
X36539255Y-81604700D01*
X36539255Y-81604700D02*
X36467827Y-81461842D01*
X36467827Y-81461842D02*
X36467827Y-81318985D01*
X36467827Y-81318985D02*
X36539255Y-81176128D01*
X36539255Y-81176128D02*
X36682113Y-81104700D01*
X36682113Y-81104700D02*
X37039255Y-81104700D01*
X37039255Y-81104700D02*
X37182113Y-81033271D01*
X38539256Y-81604700D02*
X38396398Y-81676128D01*
X38396398Y-81676128D02*
X38110684Y-81676128D01*
X38110684Y-81676128D02*
X37967827Y-81604700D01*
X37967827Y-81604700D02*
X37896398Y-81533271D01*
X37896398Y-81533271D02*
X37824970Y-81390414D01*
X37824970Y-81390414D02*
X37824970Y-80961842D01*
X37824970Y-80961842D02*
X37896398Y-80818985D01*
X37896398Y-80818985D02*
X37967827Y-80747557D01*
X37967827Y-80747557D02*
X38110684Y-80676128D01*
X38110684Y-80676128D02*
X38396398Y-80676128D01*
X38396398Y-80676128D02*
X38539256Y-80747557D01*
X38967827Y-80676128D02*
X39539255Y-80676128D01*
X39182112Y-80176128D02*
X39182112Y-81461842D01*
X39182112Y-81461842D02*
X39253541Y-81604700D01*
X39253541Y-81604700D02*
X39396398Y-81676128D01*
X39396398Y-81676128D02*
X39539255Y-81676128D01*
X41182112Y-81533271D02*
X41253541Y-81604700D01*
X41253541Y-81604700D02*
X41182112Y-81676128D01*
X41182112Y-81676128D02*
X41110684Y-81604700D01*
X41110684Y-81604700D02*
X41182112Y-81533271D01*
X41182112Y-81533271D02*
X41182112Y-81676128D01*
X41182112Y-80747557D02*
X41253541Y-80818985D01*
X41253541Y-80818985D02*
X41182112Y-80890414D01*
X41182112Y-80890414D02*
X41110684Y-80818985D01*
X41110684Y-80818985D02*
X41182112Y-80747557D01*
X41182112Y-80747557D02*
X41182112Y-80890414D01*
X43039255Y-81676128D02*
X43039255Y-80176128D01*
X43039255Y-80747557D02*
X43182113Y-80676128D01*
X43182113Y-80676128D02*
X43467827Y-80676128D01*
X43467827Y-80676128D02*
X43610684Y-80747557D01*
X43610684Y-80747557D02*
X43682113Y-80818985D01*
X43682113Y-80818985D02*
X43753541Y-80961842D01*
X43753541Y-80961842D02*
X43753541Y-81390414D01*
X43753541Y-81390414D02*
X43682113Y-81533271D01*
X43682113Y-81533271D02*
X43610684Y-81604700D01*
X43610684Y-81604700D02*
X43467827Y-81676128D01*
X43467827Y-81676128D02*
X43182113Y-81676128D01*
X43182113Y-81676128D02*
X43039255Y-81604700D01*
X44967827Y-81604700D02*
X44824970Y-81676128D01*
X44824970Y-81676128D02*
X44539256Y-81676128D01*
X44539256Y-81676128D02*
X44396398Y-81604700D01*
X44396398Y-81604700D02*
X44324970Y-81461842D01*
X44324970Y-81461842D02*
X44324970Y-80890414D01*
X44324970Y-80890414D02*
X44396398Y-80747557D01*
X44396398Y-80747557D02*
X44539256Y-80676128D01*
X44539256Y-80676128D02*
X44824970Y-80676128D01*
X44824970Y-80676128D02*
X44967827Y-80747557D01*
X44967827Y-80747557D02*
X45039256Y-80890414D01*
X45039256Y-80890414D02*
X45039256Y-81033271D01*
X45039256Y-81033271D02*
X44324970Y-81176128D01*
X45682112Y-81676128D02*
X45682112Y-80676128D01*
X45682112Y-80961842D02*
X45753541Y-80818985D01*
X45753541Y-80818985D02*
X45824970Y-80747557D01*
X45824970Y-80747557D02*
X45967827Y-80676128D01*
X45967827Y-80676128D02*
X46110684Y-80676128D01*
X46396398Y-80676128D02*
X46967826Y-80676128D01*
X46610683Y-80176128D02*
X46610683Y-81461842D01*
X46610683Y-81461842D02*
X46682112Y-81604700D01*
X46682112Y-81604700D02*
X46824969Y-81676128D01*
X46824969Y-81676128D02*
X46967826Y-81676128D01*
X47467826Y-81676128D02*
X47467826Y-80676128D01*
X47467826Y-80961842D02*
X47539255Y-80818985D01*
X47539255Y-80818985D02*
X47610684Y-80747557D01*
X47610684Y-80747557D02*
X47753541Y-80676128D01*
X47753541Y-80676128D02*
X47896398Y-80676128D01*
X49039255Y-81676128D02*
X49039255Y-80890414D01*
X49039255Y-80890414D02*
X48967826Y-80747557D01*
X48967826Y-80747557D02*
X48824969Y-80676128D01*
X48824969Y-80676128D02*
X48539255Y-80676128D01*
X48539255Y-80676128D02*
X48396397Y-80747557D01*
X49039255Y-81604700D02*
X48896397Y-81676128D01*
X48896397Y-81676128D02*
X48539255Y-81676128D01*
X48539255Y-81676128D02*
X48396397Y-81604700D01*
X48396397Y-81604700D02*
X48324969Y-81461842D01*
X48324969Y-81461842D02*
X48324969Y-81318985D01*
X48324969Y-81318985D02*
X48396397Y-81176128D01*
X48396397Y-81176128D02*
X48539255Y-81104700D01*
X48539255Y-81104700D02*
X48896397Y-81104700D01*
X48896397Y-81104700D02*
X49039255Y-81033271D01*
X49753540Y-80676128D02*
X49753540Y-81676128D01*
X49753540Y-80818985D02*
X49824969Y-80747557D01*
X49824969Y-80747557D02*
X49967826Y-80676128D01*
X49967826Y-80676128D02*
X50182112Y-80676128D01*
X50182112Y-80676128D02*
X50324969Y-80747557D01*
X50324969Y-80747557D02*
X50396398Y-80890414D01*
X50396398Y-80890414D02*
X50396398Y-81676128D01*
X51753541Y-81676128D02*
X51753541Y-80176128D01*
X51753541Y-81604700D02*
X51610683Y-81676128D01*
X51610683Y-81676128D02*
X51324969Y-81676128D01*
X51324969Y-81676128D02*
X51182112Y-81604700D01*
X51182112Y-81604700D02*
X51110683Y-81533271D01*
X51110683Y-81533271D02*
X51039255Y-81390414D01*
X51039255Y-81390414D02*
X51039255Y-80961842D01*
X51039255Y-80961842D02*
X51110683Y-80818985D01*
X51110683Y-80818985D02*
X51182112Y-80747557D01*
X51182112Y-80747557D02*
X51324969Y-80676128D01*
X51324969Y-80676128D02*
X51610683Y-80676128D01*
X51610683Y-80676128D02*
X51753541Y-80747557D01*
X52467826Y-81533271D02*
X52539255Y-81604700D01*
X52539255Y-81604700D02*
X52467826Y-81676128D01*
X52467826Y-81676128D02*
X52396398Y-81604700D01*
X52396398Y-81604700D02*
X52467826Y-81533271D01*
X52467826Y-81533271D02*
X52467826Y-81676128D01*
X53182112Y-81676128D02*
X53182112Y-80676128D01*
X53182112Y-80818985D02*
X53253541Y-80747557D01*
X53253541Y-80747557D02*
X53396398Y-80676128D01*
X53396398Y-80676128D02*
X53610684Y-80676128D01*
X53610684Y-80676128D02*
X53753541Y-80747557D01*
X53753541Y-80747557D02*
X53824970Y-80890414D01*
X53824970Y-80890414D02*
X53824970Y-81676128D01*
X53824970Y-80890414D02*
X53896398Y-80747557D01*
X53896398Y-80747557D02*
X54039255Y-80676128D01*
X54039255Y-80676128D02*
X54253541Y-80676128D01*
X54253541Y-80676128D02*
X54396398Y-80747557D01*
X54396398Y-80747557D02*
X54467827Y-80890414D01*
X54467827Y-80890414D02*
X54467827Y-81676128D01*
X55824970Y-81676128D02*
X55824970Y-80890414D01*
X55824970Y-80890414D02*
X55753541Y-80747557D01*
X55753541Y-80747557D02*
X55610684Y-80676128D01*
X55610684Y-80676128D02*
X55324970Y-80676128D01*
X55324970Y-80676128D02*
X55182112Y-80747557D01*
X55824970Y-81604700D02*
X55682112Y-81676128D01*
X55682112Y-81676128D02*
X55324970Y-81676128D01*
X55324970Y-81676128D02*
X55182112Y-81604700D01*
X55182112Y-81604700D02*
X55110684Y-81461842D01*
X55110684Y-81461842D02*
X55110684Y-81318985D01*
X55110684Y-81318985D02*
X55182112Y-81176128D01*
X55182112Y-81176128D02*
X55324970Y-81104700D01*
X55324970Y-81104700D02*
X55682112Y-81104700D01*
X55682112Y-81104700D02*
X55824970Y-81033271D01*
X56467827Y-81604700D02*
X56610684Y-81676128D01*
X56610684Y-81676128D02*
X56896398Y-81676128D01*
X56896398Y-81676128D02*
X57039255Y-81604700D01*
X57039255Y-81604700D02*
X57110684Y-81461842D01*
X57110684Y-81461842D02*
X57110684Y-81390414D01*
X57110684Y-81390414D02*
X57039255Y-81247557D01*
X57039255Y-81247557D02*
X56896398Y-81176128D01*
X56896398Y-81176128D02*
X56682113Y-81176128D01*
X56682113Y-81176128D02*
X56539255Y-81104700D01*
X56539255Y-81104700D02*
X56467827Y-80961842D01*
X56467827Y-80961842D02*
X56467827Y-80890414D01*
X56467827Y-80890414D02*
X56539255Y-80747557D01*
X56539255Y-80747557D02*
X56682113Y-80676128D01*
X56682113Y-80676128D02*
X56896398Y-80676128D01*
X56896398Y-80676128D02*
X57039255Y-80747557D01*
X57682113Y-81604700D02*
X57824970Y-81676128D01*
X57824970Y-81676128D02*
X58110684Y-81676128D01*
X58110684Y-81676128D02*
X58253541Y-81604700D01*
X58253541Y-81604700D02*
X58324970Y-81461842D01*
X58324970Y-81461842D02*
X58324970Y-81390414D01*
X58324970Y-81390414D02*
X58253541Y-81247557D01*
X58253541Y-81247557D02*
X58110684Y-81176128D01*
X58110684Y-81176128D02*
X57896399Y-81176128D01*
X57896399Y-81176128D02*
X57753541Y-81104700D01*
X57753541Y-81104700D02*
X57682113Y-80961842D01*
X57682113Y-80961842D02*
X57682113Y-80890414D01*
X57682113Y-80890414D02*
X57753541Y-80747557D01*
X57753541Y-80747557D02*
X57896399Y-80676128D01*
X57896399Y-80676128D02*
X58110684Y-80676128D01*
X58110684Y-80676128D02*
X58253541Y-80747557D01*
X59182113Y-81676128D02*
X59039256Y-81604700D01*
X59039256Y-81604700D02*
X58967827Y-81533271D01*
X58967827Y-81533271D02*
X58896399Y-81390414D01*
X58896399Y-81390414D02*
X58896399Y-80961842D01*
X58896399Y-80961842D02*
X58967827Y-80818985D01*
X58967827Y-80818985D02*
X59039256Y-80747557D01*
X59039256Y-80747557D02*
X59182113Y-80676128D01*
X59182113Y-80676128D02*
X59396399Y-80676128D01*
X59396399Y-80676128D02*
X59539256Y-80747557D01*
X59539256Y-80747557D02*
X59610685Y-80818985D01*
X59610685Y-80818985D02*
X59682113Y-80961842D01*
X59682113Y-80961842D02*
X59682113Y-81390414D01*
X59682113Y-81390414D02*
X59610685Y-81533271D01*
X59610685Y-81533271D02*
X59539256Y-81604700D01*
X59539256Y-81604700D02*
X59396399Y-81676128D01*
X59396399Y-81676128D02*
X59182113Y-81676128D01*
X60110685Y-80676128D02*
X60682113Y-80676128D01*
X60324970Y-80176128D02*
X60324970Y-81461842D01*
X60324970Y-81461842D02*
X60396399Y-81604700D01*
X60396399Y-81604700D02*
X60539256Y-81676128D01*
X60539256Y-81676128D02*
X60682113Y-81676128D01*
X62110685Y-80961842D02*
X62039256Y-80890414D01*
X62039256Y-80890414D02*
X61896399Y-80818985D01*
X61896399Y-80818985D02*
X61753542Y-80818985D01*
X61753542Y-80818985D02*
X61610685Y-80890414D01*
X61610685Y-80890414D02*
X61539256Y-80961842D01*
X61539256Y-80961842D02*
X61467828Y-81104700D01*
X61467828Y-81104700D02*
X61467828Y-81247557D01*
X61467828Y-81247557D02*
X61539256Y-81390414D01*
X61539256Y-81390414D02*
X61610685Y-81461842D01*
X61610685Y-81461842D02*
X61753542Y-81533271D01*
X61753542Y-81533271D02*
X61896399Y-81533271D01*
X61896399Y-81533271D02*
X62039256Y-81461842D01*
X62039256Y-81461842D02*
X62110685Y-81390414D01*
X62110685Y-80818985D02*
X62110685Y-81390414D01*
X62110685Y-81390414D02*
X62182113Y-81461842D01*
X62182113Y-81461842D02*
X62253542Y-81461842D01*
X62253542Y-81461842D02*
X62396399Y-81390414D01*
X62396399Y-81390414D02*
X62467828Y-81247557D01*
X62467828Y-81247557D02*
X62467828Y-80890414D01*
X62467828Y-80890414D02*
X62324971Y-80676128D01*
X62324971Y-80676128D02*
X62110685Y-80533271D01*
X62110685Y-80533271D02*
X61824971Y-80461842D01*
X61824971Y-80461842D02*
X61539256Y-80533271D01*
X61539256Y-80533271D02*
X61324971Y-80676128D01*
X61324971Y-80676128D02*
X61182113Y-80890414D01*
X61182113Y-80890414D02*
X61110685Y-81176128D01*
X61110685Y-81176128D02*
X61182113Y-81461842D01*
X61182113Y-81461842D02*
X61324971Y-81676128D01*
X61324971Y-81676128D02*
X61539256Y-81818985D01*
X61539256Y-81818985D02*
X61824971Y-81890414D01*
X61824971Y-81890414D02*
X62110685Y-81818985D01*
X62110685Y-81818985D02*
X62324971Y-81676128D01*
X63110684Y-81676128D02*
X63110684Y-80676128D01*
X63110684Y-80176128D02*
X63039256Y-80247557D01*
X63039256Y-80247557D02*
X63110684Y-80318985D01*
X63110684Y-80318985D02*
X63182113Y-80247557D01*
X63182113Y-80247557D02*
X63110684Y-80176128D01*
X63110684Y-80176128D02*
X63110684Y-80318985D01*
X63824970Y-80676128D02*
X63824970Y-81676128D01*
X63824970Y-80818985D02*
X63896399Y-80747557D01*
X63896399Y-80747557D02*
X64039256Y-80676128D01*
X64039256Y-80676128D02*
X64253542Y-80676128D01*
X64253542Y-80676128D02*
X64396399Y-80747557D01*
X64396399Y-80747557D02*
X64467828Y-80890414D01*
X64467828Y-80890414D02*
X64467828Y-81676128D01*
X65110685Y-81604700D02*
X65253542Y-81676128D01*
X65253542Y-81676128D02*
X65539256Y-81676128D01*
X65539256Y-81676128D02*
X65682113Y-81604700D01*
X65682113Y-81604700D02*
X65753542Y-81461842D01*
X65753542Y-81461842D02*
X65753542Y-81390414D01*
X65753542Y-81390414D02*
X65682113Y-81247557D01*
X65682113Y-81247557D02*
X65539256Y-81176128D01*
X65539256Y-81176128D02*
X65324971Y-81176128D01*
X65324971Y-81176128D02*
X65182113Y-81104700D01*
X65182113Y-81104700D02*
X65110685Y-80961842D01*
X65110685Y-80961842D02*
X65110685Y-80890414D01*
X65110685Y-80890414D02*
X65182113Y-80747557D01*
X65182113Y-80747557D02*
X65324971Y-80676128D01*
X65324971Y-80676128D02*
X65539256Y-80676128D01*
X65539256Y-80676128D02*
X65682113Y-80747557D01*
X67039257Y-81676128D02*
X67039257Y-80890414D01*
X67039257Y-80890414D02*
X66967828Y-80747557D01*
X66967828Y-80747557D02*
X66824971Y-80676128D01*
X66824971Y-80676128D02*
X66539257Y-80676128D01*
X66539257Y-80676128D02*
X66396399Y-80747557D01*
X67039257Y-81604700D02*
X66896399Y-81676128D01*
X66896399Y-81676128D02*
X66539257Y-81676128D01*
X66539257Y-81676128D02*
X66396399Y-81604700D01*
X66396399Y-81604700D02*
X66324971Y-81461842D01*
X66324971Y-81461842D02*
X66324971Y-81318985D01*
X66324971Y-81318985D02*
X66396399Y-81176128D01*
X66396399Y-81176128D02*
X66539257Y-81104700D01*
X66539257Y-81104700D02*
X66896399Y-81104700D01*
X66896399Y-81104700D02*
X67039257Y-81033271D01*
X67753542Y-81104700D02*
X68896400Y-81104700D01*
X69824971Y-81676128D02*
X69682114Y-81604700D01*
X69682114Y-81604700D02*
X69610685Y-81461842D01*
X69610685Y-81461842D02*
X69610685Y-80176128D01*
X70253542Y-80676128D02*
X70610685Y-81676128D01*
X70967828Y-80676128D02*
X70610685Y-81676128D01*
X70610685Y-81676128D02*
X70467828Y-82033271D01*
X70467828Y-82033271D02*
X70396399Y-82104700D01*
X70396399Y-82104700D02*
X70253542Y-82176128D01*
X71753542Y-81676128D02*
X71610685Y-81604700D01*
X71610685Y-81604700D02*
X71539256Y-81533271D01*
X71539256Y-81533271D02*
X71467828Y-81390414D01*
X71467828Y-81390414D02*
X71467828Y-80961842D01*
X71467828Y-80961842D02*
X71539256Y-80818985D01*
X71539256Y-80818985D02*
X71610685Y-80747557D01*
X71610685Y-80747557D02*
X71753542Y-80676128D01*
X71753542Y-80676128D02*
X71967828Y-80676128D01*
X71967828Y-80676128D02*
X72110685Y-80747557D01*
X72110685Y-80747557D02*
X72182114Y-80818985D01*
X72182114Y-80818985D02*
X72253542Y-80961842D01*
X72253542Y-80961842D02*
X72253542Y-81390414D01*
X72253542Y-81390414D02*
X72182114Y-81533271D01*
X72182114Y-81533271D02*
X72110685Y-81604700D01*
X72110685Y-81604700D02*
X71967828Y-81676128D01*
X71967828Y-81676128D02*
X71753542Y-81676128D01*
X72896399Y-80676128D02*
X72896399Y-81676128D01*
X72896399Y-80818985D02*
X72967828Y-80747557D01*
X72967828Y-80747557D02*
X73110685Y-80676128D01*
X73110685Y-80676128D02*
X73324971Y-80676128D01*
X73324971Y-80676128D02*
X73467828Y-80747557D01*
X73467828Y-80747557D02*
X73539257Y-80890414D01*
X73539257Y-80890414D02*
X73539257Y-81676128D01*
X74253542Y-81533271D02*
X74324971Y-81604700D01*
X74324971Y-81604700D02*
X74253542Y-81676128D01*
X74253542Y-81676128D02*
X74182114Y-81604700D01*
X74182114Y-81604700D02*
X74253542Y-81533271D01*
X74253542Y-81533271D02*
X74253542Y-81676128D01*
X74753543Y-80676128D02*
X75324971Y-80676128D01*
X74967828Y-81676128D02*
X74967828Y-80390414D01*
X74967828Y-80390414D02*
X75039257Y-80247557D01*
X75039257Y-80247557D02*
X75182114Y-80176128D01*
X75182114Y-80176128D02*
X75324971Y-80176128D01*
X75824971Y-81676128D02*
X75824971Y-80676128D01*
X75824971Y-80961842D02*
X75896400Y-80818985D01*
X75896400Y-80818985D02*
X75967829Y-80747557D01*
X75967829Y-80747557D02*
X76110686Y-80676128D01*
X76110686Y-80676128D02*
X76253543Y-80676128D01*
D10*
D11*
X31396398Y-78247557D02*
X32110684Y-78247557D01*
X31253541Y-78676128D02*
X31753541Y-77176128D01*
X31753541Y-77176128D02*
X32253541Y-78676128D01*
X33396398Y-77676128D02*
X33396398Y-78676128D01*
X32753540Y-77676128D02*
X32753540Y-78461842D01*
X32753540Y-78461842D02*
X32824969Y-78604700D01*
X32824969Y-78604700D02*
X32967826Y-78676128D01*
X32967826Y-78676128D02*
X33182112Y-78676128D01*
X33182112Y-78676128D02*
X33324969Y-78604700D01*
X33324969Y-78604700D02*
X33396398Y-78533271D01*
X33896398Y-77676128D02*
X34467826Y-77676128D01*
X34110683Y-77176128D02*
X34110683Y-78461842D01*
X34110683Y-78461842D02*
X34182112Y-78604700D01*
X34182112Y-78604700D02*
X34324969Y-78676128D01*
X34324969Y-78676128D02*
X34467826Y-78676128D01*
X34967826Y-78676128D02*
X34967826Y-77176128D01*
X35610684Y-78676128D02*
X35610684Y-77890414D01*
X35610684Y-77890414D02*
X35539255Y-77747557D01*
X35539255Y-77747557D02*
X35396398Y-77676128D01*
X35396398Y-77676128D02*
X35182112Y-77676128D01*
X35182112Y-77676128D02*
X35039255Y-77747557D01*
X35039255Y-77747557D02*
X34967826Y-77818985D01*
X36539255Y-78676128D02*
X36396398Y-78604700D01*
X36396398Y-78604700D02*
X36324969Y-78533271D01*
X36324969Y-78533271D02*
X36253541Y-78390414D01*
X36253541Y-78390414D02*
X36253541Y-77961842D01*
X36253541Y-77961842D02*
X36324969Y-77818985D01*
X36324969Y-77818985D02*
X36396398Y-77747557D01*
X36396398Y-77747557D02*
X36539255Y-77676128D01*
X36539255Y-77676128D02*
X36753541Y-77676128D01*
X36753541Y-77676128D02*
X36896398Y-77747557D01*
X36896398Y-77747557D02*
X36967827Y-77818985D01*
X36967827Y-77818985D02*
X37039255Y-77961842D01*
X37039255Y-77961842D02*
X37039255Y-78390414D01*
X37039255Y-78390414D02*
X36967827Y-78533271D01*
X36967827Y-78533271D02*
X36896398Y-78604700D01*
X36896398Y-78604700D02*
X36753541Y-78676128D01*
X36753541Y-78676128D02*
X36539255Y-78676128D01*
X37682112Y-78676128D02*
X37682112Y-77676128D01*
X37682112Y-77961842D02*
X37753541Y-77818985D01*
X37753541Y-77818985D02*
X37824970Y-77747557D01*
X37824970Y-77747557D02*
X37967827Y-77676128D01*
X37967827Y-77676128D02*
X38110684Y-77676128D01*
X38539255Y-78604700D02*
X38682112Y-78676128D01*
X38682112Y-78676128D02*
X38967826Y-78676128D01*
X38967826Y-78676128D02*
X39110683Y-78604700D01*
X39110683Y-78604700D02*
X39182112Y-78461842D01*
X39182112Y-78461842D02*
X39182112Y-78390414D01*
X39182112Y-78390414D02*
X39110683Y-78247557D01*
X39110683Y-78247557D02*
X38967826Y-78176128D01*
X38967826Y-78176128D02*
X38753541Y-78176128D01*
X38753541Y-78176128D02*
X38610683Y-78104700D01*
X38610683Y-78104700D02*
X38539255Y-77961842D01*
X38539255Y-77961842D02*
X38539255Y-77890414D01*
X38539255Y-77890414D02*
X38610683Y-77747557D01*
X38610683Y-77747557D02*
X38753541Y-77676128D01*
X38753541Y-77676128D02*
X38967826Y-77676128D01*
X38967826Y-77676128D02*
X39110683Y-77747557D01*
X40967826Y-78533271D02*
X41039255Y-78604700D01*
X41039255Y-78604700D02*
X40967826Y-78676128D01*
X40967826Y-78676128D02*
X40896398Y-78604700D01*
X40896398Y-78604700D02*
X40967826Y-78533271D01*
X40967826Y-78533271D02*
X40967826Y-78676128D01*
X40967826Y-77747557D02*
X41039255Y-77818985D01*
X41039255Y-77818985D02*
X40967826Y-77890414D01*
X40967826Y-77890414D02*
X40896398Y-77818985D01*
X40896398Y-77818985D02*
X40967826Y-77747557D01*
X40967826Y-77747557D02*
X40967826Y-77890414D01*
X43324969Y-77890414D02*
X43539255Y-77961842D01*
X43539255Y-77961842D02*
X43610684Y-78033271D01*
X43610684Y-78033271D02*
X43682112Y-78176128D01*
X43682112Y-78176128D02*
X43682112Y-78390414D01*
X43682112Y-78390414D02*
X43610684Y-78533271D01*
X43610684Y-78533271D02*
X43539255Y-78604700D01*
X43539255Y-78604700D02*
X43396398Y-78676128D01*
X43396398Y-78676128D02*
X42824969Y-78676128D01*
X42824969Y-78676128D02*
X42824969Y-77176128D01*
X42824969Y-77176128D02*
X43324969Y-77176128D01*
X43324969Y-77176128D02*
X43467827Y-77247557D01*
X43467827Y-77247557D02*
X43539255Y-77318985D01*
X43539255Y-77318985D02*
X43610684Y-77461842D01*
X43610684Y-77461842D02*
X43610684Y-77604700D01*
X43610684Y-77604700D02*
X43539255Y-77747557D01*
X43539255Y-77747557D02*
X43467827Y-77818985D01*
X43467827Y-77818985D02*
X43324969Y-77890414D01*
X43324969Y-77890414D02*
X42824969Y-77890414D01*
X44896398Y-78604700D02*
X44753541Y-78676128D01*
X44753541Y-78676128D02*
X44467827Y-78676128D01*
X44467827Y-78676128D02*
X44324969Y-78604700D01*
X44324969Y-78604700D02*
X44253541Y-78461842D01*
X44253541Y-78461842D02*
X44253541Y-77890414D01*
X44253541Y-77890414D02*
X44324969Y-77747557D01*
X44324969Y-77747557D02*
X44467827Y-77676128D01*
X44467827Y-77676128D02*
X44753541Y-77676128D01*
X44753541Y-77676128D02*
X44896398Y-77747557D01*
X44896398Y-77747557D02*
X44967827Y-77890414D01*
X44967827Y-77890414D02*
X44967827Y-78033271D01*
X44967827Y-78033271D02*
X44253541Y-78176128D01*
X45610683Y-78676128D02*
X45610683Y-77676128D01*
X45610683Y-77961842D02*
X45682112Y-77818985D01*
X45682112Y-77818985D02*
X45753541Y-77747557D01*
X45753541Y-77747557D02*
X45896398Y-77676128D01*
X45896398Y-77676128D02*
X46039255Y-77676128D01*
X46324969Y-77676128D02*
X46896397Y-77676128D01*
X46539254Y-77176128D02*
X46539254Y-78461842D01*
X46539254Y-78461842D02*
X46610683Y-78604700D01*
X46610683Y-78604700D02*
X46753540Y-78676128D01*
X46753540Y-78676128D02*
X46896397Y-78676128D01*
X47396397Y-78676128D02*
X47396397Y-77676128D01*
X47396397Y-77961842D02*
X47467826Y-77818985D01*
X47467826Y-77818985D02*
X47539255Y-77747557D01*
X47539255Y-77747557D02*
X47682112Y-77676128D01*
X47682112Y-77676128D02*
X47824969Y-77676128D01*
X48967826Y-78676128D02*
X48967826Y-77890414D01*
X48967826Y-77890414D02*
X48896397Y-77747557D01*
X48896397Y-77747557D02*
X48753540Y-77676128D01*
X48753540Y-77676128D02*
X48467826Y-77676128D01*
X48467826Y-77676128D02*
X48324968Y-77747557D01*
X48967826Y-78604700D02*
X48824968Y-78676128D01*
X48824968Y-78676128D02*
X48467826Y-78676128D01*
X48467826Y-78676128D02*
X48324968Y-78604700D01*
X48324968Y-78604700D02*
X48253540Y-78461842D01*
X48253540Y-78461842D02*
X48253540Y-78318985D01*
X48253540Y-78318985D02*
X48324968Y-78176128D01*
X48324968Y-78176128D02*
X48467826Y-78104700D01*
X48467826Y-78104700D02*
X48824968Y-78104700D01*
X48824968Y-78104700D02*
X48967826Y-78033271D01*
X49682111Y-77676128D02*
X49682111Y-78676128D01*
X49682111Y-77818985D02*
X49753540Y-77747557D01*
X49753540Y-77747557D02*
X49896397Y-77676128D01*
X49896397Y-77676128D02*
X50110683Y-77676128D01*
X50110683Y-77676128D02*
X50253540Y-77747557D01*
X50253540Y-77747557D02*
X50324969Y-77890414D01*
X50324969Y-77890414D02*
X50324969Y-78676128D01*
X51682112Y-78676128D02*
X51682112Y-77176128D01*
X51682112Y-78604700D02*
X51539254Y-78676128D01*
X51539254Y-78676128D02*
X51253540Y-78676128D01*
X51253540Y-78676128D02*
X51110683Y-78604700D01*
X51110683Y-78604700D02*
X51039254Y-78533271D01*
X51039254Y-78533271D02*
X50967826Y-78390414D01*
X50967826Y-78390414D02*
X50967826Y-77961842D01*
X50967826Y-77961842D02*
X51039254Y-77818985D01*
X51039254Y-77818985D02*
X51110683Y-77747557D01*
X51110683Y-77747557D02*
X51253540Y-77676128D01*
X51253540Y-77676128D02*
X51539254Y-77676128D01*
X51539254Y-77676128D02*
X51682112Y-77747557D01*
X53539254Y-78676128D02*
X53539254Y-77176128D01*
X53539254Y-77176128D02*
X54039254Y-78247557D01*
X54039254Y-78247557D02*
X54539254Y-77176128D01*
X54539254Y-77176128D02*
X54539254Y-78676128D01*
X55896398Y-78676128D02*
X55896398Y-77890414D01*
X55896398Y-77890414D02*
X55824969Y-77747557D01*
X55824969Y-77747557D02*
X55682112Y-77676128D01*
X55682112Y-77676128D02*
X55396398Y-77676128D01*
X55396398Y-77676128D02*
X55253540Y-77747557D01*
X55896398Y-78604700D02*
X55753540Y-78676128D01*
X55753540Y-78676128D02*
X55396398Y-78676128D01*
X55396398Y-78676128D02*
X55253540Y-78604700D01*
X55253540Y-78604700D02*
X55182112Y-78461842D01*
X55182112Y-78461842D02*
X55182112Y-78318985D01*
X55182112Y-78318985D02*
X55253540Y-78176128D01*
X55253540Y-78176128D02*
X55396398Y-78104700D01*
X55396398Y-78104700D02*
X55753540Y-78104700D01*
X55753540Y-78104700D02*
X55896398Y-78033271D01*
X56539255Y-78604700D02*
X56682112Y-78676128D01*
X56682112Y-78676128D02*
X56967826Y-78676128D01*
X56967826Y-78676128D02*
X57110683Y-78604700D01*
X57110683Y-78604700D02*
X57182112Y-78461842D01*
X57182112Y-78461842D02*
X57182112Y-78390414D01*
X57182112Y-78390414D02*
X57110683Y-78247557D01*
X57110683Y-78247557D02*
X56967826Y-78176128D01*
X56967826Y-78176128D02*
X56753541Y-78176128D01*
X56753541Y-78176128D02*
X56610683Y-78104700D01*
X56610683Y-78104700D02*
X56539255Y-77961842D01*
X56539255Y-77961842D02*
X56539255Y-77890414D01*
X56539255Y-77890414D02*
X56610683Y-77747557D01*
X56610683Y-77747557D02*
X56753541Y-77676128D01*
X56753541Y-77676128D02*
X56967826Y-77676128D01*
X56967826Y-77676128D02*
X57110683Y-77747557D01*
X57753541Y-78604700D02*
X57896398Y-78676128D01*
X57896398Y-78676128D02*
X58182112Y-78676128D01*
X58182112Y-78676128D02*
X58324969Y-78604700D01*
X58324969Y-78604700D02*
X58396398Y-78461842D01*
X58396398Y-78461842D02*
X58396398Y-78390414D01*
X58396398Y-78390414D02*
X58324969Y-78247557D01*
X58324969Y-78247557D02*
X58182112Y-78176128D01*
X58182112Y-78176128D02*
X57967827Y-78176128D01*
X57967827Y-78176128D02*
X57824969Y-78104700D01*
X57824969Y-78104700D02*
X57753541Y-77961842D01*
X57753541Y-77961842D02*
X57753541Y-77890414D01*
X57753541Y-77890414D02*
X57824969Y-77747557D01*
X57824969Y-77747557D02*
X57967827Y-77676128D01*
X57967827Y-77676128D02*
X58182112Y-77676128D01*
X58182112Y-77676128D02*
X58324969Y-77747557D01*
X59253541Y-78676128D02*
X59110684Y-78604700D01*
X59110684Y-78604700D02*
X59039255Y-78533271D01*
X59039255Y-78533271D02*
X58967827Y-78390414D01*
X58967827Y-78390414D02*
X58967827Y-77961842D01*
X58967827Y-77961842D02*
X59039255Y-77818985D01*
X59039255Y-77818985D02*
X59110684Y-77747557D01*
X59110684Y-77747557D02*
X59253541Y-77676128D01*
X59253541Y-77676128D02*
X59467827Y-77676128D01*
X59467827Y-77676128D02*
X59610684Y-77747557D01*
X59610684Y-77747557D02*
X59682113Y-77818985D01*
X59682113Y-77818985D02*
X59753541Y-77961842D01*
X59753541Y-77961842D02*
X59753541Y-78390414D01*
X59753541Y-78390414D02*
X59682113Y-78533271D01*
X59682113Y-78533271D02*
X59610684Y-78604700D01*
X59610684Y-78604700D02*
X59467827Y-78676128D01*
X59467827Y-78676128D02*
X59253541Y-78676128D01*
X60182113Y-77676128D02*
X60753541Y-77676128D01*
X60396398Y-77176128D02*
X60396398Y-78461842D01*
X60396398Y-78461842D02*
X60467827Y-78604700D01*
X60467827Y-78604700D02*
X60610684Y-78676128D01*
X60610684Y-78676128D02*
X60753541Y-78676128D01*
X61324970Y-78604700D02*
X61324970Y-78676128D01*
X61324970Y-78676128D02*
X61253541Y-78818985D01*
X61253541Y-78818985D02*
X61182113Y-78890414D01*
X63110684Y-78676128D02*
X63110684Y-77176128D01*
X63110684Y-77176128D02*
X63610684Y-78247557D01*
X63610684Y-78247557D02*
X64110684Y-77176128D01*
X64110684Y-77176128D02*
X64110684Y-78676128D01*
X65467828Y-78676128D02*
X65467828Y-77890414D01*
X65467828Y-77890414D02*
X65396399Y-77747557D01*
X65396399Y-77747557D02*
X65253542Y-77676128D01*
X65253542Y-77676128D02*
X64967828Y-77676128D01*
X64967828Y-77676128D02*
X64824970Y-77747557D01*
X65467828Y-78604700D02*
X65324970Y-78676128D01*
X65324970Y-78676128D02*
X64967828Y-78676128D01*
X64967828Y-78676128D02*
X64824970Y-78604700D01*
X64824970Y-78604700D02*
X64753542Y-78461842D01*
X64753542Y-78461842D02*
X64753542Y-78318985D01*
X64753542Y-78318985D02*
X64824970Y-78176128D01*
X64824970Y-78176128D02*
X64967828Y-78104700D01*
X64967828Y-78104700D02*
X65324970Y-78104700D01*
X65324970Y-78104700D02*
X65467828Y-78033271D01*
X65967828Y-77676128D02*
X66539256Y-77676128D01*
X66182113Y-77176128D02*
X66182113Y-78461842D01*
X66182113Y-78461842D02*
X66253542Y-78604700D01*
X66253542Y-78604700D02*
X66396399Y-78676128D01*
X66396399Y-78676128D02*
X66539256Y-78676128D01*
X66824971Y-77676128D02*
X67396399Y-77676128D01*
X67039256Y-77176128D02*
X67039256Y-78461842D01*
X67039256Y-78461842D02*
X67110685Y-78604700D01*
X67110685Y-78604700D02*
X67253542Y-78676128D01*
X67253542Y-78676128D02*
X67396399Y-78676128D01*
X67896399Y-78676128D02*
X67896399Y-77176128D01*
X68539257Y-78676128D02*
X68539257Y-77890414D01*
X68539257Y-77890414D02*
X68467828Y-77747557D01*
X68467828Y-77747557D02*
X68324971Y-77676128D01*
X68324971Y-77676128D02*
X68110685Y-77676128D01*
X68110685Y-77676128D02*
X67967828Y-77747557D01*
X67967828Y-77747557D02*
X67896399Y-77818985D01*
X69253542Y-78676128D02*
X69253542Y-77676128D01*
X69253542Y-77176128D02*
X69182114Y-77247557D01*
X69182114Y-77247557D02*
X69253542Y-77318985D01*
X69253542Y-77318985D02*
X69324971Y-77247557D01*
X69324971Y-77247557D02*
X69253542Y-77176128D01*
X69253542Y-77176128D02*
X69253542Y-77318985D01*
X70539257Y-78604700D02*
X70396400Y-78676128D01*
X70396400Y-78676128D02*
X70110686Y-78676128D01*
X70110686Y-78676128D02*
X69967828Y-78604700D01*
X69967828Y-78604700D02*
X69896400Y-78461842D01*
X69896400Y-78461842D02*
X69896400Y-77890414D01*
X69896400Y-77890414D02*
X69967828Y-77747557D01*
X69967828Y-77747557D02*
X70110686Y-77676128D01*
X70110686Y-77676128D02*
X70396400Y-77676128D01*
X70396400Y-77676128D02*
X70539257Y-77747557D01*
X70539257Y-77747557D02*
X70610686Y-77890414D01*
X70610686Y-77890414D02*
X70610686Y-78033271D01*
X70610686Y-78033271D02*
X69896400Y-78176128D01*
X71896400Y-77676128D02*
X71896400Y-78676128D01*
X71253542Y-77676128D02*
X71253542Y-78461842D01*
X71253542Y-78461842D02*
X71324971Y-78604700D01*
X71324971Y-78604700D02*
X71467828Y-78676128D01*
X71467828Y-78676128D02*
X71682114Y-78676128D01*
X71682114Y-78676128D02*
X71824971Y-78604700D01*
X71824971Y-78604700D02*
X71896400Y-78533271D01*
X73753542Y-78676128D02*
X73753542Y-77176128D01*
X73753542Y-77176128D02*
X74253542Y-78247557D01*
X74253542Y-78247557D02*
X74753542Y-77176128D01*
X74753542Y-77176128D02*
X74753542Y-78676128D01*
X76039257Y-78604700D02*
X75896400Y-78676128D01*
X75896400Y-78676128D02*
X75610686Y-78676128D01*
X75610686Y-78676128D02*
X75467828Y-78604700D01*
X75467828Y-78604700D02*
X75396400Y-78461842D01*
X75396400Y-78461842D02*
X75396400Y-77890414D01*
X75396400Y-77890414D02*
X75467828Y-77747557D01*
X75467828Y-77747557D02*
X75610686Y-77676128D01*
X75610686Y-77676128D02*
X75896400Y-77676128D01*
X75896400Y-77676128D02*
X76039257Y-77747557D01*
X76039257Y-77747557D02*
X76110686Y-77890414D01*
X76110686Y-77890414D02*
X76110686Y-78033271D01*
X76110686Y-78033271D02*
X75396400Y-78176128D01*
X76682114Y-78604700D02*
X76824971Y-78676128D01*
X76824971Y-78676128D02*
X77110685Y-78676128D01*
X77110685Y-78676128D02*
X77253542Y-78604700D01*
X77253542Y-78604700D02*
X77324971Y-78461842D01*
X77324971Y-78461842D02*
X77324971Y-78390414D01*
X77324971Y-78390414D02*
X77253542Y-78247557D01*
X77253542Y-78247557D02*
X77110685Y-78176128D01*
X77110685Y-78176128D02*
X76896400Y-78176128D01*
X76896400Y-78176128D02*
X76753542Y-78104700D01*
X76753542Y-78104700D02*
X76682114Y-77961842D01*
X76682114Y-77961842D02*
X76682114Y-77890414D01*
X76682114Y-77890414D02*
X76753542Y-77747557D01*
X76753542Y-77747557D02*
X76896400Y-77676128D01*
X76896400Y-77676128D02*
X77110685Y-77676128D01*
X77110685Y-77676128D02*
X77253542Y-77747557D01*
X77967828Y-77676128D02*
X77967828Y-78676128D01*
X77967828Y-77818985D02*
X78039257Y-77747557D01*
X78039257Y-77747557D02*
X78182114Y-77676128D01*
X78182114Y-77676128D02*
X78396400Y-77676128D01*
X78396400Y-77676128D02*
X78539257Y-77747557D01*
X78539257Y-77747557D02*
X78610686Y-77890414D01*
X78610686Y-77890414D02*
X78610686Y-78676128D01*
X79967829Y-78676128D02*
X79967829Y-77890414D01*
X79967829Y-77890414D02*
X79896400Y-77747557D01*
X79896400Y-77747557D02*
X79753543Y-77676128D01*
X79753543Y-77676128D02*
X79467829Y-77676128D01*
X79467829Y-77676128D02*
X79324971Y-77747557D01*
X79967829Y-78604700D02*
X79824971Y-78676128D01*
X79824971Y-78676128D02*
X79467829Y-78676128D01*
X79467829Y-78676128D02*
X79324971Y-78604700D01*
X79324971Y-78604700D02*
X79253543Y-78461842D01*
X79253543Y-78461842D02*
X79253543Y-78318985D01*
X79253543Y-78318985D02*
X79324971Y-78176128D01*
X79324971Y-78176128D02*
X79467829Y-78104700D01*
X79467829Y-78104700D02*
X79824971Y-78104700D01*
X79824971Y-78104700D02*
X79967829Y-78033271D01*
X81324972Y-77676128D02*
X81324972Y-78890414D01*
X81324972Y-78890414D02*
X81253543Y-79033271D01*
X81253543Y-79033271D02*
X81182114Y-79104700D01*
X81182114Y-79104700D02*
X81039257Y-79176128D01*
X81039257Y-79176128D02*
X80824972Y-79176128D01*
X80824972Y-79176128D02*
X80682114Y-79104700D01*
X81324972Y-78604700D02*
X81182114Y-78676128D01*
X81182114Y-78676128D02*
X80896400Y-78676128D01*
X80896400Y-78676128D02*
X80753543Y-78604700D01*
X80753543Y-78604700D02*
X80682114Y-78533271D01*
X80682114Y-78533271D02*
X80610686Y-78390414D01*
X80610686Y-78390414D02*
X80610686Y-77961842D01*
X80610686Y-77961842D02*
X80682114Y-77818985D01*
X80682114Y-77818985D02*
X80753543Y-77747557D01*
X80753543Y-77747557D02*
X80896400Y-77676128D01*
X80896400Y-77676128D02*
X81182114Y-77676128D01*
X81182114Y-77676128D02*
X81324972Y-77747557D01*
X82610686Y-78604700D02*
X82467829Y-78676128D01*
X82467829Y-78676128D02*
X82182115Y-78676128D01*
X82182115Y-78676128D02*
X82039257Y-78604700D01*
X82039257Y-78604700D02*
X81967829Y-78461842D01*
X81967829Y-78461842D02*
X81967829Y-77890414D01*
X81967829Y-77890414D02*
X82039257Y-77747557D01*
X82039257Y-77747557D02*
X82182115Y-77676128D01*
X82182115Y-77676128D02*
X82467829Y-77676128D01*
X82467829Y-77676128D02*
X82610686Y-77747557D01*
X82610686Y-77747557D02*
X82682115Y-77890414D01*
X82682115Y-77890414D02*
X82682115Y-78033271D01*
X82682115Y-78033271D02*
X81967829Y-78176128D01*
X83396400Y-78604700D02*
X83396400Y-78676128D01*
X83396400Y-78676128D02*
X83324971Y-78818985D01*
X83324971Y-78818985D02*
X83253543Y-78890414D01*
X85182114Y-78676128D02*
X85182114Y-77176128D01*
X85182114Y-77890414D02*
X86039257Y-77890414D01*
X86039257Y-78676128D02*
X86039257Y-77176128D01*
X87396401Y-77676128D02*
X87396401Y-78676128D01*
X86753543Y-77676128D02*
X86753543Y-78461842D01*
X86753543Y-78461842D02*
X86824972Y-78604700D01*
X86824972Y-78604700D02*
X86967829Y-78676128D01*
X86967829Y-78676128D02*
X87182115Y-78676128D01*
X87182115Y-78676128D02*
X87324972Y-78604700D01*
X87324972Y-78604700D02*
X87396401Y-78533271D01*
X88753544Y-77676128D02*
X88753544Y-78890414D01*
X88753544Y-78890414D02*
X88682115Y-79033271D01*
X88682115Y-79033271D02*
X88610686Y-79104700D01*
X88610686Y-79104700D02*
X88467829Y-79176128D01*
X88467829Y-79176128D02*
X88253544Y-79176128D01*
X88253544Y-79176128D02*
X88110686Y-79104700D01*
X88753544Y-78604700D02*
X88610686Y-78676128D01*
X88610686Y-78676128D02*
X88324972Y-78676128D01*
X88324972Y-78676128D02*
X88182115Y-78604700D01*
X88182115Y-78604700D02*
X88110686Y-78533271D01*
X88110686Y-78533271D02*
X88039258Y-78390414D01*
X88039258Y-78390414D02*
X88039258Y-77961842D01*
X88039258Y-77961842D02*
X88110686Y-77818985D01*
X88110686Y-77818985D02*
X88182115Y-77747557D01*
X88182115Y-77747557D02*
X88324972Y-77676128D01*
X88324972Y-77676128D02*
X88610686Y-77676128D01*
X88610686Y-77676128D02*
X88753544Y-77747557D01*
X89682115Y-78676128D02*
X89539258Y-78604700D01*
X89539258Y-78604700D02*
X89467829Y-78533271D01*
X89467829Y-78533271D02*
X89396401Y-78390414D01*
X89396401Y-78390414D02*
X89396401Y-77961842D01*
X89396401Y-77961842D02*
X89467829Y-77818985D01*
X89467829Y-77818985D02*
X89539258Y-77747557D01*
X89539258Y-77747557D02*
X89682115Y-77676128D01*
X89682115Y-77676128D02*
X89896401Y-77676128D01*
X89896401Y-77676128D02*
X90039258Y-77747557D01*
X90039258Y-77747557D02*
X90110687Y-77818985D01*
X90110687Y-77818985D02*
X90182115Y-77961842D01*
X90182115Y-77961842D02*
X90182115Y-78390414D01*
X90182115Y-78390414D02*
X90110687Y-78533271D01*
X90110687Y-78533271D02*
X90039258Y-78604700D01*
X90039258Y-78604700D02*
X89896401Y-78676128D01*
X89896401Y-78676128D02*
X89682115Y-78676128D01*
X92467829Y-77890414D02*
X92682115Y-77961842D01*
X92682115Y-77961842D02*
X92753544Y-78033271D01*
X92753544Y-78033271D02*
X92824972Y-78176128D01*
X92824972Y-78176128D02*
X92824972Y-78390414D01*
X92824972Y-78390414D02*
X92753544Y-78533271D01*
X92753544Y-78533271D02*
X92682115Y-78604700D01*
X92682115Y-78604700D02*
X92539258Y-78676128D01*
X92539258Y-78676128D02*
X91967829Y-78676128D01*
X91967829Y-78676128D02*
X91967829Y-77176128D01*
X91967829Y-77176128D02*
X92467829Y-77176128D01*
X92467829Y-77176128D02*
X92610687Y-77247557D01*
X92610687Y-77247557D02*
X92682115Y-77318985D01*
X92682115Y-77318985D02*
X92753544Y-77461842D01*
X92753544Y-77461842D02*
X92753544Y-77604700D01*
X92753544Y-77604700D02*
X92682115Y-77747557D01*
X92682115Y-77747557D02*
X92610687Y-77818985D01*
X92610687Y-77818985D02*
X92467829Y-77890414D01*
X92467829Y-77890414D02*
X91967829Y-77890414D01*
X94110687Y-77676128D02*
X94110687Y-78676128D01*
X93467829Y-77676128D02*
X93467829Y-78461842D01*
X93467829Y-78461842D02*
X93539258Y-78604700D01*
X93539258Y-78604700D02*
X93682115Y-78676128D01*
X93682115Y-78676128D02*
X93896401Y-78676128D01*
X93896401Y-78676128D02*
X94039258Y-78604700D01*
X94039258Y-78604700D02*
X94110687Y-78533271D01*
X94682115Y-77676128D02*
X95039258Y-78676128D01*
X95396401Y-77676128D02*
X95039258Y-78676128D01*
X95039258Y-78676128D02*
X94896401Y-79033271D01*
X94896401Y-79033271D02*
X94824972Y-79104700D01*
X94824972Y-79104700D02*
X94682115Y-79176128D01*
D10*
D11*
X50012000Y-101490000D02*
X50012000Y-104490000D01*
D10*
D11*
X114012000Y-101490000D02*
X114012000Y-107990000D01*
X43900000Y-26250000D02*
X49050000Y-26250000D01*
X49050000Y-29050000D01*
X43900000Y-29050000D01*
X43900000Y-26250000D01*
G36*
X50364000Y-28397012D02*
G01*
X49551159Y-28397012D01*
X49551159Y-28290326D01*
X50364000Y-28290326D01*
X50364000Y-28397012D01*
G37*
G36*
X50097872Y-28140264D02*
G01*
X50088884Y-28039831D01*
X50096685Y-28038854D01*
X50108054Y-28037114D01*
X50119024Y-28035044D01*
X50129596Y-28032644D01*
X50139769Y-28029915D01*
X50149544Y-28026856D01*
X50158921Y-28023467D01*
X50167899Y-28019748D01*
X50176479Y-28015700D01*
X50184660Y-28011322D01*
X50192443Y-28006614D01*
X50199891Y-28001452D01*
X50207068Y-27995786D01*
X50213974Y-27989614D01*
X50220608Y-27982938D01*
X50226970Y-27975756D01*
X50233062Y-27968070D01*
X50238882Y-27959879D01*
X50244430Y-27951183D01*
X50249708Y-27941982D01*
X50254714Y-27932276D01*
X50257900Y-27925525D01*
X50262335Y-27915075D01*
X50266334Y-27904388D01*
X50269896Y-27893464D01*
X50273022Y-27882304D01*
X50275712Y-27870906D01*
X50277263Y-27863175D01*
X50278620Y-27855340D01*
X50279783Y-27847399D01*
X50280753Y-27839352D01*
X50281528Y-27831201D01*
X50282110Y-27822944D01*
X50282497Y-27814582D01*
X50282691Y-27806114D01*
X50282715Y-27801841D01*
X50282556Y-27790536D01*
X50282077Y-27779481D01*
X50281278Y-27768677D01*
X50280160Y-27758124D01*
X50278723Y-27747822D01*
X50276966Y-27737771D01*
X50274890Y-27727970D01*
X50272494Y-27718420D01*
X50269779Y-27709120D01*
X50266744Y-27700072D01*
X50264544Y-27694179D01*
X50260981Y-27685599D01*
X50257182Y-27677445D01*
X50253146Y-27669717D01*
X50248873Y-27662415D01*
X50244362Y-27655539D01*
X50239615Y-27649088D01*
X50234631Y-27643064D01*
X50227616Y-27635694D01*
X50220181Y-27629081D01*
X50214327Y-27624618D01*
X50206228Y-27619260D01*
X50197951Y-27614616D01*
X50189497Y-27610687D01*
X50180866Y-27607472D01*
X50172058Y-27604972D01*
X50163073Y-27603186D01*
X50153911Y-27602114D01*
X50144572Y-27601757D01*
X50135196Y-27602102D01*
X50126119Y-27603137D01*
X50117342Y-27604862D01*
X50108863Y-27607277D01*
X50100684Y-27610382D01*
X50092804Y-27614177D01*
X50085224Y-27618662D01*
X50077942Y-27623837D01*
X50070908Y-27629756D01*
X50064167Y-27636574D01*
X50057719Y-27644289D01*
X50053075Y-27650664D01*
X50048596Y-27657544D01*
X50044283Y-27664930D01*
X50040133Y-27672820D01*
X50036149Y-27681214D01*
X50032330Y-27690114D01*
X50029875Y-27696328D01*
X50026480Y-27705664D01*
X50023646Y-27714277D01*
X50020564Y-27724271D01*
X50017234Y-27735645D01*
X50014877Y-27743995D01*
X50012410Y-27752959D01*
X50009834Y-27762536D01*
X50007147Y-27772727D01*
X50004350Y-27783532D01*
X50001444Y-27794950D01*
X49998427Y-27806982D01*
X49995301Y-27819628D01*
X49992065Y-27832888D01*
X49990406Y-27839747D01*
X49987047Y-27853361D01*
X49983713Y-27866455D01*
X49980404Y-27879031D01*
X49977119Y-27891087D01*
X49973858Y-27902625D01*
X49970622Y-27913643D01*
X49967410Y-27924142D01*
X49964223Y-27934123D01*
X49961060Y-27943584D01*
X49957921Y-27952526D01*
X49954807Y-27960950D01*
X49951718Y-27968854D01*
X49948652Y-27976239D01*
X49944100Y-27986344D01*
X49939603Y-27995281D01*
X49935712Y-28002372D01*
X49931708Y-28009234D01*
X49925490Y-28019097D01*
X49919018Y-28028445D01*
X49912292Y-28037278D01*
X49905311Y-28045595D01*
X49898077Y-28053398D01*
X49890588Y-28060685D01*
X49882845Y-28067457D01*
X49874848Y-28073714D01*
X49866597Y-28079455D01*
X49863790Y-28081255D01*
X49855231Y-28086318D01*
X49846479Y-28090883D01*
X49837536Y-28094950D01*
X49828399Y-28098520D01*
X49819071Y-28101591D01*
X49809550Y-28104164D01*
X49799837Y-28106239D01*
X49789931Y-28107816D01*
X49779833Y-28108895D01*
X49769543Y-28109476D01*
X49762576Y-28109587D01*
X49751108Y-28109283D01*
X49739783Y-28108371D01*
X49728604Y-28106851D01*
X49717568Y-28104723D01*
X49706677Y-28101988D01*
X49695930Y-28098644D01*
X49685327Y-28094692D01*
X49674868Y-28090133D01*
X49664554Y-28084965D01*
X49654384Y-28079190D01*
X49647684Y-28075002D01*
X49641093Y-28070531D01*
X49634703Y-28065812D01*
X49628514Y-28060847D01*
X49622527Y-28055634D01*
X49616742Y-28050173D01*
X49611158Y-28044466D01*
X49605775Y-28038511D01*
X49600594Y-28032308D01*
X49595615Y-28025859D01*
X49590837Y-28019162D01*
X49586260Y-28012218D01*
X49581885Y-28005026D01*
X49577712Y-27997588D01*
X49573740Y-27989902D01*
X49569969Y-27981968D01*
X49566400Y-27973788D01*
X49563040Y-27965425D01*
X49559897Y-27956944D01*
X49556971Y-27948346D01*
X49554261Y-27939630D01*
X49551768Y-27930797D01*
X49549492Y-27921846D01*
X49547433Y-27912778D01*
X49545591Y-27903592D01*
X49543965Y-27894289D01*
X49542556Y-27884868D01*
X49541364Y-27875330D01*
X49540388Y-27865674D01*
X49539630Y-27855900D01*
X49539088Y-27846009D01*
X49538762Y-27836000D01*
X49538654Y-27825874D01*
X49538768Y-27814770D01*
X49539109Y-27803831D01*
X49539678Y-27793057D01*
X49540474Y-27782448D01*
X49541497Y-27772003D01*
X49542748Y-27761724D01*
X49544227Y-27751609D01*
X49545933Y-27741659D01*
X49547866Y-27731874D01*
X49550027Y-27722254D01*
X49552415Y-27712799D01*
X49555031Y-27703509D01*
X49557874Y-27694383D01*
X49560944Y-27685422D01*
X49564242Y-27676627D01*
X49567768Y-27667996D01*
X49571490Y-27659571D01*
X49575428Y-27651393D01*
X49579581Y-27643463D01*
X49583949Y-27635780D01*
X49588532Y-27628344D01*
X49593331Y-27621156D01*
X49598345Y-27614215D01*
X49603574Y-27607521D01*
X49609018Y-27601075D01*
X49614678Y-27594876D01*
X49620553Y-27588924D01*
X49626643Y-27583219D01*
X49632948Y-27577762D01*
X49639468Y-27572552D01*
X49646204Y-27567589D01*
X49653155Y-27562874D01*
X49660272Y-27558391D01*
X49667504Y-27554176D01*
X49674853Y-27550227D01*
X49682318Y-27546546D01*
X49689898Y-27543132D01*
X49697595Y-27539985D01*
X49705408Y-27537105D01*
X49713337Y-27534493D01*
X49721381Y-27532147D01*
X49729542Y-27530069D01*
X49737819Y-27528258D01*
X49746212Y-27526713D01*
X49754720Y-27525437D01*
X49763345Y-27524427D01*
X49772086Y-27523684D01*
X49780943Y-27523209D01*
X49788759Y-27625400D01*
X49779235Y-27626580D01*
X49770007Y-27628068D01*
X49761075Y-27629865D01*
X49752440Y-27631970D01*
X49744100Y-27634383D01*
X49736057Y-27637105D01*
X49728310Y-27640135D01*
X49720859Y-27643474D01*
X49713704Y-27647121D01*
X49706846Y-27651076D01*
X49700283Y-27655339D01*
X49690995Y-27662313D01*
X49682373Y-27669980D01*
X49674417Y-27678341D01*
X49671913Y-27681283D01*
X49664859Y-27690584D01*
X49660542Y-27697227D01*
X49656534Y-27704225D01*
X49652833Y-27711576D01*
X49649441Y-27719282D01*
X49646358Y-27727342D01*
X49643583Y-27735756D01*
X49641116Y-27744525D01*
X49638957Y-27753647D01*
X49637107Y-27763124D01*
X49635565Y-27772955D01*
X49634332Y-27783139D01*
X49633407Y-27793679D01*
X49632790Y-27804572D01*
X49632482Y-27815819D01*
X49632443Y-27821576D01*
X49632583Y-27833461D01*
X49633002Y-27844937D01*
X49633700Y-27856005D01*
X49634678Y-27866663D01*
X49635935Y-27876912D01*
X49637472Y-27886752D01*
X49639287Y-27896183D01*
X49641383Y-27905204D01*
X49643757Y-27913817D01*
X49646411Y-27922020D01*
X49649344Y-27929815D01*
X49652557Y-27937200D01*
X49657899Y-27947511D01*
X49663871Y-27956901D01*
X49668200Y-27962650D01*
X49674999Y-27970542D01*
X49682058Y-27977657D01*
X49689379Y-27983997D01*
X49696960Y-27989560D01*
X49704803Y-27994347D01*
X49712906Y-27998357D01*
X49721271Y-28001591D01*
X49729896Y-28004049D01*
X49738783Y-28005731D01*
X49747931Y-28006637D01*
X49754174Y-28006809D01*
X49762243Y-28006533D01*
X49770038Y-28005703D01*
X49780003Y-28003737D01*
X49789479Y-28000788D01*
X49798467Y-27996856D01*
X49806967Y-27991940D01*
X49814978Y-27986042D01*
X49822501Y-27979160D01*
X49826079Y-27975351D01*
X49831368Y-27968727D01*
X49836685Y-27960357D01*
X49842030Y-27950244D01*
X49845608Y-27942532D01*
X49849198Y-27934044D01*
X49852801Y-27924781D01*
X49856416Y-27914743D01*
X49860043Y-27903929D01*
X49863682Y-27892340D01*
X49867333Y-27879975D01*
X49870997Y-27866835D01*
X49874673Y-27852919D01*
X49878361Y-27838228D01*
X49880209Y-27830591D01*
X49882061Y-27822761D01*
X49883916Y-27814737D01*
X49885753Y-27806695D01*
X49887576Y-27798813D01*
X49889384Y-27791090D01*
X49892959Y-27776121D01*
X49896478Y-27761788D01*
X49899940Y-27748092D01*
X49903346Y-27735033D01*
X49906695Y-27722610D01*
X49909988Y-27710824D01*
X49913224Y-27699674D01*
X49916404Y-27689161D01*
X49919527Y-27679285D01*
X49922594Y-27670045D01*
X49925604Y-27661441D01*
X49928558Y-27653474D01*
X49931455Y-27646144D01*
X49935695Y-27636342D01*
X49939842Y-27627693D01*
X49944125Y-27619333D01*
X49948543Y-27611262D01*
X49953098Y-27603479D01*
X49957788Y-27595985D01*
X49962614Y-27588779D01*
X49967576Y-27581861D01*
X49972674Y-27575232D01*
X49977907Y-27568892D01*
X49983277Y-27562840D01*
X49988782Y-27557077D01*
X49994423Y-27551602D01*
X50003140Y-27543930D01*
X50012162Y-27536908D01*
X50018347Y-27532587D01*
X50027860Y-27526581D01*
X50037641Y-27521166D01*
X50047689Y-27516342D01*
X50058006Y-27512108D01*
X50068590Y-27508465D01*
X50079443Y-27505412D01*
X50090563Y-27502951D01*
X50101951Y-27501080D01*
X50113607Y-27499800D01*
X50121527Y-27499275D01*
X50129566Y-27499012D01*
X50133630Y-27498980D01*
X50141685Y-27499124D01*
X50149683Y-27499557D01*
X50157622Y-27500278D01*
X50165503Y-27501288D01*
X50173327Y-27502586D01*
X50181092Y-27504173D01*
X50188800Y-27506048D01*
X50196449Y-27508212D01*
X50204040Y-27510664D01*
X50211574Y-27513405D01*
X50219049Y-27516435D01*
X50226466Y-27519753D01*
X50233826Y-27523359D01*
X50241127Y-27527254D01*
X50248370Y-27531437D01*
X50255556Y-27535909D01*
X50262613Y-27540627D01*
X50269471Y-27545596D01*
X50276132Y-27550818D01*
X50282593Y-27556291D01*
X50288857Y-27562016D01*
X50294922Y-27567994D01*
X50300788Y-27574222D01*
X50306456Y-27580703D01*
X50311925Y-27587436D01*
X50317196Y-27594421D01*
X50322269Y-27601657D01*
X50327143Y-27609145D01*
X50331819Y-27616886D01*
X50336296Y-27624878D01*
X50340575Y-27633122D01*
X50344655Y-27641617D01*
X50348512Y-27650306D01*
X50352120Y-27659130D01*
X50355479Y-27668087D01*
X50358590Y-27677179D01*
X50361451Y-27686406D01*
X50364064Y-27695766D01*
X50366427Y-27705261D01*
X50368542Y-27714890D01*
X50370409Y-27724654D01*
X50372026Y-27734552D01*
X50373394Y-27744584D01*
X50374514Y-27754751D01*
X50375385Y-27765052D01*
X50376007Y-27775487D01*
X50376380Y-27786057D01*
X50376505Y-27796761D01*
X50376377Y-27810300D01*
X50375995Y-27823563D01*
X50375358Y-27836550D01*
X50374465Y-27849261D01*
X50373318Y-27861695D01*
X50371916Y-27873853D01*
X50370259Y-27885734D01*
X50368347Y-27897340D01*
X50366180Y-27908669D01*
X50363758Y-27919722D01*
X50361082Y-27930498D01*
X50358150Y-27940998D01*
X50354963Y-27951222D01*
X50351522Y-27961170D01*
X50347825Y-27970841D01*
X50343874Y-27980236D01*
X50339668Y-27989344D01*
X50335206Y-27998203D01*
X50330490Y-28006813D01*
X50325519Y-28015175D01*
X50320293Y-28023287D01*
X50314812Y-28031151D01*
X50309076Y-28038766D01*
X50303085Y-28046132D01*
X50296840Y-28053250D01*
X50290339Y-28060118D01*
X50283583Y-28066738D01*
X50276573Y-28073109D01*
X50269307Y-28079231D01*
X50261787Y-28085104D01*
X50254012Y-28090729D01*
X50245981Y-28096105D01*
X50237732Y-28101200D01*
X50229348Y-28105984D01*
X50220830Y-28110457D01*
X50212178Y-28114618D01*
X50203392Y-28118468D01*
X50194471Y-28122007D01*
X50185415Y-28125234D01*
X50176226Y-28128149D01*
X50166902Y-28130753D01*
X50157443Y-28133046D01*
X50147851Y-28135028D01*
X50138124Y-28136698D01*
X50128262Y-28138056D01*
X50118267Y-28139104D01*
X50108137Y-28139839D01*
X50097872Y-28140264D01*
G37*
G36*
X49798625Y-26742864D02*
G01*
X49811174Y-26743631D01*
X49823476Y-26744910D01*
X49835531Y-26746699D01*
X49847339Y-26749001D01*
X49858899Y-26751813D01*
X49870212Y-26755137D01*
X49881278Y-26758973D01*
X49892096Y-26763319D01*
X49902668Y-26768178D01*
X49912991Y-26773547D01*
X49923068Y-26779428D01*
X49932897Y-26785820D01*
X49942479Y-26792724D01*
X49951814Y-26800139D01*
X49960901Y-26808066D01*
X49969585Y-26816659D01*
X49977708Y-26826075D01*
X49985271Y-26836314D01*
X49992274Y-26847376D01*
X49998717Y-26859261D01*
X50004599Y-26871969D01*
X50009921Y-26885499D01*
X50014683Y-26899852D01*
X50018885Y-26915028D01*
X50020776Y-26922924D01*
X50022527Y-26931027D01*
X50024137Y-26939334D01*
X50025608Y-26947848D01*
X50026938Y-26956567D01*
X50028129Y-26965492D01*
X50029179Y-26974623D01*
X50030090Y-26983959D01*
X50030860Y-26993501D01*
X50031490Y-27003249D01*
X50031981Y-27013203D01*
X50032331Y-27023362D01*
X50032541Y-27033727D01*
X50032611Y-27044297D01*
X50032611Y-27251024D01*
X50364000Y-27251024D01*
X50364000Y-27357710D01*
X49551159Y-27357710D01*
X49551159Y-27053676D01*
X49551187Y-27044883D01*
X49644949Y-27044883D01*
X49644949Y-27251024D01*
X49938822Y-27251024D01*
X49938822Y-27042734D01*
X49938668Y-27030048D01*
X49938208Y-27017830D01*
X49937441Y-27006082D01*
X49936367Y-26994801D01*
X49934986Y-26983990D01*
X49933299Y-26973647D01*
X49931304Y-26963773D01*
X49929003Y-26954367D01*
X49926395Y-26945430D01*
X49923480Y-26936962D01*
X49920258Y-26928962D01*
X49916730Y-26921431D01*
X49912894Y-26914368D01*
X49906566Y-26904653D01*
X49899547Y-26895993D01*
X49891903Y-26888241D01*
X49883700Y-26881251D01*
X49874936Y-26875024D01*
X49865613Y-26869560D01*
X49855730Y-26864858D01*
X49845286Y-26860918D01*
X49834284Y-26857741D01*
X49826637Y-26856047D01*
X49818742Y-26854691D01*
X49810598Y-26853674D01*
X49802205Y-26852997D01*
X49793564Y-26852658D01*
X49789150Y-26852615D01*
X49779608Y-26852840D01*
X49770328Y-26853515D01*
X49761308Y-26854640D01*
X49752550Y-26856215D01*
X49744052Y-26858240D01*
X49735816Y-26860714D01*
X49727841Y-26863639D01*
X49720127Y-26867014D01*
X49712673Y-26870838D01*
X49705481Y-26875112D01*
X49700831Y-26878212D01*
X49694162Y-26883119D01*
X49687928Y-26888315D01*
X49682131Y-26893799D01*
X49676770Y-26899571D01*
X49670301Y-26907717D01*
X49664607Y-26916375D01*
X49659689Y-26925546D01*
X49656509Y-26932761D01*
X49653765Y-26940265D01*
X49652178Y-26945428D01*
X49650095Y-26954966D01*
X49648683Y-26964196D01*
X49647773Y-26972053D01*
X49646989Y-26980710D01*
X49646332Y-26990168D01*
X49645803Y-27000425D01*
X49645400Y-27011483D01*
X49645203Y-27019300D01*
X49645062Y-27027472D01*
X49644977Y-27036000D01*
X49644949Y-27044883D01*
X49551187Y-27044883D01*
X49551190Y-27043809D01*
X49551281Y-27034237D01*
X49551434Y-27024960D01*
X49551648Y-27015977D01*
X49551923Y-27007289D01*
X49552258Y-26998895D01*
X49552655Y-26990797D01*
X49553113Y-26982992D01*
X49553915Y-26971838D01*
X49554853Y-26961347D01*
X49555930Y-26951519D01*
X49557143Y-26942353D01*
X49558494Y-26933851D01*
X49558975Y-26931164D01*
X49561002Y-26920196D01*
X49563344Y-26909569D01*
X49566002Y-26899282D01*
X49568977Y-26889334D01*
X49572267Y-26879727D01*
X49575874Y-26870460D01*
X49579796Y-26861532D01*
X49584034Y-26852945D01*
X49588589Y-26844698D01*
X49593459Y-26836791D01*
X49596882Y-26831708D01*
X49602318Y-26824335D01*
X49608150Y-26817237D01*
X49614376Y-26810413D01*
X49620997Y-26803865D01*
X49628014Y-26797591D01*
X49635425Y-26791591D01*
X49643232Y-26785867D01*
X49651433Y-26780417D01*
X49660030Y-26775242D01*
X49669021Y-26770342D01*
X49675235Y-26767228D01*
X49684740Y-26762828D01*
X49694423Y-26758861D01*
X49704285Y-26755327D01*
X49714326Y-26752225D01*
X49724545Y-26749557D01*
X49734943Y-26747321D01*
X49745519Y-26745518D01*
X49756274Y-26744147D01*
X49767208Y-26743209D01*
X49778320Y-26742705D01*
X49785828Y-26742608D01*
X49798625Y-26742864D01*
G37*
D12*
X66800225Y-40330828D02*
X67657368Y-40330828D01*
X67228796Y-41830828D02*
X67228796Y-40330828D01*
X68371653Y-41830828D02*
X68228796Y-41759400D01*
X68228796Y-41759400D02*
X68157367Y-41687971D01*
X68157367Y-41687971D02*
X68085939Y-41545114D01*
X68085939Y-41545114D02*
X68085939Y-41116542D01*
X68085939Y-41116542D02*
X68157367Y-40973685D01*
X68157367Y-40973685D02*
X68228796Y-40902257D01*
X68228796Y-40902257D02*
X68371653Y-40830828D01*
X68371653Y-40830828D02*
X68585939Y-40830828D01*
X68585939Y-40830828D02*
X68728796Y-40902257D01*
X68728796Y-40902257D02*
X68800225Y-40973685D01*
X68800225Y-40973685D02*
X68871653Y-41116542D01*
X68871653Y-41116542D02*
X68871653Y-41545114D01*
X68871653Y-41545114D02*
X68800225Y-41687971D01*
X68800225Y-41687971D02*
X68728796Y-41759400D01*
X68728796Y-41759400D02*
X68585939Y-41830828D01*
X68585939Y-41830828D02*
X68371653Y-41830828D01*
X69514510Y-40830828D02*
X69514510Y-42330828D01*
X69514510Y-40902257D02*
X69657368Y-40830828D01*
X69657368Y-40830828D02*
X69943082Y-40830828D01*
X69943082Y-40830828D02*
X70085939Y-40902257D01*
X70085939Y-40902257D02*
X70157368Y-40973685D01*
X70157368Y-40973685D02*
X70228796Y-41116542D01*
X70228796Y-41116542D02*
X70228796Y-41545114D01*
X70228796Y-41545114D02*
X70157368Y-41687971D01*
X70157368Y-41687971D02*
X70085939Y-41759400D01*
X70085939Y-41759400D02*
X69943082Y-41830828D01*
X69943082Y-41830828D02*
X69657368Y-41830828D01*
X69657368Y-41830828D02*
X69514510Y-41759400D01*
X71943082Y-41759400D02*
X72157368Y-41830828D01*
X72157368Y-41830828D02*
X72514510Y-41830828D01*
X72514510Y-41830828D02*
X72657368Y-41759400D01*
X72657368Y-41759400D02*
X72728796Y-41687971D01*
X72728796Y-41687971D02*
X72800225Y-41545114D01*
X72800225Y-41545114D02*
X72800225Y-41402257D01*
X72800225Y-41402257D02*
X72728796Y-41259400D01*
X72728796Y-41259400D02*
X72657368Y-41187971D01*
X72657368Y-41187971D02*
X72514510Y-41116542D01*
X72514510Y-41116542D02*
X72228796Y-41045114D01*
X72228796Y-41045114D02*
X72085939Y-40973685D01*
X72085939Y-40973685D02*
X72014510Y-40902257D01*
X72014510Y-40902257D02*
X71943082Y-40759400D01*
X71943082Y-40759400D02*
X71943082Y-40616542D01*
X71943082Y-40616542D02*
X72014510Y-40473685D01*
X72014510Y-40473685D02*
X72085939Y-40402257D01*
X72085939Y-40402257D02*
X72228796Y-40330828D01*
X72228796Y-40330828D02*
X72585939Y-40330828D01*
X72585939Y-40330828D02*
X72800225Y-40402257D01*
X73443081Y-41830828D02*
X73443081Y-40830828D01*
X73443081Y-40330828D02*
X73371653Y-40402257D01*
X73371653Y-40402257D02*
X73443081Y-40473685D01*
X73443081Y-40473685D02*
X73514510Y-40402257D01*
X73514510Y-40402257D02*
X73443081Y-40330828D01*
X73443081Y-40330828D02*
X73443081Y-40473685D01*
X74371653Y-41830828D02*
X74228796Y-41759400D01*
X74228796Y-41759400D02*
X74157367Y-41616542D01*
X74157367Y-41616542D02*
X74157367Y-40330828D01*
X74943081Y-41830828D02*
X74943081Y-40330828D01*
X75085939Y-41259400D02*
X75514510Y-41830828D01*
X75514510Y-40830828D02*
X74943081Y-41402257D01*
X76085939Y-41759400D02*
X76228796Y-41830828D01*
X76228796Y-41830828D02*
X76514510Y-41830828D01*
X76514510Y-41830828D02*
X76657367Y-41759400D01*
X76657367Y-41759400D02*
X76728796Y-41616542D01*
X76728796Y-41616542D02*
X76728796Y-41545114D01*
X76728796Y-41545114D02*
X76657367Y-41402257D01*
X76657367Y-41402257D02*
X76514510Y-41330828D01*
X76514510Y-41330828D02*
X76300225Y-41330828D01*
X76300225Y-41330828D02*
X76157367Y-41259400D01*
X76157367Y-41259400D02*
X76085939Y-41116542D01*
X76085939Y-41116542D02*
X76085939Y-41045114D01*
X76085939Y-41045114D02*
X76157367Y-40902257D01*
X76157367Y-40902257D02*
X76300225Y-40830828D01*
X76300225Y-40830828D02*
X76514510Y-40830828D01*
X76514510Y-40830828D02*
X76657367Y-40902257D01*
X78014511Y-41759400D02*
X77871653Y-41830828D01*
X77871653Y-41830828D02*
X77585939Y-41830828D01*
X77585939Y-41830828D02*
X77443082Y-41759400D01*
X77443082Y-41759400D02*
X77371653Y-41687971D01*
X77371653Y-41687971D02*
X77300225Y-41545114D01*
X77300225Y-41545114D02*
X77300225Y-41116542D01*
X77300225Y-41116542D02*
X77371653Y-40973685D01*
X77371653Y-40973685D02*
X77443082Y-40902257D01*
X77443082Y-40902257D02*
X77585939Y-40830828D01*
X77585939Y-40830828D02*
X77871653Y-40830828D01*
X77871653Y-40830828D02*
X78014511Y-40902257D01*
X78657367Y-41830828D02*
X78657367Y-40830828D01*
X78657367Y-41116542D02*
X78728796Y-40973685D01*
X78728796Y-40973685D02*
X78800225Y-40902257D01*
X78800225Y-40902257D02*
X78943082Y-40830828D01*
X78943082Y-40830828D02*
X79085939Y-40830828D01*
X80157367Y-41759400D02*
X80014510Y-41830828D01*
X80014510Y-41830828D02*
X79728796Y-41830828D01*
X79728796Y-41830828D02*
X79585938Y-41759400D01*
X79585938Y-41759400D02*
X79514510Y-41616542D01*
X79514510Y-41616542D02*
X79514510Y-41045114D01*
X79514510Y-41045114D02*
X79585938Y-40902257D01*
X79585938Y-40902257D02*
X79728796Y-40830828D01*
X79728796Y-40830828D02*
X80014510Y-40830828D01*
X80014510Y-40830828D02*
X80157367Y-40902257D01*
X80157367Y-40902257D02*
X80228796Y-41045114D01*
X80228796Y-41045114D02*
X80228796Y-41187971D01*
X80228796Y-41187971D02*
X79514510Y-41330828D01*
X81443081Y-41759400D02*
X81300224Y-41830828D01*
X81300224Y-41830828D02*
X81014510Y-41830828D01*
X81014510Y-41830828D02*
X80871652Y-41759400D01*
X80871652Y-41759400D02*
X80800224Y-41616542D01*
X80800224Y-41616542D02*
X80800224Y-41045114D01*
X80800224Y-41045114D02*
X80871652Y-40902257D01*
X80871652Y-40902257D02*
X81014510Y-40830828D01*
X81014510Y-40830828D02*
X81300224Y-40830828D01*
X81300224Y-40830828D02*
X81443081Y-40902257D01*
X81443081Y-40902257D02*
X81514510Y-41045114D01*
X81514510Y-41045114D02*
X81514510Y-41187971D01*
X81514510Y-41187971D02*
X80800224Y-41330828D01*
X82157366Y-40830828D02*
X82157366Y-41830828D01*
X82157366Y-40973685D02*
X82228795Y-40902257D01*
X82228795Y-40902257D02*
X82371652Y-40830828D01*
X82371652Y-40830828D02*
X82585938Y-40830828D01*
X82585938Y-40830828D02*
X82728795Y-40902257D01*
X82728795Y-40902257D02*
X82800224Y-41045114D01*
X82800224Y-41045114D02*
X82800224Y-41830828D01*
D14*
%TO.C,U6*%
X48780000Y-49700000D02*
X47120000Y-49700000D01*
X48780000Y-52800000D02*
X47120000Y-52800000D01*
D15*
X50450000Y-52250000D02*
G75*
G02*
X50250000Y-52250000I-100000J0D01*
G01*
X50250000Y-52250000D02*
G75*
G02*
X50450000Y-52250000I100000J0D01*
G01*
D16*
%TO.C,R29*%
X43140000Y-55992164D02*
X43140000Y-56207836D01*
X43860000Y-55992164D02*
X43860000Y-56207836D01*
%TO.C,C12*%
X37166029Y-33496859D02*
X37166029Y-33281187D01*
X37886029Y-33496859D02*
X37886029Y-33281187D01*
%TO.C,R13*%
X41320000Y-30403641D02*
X41320000Y-30096359D01*
X42080000Y-30403641D02*
X42080000Y-30096359D01*
%TO.C,R20*%
X39846359Y-40470000D02*
X40153641Y-40470000D01*
X39846359Y-41230000D02*
X40153641Y-41230000D01*
%TO.C,R16*%
X35796359Y-34920000D02*
X36103641Y-34920000D01*
X35796359Y-35680000D02*
X36103641Y-35680000D01*
D14*
%TO.C,U2*%
X32421029Y-48697023D02*
X32421029Y-48997023D01*
X32421029Y-48697023D02*
X32721029Y-48697023D01*
X32421029Y-51697023D02*
X32421029Y-51397023D01*
X32421029Y-51697023D02*
X32721029Y-51697023D01*
X35421029Y-48697023D02*
X35121029Y-48697023D01*
X35421029Y-48697023D02*
X35421029Y-48997023D01*
X35421029Y-51697023D02*
X35121029Y-51697023D01*
X35421029Y-51697023D02*
X35421029Y-51397023D01*
D15*
X34971029Y-47722023D02*
G75*
G02*
X34771029Y-47722023I-100000J0D01*
G01*
X34771029Y-47722023D02*
G75*
G02*
X34971029Y-47722023I100000J0D01*
G01*
D16*
%TO.C,C1*%
X37042164Y-50790000D02*
X37257836Y-50790000D01*
X37042164Y-51510000D02*
X37257836Y-51510000D01*
%TO.C,R30*%
X43120000Y-57946359D02*
X43120000Y-58253641D01*
X43880000Y-57946359D02*
X43880000Y-58253641D01*
%TO.C,C8*%
X45007836Y-49640000D02*
X44792164Y-49640000D01*
X45007836Y-50360000D02*
X44792164Y-50360000D01*
%TO.C,R8*%
X43496359Y-46820000D02*
X43803641Y-46820000D01*
X43496359Y-47580000D02*
X43803641Y-47580000D01*
%TO.C,R11*%
X35070000Y-33246359D02*
X35070000Y-33553641D01*
X35830000Y-33246359D02*
X35830000Y-33553641D01*
%TO.C,R21*%
X42353641Y-40470000D02*
X42046359Y-40470000D01*
X42353641Y-41230000D02*
X42046359Y-41230000D01*
%TO.C,C16*%
X43440000Y-40142164D02*
X43440000Y-40357836D01*
X44160000Y-40142164D02*
X44160000Y-40357836D01*
%TO.C,R12*%
X34020000Y-33246359D02*
X34020000Y-33553641D01*
X34780000Y-33246359D02*
X34780000Y-33553641D01*
%TO.C,R10*%
X36103641Y-38820000D02*
X35796359Y-38820000D01*
X36103641Y-39580000D02*
X35796359Y-39580000D01*
%TO.C,C11*%
X40215029Y-30354859D02*
X40215029Y-30139187D01*
X40935029Y-30354859D02*
X40935029Y-30139187D01*
%TO.C,R25*%
X42353641Y-39270000D02*
X42046359Y-39270000D01*
X42353641Y-40030000D02*
X42046359Y-40030000D01*
%TO.C,C4*%
X33492164Y-47090000D02*
X33707836Y-47090000D01*
X33492164Y-47810000D02*
X33707836Y-47810000D01*
%TO.C,R22*%
X48670000Y-42453641D02*
X48670000Y-42146359D01*
X49430000Y-42453641D02*
X49430000Y-42146359D01*
D14*
%TO.C,J2*%
X30500000Y-40870000D02*
X36000000Y-40870000D01*
X36000000Y-40870000D02*
X36000000Y-46130000D01*
X36000000Y-46130000D02*
X30500000Y-46130000D01*
X33328000Y-44770000D02*
X32947000Y-45024000D01*
X32947000Y-44516000D01*
X33328000Y-44770000D01*
G36*
X33328000Y-44770000D02*
G01*
X32947000Y-45024000D01*
X32947000Y-44516000D01*
X33328000Y-44770000D01*
G37*
D16*
%TO.C,J3*%
X30670000Y-28250000D02*
X32000000Y-28250000D01*
X30670000Y-29580000D02*
X30670000Y-28250000D01*
X30670000Y-30850000D02*
X30670000Y-38530000D01*
X30670000Y-30850000D02*
X33330000Y-30850000D01*
X30670000Y-38530000D02*
X33330000Y-38530000D01*
X33330000Y-30850000D02*
X33330000Y-38530000D01*
%TO.C,R17*%
X35796359Y-36014023D02*
X36103641Y-36014023D01*
X35796359Y-36774023D02*
X36103641Y-36774023D01*
%TO.C,R14*%
X44220000Y-56253641D02*
X44220000Y-55946359D01*
X44980000Y-56253641D02*
X44980000Y-55946359D01*
%TO.C,C14*%
X37890000Y-30142164D02*
X37890000Y-30357836D01*
X38610000Y-30142164D02*
X38610000Y-30357836D01*
%TO.C,C5*%
X43542164Y-45690000D02*
X43757836Y-45690000D01*
X43542164Y-46410000D02*
X43757836Y-46410000D01*
%TO.C,D1*%
X43810000Y-49150000D02*
X39800000Y-49150000D01*
X43810000Y-51150000D02*
X39800000Y-51150000D01*
X43810000Y-51150000D02*
X43810000Y-49150000D01*
%TO.C,R18*%
X39020000Y-30096359D02*
X39020000Y-30403641D01*
X39780000Y-30096359D02*
X39780000Y-30403641D01*
%TO.C,C6*%
X40340000Y-43957836D02*
X40340000Y-43742164D01*
X41060000Y-43957836D02*
X41060000Y-43742164D01*
%TO.C,C15*%
X39892164Y-37629023D02*
X40107836Y-37629023D01*
X39892164Y-38349023D02*
X40107836Y-38349023D01*
%TO.C,R6*%
X35753641Y-47070000D02*
X35446359Y-47070000D01*
X35753641Y-47830000D02*
X35446359Y-47830000D01*
%TO.C,R23*%
X39846359Y-39267023D02*
X40153641Y-39267023D01*
X39846359Y-40027023D02*
X40153641Y-40027023D01*
D14*
%TO.C,J1*%
X32580000Y-60650000D02*
X32580000Y-58450000D01*
X32580000Y-64120000D02*
X41520000Y-64120000D01*
X41520000Y-60650000D02*
X41520000Y-58450000D01*
D16*
%TO.C,R5*%
X36996359Y-49720000D02*
X37303641Y-49720000D01*
X36996359Y-50480000D02*
X37303641Y-50480000D01*
%TO.C,C9*%
X49392164Y-44840000D02*
X49607836Y-44840000D01*
X49392164Y-45560000D02*
X49607836Y-45560000D01*
%TO.C,R27*%
X42333670Y-37620000D02*
X42026388Y-37620000D01*
X42333670Y-38380000D02*
X42026388Y-38380000D01*
%TO.C,C7*%
X43390000Y-33057836D02*
X43390000Y-32842164D01*
X44110000Y-33057836D02*
X44110000Y-32842164D01*
%TO.C,C2*%
X34107836Y-54540000D02*
X33892164Y-54540000D01*
X34107836Y-55260000D02*
X33892164Y-55260000D01*
%TO.C,R3*%
X37303641Y-48670000D02*
X36996359Y-48670000D01*
X37303641Y-49430000D02*
X36996359Y-49430000D01*
%TO.C,R9*%
X36262742Y-37277500D02*
X36737258Y-37277500D01*
X36262742Y-38322500D02*
X36737258Y-38322500D01*
%TO.C,R28*%
X33053641Y-52720000D02*
X32746359Y-52720000D01*
X33053641Y-53480000D02*
X32746359Y-53480000D01*
%TO.C,R26*%
X45470000Y-42453641D02*
X45470000Y-42146359D01*
X46230000Y-42453641D02*
X46230000Y-42146359D01*
%TO.C,R24*%
X47603641Y-41470000D02*
X47296359Y-41470000D01*
X47603641Y-42230000D02*
X47296359Y-42230000D01*
%TO.C,R1*%
X34796359Y-52720000D02*
X35103641Y-52720000D01*
X34796359Y-53480000D02*
X35103641Y-53480000D01*
D14*
%TO.C,D5*%
X42025000Y-43799000D02*
X42025000Y-43526000D01*
X42975000Y-43799000D02*
X42975000Y-43526000D01*
D15*
X42200000Y-45162500D02*
G75*
G02*
X42000000Y-45162500I-100000J0D01*
G01*
X42000000Y-45162500D02*
G75*
G02*
X42200000Y-45162500I100000J0D01*
G01*
D16*
%TO.C,R15*%
X36120000Y-33246359D02*
X36120000Y-33553641D01*
X36880000Y-33246359D02*
X36880000Y-33553641D01*
%TO.C,C13*%
X48492164Y-53540000D02*
X48707836Y-53540000D01*
X48492164Y-54260000D02*
X48707836Y-54260000D01*
D14*
%TO.C,D4*%
X46975000Y-43886500D02*
X46975000Y-43613500D01*
X47925000Y-43886500D02*
X47925000Y-43613500D01*
D15*
X47150000Y-45250000D02*
G75*
G02*
X46950000Y-45250000I-100000J0D01*
G01*
X46950000Y-45250000D02*
G75*
G02*
X47150000Y-45250000I100000J0D01*
G01*
D16*
%TO.C,C3*%
X30790000Y-48872164D02*
X30790000Y-49087836D01*
X31510000Y-48872164D02*
X31510000Y-49087836D01*
D17*
%TO.C,U5*%
X38589429Y-32874423D02*
X38589429Y-33407823D01*
X38589429Y-36354223D02*
X38589429Y-36887623D01*
X38589429Y-36887623D02*
X39122829Y-36887623D01*
X39122829Y-32874423D02*
X38589429Y-32874423D01*
X42069229Y-36887623D02*
X42602629Y-36887623D01*
X42602629Y-32874423D02*
X42069229Y-32874423D01*
X42602629Y-33407823D02*
X42602629Y-32874423D01*
X42602629Y-36887623D02*
X42602629Y-36354223D01*
D16*
%TO.C,R7*%
X43482436Y-48070000D02*
X43789718Y-48070000D01*
X43482436Y-48830000D02*
X43789718Y-48830000D01*
D14*
%TO.C,U3*%
X38405000Y-45530000D02*
X37950000Y-45530000D01*
X38405000Y-48370000D02*
X37950000Y-48370000D01*
X40605000Y-45530000D02*
X39295000Y-45530000D01*
X40605000Y-48370000D02*
X39295000Y-48370000D01*
X41950000Y-45530000D02*
X41495000Y-45530000D01*
X41950000Y-48370000D02*
X41495000Y-48370000D01*
D15*
X42350000Y-48350000D02*
G75*
G02*
X42150000Y-48350000I-100000J0D01*
G01*
X42150000Y-48350000D02*
G75*
G02*
X42350000Y-48350000I100000J0D01*
G01*
D16*
%TO.C,R32*%
X39120000Y-43696359D02*
X39120000Y-44003641D01*
X39880000Y-43696359D02*
X39880000Y-44003641D01*
%TO.C,C10*%
X37190000Y-35842164D02*
X37190000Y-36057836D01*
X37910000Y-35842164D02*
X37910000Y-36057836D01*
%TO.C,R19*%
X36720000Y-30403641D02*
X36720000Y-30096359D01*
X37480000Y-30403641D02*
X37480000Y-30096359D01*
D14*
%TO.C,U4*%
X47607500Y-46100000D02*
X48267500Y-46100000D01*
X48267500Y-49000000D02*
X47607500Y-49000000D01*
X48737500Y-47215000D02*
X48737500Y-47885000D01*
D15*
X45627500Y-46500000D02*
G75*
G02*
X45427500Y-46500000I-100000J0D01*
G01*
X45427500Y-46500000D02*
G75*
G02*
X45627500Y-46500000I100000J0D01*
G01*
D16*
%TO.C,F1*%
X37897936Y-51990000D02*
X39102064Y-51990000D01*
X37897936Y-54710000D02*
X39102064Y-54710000D01*
%TD*%
D18*
X55999971Y-26001977D02*
X56000000Y-62000000D01*
X35000000Y-26170500D02*
X40844000Y-26170500D01*
X35000000Y-26170500D02*
X35000000Y-24000000D01*
X32000000Y-64000000D02*
G75*
G02*
X30003044Y-61997000I21700J2018600D01*
G01*
X56000000Y-62000000D02*
G75*
G02*
X53997000Y-63996956I-2018600J21700D01*
G01*
X54002971Y-23998977D02*
X40844000Y-24000000D01*
X53997000Y-63997000D02*
X32000000Y-64000000D01*
X30003000Y-26002000D02*
X30003000Y-61997000D01*
X30003000Y-26002000D02*
G75*
G02*
X32000000Y-24000033I2012600J-10600D01*
G01*
X35000000Y-24000000D02*
X32000000Y-24000000D01*
X40844000Y-26170500D02*
X40844000Y-24000000D01*
X54002971Y-23998977D02*
G75*
G02*
X55999880Y-26001978I-21771J-2018623D01*
G01*
M02*
