M48
; DRILL file {KiCad 8.0.8} date 2025-02-27T16:48:45+0100
; FORMAT={-:-/ absolute / inch / decimal}
; #@! TF.CreationDate,2025-02-27T16:48:45+01:00
; #@! TF.GenerationSoftware,Kicad,Pcbnew,8.0.8
; #@! TF.FileFunction,Plated,1,2,PTH
FMAT,2
INCH
; #@! TA.AperFunction,Plated,PTH,ViaDrill
T1C0.0118
; #@! TA.AperFunction,Plated,PTH,ComponentDrill
T2C0.0200
; #@! TA.AperFunction,Plated,PTH,ComponentDrill
T3C0.0236
; #@! TA.AperFunction,Plated,PTH,ComponentDrill
T4C0.0394
%
G90
G05
T1
X1.2165Y-1.9803
X1.2402Y-2.0079
X1.2423Y-2.0575
X1.2638Y-1.9055
X1.2721Y-2.0276
X1.3346Y-2.063
X1.3543Y-2.126
X1.3715Y-1.7745
X1.372Y-1.6654
X1.374Y-1.3602
X1.3957Y-1.9193
X1.3981Y-2.0343
X1.3996Y-2.1209
X1.4262Y-1.6614
X1.4311Y-1.8996
X1.435Y-2.189
X1.4732Y-1.7047
X1.4905Y-1.5335
X1.4941Y-2.189
X1.5098Y-1.1398
X1.5098Y-2.0256
X1.5099Y-1.9803
X1.5132Y-1.9374
X1.5132Y-1.5619
X1.5197Y-1.6102
X1.5413Y-2.0177
X1.5472Y-1.0886
X1.5551Y-1.5276
X1.5551Y-1.7776
X1.5937Y-1.5276
X1.6024Y-1.6784
X1.6181Y-1.5837
X1.628Y-1.9803
X1.6299Y-2.1791
X1.632Y-1.7167
X1.6437Y-1.2559
X1.6752Y-1.7736
X1.6752Y-2.185
X1.6756Y-1.302
X1.6861Y-2.2677
X1.687Y-1.6614
X1.7126Y-2.3406
X1.7165Y-1.6799
X1.7205Y-2.1319
X1.7223Y-1.7756
X1.755Y-1.9358
X1.7619Y-1.628
X1.7706Y-2.0157
X1.7835Y-2.1299
X1.7866Y-1.9362
X1.8012Y-2.3346
X1.8031Y-1.7283
X1.811Y-1.7807
X1.8307Y-1.0276
X1.8406Y-1.5846
X1.8524Y-2.0945
X1.8622Y-1.4469
X1.8622Y-1.4764
X1.8622Y-1.5059
X1.8937Y-1.8701
X1.9213Y-2.4055
X1.9508Y-1.1594
X1.9508Y-1.5098
X1.9774Y-1.4852
X2.0098Y-1.2687
T2
X1.2421Y-1.6634
X1.2421Y-1.7126
X1.2421Y-1.7618
T4
X1.2598Y-1.1646
X1.2598Y-1.2646
X1.2598Y-1.3646
X1.2598Y-1.4646
T3
G00X1.2886Y-2.224
M15
G01X1.2886Y-2.2634
M16
G05
G00X1.2886Y-2.4252
M15
G01X1.2886Y-2.4843
M16
G05
G00X1.6287Y-2.224
M15
G01X1.6287Y-2.2634
M16
G05
G00X1.6287Y-2.4252
M15
G01X1.6287Y-2.4843
M16
G05
M30
