M48
; DRILL file {KiCad 9.0.0} date 2025-03-20T22:35:53+0100
; FORMAT={-:-/ absolute / metric / decimal}
; #@! TF.CreationDate,2025-03-20T22:35:53+01:00
; #@! TF.GenerationSoftware,Kicad,Pcbnew,9.0.0
; #@! TF.FileFunction,Plated,1,2,PTH
FMAT,2
METRIC
; #@! TA.AperFunction,Plated,PTH,ViaDrill
T1C0.300
; #@! TA.AperFunction,Plated,PTH,ComponentDrill
T2C0.508
; #@! TA.AperFunction,Plated,PTH,ComponentDrill
T3C0.600
; #@! TA.AperFunction,Plated,PTH,ComponentDrill
T4C1.000
%
G90
G05
T1
X30.9Y-50.3
X31.5Y-51.0
X31.555Y-52.26
X32.1Y-48.4
X32.311Y-51.5
X33.9Y-52.4
X34.4Y-54.0
X34.836Y-45.072
X34.85Y-42.3
X34.9Y-34.55
X35.45Y-48.75
X35.511Y-51.672
X35.55Y-53.87
X36.227Y-42.2
X36.35Y-48.25
X36.45Y-55.6
X37.42Y-43.3
X37.86Y-38.95
X37.95Y-55.6
X38.35Y-28.95
X38.35Y-51.45
X38.35Y-50.3
X38.434Y-49.209
X38.436Y-39.672
X38.6Y-40.9
X39.15Y-51.25
X39.3Y-27.65
X39.5Y-38.8
X39.5Y-45.15
X40.48Y-38.8
X40.7Y-42.63
X41.099Y-40.227
X41.35Y-50.3
X41.4Y-55.35
X41.453Y-43.605
X41.75Y-31.9
X42.55Y-45.05
X42.55Y-55.5
X42.561Y-33.072
X42.826Y-57.6
X42.85Y-42.2
X43.5Y-59.45
X43.6Y-42.669
X43.7Y-54.15
X43.746Y-45.1
X44.577Y-49.169
X44.753Y-41.35
X44.974Y-51.2
X45.3Y-54.1
X45.38Y-49.18
X45.75Y-59.3
X45.8Y-43.9
X46.0Y-45.231
X46.5Y-26.1
X46.75Y-40.25
X47.05Y-53.2
X47.3Y-36.75
X47.3Y-37.5
X47.3Y-38.249
X48.1Y-47.5
X48.8Y-61.1
X49.55Y-29.45
X49.55Y-38.35
X50.225Y-37.725
X51.05Y-32.225
T2
X31.55Y-42.25
X31.55Y-43.5
X31.55Y-44.75
T4
X32.0Y-29.58
X32.0Y-32.12
X32.0Y-34.66
X32.0Y-37.2
T3
G00X32.73Y-56.49
M15
G01X32.73Y-57.49
M16
G05
G00X32.73Y-61.6
M15
G01X32.73Y-63.1
M16
G05
G00X41.37Y-56.49
M15
G01X41.37Y-57.49
M16
G05
G00X41.37Y-61.6
M15
G01X41.37Y-63.1
M16
G05
M30
