%TF.GenerationSoftware,KiCad,Pcbnew,8.0.8*%
%TF.CreationDate,2025-02-27T16:48:46+01:00*%
%TF.ProjectId,nervous-ecg,6e657276-6f75-4732-9d65-63672e6b6963,1*%
%TF.SameCoordinates,Original*%
%TF.FileFunction,Drillmap*%
%TF.FilePolarity,Positive*%
%FSLAX45Y45*%
G04 Gerber Fmt 4.5, Leading zero omitted, Abs format (unit mm)*
G04 Created by KiCad (PCBNEW 8.0.8) date 2025-02-27 16:48:46*
%MOMM*%
%LPD*%
G01*
G04 APERTURE LIST*
%ADD10C,0.254000*%
%ADD11C,0.200000*%
%ADD12C,0.100000*%
G04 APERTURE END LIST*
D10*
X5599997Y-2600198D02*
X5600000Y-6200000D01*
X3500000Y-2617050D02*
X4084400Y-2617050D01*
X3500000Y-2617050D02*
X3500000Y-2400000D01*
X3200000Y-6400000D02*
G75*
G02*
X3000304Y-6199700I2170J201860D01*
G01*
X5600000Y-6200000D02*
G75*
G02*
X5399700Y-6399696I-201860J2170D01*
G01*
X5400297Y-2399898D02*
X4084400Y-2400000D01*
X5399700Y-6399700D02*
X3200000Y-6400000D01*
X3000300Y-2600200D02*
X3000300Y-6199700D01*
X3000300Y-2600200D02*
G75*
G02*
X3200000Y-2400003I201260J-1060D01*
G01*
X3500000Y-2400000D02*
X3200000Y-2400000D01*
X4084400Y-2617050D02*
X4084400Y-2400000D01*
X5400297Y-2399898D02*
G75*
G02*
X5599988Y-2600198I-2177J-201862D01*
G01*
D11*
D12*
X3075000Y-5015000D02*
X3105000Y-5045000D01*
X3105000Y-5015000D02*
X3075000Y-5045000D01*
X3135000Y-5085000D02*
X3165000Y-5115000D01*
X3165000Y-5085000D02*
X3135000Y-5115000D01*
X3140534Y-5210992D02*
X3170534Y-5240992D01*
X3170534Y-5210992D02*
X3140534Y-5240992D01*
X3195000Y-4825000D02*
X3225000Y-4855000D01*
X3225000Y-4825000D02*
X3195000Y-4855000D01*
X3216108Y-5135000D02*
X3246108Y-5165000D01*
X3246108Y-5135000D02*
X3216108Y-5165000D01*
X3375000Y-5225000D02*
X3405000Y-5255000D01*
X3405000Y-5225000D02*
X3375000Y-5255000D01*
X3425000Y-5385000D02*
X3455000Y-5415000D01*
X3455000Y-5385000D02*
X3425000Y-5415000D01*
X3468608Y-4492202D02*
X3498608Y-4522202D01*
X3498608Y-4492202D02*
X3468608Y-4522202D01*
X3470000Y-4215000D02*
X3500000Y-4245000D01*
X3500000Y-4215000D02*
X3470000Y-4245000D01*
X3475000Y-3440000D02*
X3505000Y-3470000D01*
X3505000Y-3440000D02*
X3475000Y-3470000D01*
X3530000Y-4860000D02*
X3560000Y-4890000D01*
X3560000Y-4860000D02*
X3530000Y-4890000D01*
X3536108Y-5152202D02*
X3566108Y-5182202D01*
X3566108Y-5152202D02*
X3536108Y-5182202D01*
X3540000Y-5372000D02*
X3570000Y-5402000D01*
X3570000Y-5372000D02*
X3540000Y-5402000D01*
X3607650Y-4205000D02*
X3637650Y-4235000D01*
X3637650Y-4205000D02*
X3607650Y-4235000D01*
X3620000Y-4810000D02*
X3650000Y-4840000D01*
X3650000Y-4810000D02*
X3620000Y-4840000D01*
X3630000Y-5545000D02*
X3660000Y-5575000D01*
X3660000Y-5545000D02*
X3630000Y-5575000D01*
X3726953Y-4315000D02*
X3756953Y-4345000D01*
X3756953Y-4315000D02*
X3726953Y-4345000D01*
X3770958Y-3880000D02*
X3800958Y-3910000D01*
X3800958Y-3880000D02*
X3770958Y-3910000D01*
X3780000Y-5545000D02*
X3810000Y-5575000D01*
X3810000Y-5545000D02*
X3780000Y-5575000D01*
X3820000Y-2880000D02*
X3850000Y-2910000D01*
X3850000Y-2880000D02*
X3820000Y-2910000D01*
X3820000Y-5129950D02*
X3850000Y-5159950D01*
X3850000Y-5129950D02*
X3820000Y-5159950D01*
X3820050Y-5015000D02*
X3850050Y-5045000D01*
X3850050Y-5015000D02*
X3820050Y-5045000D01*
X3828402Y-4905877D02*
X3858402Y-4935877D01*
X3858402Y-4905877D02*
X3828402Y-4935877D01*
X3828608Y-3952202D02*
X3858608Y-3982202D01*
X3858608Y-3952202D02*
X3828608Y-3982202D01*
X3845000Y-4075000D02*
X3875000Y-4105000D01*
X3875000Y-4075000D02*
X3845000Y-4105000D01*
X3900000Y-5110000D02*
X3930000Y-5140000D01*
X3930000Y-5110000D02*
X3900000Y-5140000D01*
X3915000Y-2750000D02*
X3945000Y-2780000D01*
X3945000Y-2750000D02*
X3915000Y-2780000D01*
X3935000Y-3865000D02*
X3965000Y-3895000D01*
X3965000Y-3865000D02*
X3935000Y-3895000D01*
X3935000Y-4500000D02*
X3965000Y-4530000D01*
X3965000Y-4500000D02*
X3935000Y-4530000D01*
X4033000Y-3865000D02*
X4063000Y-3895000D01*
X4063000Y-3865000D02*
X4033000Y-3895000D01*
X4055000Y-4248050D02*
X4085000Y-4278050D01*
X4085000Y-4248050D02*
X4055000Y-4278050D01*
X4094907Y-4007650D02*
X4124907Y-4037650D01*
X4124907Y-4007650D02*
X4094907Y-4037650D01*
X4120000Y-5015000D02*
X4150000Y-5045000D01*
X4150000Y-5015000D02*
X4120000Y-5045000D01*
X4125000Y-5520000D02*
X4155000Y-5550000D01*
X4155000Y-5520000D02*
X4125000Y-5550000D01*
X4130268Y-4345465D02*
X4160268Y-4375465D01*
X4160268Y-4345465D02*
X4130268Y-4375465D01*
X4160000Y-3175000D02*
X4190000Y-3205000D01*
X4190000Y-3175000D02*
X4160000Y-3205000D01*
X4240000Y-4490000D02*
X4270000Y-4520000D01*
X4270000Y-4490000D02*
X4240000Y-4520000D01*
X4240000Y-5535000D02*
X4270000Y-5565000D01*
X4270000Y-5535000D02*
X4240000Y-5565000D01*
X4241108Y-3292202D02*
X4271108Y-3322202D01*
X4271108Y-3292202D02*
X4241108Y-3322202D01*
X4267650Y-5745000D02*
X4297650Y-5775000D01*
X4297650Y-5745000D02*
X4267650Y-5775000D01*
X4270000Y-4205000D02*
X4300000Y-4235000D01*
X4300000Y-4205000D02*
X4270000Y-4235000D01*
X4335000Y-5930000D02*
X4365000Y-5960000D01*
X4365000Y-5930000D02*
X4335000Y-5960000D01*
X4345000Y-4251929D02*
X4375000Y-4281929D01*
X4375000Y-4251929D02*
X4345000Y-4281929D01*
X4355000Y-5400000D02*
X4385000Y-5430000D01*
X4385000Y-5400000D02*
X4355000Y-5430000D01*
X4359650Y-4495000D02*
X4389650Y-4525000D01*
X4389650Y-4495000D02*
X4359650Y-4525000D01*
X4442700Y-4901853D02*
X4472700Y-4931853D01*
X4472700Y-4901853D02*
X4442700Y-4931853D01*
X4460300Y-4120000D02*
X4490300Y-4150000D01*
X4490300Y-4120000D02*
X4460300Y-4150000D01*
X4482350Y-5105000D02*
X4512350Y-5135000D01*
X4512350Y-5105000D02*
X4482350Y-5135000D01*
X4515000Y-5395000D02*
X4545000Y-5425000D01*
X4545000Y-5395000D02*
X4515000Y-5425000D01*
X4523000Y-4903000D02*
X4553000Y-4933000D01*
X4553000Y-4903000D02*
X4523000Y-4933000D01*
X4560000Y-5915000D02*
X4590000Y-5945000D01*
X4590000Y-5915000D02*
X4560000Y-5945000D01*
X4565000Y-4375000D02*
X4595000Y-4405000D01*
X4595000Y-4375000D02*
X4565000Y-4405000D01*
X4585000Y-4508067D02*
X4615000Y-4538067D01*
X4615000Y-4508067D02*
X4585000Y-4538067D01*
X4635000Y-2595000D02*
X4665000Y-2625000D01*
X4665000Y-2595000D02*
X4635000Y-2625000D01*
X4660000Y-4010000D02*
X4690000Y-4040000D01*
X4690000Y-4010000D02*
X4660000Y-4040000D01*
X4690000Y-5305000D02*
X4720000Y-5335000D01*
X4720000Y-5305000D02*
X4690000Y-5335000D01*
X4715000Y-3660000D02*
X4745000Y-3690000D01*
X4745000Y-3660000D02*
X4715000Y-3690000D01*
X4715000Y-3734950D02*
X4745000Y-3764950D01*
X4745000Y-3734950D02*
X4715000Y-3764950D01*
X4715000Y-3809901D02*
X4745000Y-3839901D01*
X4745000Y-3809901D02*
X4715000Y-3839901D01*
X4795000Y-4735000D02*
X4825000Y-4765000D01*
X4825000Y-4735000D02*
X4795000Y-4765000D01*
X4865000Y-6095000D02*
X4895000Y-6125000D01*
X4895000Y-6095000D02*
X4865000Y-6125000D01*
X4940000Y-2930000D02*
X4970000Y-2960000D01*
X4970000Y-2930000D02*
X4940000Y-2960000D01*
X4940000Y-3820000D02*
X4970000Y-3850000D01*
X4970000Y-3820000D02*
X4940000Y-3850000D01*
X5007500Y-3757500D02*
X5037500Y-3787500D01*
X5037500Y-3757500D02*
X5007500Y-3787500D01*
X5090000Y-3207500D02*
X5120000Y-3237500D01*
X5120000Y-3207500D02*
X5090000Y-3237500D01*
X3180400Y-4225000D02*
G75*
G02*
X3129600Y-4225000I-25400J0D01*
G01*
X3129600Y-4225000D02*
G75*
G02*
X3180400Y-4225000I25400J0D01*
G01*
X3180400Y-4350000D02*
G75*
G02*
X3129600Y-4350000I-25400J0D01*
G01*
X3129600Y-4350000D02*
G75*
G02*
X3180400Y-4350000I25400J0D01*
G01*
X3180400Y-4475000D02*
G75*
G02*
X3129600Y-4475000I-25400J0D01*
G01*
X3129600Y-4475000D02*
G75*
G02*
X3180400Y-4475000I25400J0D01*
G01*
X3273000Y-5669000D02*
X3273000Y-5729000D01*
X3243000Y-5699000D02*
X3303000Y-5699000D01*
X3243000Y-5649000D02*
X3243000Y-5749000D01*
X3303000Y-5749000D02*
G75*
G02*
X3243000Y-5749000I-30000J0D01*
G01*
X3303000Y-5749000D02*
X3303000Y-5649000D01*
X3303000Y-5649000D02*
G75*
G03*
X3243000Y-5649000I-30000J0D01*
G01*
X3273000Y-6205000D02*
X3273000Y-6265000D01*
X3243000Y-6235000D02*
X3303000Y-6235000D01*
X3243000Y-6160000D02*
X3243000Y-6310000D01*
X3303000Y-6310000D02*
G75*
G02*
X3243000Y-6310000I-30000J0D01*
G01*
X3303000Y-6310000D02*
X3303000Y-6160000D01*
X3303000Y-6160000D02*
G75*
G03*
X3243000Y-6160000I-30000J0D01*
G01*
X4137000Y-5669000D02*
X4137000Y-5729000D01*
X4107000Y-5699000D02*
X4167000Y-5699000D01*
X4107000Y-5649000D02*
X4107000Y-5749000D01*
X4167000Y-5749000D02*
G75*
G02*
X4107000Y-5749000I-30000J0D01*
G01*
X4167000Y-5749000D02*
X4167000Y-5649000D01*
X4167000Y-5649000D02*
G75*
G03*
X4107000Y-5649000I-30000J0D01*
G01*
X4137000Y-6205000D02*
X4137000Y-6265000D01*
X4107000Y-6235000D02*
X4167000Y-6235000D01*
X4107000Y-6160000D02*
X4107000Y-6310000D01*
X4167000Y-6310000D02*
G75*
G02*
X4107000Y-6310000I-30000J0D01*
G01*
X4167000Y-6310000D02*
X4167000Y-6160000D01*
X4167000Y-6160000D02*
G75*
G03*
X4107000Y-6160000I-30000J0D01*
G01*
X3235356Y-2993356D02*
X3235356Y-2922644D01*
X3164644Y-2922644D01*
X3164644Y-2993356D01*
X3235356Y-2993356D01*
X3235356Y-3247356D02*
X3235356Y-3176644D01*
X3164644Y-3176644D01*
X3164644Y-3247356D01*
X3235356Y-3247356D01*
X3235356Y-3501356D02*
X3235356Y-3430644D01*
X3164644Y-3430644D01*
X3164644Y-3501356D01*
X3235356Y-3501356D01*
X3235356Y-3755356D02*
X3235356Y-3684644D01*
X3164644Y-3684644D01*
X3164644Y-3755356D01*
X3235356Y-3755356D01*
D11*
X3248377Y-6724184D02*
X3248377Y-6524184D01*
X3248377Y-6524184D02*
X3295996Y-6524184D01*
X3295996Y-6524184D02*
X3324567Y-6533708D01*
X3324567Y-6533708D02*
X3343615Y-6552755D01*
X3343615Y-6552755D02*
X3353139Y-6571803D01*
X3353139Y-6571803D02*
X3362662Y-6609898D01*
X3362662Y-6609898D02*
X3362662Y-6638469D01*
X3362662Y-6638469D02*
X3353139Y-6676565D01*
X3353139Y-6676565D02*
X3343615Y-6695612D01*
X3343615Y-6695612D02*
X3324567Y-6714660D01*
X3324567Y-6714660D02*
X3295996Y-6724184D01*
X3295996Y-6724184D02*
X3248377Y-6724184D01*
X3448377Y-6724184D02*
X3448377Y-6590850D01*
X3448377Y-6628946D02*
X3457901Y-6609898D01*
X3457901Y-6609898D02*
X3467424Y-6600374D01*
X3467424Y-6600374D02*
X3486472Y-6590850D01*
X3486472Y-6590850D02*
X3505520Y-6590850D01*
X3572186Y-6724184D02*
X3572186Y-6590850D01*
X3572186Y-6524184D02*
X3562662Y-6533708D01*
X3562662Y-6533708D02*
X3572186Y-6543231D01*
X3572186Y-6543231D02*
X3581710Y-6533708D01*
X3581710Y-6533708D02*
X3572186Y-6524184D01*
X3572186Y-6524184D02*
X3572186Y-6543231D01*
X3695996Y-6724184D02*
X3676948Y-6714660D01*
X3676948Y-6714660D02*
X3667424Y-6695612D01*
X3667424Y-6695612D02*
X3667424Y-6524184D01*
X3800758Y-6724184D02*
X3781710Y-6714660D01*
X3781710Y-6714660D02*
X3772186Y-6695612D01*
X3772186Y-6695612D02*
X3772186Y-6524184D01*
X4029329Y-6724184D02*
X4029329Y-6524184D01*
X4029329Y-6524184D02*
X4095996Y-6667041D01*
X4095996Y-6667041D02*
X4162662Y-6524184D01*
X4162662Y-6524184D02*
X4162662Y-6724184D01*
X4343615Y-6724184D02*
X4343615Y-6619422D01*
X4343615Y-6619422D02*
X4334091Y-6600374D01*
X4334091Y-6600374D02*
X4315044Y-6590850D01*
X4315044Y-6590850D02*
X4276948Y-6590850D01*
X4276948Y-6590850D02*
X4257901Y-6600374D01*
X4343615Y-6714660D02*
X4324567Y-6724184D01*
X4324567Y-6724184D02*
X4276948Y-6724184D01*
X4276948Y-6724184D02*
X4257901Y-6714660D01*
X4257901Y-6714660D02*
X4248377Y-6695612D01*
X4248377Y-6695612D02*
X4248377Y-6676565D01*
X4248377Y-6676565D02*
X4257901Y-6657517D01*
X4257901Y-6657517D02*
X4276948Y-6647993D01*
X4276948Y-6647993D02*
X4324567Y-6647993D01*
X4324567Y-6647993D02*
X4343615Y-6638469D01*
X4438853Y-6590850D02*
X4438853Y-6790850D01*
X4438853Y-6600374D02*
X4457901Y-6590850D01*
X4457901Y-6590850D02*
X4495996Y-6590850D01*
X4495996Y-6590850D02*
X4515044Y-6600374D01*
X4515044Y-6600374D02*
X4524567Y-6609898D01*
X4524567Y-6609898D02*
X4534091Y-6628946D01*
X4534091Y-6628946D02*
X4534091Y-6686088D01*
X4534091Y-6686088D02*
X4524567Y-6705136D01*
X4524567Y-6705136D02*
X4515044Y-6714660D01*
X4515044Y-6714660D02*
X4495996Y-6724184D01*
X4495996Y-6724184D02*
X4457901Y-6724184D01*
X4457901Y-6724184D02*
X4438853Y-6714660D01*
X4619805Y-6705136D02*
X4629329Y-6714660D01*
X4629329Y-6714660D02*
X4619805Y-6724184D01*
X4619805Y-6724184D02*
X4610282Y-6714660D01*
X4610282Y-6714660D02*
X4619805Y-6705136D01*
X4619805Y-6705136D02*
X4619805Y-6724184D01*
X4619805Y-6600374D02*
X4629329Y-6609898D01*
X4629329Y-6609898D02*
X4619805Y-6619422D01*
X4619805Y-6619422D02*
X4610282Y-6609898D01*
X4610282Y-6609898D02*
X4619805Y-6600374D01*
X4619805Y-6600374D02*
X4619805Y-6619422D01*
D12*
X2957600Y-7037700D02*
X2987600Y-7067700D01*
X2987600Y-7037700D02*
X2957600Y-7067700D01*
D11*
X3286472Y-6944184D02*
X3305520Y-6944184D01*
X3305520Y-6944184D02*
X3324567Y-6953708D01*
X3324567Y-6953708D02*
X3334091Y-6963231D01*
X3334091Y-6963231D02*
X3343615Y-6982279D01*
X3343615Y-6982279D02*
X3353139Y-7020374D01*
X3353139Y-7020374D02*
X3353139Y-7067993D01*
X3353139Y-7067993D02*
X3343615Y-7106088D01*
X3343615Y-7106088D02*
X3334091Y-7125136D01*
X3334091Y-7125136D02*
X3324567Y-7134660D01*
X3324567Y-7134660D02*
X3305520Y-7144184D01*
X3305520Y-7144184D02*
X3286472Y-7144184D01*
X3286472Y-7144184D02*
X3267424Y-7134660D01*
X3267424Y-7134660D02*
X3257901Y-7125136D01*
X3257901Y-7125136D02*
X3248377Y-7106088D01*
X3248377Y-7106088D02*
X3238853Y-7067993D01*
X3238853Y-7067993D02*
X3238853Y-7020374D01*
X3238853Y-7020374D02*
X3248377Y-6982279D01*
X3248377Y-6982279D02*
X3257901Y-6963231D01*
X3257901Y-6963231D02*
X3267424Y-6953708D01*
X3267424Y-6953708D02*
X3286472Y-6944184D01*
X3438853Y-7125136D02*
X3448377Y-7134660D01*
X3448377Y-7134660D02*
X3438853Y-7144184D01*
X3438853Y-7144184D02*
X3429329Y-7134660D01*
X3429329Y-7134660D02*
X3438853Y-7125136D01*
X3438853Y-7125136D02*
X3438853Y-7144184D01*
X3515043Y-6944184D02*
X3638853Y-6944184D01*
X3638853Y-6944184D02*
X3572186Y-7020374D01*
X3572186Y-7020374D02*
X3600758Y-7020374D01*
X3600758Y-7020374D02*
X3619805Y-7029898D01*
X3619805Y-7029898D02*
X3629329Y-7039422D01*
X3629329Y-7039422D02*
X3638853Y-7058469D01*
X3638853Y-7058469D02*
X3638853Y-7106088D01*
X3638853Y-7106088D02*
X3629329Y-7125136D01*
X3629329Y-7125136D02*
X3619805Y-7134660D01*
X3619805Y-7134660D02*
X3600758Y-7144184D01*
X3600758Y-7144184D02*
X3543615Y-7144184D01*
X3543615Y-7144184D02*
X3524567Y-7134660D01*
X3524567Y-7134660D02*
X3515043Y-7125136D01*
X3762662Y-6944184D02*
X3781710Y-6944184D01*
X3781710Y-6944184D02*
X3800758Y-6953708D01*
X3800758Y-6953708D02*
X3810282Y-6963231D01*
X3810282Y-6963231D02*
X3819805Y-6982279D01*
X3819805Y-6982279D02*
X3829329Y-7020374D01*
X3829329Y-7020374D02*
X3829329Y-7067993D01*
X3829329Y-7067993D02*
X3819805Y-7106088D01*
X3819805Y-7106088D02*
X3810282Y-7125136D01*
X3810282Y-7125136D02*
X3800758Y-7134660D01*
X3800758Y-7134660D02*
X3781710Y-7144184D01*
X3781710Y-7144184D02*
X3762662Y-7144184D01*
X3762662Y-7144184D02*
X3743615Y-7134660D01*
X3743615Y-7134660D02*
X3734091Y-7125136D01*
X3734091Y-7125136D02*
X3724567Y-7106088D01*
X3724567Y-7106088D02*
X3715043Y-7067993D01*
X3715043Y-7067993D02*
X3715043Y-7020374D01*
X3715043Y-7020374D02*
X3724567Y-6982279D01*
X3724567Y-6982279D02*
X3734091Y-6963231D01*
X3734091Y-6963231D02*
X3743615Y-6953708D01*
X3743615Y-6953708D02*
X3762662Y-6944184D01*
X3953139Y-6944184D02*
X3972186Y-6944184D01*
X3972186Y-6944184D02*
X3991234Y-6953708D01*
X3991234Y-6953708D02*
X4000758Y-6963231D01*
X4000758Y-6963231D02*
X4010282Y-6982279D01*
X4010282Y-6982279D02*
X4019805Y-7020374D01*
X4019805Y-7020374D02*
X4019805Y-7067993D01*
X4019805Y-7067993D02*
X4010282Y-7106088D01*
X4010282Y-7106088D02*
X4000758Y-7125136D01*
X4000758Y-7125136D02*
X3991234Y-7134660D01*
X3991234Y-7134660D02*
X3972186Y-7144184D01*
X3972186Y-7144184D02*
X3953139Y-7144184D01*
X3953139Y-7144184D02*
X3934091Y-7134660D01*
X3934091Y-7134660D02*
X3924567Y-7125136D01*
X3924567Y-7125136D02*
X3915043Y-7106088D01*
X3915043Y-7106088D02*
X3905520Y-7067993D01*
X3905520Y-7067993D02*
X3905520Y-7020374D01*
X3905520Y-7020374D02*
X3915043Y-6982279D01*
X3915043Y-6982279D02*
X3924567Y-6963231D01*
X3924567Y-6963231D02*
X3934091Y-6953708D01*
X3934091Y-6953708D02*
X3953139Y-6944184D01*
X4105520Y-7144184D02*
X4105520Y-7010850D01*
X4105520Y-7029898D02*
X4115043Y-7020374D01*
X4115043Y-7020374D02*
X4134091Y-7010850D01*
X4134091Y-7010850D02*
X4162663Y-7010850D01*
X4162663Y-7010850D02*
X4181710Y-7020374D01*
X4181710Y-7020374D02*
X4191234Y-7039422D01*
X4191234Y-7039422D02*
X4191234Y-7144184D01*
X4191234Y-7039422D02*
X4200758Y-7020374D01*
X4200758Y-7020374D02*
X4219805Y-7010850D01*
X4219805Y-7010850D02*
X4248377Y-7010850D01*
X4248377Y-7010850D02*
X4267425Y-7020374D01*
X4267425Y-7020374D02*
X4276948Y-7039422D01*
X4276948Y-7039422D02*
X4276948Y-7144184D01*
X4372186Y-7144184D02*
X4372186Y-7010850D01*
X4372186Y-7029898D02*
X4381710Y-7020374D01*
X4381710Y-7020374D02*
X4400758Y-7010850D01*
X4400758Y-7010850D02*
X4429329Y-7010850D01*
X4429329Y-7010850D02*
X4448377Y-7020374D01*
X4448377Y-7020374D02*
X4457901Y-7039422D01*
X4457901Y-7039422D02*
X4457901Y-7144184D01*
X4457901Y-7039422D02*
X4467425Y-7020374D01*
X4467425Y-7020374D02*
X4486472Y-7010850D01*
X4486472Y-7010850D02*
X4515044Y-7010850D01*
X4515044Y-7010850D02*
X4534091Y-7020374D01*
X4534091Y-7020374D02*
X4543615Y-7039422D01*
X4543615Y-7039422D02*
X4543615Y-7144184D01*
X4934091Y-6934660D02*
X4762663Y-7191803D01*
X5191234Y-6944184D02*
X5210282Y-6944184D01*
X5210282Y-6944184D02*
X5229329Y-6953708D01*
X5229329Y-6953708D02*
X5238853Y-6963231D01*
X5238853Y-6963231D02*
X5248377Y-6982279D01*
X5248377Y-6982279D02*
X5257901Y-7020374D01*
X5257901Y-7020374D02*
X5257901Y-7067993D01*
X5257901Y-7067993D02*
X5248377Y-7106088D01*
X5248377Y-7106088D02*
X5238853Y-7125136D01*
X5238853Y-7125136D02*
X5229329Y-7134660D01*
X5229329Y-7134660D02*
X5210282Y-7144184D01*
X5210282Y-7144184D02*
X5191234Y-7144184D01*
X5191234Y-7144184D02*
X5172187Y-7134660D01*
X5172187Y-7134660D02*
X5162663Y-7125136D01*
X5162663Y-7125136D02*
X5153139Y-7106088D01*
X5153139Y-7106088D02*
X5143615Y-7067993D01*
X5143615Y-7067993D02*
X5143615Y-7020374D01*
X5143615Y-7020374D02*
X5153139Y-6982279D01*
X5153139Y-6982279D02*
X5162663Y-6963231D01*
X5162663Y-6963231D02*
X5172187Y-6953708D01*
X5172187Y-6953708D02*
X5191234Y-6944184D01*
X5343615Y-7125136D02*
X5353139Y-7134660D01*
X5353139Y-7134660D02*
X5343615Y-7144184D01*
X5343615Y-7144184D02*
X5334091Y-7134660D01*
X5334091Y-7134660D02*
X5343615Y-7125136D01*
X5343615Y-7125136D02*
X5343615Y-7144184D01*
X5476948Y-6944184D02*
X5495996Y-6944184D01*
X5495996Y-6944184D02*
X5515044Y-6953708D01*
X5515044Y-6953708D02*
X5524568Y-6963231D01*
X5524568Y-6963231D02*
X5534091Y-6982279D01*
X5534091Y-6982279D02*
X5543615Y-7020374D01*
X5543615Y-7020374D02*
X5543615Y-7067993D01*
X5543615Y-7067993D02*
X5534091Y-7106088D01*
X5534091Y-7106088D02*
X5524568Y-7125136D01*
X5524568Y-7125136D02*
X5515044Y-7134660D01*
X5515044Y-7134660D02*
X5495996Y-7144184D01*
X5495996Y-7144184D02*
X5476948Y-7144184D01*
X5476948Y-7144184D02*
X5457901Y-7134660D01*
X5457901Y-7134660D02*
X5448377Y-7125136D01*
X5448377Y-7125136D02*
X5438853Y-7106088D01*
X5438853Y-7106088D02*
X5429329Y-7067993D01*
X5429329Y-7067993D02*
X5429329Y-7020374D01*
X5429329Y-7020374D02*
X5438853Y-6982279D01*
X5438853Y-6982279D02*
X5448377Y-6963231D01*
X5448377Y-6963231D02*
X5457901Y-6953708D01*
X5457901Y-6953708D02*
X5476948Y-6944184D01*
X5734091Y-7144184D02*
X5619806Y-7144184D01*
X5676948Y-7144184D02*
X5676948Y-6944184D01*
X5676948Y-6944184D02*
X5657901Y-6972755D01*
X5657901Y-6972755D02*
X5638853Y-6991803D01*
X5638853Y-6991803D02*
X5619806Y-7001327D01*
X5924567Y-7144184D02*
X5810282Y-7144184D01*
X5867425Y-7144184D02*
X5867425Y-6944184D01*
X5867425Y-6944184D02*
X5848377Y-6972755D01*
X5848377Y-6972755D02*
X5829329Y-6991803D01*
X5829329Y-6991803D02*
X5810282Y-7001327D01*
X6038853Y-7029898D02*
X6019806Y-7020374D01*
X6019806Y-7020374D02*
X6010282Y-7010850D01*
X6010282Y-7010850D02*
X6000758Y-6991803D01*
X6000758Y-6991803D02*
X6000758Y-6982279D01*
X6000758Y-6982279D02*
X6010282Y-6963231D01*
X6010282Y-6963231D02*
X6019806Y-6953708D01*
X6019806Y-6953708D02*
X6038853Y-6944184D01*
X6038853Y-6944184D02*
X6076948Y-6944184D01*
X6076948Y-6944184D02*
X6095996Y-6953708D01*
X6095996Y-6953708D02*
X6105520Y-6963231D01*
X6105520Y-6963231D02*
X6115044Y-6982279D01*
X6115044Y-6982279D02*
X6115044Y-6991803D01*
X6115044Y-6991803D02*
X6105520Y-7010850D01*
X6105520Y-7010850D02*
X6095996Y-7020374D01*
X6095996Y-7020374D02*
X6076948Y-7029898D01*
X6076948Y-7029898D02*
X6038853Y-7029898D01*
X6038853Y-7029898D02*
X6019806Y-7039422D01*
X6019806Y-7039422D02*
X6010282Y-7048946D01*
X6010282Y-7048946D02*
X6000758Y-7067993D01*
X6000758Y-7067993D02*
X6000758Y-7106088D01*
X6000758Y-7106088D02*
X6010282Y-7125136D01*
X6010282Y-7125136D02*
X6019806Y-7134660D01*
X6019806Y-7134660D02*
X6038853Y-7144184D01*
X6038853Y-7144184D02*
X6076948Y-7144184D01*
X6076948Y-7144184D02*
X6095996Y-7134660D01*
X6095996Y-7134660D02*
X6105520Y-7125136D01*
X6105520Y-7125136D02*
X6115044Y-7106088D01*
X6115044Y-7106088D02*
X6115044Y-7067993D01*
X6115044Y-7067993D02*
X6105520Y-7048946D01*
X6105520Y-7048946D02*
X6095996Y-7039422D01*
X6095996Y-7039422D02*
X6076948Y-7029898D01*
X6191234Y-6944184D02*
X6191234Y-6982279D01*
X6267425Y-6944184D02*
X6267425Y-6982279D01*
X6562663Y-7220374D02*
X6553139Y-7210850D01*
X6553139Y-7210850D02*
X6534091Y-7182279D01*
X6534091Y-7182279D02*
X6524568Y-7163231D01*
X6524568Y-7163231D02*
X6515044Y-7134660D01*
X6515044Y-7134660D02*
X6505520Y-7087041D01*
X6505520Y-7087041D02*
X6505520Y-7048946D01*
X6505520Y-7048946D02*
X6515044Y-7001327D01*
X6515044Y-7001327D02*
X6524568Y-6972755D01*
X6524568Y-6972755D02*
X6534091Y-6953708D01*
X6534091Y-6953708D02*
X6553139Y-6925136D01*
X6553139Y-6925136D02*
X6562663Y-6915612D01*
X6724568Y-6944184D02*
X6686472Y-6944184D01*
X6686472Y-6944184D02*
X6667425Y-6953708D01*
X6667425Y-6953708D02*
X6657901Y-6963231D01*
X6657901Y-6963231D02*
X6638853Y-6991803D01*
X6638853Y-6991803D02*
X6629329Y-7029898D01*
X6629329Y-7029898D02*
X6629329Y-7106088D01*
X6629329Y-7106088D02*
X6638853Y-7125136D01*
X6638853Y-7125136D02*
X6648377Y-7134660D01*
X6648377Y-7134660D02*
X6667425Y-7144184D01*
X6667425Y-7144184D02*
X6705520Y-7144184D01*
X6705520Y-7144184D02*
X6724568Y-7134660D01*
X6724568Y-7134660D02*
X6734091Y-7125136D01*
X6734091Y-7125136D02*
X6743615Y-7106088D01*
X6743615Y-7106088D02*
X6743615Y-7058469D01*
X6743615Y-7058469D02*
X6734091Y-7039422D01*
X6734091Y-7039422D02*
X6724568Y-7029898D01*
X6724568Y-7029898D02*
X6705520Y-7020374D01*
X6705520Y-7020374D02*
X6667425Y-7020374D01*
X6667425Y-7020374D02*
X6648377Y-7029898D01*
X6648377Y-7029898D02*
X6638853Y-7039422D01*
X6638853Y-7039422D02*
X6629329Y-7058469D01*
X6924568Y-6944184D02*
X6829329Y-6944184D01*
X6829329Y-6944184D02*
X6819806Y-7039422D01*
X6819806Y-7039422D02*
X6829329Y-7029898D01*
X6829329Y-7029898D02*
X6848377Y-7020374D01*
X6848377Y-7020374D02*
X6895996Y-7020374D01*
X6895996Y-7020374D02*
X6915044Y-7029898D01*
X6915044Y-7029898D02*
X6924568Y-7039422D01*
X6924568Y-7039422D02*
X6934091Y-7058469D01*
X6934091Y-7058469D02*
X6934091Y-7106088D01*
X6934091Y-7106088D02*
X6924568Y-7125136D01*
X6924568Y-7125136D02*
X6915044Y-7134660D01*
X6915044Y-7134660D02*
X6895996Y-7144184D01*
X6895996Y-7144184D02*
X6848377Y-7144184D01*
X6848377Y-7144184D02*
X6829329Y-7134660D01*
X6829329Y-7134660D02*
X6819806Y-7125136D01*
X7172187Y-7144184D02*
X7172187Y-6944184D01*
X7257901Y-7144184D02*
X7257901Y-7039422D01*
X7257901Y-7039422D02*
X7248377Y-7020374D01*
X7248377Y-7020374D02*
X7229330Y-7010850D01*
X7229330Y-7010850D02*
X7200758Y-7010850D01*
X7200758Y-7010850D02*
X7181710Y-7020374D01*
X7181710Y-7020374D02*
X7172187Y-7029898D01*
X7381710Y-7144184D02*
X7362663Y-7134660D01*
X7362663Y-7134660D02*
X7353139Y-7125136D01*
X7353139Y-7125136D02*
X7343615Y-7106088D01*
X7343615Y-7106088D02*
X7343615Y-7048946D01*
X7343615Y-7048946D02*
X7353139Y-7029898D01*
X7353139Y-7029898D02*
X7362663Y-7020374D01*
X7362663Y-7020374D02*
X7381710Y-7010850D01*
X7381710Y-7010850D02*
X7410282Y-7010850D01*
X7410282Y-7010850D02*
X7429330Y-7020374D01*
X7429330Y-7020374D02*
X7438853Y-7029898D01*
X7438853Y-7029898D02*
X7448377Y-7048946D01*
X7448377Y-7048946D02*
X7448377Y-7106088D01*
X7448377Y-7106088D02*
X7438853Y-7125136D01*
X7438853Y-7125136D02*
X7429330Y-7134660D01*
X7429330Y-7134660D02*
X7410282Y-7144184D01*
X7410282Y-7144184D02*
X7381710Y-7144184D01*
X7562663Y-7144184D02*
X7543615Y-7134660D01*
X7543615Y-7134660D02*
X7534091Y-7115612D01*
X7534091Y-7115612D02*
X7534091Y-6944184D01*
X7715044Y-7134660D02*
X7695996Y-7144184D01*
X7695996Y-7144184D02*
X7657901Y-7144184D01*
X7657901Y-7144184D02*
X7638853Y-7134660D01*
X7638853Y-7134660D02*
X7629330Y-7115612D01*
X7629330Y-7115612D02*
X7629330Y-7039422D01*
X7629330Y-7039422D02*
X7638853Y-7020374D01*
X7638853Y-7020374D02*
X7657901Y-7010850D01*
X7657901Y-7010850D02*
X7695996Y-7010850D01*
X7695996Y-7010850D02*
X7715044Y-7020374D01*
X7715044Y-7020374D02*
X7724568Y-7039422D01*
X7724568Y-7039422D02*
X7724568Y-7058469D01*
X7724568Y-7058469D02*
X7629330Y-7077517D01*
X7800758Y-7134660D02*
X7819806Y-7144184D01*
X7819806Y-7144184D02*
X7857901Y-7144184D01*
X7857901Y-7144184D02*
X7876949Y-7134660D01*
X7876949Y-7134660D02*
X7886472Y-7115612D01*
X7886472Y-7115612D02*
X7886472Y-7106088D01*
X7886472Y-7106088D02*
X7876949Y-7087041D01*
X7876949Y-7087041D02*
X7857901Y-7077517D01*
X7857901Y-7077517D02*
X7829330Y-7077517D01*
X7829330Y-7077517D02*
X7810282Y-7067993D01*
X7810282Y-7067993D02*
X7800758Y-7048946D01*
X7800758Y-7048946D02*
X7800758Y-7039422D01*
X7800758Y-7039422D02*
X7810282Y-7020374D01*
X7810282Y-7020374D02*
X7829330Y-7010850D01*
X7829330Y-7010850D02*
X7857901Y-7010850D01*
X7857901Y-7010850D02*
X7876949Y-7020374D01*
X7953139Y-7220374D02*
X7962663Y-7210850D01*
X7962663Y-7210850D02*
X7981711Y-7182279D01*
X7981711Y-7182279D02*
X7991234Y-7163231D01*
X7991234Y-7163231D02*
X8000758Y-7134660D01*
X8000758Y-7134660D02*
X8010282Y-7087041D01*
X8010282Y-7087041D02*
X8010282Y-7048946D01*
X8010282Y-7048946D02*
X8000758Y-7001327D01*
X8000758Y-7001327D02*
X7991234Y-6972755D01*
X7991234Y-6972755D02*
X7981711Y-6953708D01*
X7981711Y-6953708D02*
X7962663Y-6925136D01*
X7962663Y-6925136D02*
X7953139Y-6915612D01*
D12*
X2987600Y-7316700D02*
G75*
G02*
X2936800Y-7316700I-25400J0D01*
G01*
X2936800Y-7316700D02*
G75*
G02*
X2987600Y-7316700I25400J0D01*
G01*
D11*
X3286472Y-7208184D02*
X3305520Y-7208184D01*
X3305520Y-7208184D02*
X3324567Y-7217708D01*
X3324567Y-7217708D02*
X3334091Y-7227231D01*
X3334091Y-7227231D02*
X3343615Y-7246279D01*
X3343615Y-7246279D02*
X3353139Y-7284374D01*
X3353139Y-7284374D02*
X3353139Y-7331993D01*
X3353139Y-7331993D02*
X3343615Y-7370088D01*
X3343615Y-7370088D02*
X3334091Y-7389136D01*
X3334091Y-7389136D02*
X3324567Y-7398660D01*
X3324567Y-7398660D02*
X3305520Y-7408184D01*
X3305520Y-7408184D02*
X3286472Y-7408184D01*
X3286472Y-7408184D02*
X3267424Y-7398660D01*
X3267424Y-7398660D02*
X3257901Y-7389136D01*
X3257901Y-7389136D02*
X3248377Y-7370088D01*
X3248377Y-7370088D02*
X3238853Y-7331993D01*
X3238853Y-7331993D02*
X3238853Y-7284374D01*
X3238853Y-7284374D02*
X3248377Y-7246279D01*
X3248377Y-7246279D02*
X3257901Y-7227231D01*
X3257901Y-7227231D02*
X3267424Y-7217708D01*
X3267424Y-7217708D02*
X3286472Y-7208184D01*
X3438853Y-7389136D02*
X3448377Y-7398660D01*
X3448377Y-7398660D02*
X3438853Y-7408184D01*
X3438853Y-7408184D02*
X3429329Y-7398660D01*
X3429329Y-7398660D02*
X3438853Y-7389136D01*
X3438853Y-7389136D02*
X3438853Y-7408184D01*
X3629329Y-7208184D02*
X3534091Y-7208184D01*
X3534091Y-7208184D02*
X3524567Y-7303422D01*
X3524567Y-7303422D02*
X3534091Y-7293898D01*
X3534091Y-7293898D02*
X3553139Y-7284374D01*
X3553139Y-7284374D02*
X3600758Y-7284374D01*
X3600758Y-7284374D02*
X3619805Y-7293898D01*
X3619805Y-7293898D02*
X3629329Y-7303422D01*
X3629329Y-7303422D02*
X3638853Y-7322469D01*
X3638853Y-7322469D02*
X3638853Y-7370088D01*
X3638853Y-7370088D02*
X3629329Y-7389136D01*
X3629329Y-7389136D02*
X3619805Y-7398660D01*
X3619805Y-7398660D02*
X3600758Y-7408184D01*
X3600758Y-7408184D02*
X3553139Y-7408184D01*
X3553139Y-7408184D02*
X3534091Y-7398660D01*
X3534091Y-7398660D02*
X3524567Y-7389136D01*
X3762662Y-7208184D02*
X3781710Y-7208184D01*
X3781710Y-7208184D02*
X3800758Y-7217708D01*
X3800758Y-7217708D02*
X3810282Y-7227231D01*
X3810282Y-7227231D02*
X3819805Y-7246279D01*
X3819805Y-7246279D02*
X3829329Y-7284374D01*
X3829329Y-7284374D02*
X3829329Y-7331993D01*
X3829329Y-7331993D02*
X3819805Y-7370088D01*
X3819805Y-7370088D02*
X3810282Y-7389136D01*
X3810282Y-7389136D02*
X3800758Y-7398660D01*
X3800758Y-7398660D02*
X3781710Y-7408184D01*
X3781710Y-7408184D02*
X3762662Y-7408184D01*
X3762662Y-7408184D02*
X3743615Y-7398660D01*
X3743615Y-7398660D02*
X3734091Y-7389136D01*
X3734091Y-7389136D02*
X3724567Y-7370088D01*
X3724567Y-7370088D02*
X3715043Y-7331993D01*
X3715043Y-7331993D02*
X3715043Y-7284374D01*
X3715043Y-7284374D02*
X3724567Y-7246279D01*
X3724567Y-7246279D02*
X3734091Y-7227231D01*
X3734091Y-7227231D02*
X3743615Y-7217708D01*
X3743615Y-7217708D02*
X3762662Y-7208184D01*
X3943615Y-7293898D02*
X3924567Y-7284374D01*
X3924567Y-7284374D02*
X3915043Y-7274850D01*
X3915043Y-7274850D02*
X3905520Y-7255803D01*
X3905520Y-7255803D02*
X3905520Y-7246279D01*
X3905520Y-7246279D02*
X3915043Y-7227231D01*
X3915043Y-7227231D02*
X3924567Y-7217708D01*
X3924567Y-7217708D02*
X3943615Y-7208184D01*
X3943615Y-7208184D02*
X3981710Y-7208184D01*
X3981710Y-7208184D02*
X4000758Y-7217708D01*
X4000758Y-7217708D02*
X4010282Y-7227231D01*
X4010282Y-7227231D02*
X4019805Y-7246279D01*
X4019805Y-7246279D02*
X4019805Y-7255803D01*
X4019805Y-7255803D02*
X4010282Y-7274850D01*
X4010282Y-7274850D02*
X4000758Y-7284374D01*
X4000758Y-7284374D02*
X3981710Y-7293898D01*
X3981710Y-7293898D02*
X3943615Y-7293898D01*
X3943615Y-7293898D02*
X3924567Y-7303422D01*
X3924567Y-7303422D02*
X3915043Y-7312946D01*
X3915043Y-7312946D02*
X3905520Y-7331993D01*
X3905520Y-7331993D02*
X3905520Y-7370088D01*
X3905520Y-7370088D02*
X3915043Y-7389136D01*
X3915043Y-7389136D02*
X3924567Y-7398660D01*
X3924567Y-7398660D02*
X3943615Y-7408184D01*
X3943615Y-7408184D02*
X3981710Y-7408184D01*
X3981710Y-7408184D02*
X4000758Y-7398660D01*
X4000758Y-7398660D02*
X4010282Y-7389136D01*
X4010282Y-7389136D02*
X4019805Y-7370088D01*
X4019805Y-7370088D02*
X4019805Y-7331993D01*
X4019805Y-7331993D02*
X4010282Y-7312946D01*
X4010282Y-7312946D02*
X4000758Y-7303422D01*
X4000758Y-7303422D02*
X3981710Y-7293898D01*
X4105520Y-7408184D02*
X4105520Y-7274850D01*
X4105520Y-7293898D02*
X4115043Y-7284374D01*
X4115043Y-7284374D02*
X4134091Y-7274850D01*
X4134091Y-7274850D02*
X4162663Y-7274850D01*
X4162663Y-7274850D02*
X4181710Y-7284374D01*
X4181710Y-7284374D02*
X4191234Y-7303422D01*
X4191234Y-7303422D02*
X4191234Y-7408184D01*
X4191234Y-7303422D02*
X4200758Y-7284374D01*
X4200758Y-7284374D02*
X4219805Y-7274850D01*
X4219805Y-7274850D02*
X4248377Y-7274850D01*
X4248377Y-7274850D02*
X4267425Y-7284374D01*
X4267425Y-7284374D02*
X4276948Y-7303422D01*
X4276948Y-7303422D02*
X4276948Y-7408184D01*
X4372186Y-7408184D02*
X4372186Y-7274850D01*
X4372186Y-7293898D02*
X4381710Y-7284374D01*
X4381710Y-7284374D02*
X4400758Y-7274850D01*
X4400758Y-7274850D02*
X4429329Y-7274850D01*
X4429329Y-7274850D02*
X4448377Y-7284374D01*
X4448377Y-7284374D02*
X4457901Y-7303422D01*
X4457901Y-7303422D02*
X4457901Y-7408184D01*
X4457901Y-7303422D02*
X4467425Y-7284374D01*
X4467425Y-7284374D02*
X4486472Y-7274850D01*
X4486472Y-7274850D02*
X4515044Y-7274850D01*
X4515044Y-7274850D02*
X4534091Y-7284374D01*
X4534091Y-7284374D02*
X4543615Y-7303422D01*
X4543615Y-7303422D02*
X4543615Y-7408184D01*
X4934091Y-7198660D02*
X4762663Y-7455803D01*
X5191234Y-7208184D02*
X5210282Y-7208184D01*
X5210282Y-7208184D02*
X5229329Y-7217708D01*
X5229329Y-7217708D02*
X5238853Y-7227231D01*
X5238853Y-7227231D02*
X5248377Y-7246279D01*
X5248377Y-7246279D02*
X5257901Y-7284374D01*
X5257901Y-7284374D02*
X5257901Y-7331993D01*
X5257901Y-7331993D02*
X5248377Y-7370088D01*
X5248377Y-7370088D02*
X5238853Y-7389136D01*
X5238853Y-7389136D02*
X5229329Y-7398660D01*
X5229329Y-7398660D02*
X5210282Y-7408184D01*
X5210282Y-7408184D02*
X5191234Y-7408184D01*
X5191234Y-7408184D02*
X5172187Y-7398660D01*
X5172187Y-7398660D02*
X5162663Y-7389136D01*
X5162663Y-7389136D02*
X5153139Y-7370088D01*
X5153139Y-7370088D02*
X5143615Y-7331993D01*
X5143615Y-7331993D02*
X5143615Y-7284374D01*
X5143615Y-7284374D02*
X5153139Y-7246279D01*
X5153139Y-7246279D02*
X5162663Y-7227231D01*
X5162663Y-7227231D02*
X5172187Y-7217708D01*
X5172187Y-7217708D02*
X5191234Y-7208184D01*
X5343615Y-7389136D02*
X5353139Y-7398660D01*
X5353139Y-7398660D02*
X5343615Y-7408184D01*
X5343615Y-7408184D02*
X5334091Y-7398660D01*
X5334091Y-7398660D02*
X5343615Y-7389136D01*
X5343615Y-7389136D02*
X5343615Y-7408184D01*
X5476948Y-7208184D02*
X5495996Y-7208184D01*
X5495996Y-7208184D02*
X5515044Y-7217708D01*
X5515044Y-7217708D02*
X5524568Y-7227231D01*
X5524568Y-7227231D02*
X5534091Y-7246279D01*
X5534091Y-7246279D02*
X5543615Y-7284374D01*
X5543615Y-7284374D02*
X5543615Y-7331993D01*
X5543615Y-7331993D02*
X5534091Y-7370088D01*
X5534091Y-7370088D02*
X5524568Y-7389136D01*
X5524568Y-7389136D02*
X5515044Y-7398660D01*
X5515044Y-7398660D02*
X5495996Y-7408184D01*
X5495996Y-7408184D02*
X5476948Y-7408184D01*
X5476948Y-7408184D02*
X5457901Y-7398660D01*
X5457901Y-7398660D02*
X5448377Y-7389136D01*
X5448377Y-7389136D02*
X5438853Y-7370088D01*
X5438853Y-7370088D02*
X5429329Y-7331993D01*
X5429329Y-7331993D02*
X5429329Y-7284374D01*
X5429329Y-7284374D02*
X5438853Y-7246279D01*
X5438853Y-7246279D02*
X5448377Y-7227231D01*
X5448377Y-7227231D02*
X5457901Y-7217708D01*
X5457901Y-7217708D02*
X5476948Y-7208184D01*
X5619806Y-7227231D02*
X5629329Y-7217708D01*
X5629329Y-7217708D02*
X5648377Y-7208184D01*
X5648377Y-7208184D02*
X5695996Y-7208184D01*
X5695996Y-7208184D02*
X5715044Y-7217708D01*
X5715044Y-7217708D02*
X5724567Y-7227231D01*
X5724567Y-7227231D02*
X5734091Y-7246279D01*
X5734091Y-7246279D02*
X5734091Y-7265327D01*
X5734091Y-7265327D02*
X5724567Y-7293898D01*
X5724567Y-7293898D02*
X5610282Y-7408184D01*
X5610282Y-7408184D02*
X5734091Y-7408184D01*
X5857901Y-7208184D02*
X5876948Y-7208184D01*
X5876948Y-7208184D02*
X5895996Y-7217708D01*
X5895996Y-7217708D02*
X5905520Y-7227231D01*
X5905520Y-7227231D02*
X5915044Y-7246279D01*
X5915044Y-7246279D02*
X5924567Y-7284374D01*
X5924567Y-7284374D02*
X5924567Y-7331993D01*
X5924567Y-7331993D02*
X5915044Y-7370088D01*
X5915044Y-7370088D02*
X5905520Y-7389136D01*
X5905520Y-7389136D02*
X5895996Y-7398660D01*
X5895996Y-7398660D02*
X5876948Y-7408184D01*
X5876948Y-7408184D02*
X5857901Y-7408184D01*
X5857901Y-7408184D02*
X5838853Y-7398660D01*
X5838853Y-7398660D02*
X5829329Y-7389136D01*
X5829329Y-7389136D02*
X5819806Y-7370088D01*
X5819806Y-7370088D02*
X5810282Y-7331993D01*
X5810282Y-7331993D02*
X5810282Y-7284374D01*
X5810282Y-7284374D02*
X5819806Y-7246279D01*
X5819806Y-7246279D02*
X5829329Y-7227231D01*
X5829329Y-7227231D02*
X5838853Y-7217708D01*
X5838853Y-7217708D02*
X5857901Y-7208184D01*
X6048377Y-7208184D02*
X6067425Y-7208184D01*
X6067425Y-7208184D02*
X6086472Y-7217708D01*
X6086472Y-7217708D02*
X6095996Y-7227231D01*
X6095996Y-7227231D02*
X6105520Y-7246279D01*
X6105520Y-7246279D02*
X6115044Y-7284374D01*
X6115044Y-7284374D02*
X6115044Y-7331993D01*
X6115044Y-7331993D02*
X6105520Y-7370088D01*
X6105520Y-7370088D02*
X6095996Y-7389136D01*
X6095996Y-7389136D02*
X6086472Y-7398660D01*
X6086472Y-7398660D02*
X6067425Y-7408184D01*
X6067425Y-7408184D02*
X6048377Y-7408184D01*
X6048377Y-7408184D02*
X6029329Y-7398660D01*
X6029329Y-7398660D02*
X6019806Y-7389136D01*
X6019806Y-7389136D02*
X6010282Y-7370088D01*
X6010282Y-7370088D02*
X6000758Y-7331993D01*
X6000758Y-7331993D02*
X6000758Y-7284374D01*
X6000758Y-7284374D02*
X6010282Y-7246279D01*
X6010282Y-7246279D02*
X6019806Y-7227231D01*
X6019806Y-7227231D02*
X6029329Y-7217708D01*
X6029329Y-7217708D02*
X6048377Y-7208184D01*
X6191234Y-7208184D02*
X6191234Y-7246279D01*
X6267425Y-7208184D02*
X6267425Y-7246279D01*
X6562663Y-7484374D02*
X6553139Y-7474850D01*
X6553139Y-7474850D02*
X6534091Y-7446279D01*
X6534091Y-7446279D02*
X6524568Y-7427231D01*
X6524568Y-7427231D02*
X6515044Y-7398660D01*
X6515044Y-7398660D02*
X6505520Y-7351041D01*
X6505520Y-7351041D02*
X6505520Y-7312946D01*
X6505520Y-7312946D02*
X6515044Y-7265327D01*
X6515044Y-7265327D02*
X6524568Y-7236755D01*
X6524568Y-7236755D02*
X6534091Y-7217708D01*
X6534091Y-7217708D02*
X6553139Y-7189136D01*
X6553139Y-7189136D02*
X6562663Y-7179612D01*
X6619806Y-7208184D02*
X6743615Y-7208184D01*
X6743615Y-7208184D02*
X6676948Y-7284374D01*
X6676948Y-7284374D02*
X6705520Y-7284374D01*
X6705520Y-7284374D02*
X6724568Y-7293898D01*
X6724568Y-7293898D02*
X6734091Y-7303422D01*
X6734091Y-7303422D02*
X6743615Y-7322469D01*
X6743615Y-7322469D02*
X6743615Y-7370088D01*
X6743615Y-7370088D02*
X6734091Y-7389136D01*
X6734091Y-7389136D02*
X6724568Y-7398660D01*
X6724568Y-7398660D02*
X6705520Y-7408184D01*
X6705520Y-7408184D02*
X6648377Y-7408184D01*
X6648377Y-7408184D02*
X6629329Y-7398660D01*
X6629329Y-7398660D02*
X6619806Y-7389136D01*
X6981710Y-7408184D02*
X6981710Y-7208184D01*
X7067425Y-7408184D02*
X7067425Y-7303422D01*
X7067425Y-7303422D02*
X7057901Y-7284374D01*
X7057901Y-7284374D02*
X7038853Y-7274850D01*
X7038853Y-7274850D02*
X7010282Y-7274850D01*
X7010282Y-7274850D02*
X6991234Y-7284374D01*
X6991234Y-7284374D02*
X6981710Y-7293898D01*
X7191234Y-7408184D02*
X7172187Y-7398660D01*
X7172187Y-7398660D02*
X7162663Y-7389136D01*
X7162663Y-7389136D02*
X7153139Y-7370088D01*
X7153139Y-7370088D02*
X7153139Y-7312946D01*
X7153139Y-7312946D02*
X7162663Y-7293898D01*
X7162663Y-7293898D02*
X7172187Y-7284374D01*
X7172187Y-7284374D02*
X7191234Y-7274850D01*
X7191234Y-7274850D02*
X7219806Y-7274850D01*
X7219806Y-7274850D02*
X7238853Y-7284374D01*
X7238853Y-7284374D02*
X7248377Y-7293898D01*
X7248377Y-7293898D02*
X7257901Y-7312946D01*
X7257901Y-7312946D02*
X7257901Y-7370088D01*
X7257901Y-7370088D02*
X7248377Y-7389136D01*
X7248377Y-7389136D02*
X7238853Y-7398660D01*
X7238853Y-7398660D02*
X7219806Y-7408184D01*
X7219806Y-7408184D02*
X7191234Y-7408184D01*
X7372187Y-7408184D02*
X7353139Y-7398660D01*
X7353139Y-7398660D02*
X7343615Y-7379612D01*
X7343615Y-7379612D02*
X7343615Y-7208184D01*
X7524568Y-7398660D02*
X7505520Y-7408184D01*
X7505520Y-7408184D02*
X7467425Y-7408184D01*
X7467425Y-7408184D02*
X7448377Y-7398660D01*
X7448377Y-7398660D02*
X7438853Y-7379612D01*
X7438853Y-7379612D02*
X7438853Y-7303422D01*
X7438853Y-7303422D02*
X7448377Y-7284374D01*
X7448377Y-7284374D02*
X7467425Y-7274850D01*
X7467425Y-7274850D02*
X7505520Y-7274850D01*
X7505520Y-7274850D02*
X7524568Y-7284374D01*
X7524568Y-7284374D02*
X7534091Y-7303422D01*
X7534091Y-7303422D02*
X7534091Y-7322469D01*
X7534091Y-7322469D02*
X7438853Y-7341517D01*
X7610282Y-7398660D02*
X7629330Y-7408184D01*
X7629330Y-7408184D02*
X7667425Y-7408184D01*
X7667425Y-7408184D02*
X7686472Y-7398660D01*
X7686472Y-7398660D02*
X7695996Y-7379612D01*
X7695996Y-7379612D02*
X7695996Y-7370088D01*
X7695996Y-7370088D02*
X7686472Y-7351041D01*
X7686472Y-7351041D02*
X7667425Y-7341517D01*
X7667425Y-7341517D02*
X7638853Y-7341517D01*
X7638853Y-7341517D02*
X7619806Y-7331993D01*
X7619806Y-7331993D02*
X7610282Y-7312946D01*
X7610282Y-7312946D02*
X7610282Y-7303422D01*
X7610282Y-7303422D02*
X7619806Y-7284374D01*
X7619806Y-7284374D02*
X7638853Y-7274850D01*
X7638853Y-7274850D02*
X7667425Y-7274850D01*
X7667425Y-7274850D02*
X7686472Y-7284374D01*
X7762663Y-7484374D02*
X7772187Y-7474850D01*
X7772187Y-7474850D02*
X7791234Y-7446279D01*
X7791234Y-7446279D02*
X7800758Y-7427231D01*
X7800758Y-7427231D02*
X7810282Y-7398660D01*
X7810282Y-7398660D02*
X7819806Y-7351041D01*
X7819806Y-7351041D02*
X7819806Y-7312946D01*
X7819806Y-7312946D02*
X7810282Y-7265327D01*
X7810282Y-7265327D02*
X7800758Y-7236755D01*
X7800758Y-7236755D02*
X7791234Y-7217708D01*
X7791234Y-7217708D02*
X7772187Y-7189136D01*
X7772187Y-7189136D02*
X7762663Y-7179612D01*
D12*
X2957600Y-7550700D02*
X2957600Y-7610700D01*
X2927600Y-7580700D02*
X2987600Y-7580700D01*
D11*
X3286472Y-7472184D02*
X3305520Y-7472184D01*
X3305520Y-7472184D02*
X3324567Y-7481708D01*
X3324567Y-7481708D02*
X3334091Y-7491231D01*
X3334091Y-7491231D02*
X3343615Y-7510279D01*
X3343615Y-7510279D02*
X3353139Y-7548374D01*
X3353139Y-7548374D02*
X3353139Y-7595993D01*
X3353139Y-7595993D02*
X3343615Y-7634088D01*
X3343615Y-7634088D02*
X3334091Y-7653136D01*
X3334091Y-7653136D02*
X3324567Y-7662660D01*
X3324567Y-7662660D02*
X3305520Y-7672184D01*
X3305520Y-7672184D02*
X3286472Y-7672184D01*
X3286472Y-7672184D02*
X3267424Y-7662660D01*
X3267424Y-7662660D02*
X3257901Y-7653136D01*
X3257901Y-7653136D02*
X3248377Y-7634088D01*
X3248377Y-7634088D02*
X3238853Y-7595993D01*
X3238853Y-7595993D02*
X3238853Y-7548374D01*
X3238853Y-7548374D02*
X3248377Y-7510279D01*
X3248377Y-7510279D02*
X3257901Y-7491231D01*
X3257901Y-7491231D02*
X3267424Y-7481708D01*
X3267424Y-7481708D02*
X3286472Y-7472184D01*
X3438853Y-7653136D02*
X3448377Y-7662660D01*
X3448377Y-7662660D02*
X3438853Y-7672184D01*
X3438853Y-7672184D02*
X3429329Y-7662660D01*
X3429329Y-7662660D02*
X3438853Y-7653136D01*
X3438853Y-7653136D02*
X3438853Y-7672184D01*
X3619805Y-7472184D02*
X3581710Y-7472184D01*
X3581710Y-7472184D02*
X3562662Y-7481708D01*
X3562662Y-7481708D02*
X3553139Y-7491231D01*
X3553139Y-7491231D02*
X3534091Y-7519803D01*
X3534091Y-7519803D02*
X3524567Y-7557898D01*
X3524567Y-7557898D02*
X3524567Y-7634088D01*
X3524567Y-7634088D02*
X3534091Y-7653136D01*
X3534091Y-7653136D02*
X3543615Y-7662660D01*
X3543615Y-7662660D02*
X3562662Y-7672184D01*
X3562662Y-7672184D02*
X3600758Y-7672184D01*
X3600758Y-7672184D02*
X3619805Y-7662660D01*
X3619805Y-7662660D02*
X3629329Y-7653136D01*
X3629329Y-7653136D02*
X3638853Y-7634088D01*
X3638853Y-7634088D02*
X3638853Y-7586469D01*
X3638853Y-7586469D02*
X3629329Y-7567422D01*
X3629329Y-7567422D02*
X3619805Y-7557898D01*
X3619805Y-7557898D02*
X3600758Y-7548374D01*
X3600758Y-7548374D02*
X3562662Y-7548374D01*
X3562662Y-7548374D02*
X3543615Y-7557898D01*
X3543615Y-7557898D02*
X3534091Y-7567422D01*
X3534091Y-7567422D02*
X3524567Y-7586469D01*
X3762662Y-7472184D02*
X3781710Y-7472184D01*
X3781710Y-7472184D02*
X3800758Y-7481708D01*
X3800758Y-7481708D02*
X3810282Y-7491231D01*
X3810282Y-7491231D02*
X3819805Y-7510279D01*
X3819805Y-7510279D02*
X3829329Y-7548374D01*
X3829329Y-7548374D02*
X3829329Y-7595993D01*
X3829329Y-7595993D02*
X3819805Y-7634088D01*
X3819805Y-7634088D02*
X3810282Y-7653136D01*
X3810282Y-7653136D02*
X3800758Y-7662660D01*
X3800758Y-7662660D02*
X3781710Y-7672184D01*
X3781710Y-7672184D02*
X3762662Y-7672184D01*
X3762662Y-7672184D02*
X3743615Y-7662660D01*
X3743615Y-7662660D02*
X3734091Y-7653136D01*
X3734091Y-7653136D02*
X3724567Y-7634088D01*
X3724567Y-7634088D02*
X3715043Y-7595993D01*
X3715043Y-7595993D02*
X3715043Y-7548374D01*
X3715043Y-7548374D02*
X3724567Y-7510279D01*
X3724567Y-7510279D02*
X3734091Y-7491231D01*
X3734091Y-7491231D02*
X3743615Y-7481708D01*
X3743615Y-7481708D02*
X3762662Y-7472184D01*
X3953139Y-7472184D02*
X3972186Y-7472184D01*
X3972186Y-7472184D02*
X3991234Y-7481708D01*
X3991234Y-7481708D02*
X4000758Y-7491231D01*
X4000758Y-7491231D02*
X4010282Y-7510279D01*
X4010282Y-7510279D02*
X4019805Y-7548374D01*
X4019805Y-7548374D02*
X4019805Y-7595993D01*
X4019805Y-7595993D02*
X4010282Y-7634088D01*
X4010282Y-7634088D02*
X4000758Y-7653136D01*
X4000758Y-7653136D02*
X3991234Y-7662660D01*
X3991234Y-7662660D02*
X3972186Y-7672184D01*
X3972186Y-7672184D02*
X3953139Y-7672184D01*
X3953139Y-7672184D02*
X3934091Y-7662660D01*
X3934091Y-7662660D02*
X3924567Y-7653136D01*
X3924567Y-7653136D02*
X3915043Y-7634088D01*
X3915043Y-7634088D02*
X3905520Y-7595993D01*
X3905520Y-7595993D02*
X3905520Y-7548374D01*
X3905520Y-7548374D02*
X3915043Y-7510279D01*
X3915043Y-7510279D02*
X3924567Y-7491231D01*
X3924567Y-7491231D02*
X3934091Y-7481708D01*
X3934091Y-7481708D02*
X3953139Y-7472184D01*
X4105520Y-7672184D02*
X4105520Y-7538850D01*
X4105520Y-7557898D02*
X4115043Y-7548374D01*
X4115043Y-7548374D02*
X4134091Y-7538850D01*
X4134091Y-7538850D02*
X4162663Y-7538850D01*
X4162663Y-7538850D02*
X4181710Y-7548374D01*
X4181710Y-7548374D02*
X4191234Y-7567422D01*
X4191234Y-7567422D02*
X4191234Y-7672184D01*
X4191234Y-7567422D02*
X4200758Y-7548374D01*
X4200758Y-7548374D02*
X4219805Y-7538850D01*
X4219805Y-7538850D02*
X4248377Y-7538850D01*
X4248377Y-7538850D02*
X4267425Y-7548374D01*
X4267425Y-7548374D02*
X4276948Y-7567422D01*
X4276948Y-7567422D02*
X4276948Y-7672184D01*
X4372186Y-7672184D02*
X4372186Y-7538850D01*
X4372186Y-7557898D02*
X4381710Y-7548374D01*
X4381710Y-7548374D02*
X4400758Y-7538850D01*
X4400758Y-7538850D02*
X4429329Y-7538850D01*
X4429329Y-7538850D02*
X4448377Y-7548374D01*
X4448377Y-7548374D02*
X4457901Y-7567422D01*
X4457901Y-7567422D02*
X4457901Y-7672184D01*
X4457901Y-7567422D02*
X4467425Y-7548374D01*
X4467425Y-7548374D02*
X4486472Y-7538850D01*
X4486472Y-7538850D02*
X4515044Y-7538850D01*
X4515044Y-7538850D02*
X4534091Y-7548374D01*
X4534091Y-7548374D02*
X4543615Y-7567422D01*
X4543615Y-7567422D02*
X4543615Y-7672184D01*
X4934091Y-7462660D02*
X4762663Y-7719803D01*
X5191234Y-7472184D02*
X5210282Y-7472184D01*
X5210282Y-7472184D02*
X5229329Y-7481708D01*
X5229329Y-7481708D02*
X5238853Y-7491231D01*
X5238853Y-7491231D02*
X5248377Y-7510279D01*
X5248377Y-7510279D02*
X5257901Y-7548374D01*
X5257901Y-7548374D02*
X5257901Y-7595993D01*
X5257901Y-7595993D02*
X5248377Y-7634088D01*
X5248377Y-7634088D02*
X5238853Y-7653136D01*
X5238853Y-7653136D02*
X5229329Y-7662660D01*
X5229329Y-7662660D02*
X5210282Y-7672184D01*
X5210282Y-7672184D02*
X5191234Y-7672184D01*
X5191234Y-7672184D02*
X5172187Y-7662660D01*
X5172187Y-7662660D02*
X5162663Y-7653136D01*
X5162663Y-7653136D02*
X5153139Y-7634088D01*
X5153139Y-7634088D02*
X5143615Y-7595993D01*
X5143615Y-7595993D02*
X5143615Y-7548374D01*
X5143615Y-7548374D02*
X5153139Y-7510279D01*
X5153139Y-7510279D02*
X5162663Y-7491231D01*
X5162663Y-7491231D02*
X5172187Y-7481708D01*
X5172187Y-7481708D02*
X5191234Y-7472184D01*
X5343615Y-7653136D02*
X5353139Y-7662660D01*
X5353139Y-7662660D02*
X5343615Y-7672184D01*
X5343615Y-7672184D02*
X5334091Y-7662660D01*
X5334091Y-7662660D02*
X5343615Y-7653136D01*
X5343615Y-7653136D02*
X5343615Y-7672184D01*
X5476948Y-7472184D02*
X5495996Y-7472184D01*
X5495996Y-7472184D02*
X5515044Y-7481708D01*
X5515044Y-7481708D02*
X5524568Y-7491231D01*
X5524568Y-7491231D02*
X5534091Y-7510279D01*
X5534091Y-7510279D02*
X5543615Y-7548374D01*
X5543615Y-7548374D02*
X5543615Y-7595993D01*
X5543615Y-7595993D02*
X5534091Y-7634088D01*
X5534091Y-7634088D02*
X5524568Y-7653136D01*
X5524568Y-7653136D02*
X5515044Y-7662660D01*
X5515044Y-7662660D02*
X5495996Y-7672184D01*
X5495996Y-7672184D02*
X5476948Y-7672184D01*
X5476948Y-7672184D02*
X5457901Y-7662660D01*
X5457901Y-7662660D02*
X5448377Y-7653136D01*
X5448377Y-7653136D02*
X5438853Y-7634088D01*
X5438853Y-7634088D02*
X5429329Y-7595993D01*
X5429329Y-7595993D02*
X5429329Y-7548374D01*
X5429329Y-7548374D02*
X5438853Y-7510279D01*
X5438853Y-7510279D02*
X5448377Y-7491231D01*
X5448377Y-7491231D02*
X5457901Y-7481708D01*
X5457901Y-7481708D02*
X5476948Y-7472184D01*
X5619806Y-7491231D02*
X5629329Y-7481708D01*
X5629329Y-7481708D02*
X5648377Y-7472184D01*
X5648377Y-7472184D02*
X5695996Y-7472184D01*
X5695996Y-7472184D02*
X5715044Y-7481708D01*
X5715044Y-7481708D02*
X5724567Y-7491231D01*
X5724567Y-7491231D02*
X5734091Y-7510279D01*
X5734091Y-7510279D02*
X5734091Y-7529327D01*
X5734091Y-7529327D02*
X5724567Y-7557898D01*
X5724567Y-7557898D02*
X5610282Y-7672184D01*
X5610282Y-7672184D02*
X5734091Y-7672184D01*
X5800758Y-7472184D02*
X5924567Y-7472184D01*
X5924567Y-7472184D02*
X5857901Y-7548374D01*
X5857901Y-7548374D02*
X5886472Y-7548374D01*
X5886472Y-7548374D02*
X5905520Y-7557898D01*
X5905520Y-7557898D02*
X5915044Y-7567422D01*
X5915044Y-7567422D02*
X5924567Y-7586469D01*
X5924567Y-7586469D02*
X5924567Y-7634088D01*
X5924567Y-7634088D02*
X5915044Y-7653136D01*
X5915044Y-7653136D02*
X5905520Y-7662660D01*
X5905520Y-7662660D02*
X5886472Y-7672184D01*
X5886472Y-7672184D02*
X5829329Y-7672184D01*
X5829329Y-7672184D02*
X5810282Y-7662660D01*
X5810282Y-7662660D02*
X5800758Y-7653136D01*
X6095996Y-7472184D02*
X6057901Y-7472184D01*
X6057901Y-7472184D02*
X6038853Y-7481708D01*
X6038853Y-7481708D02*
X6029329Y-7491231D01*
X6029329Y-7491231D02*
X6010282Y-7519803D01*
X6010282Y-7519803D02*
X6000758Y-7557898D01*
X6000758Y-7557898D02*
X6000758Y-7634088D01*
X6000758Y-7634088D02*
X6010282Y-7653136D01*
X6010282Y-7653136D02*
X6019806Y-7662660D01*
X6019806Y-7662660D02*
X6038853Y-7672184D01*
X6038853Y-7672184D02*
X6076948Y-7672184D01*
X6076948Y-7672184D02*
X6095996Y-7662660D01*
X6095996Y-7662660D02*
X6105520Y-7653136D01*
X6105520Y-7653136D02*
X6115044Y-7634088D01*
X6115044Y-7634088D02*
X6115044Y-7586469D01*
X6115044Y-7586469D02*
X6105520Y-7567422D01*
X6105520Y-7567422D02*
X6095996Y-7557898D01*
X6095996Y-7557898D02*
X6076948Y-7548374D01*
X6076948Y-7548374D02*
X6038853Y-7548374D01*
X6038853Y-7548374D02*
X6019806Y-7557898D01*
X6019806Y-7557898D02*
X6010282Y-7567422D01*
X6010282Y-7567422D02*
X6000758Y-7586469D01*
X6191234Y-7472184D02*
X6191234Y-7510279D01*
X6267425Y-7472184D02*
X6267425Y-7510279D01*
X6562663Y-7748374D02*
X6553139Y-7738850D01*
X6553139Y-7738850D02*
X6534091Y-7710279D01*
X6534091Y-7710279D02*
X6524568Y-7691231D01*
X6524568Y-7691231D02*
X6515044Y-7662660D01*
X6515044Y-7662660D02*
X6505520Y-7615041D01*
X6505520Y-7615041D02*
X6505520Y-7576946D01*
X6505520Y-7576946D02*
X6515044Y-7529327D01*
X6515044Y-7529327D02*
X6524568Y-7500755D01*
X6524568Y-7500755D02*
X6534091Y-7481708D01*
X6534091Y-7481708D02*
X6553139Y-7453136D01*
X6553139Y-7453136D02*
X6562663Y-7443612D01*
X6676948Y-7472184D02*
X6695996Y-7472184D01*
X6695996Y-7472184D02*
X6715044Y-7481708D01*
X6715044Y-7481708D02*
X6724568Y-7491231D01*
X6724568Y-7491231D02*
X6734091Y-7510279D01*
X6734091Y-7510279D02*
X6743615Y-7548374D01*
X6743615Y-7548374D02*
X6743615Y-7595993D01*
X6743615Y-7595993D02*
X6734091Y-7634088D01*
X6734091Y-7634088D02*
X6724568Y-7653136D01*
X6724568Y-7653136D02*
X6715044Y-7662660D01*
X6715044Y-7662660D02*
X6695996Y-7672184D01*
X6695996Y-7672184D02*
X6676948Y-7672184D01*
X6676948Y-7672184D02*
X6657901Y-7662660D01*
X6657901Y-7662660D02*
X6648377Y-7653136D01*
X6648377Y-7653136D02*
X6638853Y-7634088D01*
X6638853Y-7634088D02*
X6629329Y-7595993D01*
X6629329Y-7595993D02*
X6629329Y-7548374D01*
X6629329Y-7548374D02*
X6638853Y-7510279D01*
X6638853Y-7510279D02*
X6648377Y-7491231D01*
X6648377Y-7491231D02*
X6657901Y-7481708D01*
X6657901Y-7481708D02*
X6676948Y-7472184D01*
X6981710Y-7672184D02*
X6981710Y-7472184D01*
X7067425Y-7672184D02*
X7067425Y-7567422D01*
X7067425Y-7567422D02*
X7057901Y-7548374D01*
X7057901Y-7548374D02*
X7038853Y-7538850D01*
X7038853Y-7538850D02*
X7010282Y-7538850D01*
X7010282Y-7538850D02*
X6991234Y-7548374D01*
X6991234Y-7548374D02*
X6981710Y-7557898D01*
X7191234Y-7672184D02*
X7172187Y-7662660D01*
X7172187Y-7662660D02*
X7162663Y-7653136D01*
X7162663Y-7653136D02*
X7153139Y-7634088D01*
X7153139Y-7634088D02*
X7153139Y-7576946D01*
X7153139Y-7576946D02*
X7162663Y-7557898D01*
X7162663Y-7557898D02*
X7172187Y-7548374D01*
X7172187Y-7548374D02*
X7191234Y-7538850D01*
X7191234Y-7538850D02*
X7219806Y-7538850D01*
X7219806Y-7538850D02*
X7238853Y-7548374D01*
X7238853Y-7548374D02*
X7248377Y-7557898D01*
X7248377Y-7557898D02*
X7257901Y-7576946D01*
X7257901Y-7576946D02*
X7257901Y-7634088D01*
X7257901Y-7634088D02*
X7248377Y-7653136D01*
X7248377Y-7653136D02*
X7238853Y-7662660D01*
X7238853Y-7662660D02*
X7219806Y-7672184D01*
X7219806Y-7672184D02*
X7191234Y-7672184D01*
X7372187Y-7672184D02*
X7353139Y-7662660D01*
X7353139Y-7662660D02*
X7343615Y-7643612D01*
X7343615Y-7643612D02*
X7343615Y-7472184D01*
X7524568Y-7662660D02*
X7505520Y-7672184D01*
X7505520Y-7672184D02*
X7467425Y-7672184D01*
X7467425Y-7672184D02*
X7448377Y-7662660D01*
X7448377Y-7662660D02*
X7438853Y-7643612D01*
X7438853Y-7643612D02*
X7438853Y-7567422D01*
X7438853Y-7567422D02*
X7448377Y-7548374D01*
X7448377Y-7548374D02*
X7467425Y-7538850D01*
X7467425Y-7538850D02*
X7505520Y-7538850D01*
X7505520Y-7538850D02*
X7524568Y-7548374D01*
X7524568Y-7548374D02*
X7534091Y-7567422D01*
X7534091Y-7567422D02*
X7534091Y-7586469D01*
X7534091Y-7586469D02*
X7438853Y-7605517D01*
X7610282Y-7662660D02*
X7629330Y-7672184D01*
X7629330Y-7672184D02*
X7667425Y-7672184D01*
X7667425Y-7672184D02*
X7686472Y-7662660D01*
X7686472Y-7662660D02*
X7695996Y-7643612D01*
X7695996Y-7643612D02*
X7695996Y-7634088D01*
X7695996Y-7634088D02*
X7686472Y-7615041D01*
X7686472Y-7615041D02*
X7667425Y-7605517D01*
X7667425Y-7605517D02*
X7638853Y-7605517D01*
X7638853Y-7605517D02*
X7619806Y-7595993D01*
X7619806Y-7595993D02*
X7610282Y-7576946D01*
X7610282Y-7576946D02*
X7610282Y-7567422D01*
X7610282Y-7567422D02*
X7619806Y-7548374D01*
X7619806Y-7548374D02*
X7638853Y-7538850D01*
X7638853Y-7538850D02*
X7667425Y-7538850D01*
X7667425Y-7538850D02*
X7686472Y-7548374D01*
X7934092Y-7595993D02*
X8086473Y-7595993D01*
X8010282Y-7672184D02*
X8010282Y-7519803D01*
X8419806Y-7538850D02*
X8419806Y-7672184D01*
X8372187Y-7462660D02*
X8324568Y-7605517D01*
X8324568Y-7605517D02*
X8448377Y-7605517D01*
X8667425Y-7662660D02*
X8686473Y-7672184D01*
X8686473Y-7672184D02*
X8724568Y-7672184D01*
X8724568Y-7672184D02*
X8743616Y-7662660D01*
X8743616Y-7662660D02*
X8753139Y-7643612D01*
X8753139Y-7643612D02*
X8753139Y-7634088D01*
X8753139Y-7634088D02*
X8743616Y-7615041D01*
X8743616Y-7615041D02*
X8724568Y-7605517D01*
X8724568Y-7605517D02*
X8695996Y-7605517D01*
X8695996Y-7605517D02*
X8676949Y-7595993D01*
X8676949Y-7595993D02*
X8667425Y-7576946D01*
X8667425Y-7576946D02*
X8667425Y-7567422D01*
X8667425Y-7567422D02*
X8676949Y-7548374D01*
X8676949Y-7548374D02*
X8695996Y-7538850D01*
X8695996Y-7538850D02*
X8724568Y-7538850D01*
X8724568Y-7538850D02*
X8743616Y-7548374D01*
X8867425Y-7672184D02*
X8848377Y-7662660D01*
X8848377Y-7662660D02*
X8838854Y-7643612D01*
X8838854Y-7643612D02*
X8838854Y-7472184D01*
X8972187Y-7672184D02*
X8953139Y-7662660D01*
X8953139Y-7662660D02*
X8943616Y-7653136D01*
X8943616Y-7653136D02*
X8934092Y-7634088D01*
X8934092Y-7634088D02*
X8934092Y-7576946D01*
X8934092Y-7576946D02*
X8943616Y-7557898D01*
X8943616Y-7557898D02*
X8953139Y-7548374D01*
X8953139Y-7548374D02*
X8972187Y-7538850D01*
X8972187Y-7538850D02*
X9000758Y-7538850D01*
X9000758Y-7538850D02*
X9019806Y-7548374D01*
X9019806Y-7548374D02*
X9029330Y-7557898D01*
X9029330Y-7557898D02*
X9038854Y-7576946D01*
X9038854Y-7576946D02*
X9038854Y-7634088D01*
X9038854Y-7634088D02*
X9029330Y-7653136D01*
X9029330Y-7653136D02*
X9019806Y-7662660D01*
X9019806Y-7662660D02*
X9000758Y-7672184D01*
X9000758Y-7672184D02*
X8972187Y-7672184D01*
X9095997Y-7538850D02*
X9172187Y-7538850D01*
X9124568Y-7472184D02*
X9124568Y-7643612D01*
X9124568Y-7643612D02*
X9134092Y-7662660D01*
X9134092Y-7662660D02*
X9153139Y-7672184D01*
X9153139Y-7672184D02*
X9172187Y-7672184D01*
X9229330Y-7662660D02*
X9248377Y-7672184D01*
X9248377Y-7672184D02*
X9286473Y-7672184D01*
X9286473Y-7672184D02*
X9305520Y-7662660D01*
X9305520Y-7662660D02*
X9315044Y-7643612D01*
X9315044Y-7643612D02*
X9315044Y-7634088D01*
X9315044Y-7634088D02*
X9305520Y-7615041D01*
X9305520Y-7615041D02*
X9286473Y-7605517D01*
X9286473Y-7605517D02*
X9257901Y-7605517D01*
X9257901Y-7605517D02*
X9238854Y-7595993D01*
X9238854Y-7595993D02*
X9229330Y-7576946D01*
X9229330Y-7576946D02*
X9229330Y-7567422D01*
X9229330Y-7567422D02*
X9238854Y-7548374D01*
X9238854Y-7548374D02*
X9257901Y-7538850D01*
X9257901Y-7538850D02*
X9286473Y-7538850D01*
X9286473Y-7538850D02*
X9305520Y-7548374D01*
X9381711Y-7748374D02*
X9391235Y-7738850D01*
X9391235Y-7738850D02*
X9410282Y-7710279D01*
X9410282Y-7710279D02*
X9419806Y-7691231D01*
X9419806Y-7691231D02*
X9429330Y-7662660D01*
X9429330Y-7662660D02*
X9438854Y-7615041D01*
X9438854Y-7615041D02*
X9438854Y-7576946D01*
X9438854Y-7576946D02*
X9429330Y-7529327D01*
X9429330Y-7529327D02*
X9419806Y-7500755D01*
X9419806Y-7500755D02*
X9410282Y-7481708D01*
X9410282Y-7481708D02*
X9391235Y-7453136D01*
X9391235Y-7453136D02*
X9381711Y-7443612D01*
D12*
X2972956Y-7880056D02*
X2972956Y-7809344D01*
X2902244Y-7809344D01*
X2902244Y-7880056D01*
X2972956Y-7880056D01*
D11*
X3353139Y-7936184D02*
X3238853Y-7936184D01*
X3295996Y-7936184D02*
X3295996Y-7736184D01*
X3295996Y-7736184D02*
X3276948Y-7764755D01*
X3276948Y-7764755D02*
X3257901Y-7783803D01*
X3257901Y-7783803D02*
X3238853Y-7793327D01*
X3438853Y-7917136D02*
X3448377Y-7926660D01*
X3448377Y-7926660D02*
X3438853Y-7936184D01*
X3438853Y-7936184D02*
X3429329Y-7926660D01*
X3429329Y-7926660D02*
X3438853Y-7917136D01*
X3438853Y-7917136D02*
X3438853Y-7936184D01*
X3572186Y-7736184D02*
X3591234Y-7736184D01*
X3591234Y-7736184D02*
X3610282Y-7745708D01*
X3610282Y-7745708D02*
X3619805Y-7755231D01*
X3619805Y-7755231D02*
X3629329Y-7774279D01*
X3629329Y-7774279D02*
X3638853Y-7812374D01*
X3638853Y-7812374D02*
X3638853Y-7859993D01*
X3638853Y-7859993D02*
X3629329Y-7898088D01*
X3629329Y-7898088D02*
X3619805Y-7917136D01*
X3619805Y-7917136D02*
X3610282Y-7926660D01*
X3610282Y-7926660D02*
X3591234Y-7936184D01*
X3591234Y-7936184D02*
X3572186Y-7936184D01*
X3572186Y-7936184D02*
X3553139Y-7926660D01*
X3553139Y-7926660D02*
X3543615Y-7917136D01*
X3543615Y-7917136D02*
X3534091Y-7898088D01*
X3534091Y-7898088D02*
X3524567Y-7859993D01*
X3524567Y-7859993D02*
X3524567Y-7812374D01*
X3524567Y-7812374D02*
X3534091Y-7774279D01*
X3534091Y-7774279D02*
X3543615Y-7755231D01*
X3543615Y-7755231D02*
X3553139Y-7745708D01*
X3553139Y-7745708D02*
X3572186Y-7736184D01*
X3762662Y-7736184D02*
X3781710Y-7736184D01*
X3781710Y-7736184D02*
X3800758Y-7745708D01*
X3800758Y-7745708D02*
X3810282Y-7755231D01*
X3810282Y-7755231D02*
X3819805Y-7774279D01*
X3819805Y-7774279D02*
X3829329Y-7812374D01*
X3829329Y-7812374D02*
X3829329Y-7859993D01*
X3829329Y-7859993D02*
X3819805Y-7898088D01*
X3819805Y-7898088D02*
X3810282Y-7917136D01*
X3810282Y-7917136D02*
X3800758Y-7926660D01*
X3800758Y-7926660D02*
X3781710Y-7936184D01*
X3781710Y-7936184D02*
X3762662Y-7936184D01*
X3762662Y-7936184D02*
X3743615Y-7926660D01*
X3743615Y-7926660D02*
X3734091Y-7917136D01*
X3734091Y-7917136D02*
X3724567Y-7898088D01*
X3724567Y-7898088D02*
X3715043Y-7859993D01*
X3715043Y-7859993D02*
X3715043Y-7812374D01*
X3715043Y-7812374D02*
X3724567Y-7774279D01*
X3724567Y-7774279D02*
X3734091Y-7755231D01*
X3734091Y-7755231D02*
X3743615Y-7745708D01*
X3743615Y-7745708D02*
X3762662Y-7736184D01*
X3953139Y-7736184D02*
X3972186Y-7736184D01*
X3972186Y-7736184D02*
X3991234Y-7745708D01*
X3991234Y-7745708D02*
X4000758Y-7755231D01*
X4000758Y-7755231D02*
X4010282Y-7774279D01*
X4010282Y-7774279D02*
X4019805Y-7812374D01*
X4019805Y-7812374D02*
X4019805Y-7859993D01*
X4019805Y-7859993D02*
X4010282Y-7898088D01*
X4010282Y-7898088D02*
X4000758Y-7917136D01*
X4000758Y-7917136D02*
X3991234Y-7926660D01*
X3991234Y-7926660D02*
X3972186Y-7936184D01*
X3972186Y-7936184D02*
X3953139Y-7936184D01*
X3953139Y-7936184D02*
X3934091Y-7926660D01*
X3934091Y-7926660D02*
X3924567Y-7917136D01*
X3924567Y-7917136D02*
X3915043Y-7898088D01*
X3915043Y-7898088D02*
X3905520Y-7859993D01*
X3905520Y-7859993D02*
X3905520Y-7812374D01*
X3905520Y-7812374D02*
X3915043Y-7774279D01*
X3915043Y-7774279D02*
X3924567Y-7755231D01*
X3924567Y-7755231D02*
X3934091Y-7745708D01*
X3934091Y-7745708D02*
X3953139Y-7736184D01*
X4105520Y-7936184D02*
X4105520Y-7802850D01*
X4105520Y-7821898D02*
X4115043Y-7812374D01*
X4115043Y-7812374D02*
X4134091Y-7802850D01*
X4134091Y-7802850D02*
X4162663Y-7802850D01*
X4162663Y-7802850D02*
X4181710Y-7812374D01*
X4181710Y-7812374D02*
X4191234Y-7831422D01*
X4191234Y-7831422D02*
X4191234Y-7936184D01*
X4191234Y-7831422D02*
X4200758Y-7812374D01*
X4200758Y-7812374D02*
X4219805Y-7802850D01*
X4219805Y-7802850D02*
X4248377Y-7802850D01*
X4248377Y-7802850D02*
X4267425Y-7812374D01*
X4267425Y-7812374D02*
X4276948Y-7831422D01*
X4276948Y-7831422D02*
X4276948Y-7936184D01*
X4372186Y-7936184D02*
X4372186Y-7802850D01*
X4372186Y-7821898D02*
X4381710Y-7812374D01*
X4381710Y-7812374D02*
X4400758Y-7802850D01*
X4400758Y-7802850D02*
X4429329Y-7802850D01*
X4429329Y-7802850D02*
X4448377Y-7812374D01*
X4448377Y-7812374D02*
X4457901Y-7831422D01*
X4457901Y-7831422D02*
X4457901Y-7936184D01*
X4457901Y-7831422D02*
X4467425Y-7812374D01*
X4467425Y-7812374D02*
X4486472Y-7802850D01*
X4486472Y-7802850D02*
X4515044Y-7802850D01*
X4515044Y-7802850D02*
X4534091Y-7812374D01*
X4534091Y-7812374D02*
X4543615Y-7831422D01*
X4543615Y-7831422D02*
X4543615Y-7936184D01*
X4934091Y-7726660D02*
X4762663Y-7983803D01*
X5191234Y-7736184D02*
X5210282Y-7736184D01*
X5210282Y-7736184D02*
X5229329Y-7745708D01*
X5229329Y-7745708D02*
X5238853Y-7755231D01*
X5238853Y-7755231D02*
X5248377Y-7774279D01*
X5248377Y-7774279D02*
X5257901Y-7812374D01*
X5257901Y-7812374D02*
X5257901Y-7859993D01*
X5257901Y-7859993D02*
X5248377Y-7898088D01*
X5248377Y-7898088D02*
X5238853Y-7917136D01*
X5238853Y-7917136D02*
X5229329Y-7926660D01*
X5229329Y-7926660D02*
X5210282Y-7936184D01*
X5210282Y-7936184D02*
X5191234Y-7936184D01*
X5191234Y-7936184D02*
X5172187Y-7926660D01*
X5172187Y-7926660D02*
X5162663Y-7917136D01*
X5162663Y-7917136D02*
X5153139Y-7898088D01*
X5153139Y-7898088D02*
X5143615Y-7859993D01*
X5143615Y-7859993D02*
X5143615Y-7812374D01*
X5143615Y-7812374D02*
X5153139Y-7774279D01*
X5153139Y-7774279D02*
X5162663Y-7755231D01*
X5162663Y-7755231D02*
X5172187Y-7745708D01*
X5172187Y-7745708D02*
X5191234Y-7736184D01*
X5343615Y-7917136D02*
X5353139Y-7926660D01*
X5353139Y-7926660D02*
X5343615Y-7936184D01*
X5343615Y-7936184D02*
X5334091Y-7926660D01*
X5334091Y-7926660D02*
X5343615Y-7917136D01*
X5343615Y-7917136D02*
X5343615Y-7936184D01*
X5476948Y-7736184D02*
X5495996Y-7736184D01*
X5495996Y-7736184D02*
X5515044Y-7745708D01*
X5515044Y-7745708D02*
X5524568Y-7755231D01*
X5524568Y-7755231D02*
X5534091Y-7774279D01*
X5534091Y-7774279D02*
X5543615Y-7812374D01*
X5543615Y-7812374D02*
X5543615Y-7859993D01*
X5543615Y-7859993D02*
X5534091Y-7898088D01*
X5534091Y-7898088D02*
X5524568Y-7917136D01*
X5524568Y-7917136D02*
X5515044Y-7926660D01*
X5515044Y-7926660D02*
X5495996Y-7936184D01*
X5495996Y-7936184D02*
X5476948Y-7936184D01*
X5476948Y-7936184D02*
X5457901Y-7926660D01*
X5457901Y-7926660D02*
X5448377Y-7917136D01*
X5448377Y-7917136D02*
X5438853Y-7898088D01*
X5438853Y-7898088D02*
X5429329Y-7859993D01*
X5429329Y-7859993D02*
X5429329Y-7812374D01*
X5429329Y-7812374D02*
X5438853Y-7774279D01*
X5438853Y-7774279D02*
X5448377Y-7755231D01*
X5448377Y-7755231D02*
X5457901Y-7745708D01*
X5457901Y-7745708D02*
X5476948Y-7736184D01*
X5610282Y-7736184D02*
X5734091Y-7736184D01*
X5734091Y-7736184D02*
X5667425Y-7812374D01*
X5667425Y-7812374D02*
X5695996Y-7812374D01*
X5695996Y-7812374D02*
X5715044Y-7821898D01*
X5715044Y-7821898D02*
X5724567Y-7831422D01*
X5724567Y-7831422D02*
X5734091Y-7850469D01*
X5734091Y-7850469D02*
X5734091Y-7898088D01*
X5734091Y-7898088D02*
X5724567Y-7917136D01*
X5724567Y-7917136D02*
X5715044Y-7926660D01*
X5715044Y-7926660D02*
X5695996Y-7936184D01*
X5695996Y-7936184D02*
X5638853Y-7936184D01*
X5638853Y-7936184D02*
X5619806Y-7926660D01*
X5619806Y-7926660D02*
X5610282Y-7917136D01*
X5829329Y-7936184D02*
X5867425Y-7936184D01*
X5867425Y-7936184D02*
X5886472Y-7926660D01*
X5886472Y-7926660D02*
X5895996Y-7917136D01*
X5895996Y-7917136D02*
X5915044Y-7888565D01*
X5915044Y-7888565D02*
X5924567Y-7850469D01*
X5924567Y-7850469D02*
X5924567Y-7774279D01*
X5924567Y-7774279D02*
X5915044Y-7755231D01*
X5915044Y-7755231D02*
X5905520Y-7745708D01*
X5905520Y-7745708D02*
X5886472Y-7736184D01*
X5886472Y-7736184D02*
X5848377Y-7736184D01*
X5848377Y-7736184D02*
X5829329Y-7745708D01*
X5829329Y-7745708D02*
X5819806Y-7755231D01*
X5819806Y-7755231D02*
X5810282Y-7774279D01*
X5810282Y-7774279D02*
X5810282Y-7821898D01*
X5810282Y-7821898D02*
X5819806Y-7840946D01*
X5819806Y-7840946D02*
X5829329Y-7850469D01*
X5829329Y-7850469D02*
X5848377Y-7859993D01*
X5848377Y-7859993D02*
X5886472Y-7859993D01*
X5886472Y-7859993D02*
X5905520Y-7850469D01*
X5905520Y-7850469D02*
X5915044Y-7840946D01*
X5915044Y-7840946D02*
X5924567Y-7821898D01*
X6095996Y-7802850D02*
X6095996Y-7936184D01*
X6048377Y-7726660D02*
X6000758Y-7869517D01*
X6000758Y-7869517D02*
X6124567Y-7869517D01*
X6191234Y-7736184D02*
X6191234Y-7774279D01*
X6267425Y-7736184D02*
X6267425Y-7774279D01*
X6562663Y-8012374D02*
X6553139Y-8002850D01*
X6553139Y-8002850D02*
X6534091Y-7974279D01*
X6534091Y-7974279D02*
X6524568Y-7955231D01*
X6524568Y-7955231D02*
X6515044Y-7926660D01*
X6515044Y-7926660D02*
X6505520Y-7879041D01*
X6505520Y-7879041D02*
X6505520Y-7840946D01*
X6505520Y-7840946D02*
X6515044Y-7793327D01*
X6515044Y-7793327D02*
X6524568Y-7764755D01*
X6524568Y-7764755D02*
X6534091Y-7745708D01*
X6534091Y-7745708D02*
X6553139Y-7717136D01*
X6553139Y-7717136D02*
X6562663Y-7707612D01*
X6724568Y-7802850D02*
X6724568Y-7936184D01*
X6676948Y-7726660D02*
X6629329Y-7869517D01*
X6629329Y-7869517D02*
X6753139Y-7869517D01*
X6981710Y-7936184D02*
X6981710Y-7736184D01*
X7067425Y-7936184D02*
X7067425Y-7831422D01*
X7067425Y-7831422D02*
X7057901Y-7812374D01*
X7057901Y-7812374D02*
X7038853Y-7802850D01*
X7038853Y-7802850D02*
X7010282Y-7802850D01*
X7010282Y-7802850D02*
X6991234Y-7812374D01*
X6991234Y-7812374D02*
X6981710Y-7821898D01*
X7191234Y-7936184D02*
X7172187Y-7926660D01*
X7172187Y-7926660D02*
X7162663Y-7917136D01*
X7162663Y-7917136D02*
X7153139Y-7898088D01*
X7153139Y-7898088D02*
X7153139Y-7840946D01*
X7153139Y-7840946D02*
X7162663Y-7821898D01*
X7162663Y-7821898D02*
X7172187Y-7812374D01*
X7172187Y-7812374D02*
X7191234Y-7802850D01*
X7191234Y-7802850D02*
X7219806Y-7802850D01*
X7219806Y-7802850D02*
X7238853Y-7812374D01*
X7238853Y-7812374D02*
X7248377Y-7821898D01*
X7248377Y-7821898D02*
X7257901Y-7840946D01*
X7257901Y-7840946D02*
X7257901Y-7898088D01*
X7257901Y-7898088D02*
X7248377Y-7917136D01*
X7248377Y-7917136D02*
X7238853Y-7926660D01*
X7238853Y-7926660D02*
X7219806Y-7936184D01*
X7219806Y-7936184D02*
X7191234Y-7936184D01*
X7372187Y-7936184D02*
X7353139Y-7926660D01*
X7353139Y-7926660D02*
X7343615Y-7907612D01*
X7343615Y-7907612D02*
X7343615Y-7736184D01*
X7524568Y-7926660D02*
X7505520Y-7936184D01*
X7505520Y-7936184D02*
X7467425Y-7936184D01*
X7467425Y-7936184D02*
X7448377Y-7926660D01*
X7448377Y-7926660D02*
X7438853Y-7907612D01*
X7438853Y-7907612D02*
X7438853Y-7831422D01*
X7438853Y-7831422D02*
X7448377Y-7812374D01*
X7448377Y-7812374D02*
X7467425Y-7802850D01*
X7467425Y-7802850D02*
X7505520Y-7802850D01*
X7505520Y-7802850D02*
X7524568Y-7812374D01*
X7524568Y-7812374D02*
X7534091Y-7831422D01*
X7534091Y-7831422D02*
X7534091Y-7850469D01*
X7534091Y-7850469D02*
X7438853Y-7869517D01*
X7610282Y-7926660D02*
X7629330Y-7936184D01*
X7629330Y-7936184D02*
X7667425Y-7936184D01*
X7667425Y-7936184D02*
X7686472Y-7926660D01*
X7686472Y-7926660D02*
X7695996Y-7907612D01*
X7695996Y-7907612D02*
X7695996Y-7898088D01*
X7695996Y-7898088D02*
X7686472Y-7879041D01*
X7686472Y-7879041D02*
X7667425Y-7869517D01*
X7667425Y-7869517D02*
X7638853Y-7869517D01*
X7638853Y-7869517D02*
X7619806Y-7859993D01*
X7619806Y-7859993D02*
X7610282Y-7840946D01*
X7610282Y-7840946D02*
X7610282Y-7831422D01*
X7610282Y-7831422D02*
X7619806Y-7812374D01*
X7619806Y-7812374D02*
X7638853Y-7802850D01*
X7638853Y-7802850D02*
X7667425Y-7802850D01*
X7667425Y-7802850D02*
X7686472Y-7812374D01*
X7762663Y-8012374D02*
X7772187Y-8002850D01*
X7772187Y-8002850D02*
X7791234Y-7974279D01*
X7791234Y-7974279D02*
X7800758Y-7955231D01*
X7800758Y-7955231D02*
X7810282Y-7926660D01*
X7810282Y-7926660D02*
X7819806Y-7879041D01*
X7819806Y-7879041D02*
X7819806Y-7840946D01*
X7819806Y-7840946D02*
X7810282Y-7793327D01*
X7810282Y-7793327D02*
X7800758Y-7764755D01*
X7800758Y-7764755D02*
X7791234Y-7745708D01*
X7791234Y-7745708D02*
X7772187Y-7717136D01*
X7772187Y-7717136D02*
X7762663Y-7707612D01*
M02*
